<?xml version="1.0" encoding="utf-8" standalone="no"?>
<!DOCTYPE svg PUBLIC "-//W3C//DTD SVG 1.1//EN"
  "http://www.w3.org/Graphics/SVG/1.1/DTD/svg11.dtd">
<svg height="239.458216pt" version="1.1" viewBox="0 0 618.269316 239.458216" width="618.269316pt" xmlns="http://www.w3.org/2000/svg" xmlns:xlink="http://www.w3.org/1999/xlink">
 <metadata>
  <rdf:RDF xmlns:cc="http://creativecommons.org/ns#" xmlns:dc="http://purl.org/dc/elements/1.1/" xmlns:rdf="http://www.w3.org/1999/02/22-rdf-syntax-ns#">
   <cc:Work>
    <dc:type rdf:resource="http://purl.org/dc/dcmitype/StillImage"/>
    <dc:date>2022-08-12T16:56:00.383662</dc:date>
    <dc:format>image/svg+xml</dc:format>
    <dc:creator>
     <cc:Agent>
      <dc:title>Matplotlib v3.4.2, https://matplotlib.org/</dc:title>
     </cc:Agent>
    </dc:creator>
   </cc:Work>
  </rdf:RDF>
 </metadata>
 <defs>
  <style type="text/css">*{stroke-linecap:butt;stroke-linejoin:round;}</style>
 </defs>
 <g id="figure_1">
  <g id="patch_1">
   <path d="M 0 239.458216 
L 618.269316 239.458216 
L 618.269316 0 
L 0 0 
z
" style="fill:#ffffff;"/>
  </g>
  <g id="axes_1">
   <g id="patch_2">
    <path d="M 53.069316 202.439899 
L 611.069316 202.439899 
L 611.069316 36.119899 
L 53.069316 36.119899 
z
" style="fill:#ffffff;"/>
   </g>
   <g id="matplotlib.axis_1">
    <g id="xtick_1">
     <g id="line2d_1">
      <path clip-path="url(#p531beb4be3)" d="M 78.432953 202.439899 
L 78.432953 36.119899 
" style="fill:none;stroke:#b0b0b0;stroke-linecap:square;stroke-width:0.8;"/>
     </g>
     <g id="line2d_2">
      <defs>
       <path d="M 0 0 
L 0 3.5 
" id="m728944104a" style="stroke:#000000;stroke-width:0.8;"/>
      </defs>
      <g>
       <use style="stroke:#000000;stroke-width:0.8;" x="78.432953" xlink:href="#m728944104a" y="202.439899"/>
      </g>
     </g>
     <g id="text_1">
      <!-- $\mathdefault{0}$ -->
      <g transform="translate(75.942285 216.358397)scale(0.1 -0.1)">
       <defs>
        <path d="M 2688 2025 
C 2688 2416 2682 3080 2413 3591 
C 2176 4039 1798 4198 1466 4198 
C 1158 4198 768 4058 525 3597 
C 269 3118 243 2524 243 2025 
C 243 1661 250 1106 448 619 
C 723 -39 1216 -128 1466 -128 
C 1760 -128 2208 -7 2470 600 
C 2662 1042 2688 1559 2688 2025 
z
M 1466 -26 
C 1056 -26 813 325 723 812 
C 653 1188 653 1738 653 2096 
C 653 2588 653 2997 736 3387 
C 858 3929 1216 4096 1466 4096 
C 1728 4096 2067 3923 2189 3400 
C 2272 3036 2278 2607 2278 2096 
C 2278 1680 2278 1169 2202 792 
C 2067 95 1690 -26 1466 -26 
z
" id="CMR17-30" transform="scale(0.015625)"/>
       </defs>
       <use transform="scale(0.996264)" xlink:href="#CMR17-30"/>
      </g>
     </g>
    </g>
    <g id="xtick_2">
     <g id="line2d_3">
      <path clip-path="url(#p531beb4be3)" d="M 181.827595 202.439899 
L 181.827595 36.119899 
" style="fill:none;stroke:#b0b0b0;stroke-linecap:square;stroke-width:0.8;"/>
     </g>
     <g id="line2d_4">
      <g>
       <use style="stroke:#000000;stroke-width:0.8;" x="181.827595" xlink:href="#m728944104a" y="202.439899"/>
      </g>
     </g>
     <g id="text_2">
      <!-- $\mathdefault{5}$ -->
      <g transform="translate(179.336928 216.358397)scale(0.1 -0.1)">
       <defs>
        <path d="M 730 3692 
C 794 3666 1056 3584 1325 3584 
C 1920 3584 2246 3911 2432 4100 
C 2432 4157 2432 4192 2394 4192 
C 2387 4192 2374 4192 2323 4163 
C 2099 4058 1837 3973 1517 3973 
C 1325 3973 1037 3999 723 4139 
C 653 4171 640 4171 634 4171 
C 602 4171 595 4164 595 4037 
L 595 2203 
C 595 2089 595 2057 659 2057 
C 691 2057 704 2070 736 2114 
C 941 2401 1222 2522 1542 2522 
C 1766 2522 2246 2382 2246 1289 
C 2246 1085 2246 715 2054 421 
C 1894 159 1645 25 1370 25 
C 947 25 518 320 403 814 
C 429 807 480 795 506 795 
C 589 795 749 840 749 1038 
C 749 1210 627 1280 506 1280 
C 358 1280 262 1190 262 1011 
C 262 454 704 -128 1382 -128 
C 2042 -128 2669 440 2669 1264 
C 2669 2030 2170 2624 1549 2624 
C 1222 2624 947 2503 730 2274 
L 730 3692 
z
" id="CMR17-35" transform="scale(0.015625)"/>
       </defs>
       <use transform="scale(0.996264)" xlink:href="#CMR17-35"/>
      </g>
     </g>
    </g>
    <g id="xtick_3">
     <g id="line2d_5">
      <path clip-path="url(#p531beb4be3)" d="M 285.222238 202.439899 
L 285.222238 36.119899 
" style="fill:none;stroke:#b0b0b0;stroke-linecap:square;stroke-width:0.8;"/>
     </g>
     <g id="line2d_6">
      <g>
       <use style="stroke:#000000;stroke-width:0.8;" x="285.222238" xlink:href="#m728944104a" y="202.439899"/>
      </g>
     </g>
     <g id="text_3">
      <!-- $\mathdefault{10}$ -->
      <g transform="translate(280.240903 216.358397)scale(0.1 -0.1)">
       <defs>
        <path d="M 1702 4058 
C 1702 4192 1696 4192 1606 4192 
C 1357 3916 979 3827 621 3827 
C 602 3827 570 3827 563 3808 
C 557 3795 557 3782 557 3648 
C 755 3648 1088 3686 1344 3839 
L 1344 461 
C 1344 236 1331 160 781 160 
L 589 160 
L 589 0 
C 896 0 1216 0 1523 0 
C 1830 0 2150 0 2458 0 
L 2458 160 
L 2266 160 
C 1715 160 1702 230 1702 458 
L 1702 4058 
z
" id="CMR17-31" transform="scale(0.015625)"/>
       </defs>
       <use transform="scale(0.996264)" xlink:href="#CMR17-31"/>
       <use transform="translate(45.690477 0)scale(0.996264)" xlink:href="#CMR17-30"/>
      </g>
     </g>
    </g>
    <g id="xtick_4">
     <g id="line2d_7">
      <path clip-path="url(#p531beb4be3)" d="M 388.61688 202.439899 
L 388.61688 36.119899 
" style="fill:none;stroke:#b0b0b0;stroke-linecap:square;stroke-width:0.8;"/>
     </g>
     <g id="line2d_8">
      <g>
       <use style="stroke:#000000;stroke-width:0.8;" x="388.61688" xlink:href="#m728944104a" y="202.439899"/>
      </g>
     </g>
     <g id="text_4">
      <!-- $\mathdefault{15}$ -->
      <g transform="translate(383.635545 216.358397)scale(0.1 -0.1)">
       <use transform="scale(0.996264)" xlink:href="#CMR17-31"/>
       <use transform="translate(45.690477 0)scale(0.996264)" xlink:href="#CMR17-35"/>
      </g>
     </g>
    </g>
    <g id="xtick_5">
     <g id="line2d_9">
      <path clip-path="url(#p531beb4be3)" d="M 492.011523 202.439899 
L 492.011523 36.119899 
" style="fill:none;stroke:#b0b0b0;stroke-linecap:square;stroke-width:0.8;"/>
     </g>
     <g id="line2d_10">
      <g>
       <use style="stroke:#000000;stroke-width:0.8;" x="492.011523" xlink:href="#m728944104a" y="202.439899"/>
      </g>
     </g>
     <g id="text_5">
      <!-- $\mathdefault{20}$ -->
      <g transform="translate(487.030188 216.358397)scale(0.1 -0.1)">
       <defs>
        <path d="M 2669 989 
L 2554 989 
C 2490 536 2438 459 2413 420 
C 2381 369 1920 369 1830 369 
L 602 369 
C 832 619 1280 1072 1824 1597 
C 2214 1967 2669 2402 2669 3035 
C 2669 3790 2067 4224 1395 4224 
C 691 4224 262 3604 262 3030 
C 262 2780 448 2748 525 2748 
C 589 2748 781 2787 781 3010 
C 781 3207 614 3264 525 3264 
C 486 3264 448 3258 422 3245 
C 544 3790 915 4058 1306 4058 
C 1862 4058 2227 3617 2227 3035 
C 2227 2479 1901 2000 1536 1584 
L 262 146 
L 262 0 
L 2515 0 
L 2669 989 
z
" id="CMR17-32" transform="scale(0.015625)"/>
       </defs>
       <use transform="scale(0.996264)" xlink:href="#CMR17-32"/>
       <use transform="translate(45.690477 0)scale(0.996264)" xlink:href="#CMR17-30"/>
      </g>
     </g>
    </g>
    <g id="xtick_6">
     <g id="line2d_11">
      <path clip-path="url(#p531beb4be3)" d="M 595.406165 202.439899 
L 595.406165 36.119899 
" style="fill:none;stroke:#b0b0b0;stroke-linecap:square;stroke-width:0.8;"/>
     </g>
     <g id="line2d_12">
      <g>
       <use style="stroke:#000000;stroke-width:0.8;" x="595.406165" xlink:href="#m728944104a" y="202.439899"/>
      </g>
     </g>
     <g id="text_6">
      <!-- $\mathdefault{25}$ -->
      <g transform="translate(590.42483 216.358397)scale(0.1 -0.1)">
       <use transform="scale(0.996264)" xlink:href="#CMR17-32"/>
       <use transform="translate(45.690477 0)scale(0.996264)" xlink:href="#CMR17-35"/>
      </g>
     </g>
    </g>
    <g id="text_7">
     <!-- Time [s] since beginning of the task -->
     <g transform="translate(254.360587 229.767556)scale(0.1 -0.1)">
      <defs>
       <path d="M 3981 4326 
L 288 4326 
L 179 2918 
L 294 2918 
C 378 3976 467 4160 1453 4160 
C 1568 4160 1754 4160 1805 4154 
C 1926 4135 1926 4058 1926 3912 
L 1926 459 
C 1926 230 1907 160 1376 160 
L 1197 160 
L 1197 0 
C 1504 0 1824 0 2138 0 
C 2451 0 2771 0 3078 0 
L 3078 160 
L 2899 160 
C 2368 160 2349 230 2349 459 
L 2349 3912 
C 2349 4052 2349 4129 2464 4154 
C 2515 4160 2701 4160 2816 4160 
C 3795 4160 3891 3976 3974 2918 
L 4090 2918 
L 3981 4326 
z
" id="CMR17-54" transform="scale(0.015625)"/>
       <path d="M 992 3909 
C 992 4049 877 4170 730 4170 
C 589 4170 467 4056 467 3909 
C 467 3769 582 3648 730 3648 
C 870 3648 992 3763 992 3909 
z
M 243 2706 
L 243 2541 
C 602 2541 653 2502 653 2197 
L 653 427 
C 653 184 627 153 218 153 
L 218 -13 
C 371 0 646 0 806 0 
C 960 0 1222 0 1370 -13 
L 1370 153 
C 992 153 979 191 979 420 
L 979 2776 
L 243 2706 
z
" id="CMR17-69" transform="scale(0.015625)"/>
       <path d="M 4326 1933 
C 4326 2252 4269 2790 3507 2790 
C 3072 2790 2771 2496 2656 2151 
L 2650 2151 
C 2573 2676 2195 2790 1837 2790 
C 1331 2790 1069 2400 973 2144 
L 966 2144 
L 966 2790 
L 211 2720 
L 211 2554 
C 589 2554 646 2515 646 2208 
L 646 428 
C 646 184 621 153 211 153 
L 211 -13 
C 365 0 646 0 813 0 
C 979 0 1267 0 1421 -13 
L 1421 153 
C 1011 153 986 178 986 428 
L 986 1658 
C 986 2247 1344 2688 1792 2688 
C 2266 2688 2317 2266 2317 1958 
L 2317 428 
C 2317 184 2291 153 1882 153 
L 1882 -13 
C 2035 0 2317 0 2483 0 
C 2650 0 2938 0 3091 -13 
L 3091 153 
C 2682 153 2656 178 2656 428 
L 2656 1658 
C 2656 2247 3014 2688 3462 2688 
C 3936 2688 3987 2266 3987 1958 
L 3987 428 
C 3987 184 3962 153 3552 153 
L 3552 -13 
C 3706 0 3987 0 4154 0 
C 4320 0 4608 0 4762 -13 
L 4762 153 
C 4352 153 4326 178 4326 428 
L 4326 1933 
z
" id="CMR17-6d" transform="scale(0.015625)"/>
       <path d="M 2438 1472 
C 2464 1498 2464 1511 2464 1576 
C 2464 2238 2118 2816 1389 2816 
C 710 2816 173 2169 173 1383 
C 173 551 781 -64 1459 -64 
C 2176 -64 2458 607 2458 740 
C 2458 784 2419 784 2406 784 
C 2362 784 2355 771 2330 696 
C 2189 265 1837 51 1504 51 
C 1229 51 954 203 781 480 
C 582 803 582 1176 582 1472 
L 2438 1472 
z
M 589 1568 
C 634 2505 1126 2714 1382 2714 
C 1818 2714 2112 2297 2118 1568 
L 589 1568 
z
" id="CMR17-65" transform="scale(0.015625)"/>
       <path d="M 1504 -1600 
L 1504 -1377 
L 902 -1377 
L 902 4544 
L 1504 4544 
L 1504 4767 
L 678 4767 
L 678 -1600 
L 1504 -1600 
z
" id="CMR17-5b" transform="scale(0.015625)"/>
       <path d="M 1978 2697 
C 1978 2813 1971 2819 1933 2819 
C 1907 2819 1901 2813 1824 2717 
C 1805 2691 1747 2626 1728 2601 
C 1523 2819 1235 2819 1126 2819 
C 416 2819 160 2447 160 2076 
C 160 1498 813 1365 998 1325 
C 1402 1243 1542 1217 1677 1101 
C 1760 1025 1901 884 1901 654 
C 1901 384 1747 38 1158 38 
C 602 38 403 460 288 1021 
C 269 1110 269 1117 218 1117 
C 166 1117 160 1110 160 983 
L 160 63 
C 160 -51 166 -58 205 -58 
C 237 -58 243 -51 275 0 
C 314 57 410 211 448 276 
C 576 103 800 -64 1158 -64 
C 1792 -64 2131 283 2131 784 
C 2131 1112 1958 1285 1875 1362 
C 1683 1561 1459 1606 1190 1657 
C 838 1735 390 1825 390 2217 
C 390 2383 480 2737 1126 2737 
C 1811 2737 1850 2094 1862 1888 
C 1869 1856 1901 1849 1920 1849 
C 1978 1849 1978 1869 1978 1978 
L 1978 2697 
z
" id="CMR17-73" transform="scale(0.015625)"/>
       <path d="M 915 4767 
L 90 4767 
L 90 4544 
L 691 4544 
L 691 -1377 
L 90 -1377 
L 90 -1600 
L 915 -1600 
L 915 4767 
z
" id="CMR17-5d" transform="scale(0.015625)"/>
       <path d="M 2656 1933 
C 2656 2259 2592 2790 1837 2790 
C 1331 2790 1069 2400 973 2144 
L 966 2144 
L 966 2790 
L 211 2720 
L 211 2554 
C 589 2554 646 2515 646 2208 
L 646 428 
C 646 184 621 153 211 153 
L 211 -13 
C 365 0 646 0 813 0 
C 979 0 1267 0 1421 -13 
L 1421 153 
C 1011 153 986 178 986 428 
L 986 1658 
C 986 2247 1344 2688 1792 2688 
C 2266 2688 2317 2266 2317 1958 
L 2317 428 
C 2317 184 2291 153 1882 153 
L 1882 -13 
C 2035 0 2317 0 2483 0 
C 2650 0 2938 0 3091 -13 
L 3091 153 
C 2682 153 2656 178 2656 428 
L 2656 1933 
z
" id="CMR17-6e" transform="scale(0.015625)"/>
       <path d="M 2234 2240 
C 2112 2240 1933 2240 1933 2017 
C 1933 1838 2080 1787 2163 1787 
C 2208 1787 2394 1807 2394 2024 
C 2394 2467 1958 2803 1466 2803 
C 787 2803 211 2178 211 1363 
C 211 516 813 -64 1466 -64 
C 2259 -64 2458 677 2458 748 
C 2458 774 2451 793 2406 793 
C 2362 793 2355 787 2330 703 
C 2163 180 1798 51 1523 51 
C 1114 51 621 427 621 1369 
C 621 2338 1094 2688 1472 2688 
C 1722 2688 2093 2573 2234 2240 
z
" id="CMR17-63" transform="scale(0.015625)"/>
       <path d="M 960 4396 
L 198 4326 
L 198 4160 
C 576 4160 634 4122 634 3817 
L 634 -13 
L 749 -13 
L 934 441 
C 1120 141 1395 -64 1766 -64 
C 2406 -64 3053 500 3053 1370 
C 3053 2188 2477 2790 1830 2790 
C 1434 2790 1152 2579 960 2330 
L 960 4396 
z
M 973 2004 
C 973 2118 973 2138 1062 2272 
C 1312 2657 1670 2688 1792 2688 
C 1984 2688 2643 2585 2643 1376 
C 2643 108 1888 38 1734 38 
C 1536 38 1248 114 1043 486 
C 973 608 973 621 973 735 
L 973 2004 
z
" id="CMR17-62" transform="scale(0.015625)"/>
       <path d="M 710 1164 
C 832 1068 1043 960 1299 960 
C 1805 960 2240 1357 2240 1888 
C 2240 2054 2189 2310 1997 2509 
C 2176 2692 2438 2752 2586 2752 
C 2611 2752 2650 2752 2682 2734 
C 2656 2728 2598 2703 2598 2605 
C 2598 2527 2656 2471 2739 2471 
C 2835 2471 2886 2533 2886 2614 
C 2886 2731 2790 2854 2586 2854 
C 2330 2854 2106 2738 1926 2580 
C 1734 2753 1504 2816 1299 2816 
C 794 2816 358 2419 358 1888 
C 358 1522 570 1292 634 1228 
C 442 1004 442 743 442 711 
C 442 545 506 302 723 168 
C 390 85 128 -169 128 -486 
C 128 -943 736 -1280 1466 -1280 
C 2170 -1280 2803 -956 2803 -479 
C 2803 384 1856 384 1363 384 
C 1216 384 954 384 922 391 
C 723 423 589 602 589 826 
C 589 883 589 1024 710 1164 
z
M 1299 1068 
C 736 1068 736 1760 736 1889 
C 736 2016 736 2708 1299 2708 
C 1862 2708 1862 2016 1862 1889 
C 1862 1760 1862 1068 1299 1068 
z
M 1466 -1171 
C 826 -1171 384 -835 384 -486 
C 384 -289 493 -105 634 -4 
C 794 104 858 104 1293 104 
C 1818 104 2547 104 2547 -486 
C 2547 -835 2106 -1171 1466 -1171 
z
" id="CMR17-67" transform="scale(0.015625)"/>
       <path d="M 2758 1356 
C 2758 2176 2163 2816 1466 2816 
C 768 2816 173 2176 173 1356 
C 173 551 768 -64 1466 -64 
C 2163 -64 2758 551 2758 1356 
z
M 1466 51 
C 1165 51 909 230 762 480 
C 602 767 582 1126 582 1408 
C 582 1677 595 2010 762 2298 
C 890 2509 1139 2714 1466 2714 
C 1754 2714 1997 2554 2150 2330 
C 2349 2029 2349 1607 2349 1408 
C 2349 1158 2336 775 2163 467 
C 1984 173 1709 51 1466 51 
z
" id="CMR17-6f" transform="scale(0.015625)"/>
       <path d="M 979 2560 
L 1709 2560 
L 1709 2725 
L 966 2725 
L 966 3494 
C 966 4022 1235 4352 1510 4352 
C 1594 4352 1690 4327 1754 4282 
C 1702 4269 1568 4225 1568 4067 
C 1568 3901 1696 3850 1786 3850 
C 1875 3850 2003 3901 2003 4067 
C 2003 4308 1773 4454 1517 4454 
C 1152 4454 653 4156 653 3481 
L 653 2725 
L 141 2725 
L 141 2560 
L 653 2560 
L 653 427 
C 653 184 627 153 218 153 
L 218 -13 
C 371 0 666 0 832 0 
C 1018 0 1344 0 1517 -13 
L 1517 153 
C 1056 153 979 153 979 439 
L 979 2560 
z
" id="CMR17-66" transform="scale(0.015625)"/>
       <path d="M 966 2560 
L 1862 2560 
L 1862 2725 
L 966 2725 
L 966 3904 
L 851 3904 
C 838 3245 614 2668 70 2668 
L 70 2560 
L 627 2560 
L 627 771 
C 627 650 627 -64 1370 -64 
C 1747 -64 1965 306 1965 777 
L 1965 1140 
L 1850 1140 
L 1850 783 
C 1850 344 1677 51 1408 51 
C 1222 51 966 178 966 758 
L 966 2560 
z
" id="CMR17-74" transform="scale(0.015625)"/>
       <path d="M 2656 1933 
C 2656 2259 2592 2790 1837 2790 
C 1312 2790 1056 2368 979 2157 
L 973 2157 
L 973 4396 
L 211 4326 
L 211 4160 
C 589 4160 646 4122 646 3817 
L 646 426 
C 646 184 621 153 211 153 
L 211 -13 
C 365 0 646 0 813 0 
C 979 0 1267 0 1421 -13 
L 1421 153 
C 1011 153 986 178 986 428 
L 986 1658 
C 986 2247 1344 2688 1792 2688 
C 2266 2688 2317 2266 2317 1958 
L 2317 428 
C 2317 184 2291 153 1882 153 
L 1882 -13 
C 2035 0 2317 0 2483 0 
C 2650 0 2938 0 3091 -13 
L 3091 153 
C 2682 153 2656 178 2656 428 
L 2656 1933 
z
" id="CMR17-68" transform="scale(0.015625)"/>
       <path d="M 2304 1653 
C 2304 2072 2304 2294 2035 2543 
C 1798 2752 1523 2816 1306 2816 
C 800 2816 435 2407 435 1971 
C 435 1728 627 1728 666 1728 
C 749 1728 896 1778 896 1954 
C 896 2112 774 2181 666 2181 
C 640 2181 608 2174 589 2168 
C 723 2592 1069 2714 1293 2714 
C 1613 2714 1965 2429 1965 1885 
L 1965 1600 
C 1587 1600 1133 1549 774 1357 
C 371 1133 256 813 256 570 
C 256 77 832 -64 1171 -64 
C 1523 -64 1850 139 1990 511 
C 2003 233 2182 -18 2464 -18 
C 2598 -18 2938 70 2938 567 
L 2938 920 
L 2822 920 
L 2822 562 
C 2822 178 2650 128 2566 128 
C 2304 128 2304 458 2304 738 
L 2304 1653 
z
M 1965 870 
C 1965 317 1568 38 1216 38 
C 896 38 646 275 646 570 
C 646 761 730 1100 1101 1305 
C 1408 1478 1760 1504 1965 1504 
L 1965 870 
z
" id="CMR17-61" transform="scale(0.015625)"/>
       <path d="M 1670 1673 
C 1664 1686 1632 1724 1632 1743 
C 1632 1756 2086 2171 2144 2222 
C 2509 2528 2739 2560 2906 2560 
L 2906 2733 
C 2867 2733 2854 2733 2848 2720 
L 2534 2720 
C 2355 2720 2080 2720 1907 2733 
L 1907 2566 
C 1997 2559 2061 2508 2061 2419 
C 2061 2291 1933 2170 1926 2170 
L 960 1289 
L 960 4396 
L 198 4326 
L 198 4160 
C 576 4160 634 4122 634 3817 
L 634 426 
C 634 184 608 153 198 153 
L 198 -13 
C 352 0 634 0 794 0 
C 954 0 1235 0 1389 -13 
L 1389 153 
C 979 153 954 178 954 428 
L 954 1130 
L 1395 1532 
L 2042 574 
C 2118 459 2182 369 2182 286 
C 2182 172 2067 153 1990 153 
L 1990 -13 
C 2144 0 2419 0 2579 0 
C 2694 0 2931 0 3040 0 
L 3040 153 
C 2739 153 2669 210 2477 491 
L 1670 1673 
z
" id="CMR17-6b" transform="scale(0.015625)"/>
      </defs>
      <use transform="scale(0.996264)" xlink:href="#CMR17-54"/>
      <use transform="translate(66.509881 0)scale(0.996264)" xlink:href="#CMR17-69"/>
      <use transform="translate(91.380939 0)scale(0.996264)" xlink:href="#CMR17-6d"/>
      <use transform="translate(168.300529 0)scale(0.996264)" xlink:href="#CMR17-65"/>
      <use transform="translate(238.862156 0)scale(0.996264)" xlink:href="#CMR17-5b"/>
      <use transform="translate(263.733214 0)scale(0.996264)" xlink:href="#CMR17-73"/>
      <use transform="translate(299.534552 0)scale(0.996264)" xlink:href="#CMR17-5d"/>
      <use transform="translate(354.481577 0)scale(0.996264)" xlink:href="#CMR17-73"/>
      <use transform="translate(390.282914 0)scale(0.996264)" xlink:href="#CMR17-69"/>
      <use transform="translate(415.153973 0)scale(0.996264)" xlink:href="#CMR17-6e"/>
      <use transform="translate(466.049343 0)scale(0.996264)" xlink:href="#CMR17-63"/>
      <use transform="translate(506.535003 0)scale(0.996264)" xlink:href="#CMR17-65"/>
      <use transform="translate(577.09663 0)scale(0.996264)" xlink:href="#CMR17-62"/>
      <use transform="translate(630.594438 0)scale(0.996264)" xlink:href="#CMR17-65"/>
      <use transform="translate(671.080099 0)scale(0.996264)" xlink:href="#CMR17-67"/>
      <use transform="translate(716.770576 0)scale(0.996264)" xlink:href="#CMR17-69"/>
      <use transform="translate(741.641634 0)scale(0.996264)" xlink:href="#CMR17-6e"/>
      <use transform="translate(792.537004 0)scale(0.996264)" xlink:href="#CMR17-6e"/>
      <use transform="translate(843.432374 0)scale(0.996264)" xlink:href="#CMR17-69"/>
      <use transform="translate(868.303432 0)scale(0.996264)" xlink:href="#CMR17-6e"/>
      <use transform="translate(919.198802 0)scale(0.996264)" xlink:href="#CMR17-67"/>
      <use transform="translate(994.965246 0)scale(0.996264)" xlink:href="#CMR17-6f"/>
      <use transform="translate(1040.655723 0)scale(0.996264)" xlink:href="#CMR17-66"/>
      <use transform="translate(1098.205202 0)scale(0.996264)" xlink:href="#CMR17-74"/>
      <use transform="translate(1133.485969 0)scale(0.996264)" xlink:href="#CMR17-68"/>
      <use transform="translate(1184.381339 0)scale(0.996264)" xlink:href="#CMR17-65"/>
      <use transform="translate(1254.942966 0)scale(0.996264)" xlink:href="#CMR17-74"/>
      <use transform="translate(1290.223734 0)scale(0.996264)" xlink:href="#CMR17-61"/>
      <use transform="translate(1335.914211 0)scale(0.996264)" xlink:href="#CMR17-73"/>
      <use transform="translate(1371.715549 0)scale(0.996264)" xlink:href="#CMR17-6b"/>
     </g>
    </g>
   </g>
   <g id="matplotlib.axis_2">
    <g id="ytick_1">
     <g id="line2d_13">
      <path clip-path="url(#p531beb4be3)" d="M 53.069316 198.043395 
L 611.069316 198.043395 
" style="fill:none;stroke:#b0b0b0;stroke-linecap:square;stroke-width:0.8;"/>
     </g>
     <g id="line2d_14">
      <defs>
       <path d="M 0 0 
L -3.5 0 
" id="mdf13a6aa56" style="stroke:#000000;stroke-width:0.8;"/>
      </defs>
      <g>
       <use style="stroke:#000000;stroke-width:0.8;" x="53.069316" xlink:href="#mdf13a6aa56" y="198.043395"/>
      </g>
     </g>
     <g id="text_8">
      <!-- $\mathdefault{0}$ -->
      <g transform="translate(41.087981 201.502644)scale(0.1 -0.1)">
       <use transform="scale(0.996264)" xlink:href="#CMR17-30"/>
      </g>
     </g>
    </g>
    <g id="ytick_2">
     <g id="line2d_15">
      <path clip-path="url(#p531beb4be3)" d="M 53.069316 170.959039 
L 611.069316 170.959039 
" style="fill:none;stroke:#b0b0b0;stroke-linecap:square;stroke-width:0.8;"/>
     </g>
     <g id="line2d_16">
      <g>
       <use style="stroke:#000000;stroke-width:0.8;" x="53.069316" xlink:href="#mdf13a6aa56" y="170.959039"/>
      </g>
     </g>
     <g id="text_9">
      <!-- $\mathdefault{10000}$ -->
      <g transform="translate(21.16264 174.418288)scale(0.1 -0.1)">
       <use transform="scale(0.996264)" xlink:href="#CMR17-31"/>
       <use transform="translate(45.690477 0)scale(0.996264)" xlink:href="#CMR17-30"/>
       <use transform="translate(91.380954 0)scale(0.996264)" xlink:href="#CMR17-30"/>
       <use transform="translate(137.071431 0)scale(0.996264)" xlink:href="#CMR17-30"/>
       <use transform="translate(182.761908 0)scale(0.996264)" xlink:href="#CMR17-30"/>
      </g>
     </g>
    </g>
    <g id="ytick_3">
     <g id="line2d_17">
      <path clip-path="url(#p531beb4be3)" d="M 53.069316 143.874683 
L 611.069316 143.874683 
" style="fill:none;stroke:#b0b0b0;stroke-linecap:square;stroke-width:0.8;"/>
     </g>
     <g id="line2d_18">
      <g>
       <use style="stroke:#000000;stroke-width:0.8;" x="53.069316" xlink:href="#mdf13a6aa56" y="143.874683"/>
      </g>
     </g>
     <g id="text_10">
      <!-- $\mathdefault{20000}$ -->
      <g transform="translate(21.16264 147.333932)scale(0.1 -0.1)">
       <use transform="scale(0.996264)" xlink:href="#CMR17-32"/>
       <use transform="translate(45.690477 0)scale(0.996264)" xlink:href="#CMR17-30"/>
       <use transform="translate(91.380954 0)scale(0.996264)" xlink:href="#CMR17-30"/>
       <use transform="translate(137.071431 0)scale(0.996264)" xlink:href="#CMR17-30"/>
       <use transform="translate(182.761908 0)scale(0.996264)" xlink:href="#CMR17-30"/>
      </g>
     </g>
    </g>
    <g id="ytick_4">
     <g id="line2d_19">
      <path clip-path="url(#p531beb4be3)" d="M 53.069316 116.790326 
L 611.069316 116.790326 
" style="fill:none;stroke:#b0b0b0;stroke-linecap:square;stroke-width:0.8;"/>
     </g>
     <g id="line2d_20">
      <g>
       <use style="stroke:#000000;stroke-width:0.8;" x="53.069316" xlink:href="#mdf13a6aa56" y="116.790326"/>
      </g>
     </g>
     <g id="text_11">
      <!-- $\mathdefault{30000}$ -->
      <g transform="translate(21.16264 120.249576)scale(0.1 -0.1)">
       <defs>
        <path d="M 1414 2157 
C 1984 2157 2234 1662 2234 1090 
C 2234 320 1824 25 1453 25 
C 1114 25 563 194 390 693 
C 422 680 454 680 486 680 
C 640 680 755 782 755 948 
C 755 1133 614 1216 486 1216 
C 378 1216 211 1165 211 926 
C 211 335 787 -128 1466 -128 
C 2176 -128 2720 430 2720 1085 
C 2720 1707 2208 2157 1600 2227 
C 2086 2328 2554 2756 2554 3329 
C 2554 3820 2048 4179 1472 4179 
C 890 4179 378 3829 378 3329 
C 378 3110 544 3072 627 3072 
C 762 3072 877 3155 877 3321 
C 877 3486 762 3569 627 3569 
C 602 3569 570 3569 544 3557 
C 730 3959 1235 4032 1459 4032 
C 1683 4032 2106 3925 2106 3320 
C 2106 3143 2080 2828 1862 2550 
C 1670 2304 1453 2304 1242 2284 
C 1210 2284 1062 2269 1037 2269 
C 992 2263 966 2257 966 2208 
C 966 2163 973 2157 1101 2157 
L 1414 2157 
z
" id="CMR17-33" transform="scale(0.015625)"/>
       </defs>
       <use transform="scale(0.996264)" xlink:href="#CMR17-33"/>
       <use transform="translate(45.690477 0)scale(0.996264)" xlink:href="#CMR17-30"/>
       <use transform="translate(91.380954 0)scale(0.996264)" xlink:href="#CMR17-30"/>
       <use transform="translate(137.071431 0)scale(0.996264)" xlink:href="#CMR17-30"/>
       <use transform="translate(182.761908 0)scale(0.996264)" xlink:href="#CMR17-30"/>
      </g>
     </g>
    </g>
    <g id="ytick_5">
     <g id="line2d_21">
      <path clip-path="url(#p531beb4be3)" d="M 53.069316 89.70597 
L 611.069316 89.70597 
" style="fill:none;stroke:#b0b0b0;stroke-linecap:square;stroke-width:0.8;"/>
     </g>
     <g id="line2d_22">
      <g>
       <use style="stroke:#000000;stroke-width:0.8;" x="53.069316" xlink:href="#mdf13a6aa56" y="89.70597"/>
      </g>
     </g>
     <g id="text_12">
      <!-- $\mathdefault{40000}$ -->
      <g transform="translate(21.16264 93.165219)scale(0.1 -0.1)">
       <defs>
        <path d="M 2150 4122 
C 2150 4256 2144 4256 2029 4256 
L 128 1254 
L 128 1088 
L 1779 1088 
L 1779 457 
C 1779 224 1766 160 1318 160 
L 1197 160 
L 1197 0 
C 1402 0 1747 0 1965 0 
C 2182 0 2528 0 2733 0 
L 2733 160 
L 2611 160 
C 2163 160 2150 224 2150 457 
L 2150 1088 
L 2803 1088 
L 2803 1254 
L 2150 1254 
L 2150 4122 
z
M 1798 3703 
L 1798 1254 
L 256 1254 
L 1798 3703 
z
" id="CMR17-34" transform="scale(0.015625)"/>
       </defs>
       <use transform="scale(0.996264)" xlink:href="#CMR17-34"/>
       <use transform="translate(45.690477 0)scale(0.996264)" xlink:href="#CMR17-30"/>
       <use transform="translate(91.380954 0)scale(0.996264)" xlink:href="#CMR17-30"/>
       <use transform="translate(137.071431 0)scale(0.996264)" xlink:href="#CMR17-30"/>
       <use transform="translate(182.761908 0)scale(0.996264)" xlink:href="#CMR17-30"/>
      </g>
     </g>
    </g>
    <g id="ytick_6">
     <g id="line2d_23">
      <path clip-path="url(#p531beb4be3)" d="M 53.069316 62.621614 
L 611.069316 62.621614 
" style="fill:none;stroke:#b0b0b0;stroke-linecap:square;stroke-width:0.8;"/>
     </g>
     <g id="line2d_24">
      <g>
       <use style="stroke:#000000;stroke-width:0.8;" x="53.069316" xlink:href="#mdf13a6aa56" y="62.621614"/>
      </g>
     </g>
     <g id="text_13">
      <!-- $\mathdefault{50000}$ -->
      <g transform="translate(21.16264 66.080863)scale(0.1 -0.1)">
       <use transform="scale(0.996264)" xlink:href="#CMR17-35"/>
       <use transform="translate(45.690477 0)scale(0.996264)" xlink:href="#CMR17-30"/>
       <use transform="translate(91.380954 0)scale(0.996264)" xlink:href="#CMR17-30"/>
       <use transform="translate(137.071431 0)scale(0.996264)" xlink:href="#CMR17-30"/>
       <use transform="translate(182.761908 0)scale(0.996264)" xlink:href="#CMR17-30"/>
      </g>
     </g>
    </g>
    <g id="text_14">
     <!-- Angular error to preop-planned trajectory [degrees] -->
     <g transform="translate(14.67198 231.359797)rotate(-90)scale(0.1 -0.1)">
      <defs>
       <path d="M 2323 4378 
C 2291 4461 2278 4480 2214 4480 
C 2150 4480 2138 4461 2106 4378 
L 749 566 
C 627 223 371 153 147 153 
L 147 -13 
C 262 0 518 0 640 0 
C 800 0 1056 0 1210 -13 
L 1210 153 
C 909 153 864 361 864 439 
C 864 497 877 530 890 569 
L 1229 1536 
L 2906 1536 
L 3290 442 
C 3322 365 3322 352 3322 327 
C 3322 153 3046 153 2925 153 
L 2925 0 
C 3110 0 3443 0 3642 0 
C 3808 0 4128 0 4282 -13 
L 4282 153 
C 3942 153 3827 153 3744 387 
L 2323 4378 
z
M 2067 3893 
L 2848 1702 
L 1286 1702 
L 2067 3893 
z
" id="CMR17-41" transform="scale(0.015625)"/>
       <path d="M 1882 2693 
L 1882 2528 
C 2259 2528 2317 2489 2317 2186 
L 2317 1032 
C 2317 500 2029 38 1555 38 
C 1030 38 986 348 986 678 
L 986 2763 
L 211 2693 
L 211 2528 
C 467 2528 640 2528 646 2274 
L 646 1058 
C 646 633 646 361 813 183 
C 896 101 1056 -64 1517 -64 
C 2061 -64 2272 377 2323 506 
L 2330 506 
L 2330 -63 
L 3091 -63 
L 3091 128 
C 2714 128 2656 166 2656 473 
L 2656 2763 
L 1882 2693 
z
" id="CMR17-75" transform="scale(0.015625)"/>
       <path d="M 979 4396 
L 218 4326 
L 218 4160 
C 595 4160 653 4122 653 3817 
L 653 426 
C 653 184 627 153 218 153 
L 218 -13 
C 371 0 653 0 813 0 
C 979 0 1261 0 1414 -13 
L 1414 153 
C 1005 153 979 178 979 426 
L 979 4396 
z
" id="CMR17-6c" transform="scale(0.015625)"/>
       <path d="M 960 1497 
C 960 2112 1222 2688 1702 2688 
C 1747 2688 1792 2682 1837 2662 
C 1837 2662 1696 2617 1696 2452 
C 1696 2298 1818 2234 1914 2234 
C 1990 2234 2131 2279 2131 2458 
C 2131 2663 1926 2790 1709 2790 
C 1222 2790 1011 2317 947 2093 
L 941 2093 
L 941 2790 
L 198 2720 
L 198 2554 
C 576 2554 634 2515 634 2208 
L 634 428 
C 634 184 608 153 198 153 
L 198 -13 
C 352 0 646 0 813 0 
C 998 0 1325 0 1498 -13 
L 1498 153 
C 1037 153 960 153 960 440 
L 960 1497 
z
" id="CMR17-72" transform="scale(0.015625)"/>
       <path d="M 1408 -1063 
C 998 -1063 973 -1037 973 -789 
L 973 402 
C 1158 134 1427 -38 1766 -38 
C 2406 -38 3053 523 3053 1388 
C 3053 2191 2496 2802 1837 2802 
C 1453 2802 1139 2592 960 2338 
L 960 2802 
L 198 2732 
L 198 2567 
C 576 2567 634 2528 634 2223 
L 634 -789 
C 634 -1031 608 -1063 198 -1063 
L 198 -1228 
C 352 -1216 634 -1216 800 -1216 
C 966 -1216 1254 -1216 1408 -1228 
L 1408 -1063 
z
M 973 2012 
C 973 2102 973 2235 1222 2471 
C 1254 2497 1472 2688 1792 2688 
C 2259 2688 2643 2108 2643 1382 
C 2643 656 2234 64 1728 64 
C 1498 64 1248 172 1056 472 
C 973 612 973 650 973 752 
L 973 2012 
z
" id="CMR17-70" transform="scale(0.015625)"/>
       <path d="M 1632 1216 
L 1632 1496 
L 26 1496 
L 26 1216 
L 1632 1216 
z
" id="CMR17-2d" transform="scale(0.015625)"/>
       <path d="M 1869 4326 
L 1869 4160 
C 2246 4160 2304 4122 2304 3820 
L 2304 2345 
C 2278 2377 2016 2790 1498 2790 
C 845 2790 211 2208 211 1364 
C 211 525 806 -64 1434 -64 
C 1978 -64 2259 337 2291 380 
L 2291 -63 
L 3066 -63 
L 3066 128 
C 2688 128 2630 166 2630 473 
L 2630 4396 
L 1869 4326 
z
M 2291 755 
C 2291 563 2176 390 2029 262 
C 1811 70 1594 38 1472 38 
C 1286 38 621 134 621 1356 
C 621 2612 1363 2688 1530 2688 
C 1824 2688 2061 2522 2208 2291 
C 2291 2157 2291 2138 2291 2023 
L 2291 755 
z
" id="CMR17-64" transform="scale(0.015625)"/>
       <path d="M 1165 3963 
C 1165 4103 1050 4224 902 4224 
C 762 4224 640 4110 640 3963 
C 640 3823 755 3702 902 3702 
C 1043 3702 1165 3817 1165 3963 
z
M 365 2754 
L 365 2588 
C 787 2588 838 2543 838 2235 
L 838 -359 
C 838 -678 781 -1178 403 -1178 
C 358 -1178 186 -1178 45 -1082 
C 90 -1075 250 -1031 250 -851 
C 250 -729 166 -621 19 -621 
C -122 -621 -211 -717 -211 -858 
C -211 -1114 70 -1280 397 -1280 
C 838 -1280 1165 -877 1165 -332 
L 1165 2825 
L 365 2754 
z
" id="CMR17-6a" transform="scale(0.015625)"/>
       <path d="M 2496 2197 
C 2656 2586 2944 2586 3034 2586 
L 3034 2752 
C 2912 2752 2752 2752 2630 2752 
C 2496 2752 2285 2752 2157 2758 
L 2157 2592 
C 2400 2573 2406 2394 2406 2343 
C 2406 2280 2394 2248 2362 2171 
L 1664 449 
L 902 2306 
C 870 2382 870 2426 870 2433 
C 870 2573 1018 2586 1171 2586 
L 1171 2758 
C 1018 2752 742 2752 582 2752 
C 410 2752 205 2752 64 2758 
L 64 2586 
C 410 2586 448 2554 531 2350 
L 1485 15 
C 1197 -738 1030 -1178 627 -1178 
C 557 -1178 397 -1159 282 -1044 
C 429 -1031 493 -942 493 -833 
C 493 -725 416 -629 288 -629 
C 147 -629 77 -725 77 -840 
C 77 -1095 339 -1280 627 -1280 
C 998 -1280 1229 -922 1357 -604 
L 2496 2197 
z
" id="CMR17-79" transform="scale(0.015625)"/>
      </defs>
      <use transform="scale(0.996264)" xlink:href="#CMR17-41"/>
      <use transform="translate(69.07243 0)scale(0.996264)" xlink:href="#CMR17-6e"/>
      <use transform="translate(119.9678 0)scale(0.996264)" xlink:href="#CMR17-67"/>
      <use transform="translate(165.658277 0)scale(0.996264)" xlink:href="#CMR17-75"/>
      <use transform="translate(216.553646 0)scale(0.996264)" xlink:href="#CMR17-6c"/>
      <use transform="translate(241.424705 0)scale(0.996264)" xlink:href="#CMR17-61"/>
      <use transform="translate(287.115182 0)scale(0.996264)" xlink:href="#CMR17-72"/>
      <use transform="translate(352.471916 0)scale(0.996264)" xlink:href="#CMR17-65"/>
      <use transform="translate(392.957577 0)scale(0.996264)" xlink:href="#CMR17-72"/>
      <use transform="translate(428.238344 0)scale(0.996264)" xlink:href="#CMR17-72"/>
      <use transform="translate(463.519112 0)scale(0.996264)" xlink:href="#CMR17-6f"/>
      <use transform="translate(509.209589 0)scale(0.996264)" xlink:href="#CMR17-72"/>
      <use transform="translate(574.566324 0)scale(0.996264)" xlink:href="#CMR17-74"/>
      <use transform="translate(609.847091 0)scale(0.996264)" xlink:href="#CMR17-6f"/>
      <use transform="translate(685.613535 0)scale(0.996264)" xlink:href="#CMR17-70"/>
      <use transform="translate(736.508905 0)scale(0.996264)" xlink:href="#CMR17-72"/>
      <use transform="translate(771.789672 0)scale(0.996264)" xlink:href="#CMR17-65"/>
      <use transform="translate(812.275333 0)scale(0.996264)" xlink:href="#CMR17-6f"/>
      <use transform="translate(857.96581 0)scale(0.996264)" xlink:href="#CMR17-70"/>
      <use transform="translate(908.86118 0)scale(0.996264)" xlink:href="#CMR17-2d"/>
      <use transform="translate(938.937146 0)scale(0.996264)" xlink:href="#CMR17-70"/>
      <use transform="translate(989.832516 0)scale(0.996264)" xlink:href="#CMR17-6c"/>
      <use transform="translate(1014.703574 0)scale(0.996264)" xlink:href="#CMR17-61"/>
      <use transform="translate(1060.394051 0)scale(0.996264)" xlink:href="#CMR17-6e"/>
      <use transform="translate(1111.289421 0)scale(0.996264)" xlink:href="#CMR17-6e"/>
      <use transform="translate(1162.184791 0)scale(0.996264)" xlink:href="#CMR17-65"/>
      <use transform="translate(1202.670452 0)scale(0.996264)" xlink:href="#CMR17-64"/>
      <use transform="translate(1283.641788 0)scale(0.996264)" xlink:href="#CMR17-74"/>
      <use transform="translate(1318.922555 0)scale(0.996264)" xlink:href="#CMR17-72"/>
      <use transform="translate(1354.203323 0)scale(0.996264)" xlink:href="#CMR17-61"/>
      <use transform="translate(1405.098602 0)scale(0.996264)" xlink:href="#CMR17-6a"/>
      <use transform="translate(1432.572114 0)scale(0.996264)" xlink:href="#CMR17-65"/>
      <use transform="translate(1473.057775 0)scale(0.996264)" xlink:href="#CMR17-63"/>
      <use transform="translate(1513.543435 0)scale(0.996264)" xlink:href="#CMR17-74"/>
      <use transform="translate(1548.824203 0)scale(0.996264)" xlink:href="#CMR17-6f"/>
      <use transform="translate(1594.51468 0)scale(0.996264)" xlink:href="#CMR17-72"/>
      <use transform="translate(1629.795448 0)scale(0.996264)" xlink:href="#CMR17-79"/>
      <use transform="translate(1708.16433 0)scale(0.996264)" xlink:href="#CMR17-5b"/>
      <use transform="translate(1733.035389 0)scale(0.996264)" xlink:href="#CMR17-64"/>
      <use transform="translate(1783.930758 0)scale(0.996264)" xlink:href="#CMR17-65"/>
      <use transform="translate(1824.416419 0)scale(0.996264)" xlink:href="#CMR17-67"/>
      <use transform="translate(1870.106896 0)scale(0.996264)" xlink:href="#CMR17-72"/>
      <use transform="translate(1905.387664 0)scale(0.996264)" xlink:href="#CMR17-65"/>
      <use transform="translate(1945.873324 0)scale(0.996264)" xlink:href="#CMR17-65"/>
      <use transform="translate(1986.358985 0)scale(0.996264)" xlink:href="#CMR17-73"/>
      <use transform="translate(2022.160322 0)scale(0.996264)" xlink:href="#CMR17-5d"/>
     </g>
    </g>
   </g>
   <g id="line2d_25">
    <path clip-path="url(#p531beb4be3)" d="M 78.432953 169.569828 
L 113.239725 169.569909 
L 113.667779 170.083997 
L 114.447375 171.597894 
L 115.154594 178.172532 
L 115.624006 178.171949 
L 116.757211 183.024838 
L 117.404461 185.059393 
L 123.68672 185.069577 
L 124.07962 185.504397 
L 124.507673 185.505315 
L 124.88403 185.06991 
L 125.322423 185.101628 
L 126.11029 184.284889 
L 126.54248 184.313227 
L 127.737722 183.05713 
L 128.196794 181.729577 
L 128.59383 181.900146 
L 128.980526 181.2808 
L 129.414783 181.239841 
L 129.83043 180.934993 
L 130.599686 179.574483 
L 130.942956 178.889287 
L 131.288294 178.851983 
L 131.697737 177.56887 
L 132.076161 177.353514 
L 132.388413 177.353514 
L 133.246589 176.536788 
L 133.656031 176.778235 
L 134.042727 175.377946 
L 134.634145 175.47405 
L 135.07047 175.823097 
L 135.494388 175.823162 
L 135.932781 176.365856 
L 136.323613 174.723502 
L 136.706173 174.463595 
L 137.125955 173.684353 
L 137.872465 175.21696 
L 138.199192 175.21696 
L 138.559005 175.396125 
L 138.922954 174.10467 
L 139.266225 175.781392 
L 139.626038 175.657259 
L 140.043752 176.245355 
L 140.418041 176.300123 
L 141.311371 177.428868 
L 141.671184 178.366648 
L 142.055812 178.610995 
L 142.415625 179.288145 
L 142.758896 179.288145 
L 143.178678 180.155375 
L 143.856947 180.934573 
L 144.233303 182.268382 
L 144.549691 182.561302 
L 145.304472 181.966018 
L 145.647742 181.966018 
L 146.063388 181.315325 
L 146.441813 178.070586 
L 148.114738 176.08474 
L 149.225197 175.519603 
L 149.605689 175.355014 
L 149.979977 174.830693 
L 150.370809 174.720352 
L 150.714079 174.331664 
L 151.382009 174.42702 
L 151.727347 173.50308 
L 152.074753 173.255055 
L 152.455245 172.787008 
L 152.827466 172.8918 
L 153.179008 171.949592 
L 153.642216 171.601604 
L 153.99169 171.71229 
L 154.752674 171.598276 
L 155.131099 170.474527 
L 155.869336 171.162561 
L 156.299458 170.876052 
L 156.752327 170.860479 
L 157.14109 171.737335 
L 157.598095 170.881036 
L 158.00547 170.857852 
L 158.435591 170.248562 
L 159.283427 169.84013 
L 159.773518 169.168979 
L 160.685459 169.215619 
L 161.800053 169.299932 
L 162.143323 168.048879 
L 162.542427 167.232367 
L 163.065603 167.254955 
L 165.813833 166.708745 
L 166.361825 166.95849 
L 167.075248 168.263251 
L 167.586017 168.263251 
L 168.119534 170.511416 
L 168.576538 170.511307 
L 169.505022 172.982757 
L 170.797455 176.257313 
L 171.227576 177.804984 
L 171.66597 178.736111 
L 172.114703 178.946846 
L 172.536553 181.396074 
L 172.98115 182.465852 
L 173.489851 184.224122 
L 174.141238 186.983861 
L 174.548612 186.983861 
L 175.406788 191.59114 
L 175.828638 191.497908 
L 176.281507 192.048376 
L 176.657863 193.862031 
L 177.069374 193.794935 
L 177.470545 193.437909 
L 177.815883 194.324277 
L 178.657516 194.879899 
L 179.046279 194.719692 
L 179.437111 194.077341 
L 179.815536 194.141197 
L 180.229114 193.847294 
L 180.783309 193.932315 
L 181.198956 192.940748 
L 181.629078 193.053693 
L 182.433488 192.478334 
L 182.844999 192.605422 
L 183.239966 191.873931 
L 183.637001 190.899831 
L 184.02163 191.031699 
L 184.431072 190.600378 
L 184.840515 190.779241 
L 185.229279 189.844299 
L 185.622179 189.73106 
L 186.006807 189.287648 
L 186.447268 189.559548 
L 186.854643 188.746516 
L 187.849299 188.895708 
L 188.273217 187.807632 
L 188.719882 187.496194 
L 189.098307 187.037377 
L 189.532564 186.87824 
L 190.022655 185.079219 
L 190.870491 185.070906 
L 191.257187 184.195448 
L 191.69558 184.205724 
L 192.090547 184.039496 
L 226.423772 184.039496 
L 227.184757 185.649512 
L 227.587996 186.805009 
L 228.113241 186.388195 
L 228.462715 184.60716 
L 228.901108 180.89393 
L 229.306415 179.162362 
L 229.732401 178.389117 
L 230.13564 178.338949 
L 230.493386 177.170004 
L 231.250234 177.19464 
L 231.60798 177.587789 
L 231.967793 177.644238 
L 232.319335 177.85954 
L 232.701895 177.590746 
L 233.11961 177.708414 
L 233.500102 177.111526 
L 233.917816 177.511928 
L 234.273494 177.1896 
L 234.736702 176.095172 
L 235.785123 176.130371 
L 236.165616 175.690803 
L 236.486139 174.796892 
L 236.825274 175.415279 
L 237.203698 175.009631 
L 237.549036 174.332271 
L 237.933664 173.966908 
L 238.345175 172.790892 
L 238.71326 172.790892 
L 239.157857 172.296361 
L 239.579707 171.350771 
L 240.104952 170.452615 
L 240.578499 170.452615 
L 241.052046 169.934546 
L 241.682754 169.937823 
L 242.243153 169.225992 
L 242.631917 169.225992 
L 242.997934 168.606221 
L 243.386698 170.048652 
L 243.740307 169.026191 
L 244.14975 169.693224 
L 244.552989 169.546779 
L 244.912802 169.546779 
L 245.34706 169.761585 
L 245.735824 168.482472 
L 246.087366 169.079628 
L 246.527827 168.486968 
L 246.893844 168.373376 
L 247.261929 168.655352 
L 247.648625 169.717763 
L 248.047728 169.764754 
L 248.599855 169.689568 
L 249.145779 169.049835 
L 249.54695 169.644039 
L 250.303799 169.644039 
L 251.116481 168.883781 
L 251.494905 169.896465 
L 251.90228 169.708202 
L 252.303451 169.925716 
L 252.745981 169.087103 
L 253.136812 168.783623 
L 253.517305 167.018996 
L 253.908136 166.493641 
L 254.288629 165.512131 
L 254.693936 165.775228 
L 255.200569 164.400535 
L 255.603808 164.275378 
L 255.982233 164.729664 
L 257.057537 163.47081 
L 257.433894 163.933113 
L 257.84954 163.565957 
L 258.515402 163.472598 
L 258.941388 161.577099 
L 259.363238 161.574526 
L 259.842989 161.155802 
L 260.237956 160.979374 
L 260.622584 160.230004 
L 261.038231 160.017961 
L 261.460081 160.151216 
L 261.881931 159.418638 
L 262.266559 159.237444 
L 262.62844 158.721677 
L 263.029612 158.761951 
L 265.008585 154.884338 
L 265.399417 153.345215 
L 265.790249 152.828906 
L 266.228642 153.22385 
L 266.960676 152.461805 
L 267.461106 151.110783 
L 267.864345 152.129859 
L 268.302738 150.587269 
L 268.662552 149.95661 
L 269.084402 148.880467 
L 269.442147 148.577096 
L 270.306527 148.653988 
L 270.726309 148.4079 
L 271.09853 147.6432 
L 271.472818 147.831517 
L 271.795409 147.831517 
L 272.169698 145.897505 
L 272.897596 143.930341 
L 273.292564 143.692513 
L 273.712346 144.137834 
L 274.074227 141.886907 
L 274.510553 141.404752 
L 274.893113 139.521306 
L 275.683048 137.288336 
L 276.061472 135.368461 
L 276.859679 135.581724 
L 277.279461 135.840623 
L 277.697176 135.898936 
L 278.131433 136.153799 
L 279.020627 133.371559 
L 279.481767 132.714086 
L 280.015284 132.516072 
L 280.459881 130.527837 
L 280.854848 130.491246 
L 281.725431 127.129021 
L 282.081109 126.265599 
L 282.467804 126.535061 
L 282.871044 126.56266 
L 283.220517 126.722945 
L 283.621689 126.751546 
L 284.388877 126.69448 
L 284.779709 127.105349 
L 285.143658 127.166127 
L 285.571712 127.631382 
L 286.531214 127.699824 
L 303.103307 127.699743 
L 303.535497 129.893792 
L 303.897378 133.43973 
L 304.271667 132.094152 
L 306.782089 132.060947 
L 307.141902 134.079002 
L 307.915294 134.057389 
L 308.355755 135.21278 
L 309.416584 135.353077 
L 309.782601 135.801405 
L 310.127939 135.896985 
L 310.580808 137.040758 
L 311.006794 137.095739 
L 311.420372 137.498131 
L 311.836019 137.041381 
L 312.230986 134.434295 
L 312.694194 134.943183 
L 313.128452 134.262986 
L 313.566845 132.765953 
L 314.011442 131.964337 
L 314.437428 129.414589 
L 314.846871 129.921391 
L 315.25011 129.637005 
L 315.636806 130.081893 
L 315.990415 129.667827 
L 316.364704 128.421486 
L 316.757604 128.513411 
L 317.09467 128.905294 
L 317.857723 128.113808 
L 318.196857 128.184119 
L 318.608368 127.356177 
L 318.953706 127.356177 
L 319.462408 127.763635 
L 319.873918 127.342744 
L 320.514965 127.342771 
L 320.901661 126.898289 
L 321.594405 122.337907 
L 322.00178 121.832215 
L 322.340914 120.5664 
L 322.657302 120.5664 
L 323.742946 119.412038 
L 324.119302 119.408165 
L 324.470844 117.987753 
L 325.291798 115.839097 
L 325.759141 115.907295 
L 326.29059 115.657929 
L 326.685557 113.23369 
L 327.099136 112.785823 
L 327.508579 111.603103 
L 327.90975 112.789127 
L 328.304717 110.93412 
L 328.705889 110.655313 
L 329.102924 110.088005 
L 329.437923 108.988298 
L 330.122395 109.068035 
L 330.469801 109.081117 
L 330.839954 107.278978 
L 331.263872 105.821406 
L 331.704333 104.840898 
L 332.11998 104.896177 
L 332.525287 104.341029 
L 333.054667 104.419086 
L 333.5034 103.325772 
L 333.906639 103.325772 
L 334.729661 103.538872 
L 335.077067 103.538872 
L 335.589904 103.903969 
L 337.525452 104.012983 
L 337.895604 104.246098 
L 338.284368 104.286833 
L 338.702083 100.680876 
L 339.117729 98.848159 
L 341.278677 98.928058 
L 341.679848 97.485302 
L 344.086876 97.5129 
L 344.521133 99.429904 
L 344.92644 99.439844 
L 345.302797 99.290041 
L 345.739122 99.489138 
L 347.060506 99.607605 
L 347.453405 98.267444 
L 347.840101 98.323671 
L 348.183371 95.963025 
L 348.97951 95.994091 
L 349.370342 94.968352 
L 349.790124 93.203996 
L 350.189227 92.143156 
L 350.602806 89.980985 
L 351.808388 89.969609 
L 352.621069 89.951084 
L 353.024309 87.862094 
L 355.503712 87.846277 
L 358.185769 87.87718 
L 360.274341 87.918619 
L 363.070132 87.897764 
L 363.489914 88.10905 
L 364.602441 88.145072 
L 367.143881 88.079853 
L 367.617428 85.964916 
L 373.835582 85.730583 
L 374.72064 85.489938 
L 375.101133 98.992546 
L 376.031684 100.538683 
L 376.420448 101.376376 
L 376.838163 101.33258 
L 377.671523 102.969748 
L 378.099577 102.935432 
L 378.500748 105.39824 
L 379.737348 107.670834 
L 380.117841 109.6286 
L 380.487994 110.439424 
L 380.951202 112.411842 
L 381.360644 112.420726 
L 381.805241 113.25896 
L 382.152647 114.269233 
L 382.5228 116.491532 
L 383.300328 118.002351 
L 383.627055 120.336427 
L 384.022022 120.335885 
L 384.927759 121.754537 
L 385.372356 122.417101 
L 385.779731 121.648664 
L 386.251211 122.473437 
L 386.687536 122.503717 
L 387.190034 123.342899 
L 387.769044 122.632882 
L 388.625152 122.609427 
L 389.063545 123.43875 
L 389.489531 123.054532 
L 389.874159 123.673328 
L 390.28567 122.293922 
L 390.662026 123.713034 
L 391.493319 124.982857 
L 391.838657 125.014924 
L 392.241896 126.404758 
L 392.899486 126.326674 
L 393.339948 125.951583 
L 393.881735 125.873444 
L 394.508307 125.314234 
L 394.944632 125.314207 
L 395.422316 125.929834 
L 395.825555 126.716824 
L 396.632033 126.81858 
L 397.072494 127.749605 
L 397.624622 127.428845 
L 398.063015 127.428818 
L 398.53863 128.659016 
L 398.958412 126.221424 
L 399.42162 126.164168 
L 400.263253 128.306161 
L 400.833991 128.978774 
L 401.206212 128.272577 
L 401.634266 130.467439 
L 402.041641 130.291092 
L 402.459355 132.701384 
L 402.889477 132.872638 
L 403.28858 134.159036 
L 403.702159 136.708081 
L 404.084719 135.740275 
L 404.94703 139.114851 
L 405.366812 139.709352 
L 405.796934 139.861837 
L 406.18363 141.210828 
L 406.57653 141.708692 
L 407.469859 144.364774 
L 407.935135 144.014519 
L 408.42109 145.475558 
L 409.27513 145.407197 
L 410.584106 149.048038 
L 411.04111 148.666203 
L 411.415399 149.530438 
L 411.886879 151.161539 
L 413.152429 152.923674 
L 413.673538 152.769673 
L 414.097456 153.158198 
L 414.482084 154.483814 
L 414.90807 153.89603 
L 416.163281 157.618368 
L 416.535502 157.316811 
L 417.282011 157.948418 
L 417.672843 157.60897 
L 418.074014 158.076527 
L 418.41108 157.138352 
L 418.772962 158.263924 
L 419.169997 158.933937 
L 419.5691 158.416761 
L 420.154314 158.625283 
L 420.567893 159.992285 
L 421.432272 159.59531 
L 421.835511 161.909099 
L 422.284244 161.8867 
L 422.666804 162.651779 
L 423.08245 164.202575 
L 423.473282 163.213671 
L 423.917879 163.838995 
L 424.327322 163.918867 
L 424.691271 164.691069 
L 425.075899 166.314478 
L 425.47707 165.299248 
L 425.867902 166.458567 
L 426.378672 167.140144 
L 426.726078 167.862999 
L 427.102434 167.643968 
L 427.505673 168.307453 
L 427.884098 167.317276 
L 428.314219 168.04571 
L 428.719526 168.047389 
L 429.906497 170.237809 
L 430.297329 170.019482 
L 430.721247 171.106321 
L 431.087264 171.099682 
L 431.535996 171.934398 
L 432.315592 172.450328 
L 432.871855 172.240416 
L 433.225465 173.19407 
L 433.636976 172.909118 
L 433.980246 173.743118 
L 434.311109 173.743118 
L 434.708144 173.443186 
L 435.061754 175.169676 
L 435.475332 174.969576 
L 435.868232 175.838529 
L 436.236317 175.707113 
L 436.670574 177.707209 
L 437.06761 177.517748 
L 437.466713 177.853334 
L 437.867884 177.521183 
L 438.213222 177.56718 
L 438.583375 176.115524 
L 439.054855 176.053021 
L 439.513927 175.047755 
L 439.92337 174.582993 
L 440.279047 173.031875 
L 440.682286 172.812879 
L 441.052439 172.783698 
L 441.408117 174.537771 
L 441.763794 174.537771 
L 442.127744 177.219653 
L 442.524779 188.12333 
L 442.928018 188.052057 
L 443.302307 189.845174 
L 443.680731 189.530313 
L 444.106717 189.530313 
L 444.487209 188.014321 
L 445.641094 187.917399 
L 446.230443 186.848298 
L 446.983156 186.612857 
L 448.548551 186.378461 
L 448.941451 186.402503 
L 449.342622 186.292072 
L 450.525456 188.751308 
L 450.928696 188.964575 
L 451.606964 188.920861 
L 452.028815 189.860252 
L 452.520973 188.547958 
L 453.015199 189.39276 
L 453.488747 190.647795 
L 454.291089 190.657315 
L 454.704668 191.580913 
L 455.101703 190.046094 
L 455.420159 190.046094 
L 455.850281 189.153199 
L 456.272131 190.567655 
L 456.644351 189.049447 
L 457.041387 189.534365 
L 457.45083 187.996147 
L 458.160117 188.736324 
L 458.581967 187.593202 
L 458.976935 187.592241 
L 459.549741 187.254491 
L 459.938505 186.397693 
L 460.343812 186.885447 
L 460.749119 185.703307 
L 461.129611 186.109004 
L 461.617634 186.139983 
L 462.025009 185.162733 
L 462.46547 183.606277 
L 463.205775 181.997441 
L 463.646237 180.4736 
L 464.07429 178.187748 
L 464.469258 174.876729 
L 464.858022 174.093416 
L 465.213699 171.569111 
L 466.129776 169.87255 
L 466.501997 169.736315 
L 466.888693 169.004009 
L 467.289864 172.561498 
L 467.734461 174.886121 
L 468.135632 174.591593 
L 468.540939 173.421397 
L 468.925567 173.528997 
L 470.180778 167.582351 
L 470.567474 167.667287 
L 470.981053 165.813255 
L 471.363613 165.03374 
L 471.752377 165.902064 
L 472.139073 168.473426 
L 472.50509 170.081885 
L 472.970365 170.892899 
L 473.332247 171.24619 
L 473.725146 171.233758 
L 474.138725 171.618082 
L 474.570915 170.856985 
L 475.023783 168.393094 
L 475.373257 168.762227 
L 475.749613 167.428972 
L 476.099087 167.428972 
L 476.537481 166.495889 
L 476.967602 167.258097 
L 477.335687 167.283339 
L 477.693433 168.20892 
L 478.125622 167.582134 
L 478.855589 168.541625 
L 479.788208 170.26725 
L 480.185244 170.72744 
L 480.563668 170.836049 
L 480.956568 170.172563 
L 481.355671 170.360935 
L 481.709281 169.965774 
L 482.106316 170.084349 
L 482.478537 169.805814 
L 482.832146 169.941777 
L 483.268472 169.357947 
L 483.61381 169.562678 
L 483.919858 169.562678 
L 484.318961 170.073353 
L 484.641553 169.418237 
L 485.427352 170.133372 
L 485.898832 169.818787 
L 486.291731 170.428212 
L 487.054784 170.866979 
L 487.474566 169.489631 
L 488.272773 170.365512 
L 488.661536 171.2624 
L 489.023418 170.80176 
L 489.745112 170.840599 
L 490.131808 171.037109 
L 490.535047 170.674518 
L 490.898996 171.093258 
L 491.316711 171.107553 
L 492.114917 171.851067 
L 492.710471 172.194687 
L 493.612072 172.377357 
L 494.470247 172.344176 
L 494.914844 172.006746 
L 495.334627 172.278334 
L 495.826785 171.935833 
L 496.279654 172.05043 
L 496.858664 171.999934 
L 497.375637 172.17985 
L 497.915357 172.17985 
L 498.388904 171.853822 
L 498.899674 171.828447 
L 499.36495 172.372303 
L 499.931552 172.372303 
L 500.32652 171.866985 
L 500.779389 172.179685 
L 501.67065 172.431575 
L 502.13179 171.532252 
L 502.555708 171.764102 
L 502.954812 171.597894 
L 585.70568 171.597894 
L 585.70568 171.597894 
" style="fill:none;stroke:#1f77b4;stroke-linecap:square;stroke-width:1.5;"/>
   </g>
   <g id="line2d_26">
    <path clip-path="url(#p531beb4be3)" d="M 78.432953 169.569828 
L 94.748627 169.569909 
L 95.213903 170.132343 
L 95.660568 170.918846 
L 96.373991 170.918846 
L 96.795841 173.409285 
L 97.261117 173.84183 
L 97.637474 174.41598 
L 97.995219 174.712383 
L 98.388119 174.850435 
L 98.762407 175.108728 
L 100.187186 178.311358 
L 100.518048 178.311358 
L 100.853047 178.624922 
L 101.231471 180.197404 
L 102.006931 180.254969 
L 102.776187 180.23961 
L 103.148408 179.93906 
L 103.669517 179.929131 
L 104.149268 179.599349 
L 104.546304 179.560464 
L 104.951611 178.901312 
L 105.319696 178.907929 
L 105.731206 179.552994 
L 107.664686 179.643085 
L 108.059654 180.315072 
L 108.762737 180.354147 
L 109.157705 180.429363 
L 109.527858 181.132172 
L 112.255408 181.455356 
L 113.06809 181.566697 
L 113.520959 181.428242 
L 114.453578 181.65289 
L 114.958144 180.621502 
L 115.470982 180.538066 
L 115.961072 181.063511 
L 116.438755 181.063424 
L 116.926778 180.460995 
L 117.447887 180.724596 
L 117.865601 180.267669 
L 118.330877 180.384828 
L 118.734116 179.918966 
L 119.135288 179.734246 
L 119.534391 180.647281 
L 119.968649 179.455363 
L 120.373956 179.69249 
L 120.773059 179.047405 
L 121.230063 179.024012 
L 121.618827 179.355392 
L 122.01793 178.935698 
L 122.454256 179.229087 
L 122.87197 179.361475 
L 123.331042 179.692018 
L 123.719806 178.496027 
L 124.137521 179.706684 
L 124.691716 178.723666 
L 125.076344 178.723666 
L 125.525077 178.562546 
L 125.891094 179.814255 
L 126.209549 179.814255 
L 126.592109 178.237973 
L 126.922972 178.727466 
L 127.367569 178.975577 
L 127.743926 178.443746 
L 128.844045 179.269741 
L 129.189383 179.114791 
L 129.913145 179.191115 
L 130.262619 178.802785 
L 131.015332 179.132361 
L 131.433046 179.608558 
L 131.850761 179.544281 
L 132.200235 179.142252 
L 132.593134 179.508462 
L 132.928133 180.968146 
L 133.234181 180.968146 
L 133.596062 180.835991 
L 133.972419 181.14238 
L 134.37359 180.467622 
L 135.331025 181.909859 
L 135.827319 183.945895 
L 136.234694 183.945895 
L 136.693766 184.603417 
L 137.099073 184.964332 
L 137.467158 186.418066 
L 138.050304 185.846778 
L 138.414253 186.305162 
L 139.224867 186.670186 
L 140.052024 186.519849 
L 140.436652 186.086031 
L 141.191433 183.684548 
L 141.501617 183.684548 
L 141.913127 182.122038 
L 142.275009 182.305521 
L 142.624483 180.934825 
L 143.375128 179.429606 
L 143.68738 179.06878 
L 144.063736 178.346765 
L 144.371852 178.346765 
L 144.903301 177.373703 
L 145.401663 176.730282 
L 145.813173 176.730282 
L 146.241227 175.987233 
L 146.665145 175.725176 
L 147.409587 175.81953 
L 147.744585 175.0408 
L 148.207793 174.475208 
L 148.881926 174.49313 
L 149.247943 175.143174 
L 149.622232 175.047504 
L 150.354266 174.03512 
L 150.699604 174.377404 
L 151.073893 173.925764 
L 151.504014 173.925764 
L 151.874167 174.870077 
L 152.680646 174.657055 
L 153.085953 175.161426 
L 153.536753 174.594358 
L 154.053726 175.477944 
L 154.529342 175.478072 
L 154.909834 175.026714 
L 155.329616 175.011259 
L 155.712176 175.437126 
L 156.107144 175.198285 
L 156.578624 175.742605 
L 157.893803 175.983317 
L 158.907071 175.915912 
L 160.300831 175.988476 
L 160.730952 175.567231 
L 161.12592 175.598012 
L 161.628418 175.136508 
L 162.0482 176.083366 
L 162.494865 175.565692 
L 163.394398 175.82018 
L 163.919643 175.982924 
L 164.761276 176.077004 
L 165.166583 175.59506 
L 165.646334 176.168062 
L 166.953242 175.923726 
L 167.360617 175.93382 
L 167.796942 176.211486 
L 168.15262 176.189797 
L 168.508297 175.553775 
L 168.872247 176.019317 
L 169.201042 176.019317 
L 169.554651 175.435276 
L 169.99718 175.274267 
L 170.363197 175.530859 
L 170.751961 175.1698 
L 171.163472 175.183345 
L 171.543964 175.335654 
L 171.963746 174.82529 
L 172.476584 173.942557 
L 172.890162 175.017204 
L 173.266519 174.918308 
L 173.649079 175.516531 
L 174.083337 175.74687 
L 175.259968 177.278851 
L 175.623917 177.297371 
L 176.045767 177.752632 
L 176.422123 177.639438 
L 176.777801 179.164954 
L 177.160361 179.044602 
L 177.86758 179.129468 
L 178.390757 181.269222 
L 178.88912 181.269222 
L 179.242729 181.574993 
L 179.540506 181.574993 
L 179.881708 181.893289 
L 180.282879 180.680551 
L 180.681983 180.743625 
L 181.132783 180.401536 
L 181.908243 178.508177 
L 182.359044 178.29911 
L 182.739536 177.134648 
L 183.190337 177.576817 
L 183.583236 176.820527 
L 183.953389 176.988834 
L 184.352492 176.643241 
L 184.801225 176.782433 
L 185.628382 175.842354 
L 185.971653 176.188215 
L 186.75952 175.969807 
L 187.549455 175.161112 
L 187.892725 175.30282 
L 188.202909 175.30282 
L 188.608216 175.593903 
L 188.999048 175.134997 
L 189.410558 174.913636 
L 189.793119 174.339077 
L 190.475523 173.702998 
L 190.818793 172.799513 
L 191.141385 172.799513 
L 191.608728 172.582158 
L 191.937523 172.056865 
L 192.251843 171.019328 
L 192.638539 171.043734 
L 193.004556 170.769367 
L 193.385048 169.506938 
L 194.425198 169.534104 
L 194.81603 168.161523 
L 195.184115 168.362624 
L 195.636984 167.509683 
L 196.488956 167.89114 
L 196.902534 167.755366 
L 197.764845 168.089316 
L 198.257004 168.249763 
L 198.695397 168.037368 
L 199.096568 168.037368 
L 199.479129 167.439968 
L 199.915454 167.595243 
L 200.322829 167.610193 
L 200.703321 168.385998 
L 201.451898 168.392525 
L 201.822051 168.661987 
L 202.233562 168.35737 
L 202.628529 167.846152 
L 203.062787 168.581249 
L 203.470162 168.610202 
L 203.892012 168.288765 
L 204.34488 168.430281 
L 204.909415 168.463919 
L 205.318858 168.887735 
L 205.715893 168.887735 
L 206.179101 168.431066 
L 206.540983 168.442956 
L 206.927679 168.089776 
L 207.301967 167.588418 
L 208.011255 167.676659 
L 208.708134 166.817461 
L 209.146528 166.82732 
L 210.240443 165.479955 
L 210.997292 165.531388 
L 211.565962 164.613878 
L 212.918364 164.699438 
L 213.327807 163.240268 
L 214.440333 163.345599 
L 214.793943 162.876552 
L 215.269558 162.685445 
L 215.714155 162.924627 
L 216.152549 161.732319 
L 216.590942 161.314841 
L 217.376741 161.386561 
L 217.85856 162.073826 
L 218.3197 162.098446 
L 218.741551 161.585874 
L 219.918182 161.613067 
L 220.269723 161.29878 
L 220.660555 160.651681 
L 221.309873 160.645587 
L 221.71518 160.305759 
L 222.095673 160.95749 
L 222.476165 160.467128 
L 222.91249 160.493589 
L 223.793413 159.405204 
L 224.707421 159.325333 
L 225.27816 158.633436 
L 226.55405 158.663797 
L 226.957289 157.684102 
L 227.825804 157.687081 
L 229.362248 157.315457 
L 229.740673 157.67186 
L 230.414806 157.592692 
L 230.830452 157.593721 
L 231.202673 157.000276 
L 231.618319 156.929667 
L 231.996744 156.387899 
L 232.761864 156.307025 
L 233.140288 155.437509 
L 233.893001 154.517859 
L 234.560931 154.520866 
L 234.955898 153.882488 
L 235.330187 152.430143 
L 235.708611 152.309022 
L 236.136665 150.945081 
L 236.558515 150.156872 
L 237.371197 149.769782 
L 237.764097 148.955491 
L 238.289342 147.601815 
L 238.655359 145.962209 
L 239.13511 145.800055 
L 239.652083 145.020513 
L 240.138038 145.020513 
L 241.035503 142.798513 
L 241.461489 142.787787 
L 241.893679 140.870567 
L 242.787009 140.864446 
L 243.264692 139.409935 
L 243.667931 139.090475 
L 244.751507 134.190211 
L 245.196104 132.75241 
L 245.562121 130.739772 
L 245.913663 130.684926 
L 246.310698 128.864993 
L 246.682919 127.763662 
L 247.009646 125.573485 
L 247.35912 125.573485 
L 248.484053 117.673981 
L 248.839731 117.675226 
L 249.234698 117.076852 
L 250.063924 114.607842 
L 250.500249 114.328656 
L 251.83404 111.021819 
L 252.640518 110.987855 
L 253.035486 109.883247 
L 253.405638 109.916696 
L 253.825421 109.531719 
L 254.207981 109.389932 
L 255.430105 109.396135 
L 255.87677 107.921744 
L 258.126638 107.945713 
L 258.74287 106.756602 
L 261.662735 106.770496 
L 262.119739 105.993419 
L 262.518842 104.402836 
L 284.419895 104.302109 
L 285.106436 107.265246 
L 285.414552 107.265246 
L 286.276863 103.995081 
L 287.279791 103.603928 
L 287.639605 102.695627 
L 287.980807 104.537174 
L 288.274448 104.537174 
L 288.675619 103.286229 
L 289.07679 104.618075 
L 290.238946 104.604316 
L 290.600827 105.974433 
L 291.405237 106.213533 
L 291.794001 107.038848 
L 292.15795 107.022678 
L 293.10091 108.497259 
L 293.493809 109.692925 
L 293.917727 109.75354 
L 294.289948 109.177726 
L 294.699391 109.1855 
L 295.148123 108.807429 
L 295.545159 109.419915 
L 295.909108 110.512823 
L 296.734197 110.654934 
L 297.18293 109.993453 
L 297.517929 110.070237 
L 297.888081 111.20109 
L 298.646998 111.248109 
L 299.587889 110.140494 
L 301.134673 110.188921 
L 301.533777 109.352556 
L 301.901862 107.759698 
L 302.311304 107.763977 
L 302.677321 106.289451 
L 303.076425 106.26976 
L 303.492071 105.674636 
L 304.23858 105.576888 
L 304.600462 103.882735 
L 304.97475 104.088522 
L 305.456569 102.149661 
L 305.82879 102.623827 
L 306.219622 101.719697 
L 306.59391 101.400995 
L 306.906162 101.400995 
L 307.766406 99.16548 
L 308.120015 97.445135 
L 308.529458 96.4568 
L 308.912018 96.453983 
L 309.294578 95.768126 
L 310.047291 95.709272 
L 310.498092 94.712405 
L 311.192904 94.742794 
L 311.676791 94.548464 
L 312.017993 94.54524 
L 312.439843 94.104822 
L 312.807928 94.369463 
L 313.192556 92.094377 
L 313.55237 92.094377 
L 313.920455 92.604782 
L 314.313354 91.519241 
L 315.775355 91.433465 
L 316.157915 90.60211 
L 317.239423 90.614515 
L 317.64473 89.889711 
L 318.176178 89.915928 
L 318.600096 89.61689 
L 319.694012 89.600612 
L 320.057961 88.732802 
L 321.511689 88.631669 
L 321.910793 87.568229 
L 322.603537 87.588109 
L 322.988165 86.710061 
L 323.372793 85.232583 
L 323.718131 85.065472 
L 324.086216 85.054286 
L 324.495659 83.606357 
L 324.863744 83.578216 
L 325.217353 82.965893 
L 325.606117 81.396706 
L 325.967999 81.396706 
L 326.323676 80.310732 
L 326.654539 79.991922 
L 327.035031 78.214972 
L 327.411388 77.539352 
L 327.847713 77.066649 
L 328.250952 75.405078 
L 328.621105 75.839972 
L 329.406904 72.252974 
L 329.799804 71.71451 
L 330.163753 69.93588 
L 330.5794 68.869623 
L 330.899923 68.869623 
L 331.278347 68.304697 
L 331.615414 65.723775 
L 331.99177 65.685099 
L 332.386738 64.699147 
L 332.765162 64.672577 
L 333.139451 62.343539 
L 334.361576 62.279891 
L 334.721389 62.303265 
L 335.108085 59.463903 
L 341.514417 59.354103 
L 341.91352 59.341563 
L 342.316759 56.119066 
L 343.143917 56.06636 
L 343.553359 56.238021 
L 345.350358 56.16985 
L 345.74119 53.804546 
L 346.495971 47.241546 
L 346.893006 45.931259 
L 347.290042 43.809958 
L 375.756655 43.785149 
L 376.267424 43.679899 
L 377.5764 45.7671 
L 377.948621 45.69966 
L 378.320842 49.591953 
L 379.993767 56.776079 
L 380.380463 58.963682 
L 380.82506 60.660761 
L 382.144376 68.115757 
L 382.553818 72.328864 
L 383.122489 73.254499 
L 383.538135 80.409888 
L 383.933103 80.40978 
L 384.317731 83.16629 
L 384.629983 83.16629 
L 385.049765 84.176591 
L 385.390967 83.189637 
L 385.730102 83.169621 
L 386.094051 84.307327 
L 386.437321 87.875691 
L 386.836425 89.519738 
L 387.254139 92.603671 
L 387.628428 91.467049 
L 387.994445 91.467049 
L 388.368733 95.367738 
L 388.765769 97.144309 
L 389.210366 100.6435 
L 389.704592 103.467721 
L 390.070609 101.687873 
L 390.413879 101.980871 
L 390.753014 100.143794 
L 391.150049 101.18042 
L 391.499523 100.90657 
L 391.880015 102.453954 
L 392.268779 102.508285 
L 392.622389 101.78711 
L 393.393713 101.786189 
L 393.807291 103.308899 
L 394.293246 105.753803 
L 395.012873 105.753803 
L 395.395433 104.81468 
L 395.76145 104.903869 
L 396.210183 105.670113 
L 396.594811 107.194095 
L 396.942217 107.193987 
L 397.357863 107.605561 
L 398.073354 109.068197 
L 398.482797 107.656344 
L 398.865357 108.357368 
L 399.254121 110.310719 
L 399.62841 110.99701 
L 399.963408 110.99701 
L 400.416277 110.315351 
L 400.819516 110.943599 
L 401.576365 112.460811 
L 401.925839 114.804041 
L 402.295992 113.468159 
L 402.796422 114.226034 
L 403.520184 117.448395 
L 403.902744 117.379303 
L 404.283237 115.489004 
L 404.727834 116.979619 
L 405.488818 118.599643 
L 405.84036 120.071434 
L 406.173291 120.071434 
L 406.551715 119.336689 
L 406.928071 119.497706 
L 407.668377 120.825435 
L 408.040598 121.185467 
L 408.42109 121.804047 
L 408.809854 122.091818 
L 409.163464 121.688532 
L 410.007164 122.644772 
L 410.321484 122.644772 
L 410.712315 124.020685 
L 411.088672 123.063253 
L 411.810367 124.578623 
L 412.931164 127.730835 
L 413.270299 129.219473 
L 413.619773 129.219473 
L 414.370418 136.33846 
L 414.755046 136.254797 
L 415.174828 134.789858 
L 415.613221 136.186219 
L 416.150874 137.106952 
L 416.53757 140.257675 
L 416.932537 142.005429 
L 417.275807 141.582913 
L 417.666639 143.072959 
L 418.086421 143.605437 
L 418.440031 143.565758 
L 419.14725 145.091881 
L 419.509132 145.876054 
L 419.935118 147.741706 
L 420.338357 146.926142 
L 420.729188 147.732687 
L 421.13036 148.898776 
L 421.465358 148.898776 
L 421.876869 149.936541 
L 422.325602 151.956817 
L 422.78881 150.687942 
L 423.299579 150.915396 
L 423.748312 150.915396 
L 424.112261 150.622885 
L 424.778123 150.602545 
L 425.17309 150.830081 
L 425.570126 149.992795 
L 426.339382 147.810933 
L 426.703331 148.650359 
L 427.102434 148.105882 
L 427.877894 148.939647 
L 428.276997 147.684801 
L 428.682304 148.61198 
L 429.037982 148.009164 
L 429.443289 148.86809 
L 429.95199 146.850116 
L 430.326279 147.698506 
L 430.739858 147.407431 
L 431.128622 149.0378 
L 431.548404 148.253465 
L 431.9351 148.12113 
L 432.751917 146.793293 
L 433.076577 146.793293 
L 433.473612 146.508826 
L 433.835493 148.173837 
L 434.21185 146.860299 
L 434.598546 148.525364 
L 434.962495 149.311867 
L 435.32024 149.522881 
L 435.702801 148.314946 
L 436.219774 148.441863 
L 436.707796 147.613543 
L 437.082085 148.400235 
L 437.474985 148.628881 
L 437.847205 149.583523 
L 438.221494 147.763048 
L 438.626801 148.23158 
L 439.009361 145.802303 
L 439.352631 146.459803 
L 439.772414 146.347891 
L 440.142566 144.128734 
L 440.504448 144.128734 
L 440.91389 144.930241 
L 441.257161 146.162092 
L 441.600431 146.548856 
L 441.989195 147.351312 
L 442.43586 148.007701 
L 442.855642 146.975977 
L 443.182369 147.622914 
L 443.535979 146.349218 
L 443.933014 146.958859 
L 444.315574 147.991803 
L 444.638166 147.991803 
L 445.051744 147.617741 
L 445.812729 148.740577 
L 446.265597 148.777411 
L 446.660565 148.297206 
L 447.065872 149.149821 
L 447.491858 149.72011 
L 447.886825 149.304717 
L 448.261114 150.598293 
L 448.773951 150.361115 
L 449.170987 149.552295 
L 449.547343 151.356519 
L 449.925768 149.936405 
L 450.300056 150.722502 
L 450.676413 151.209262 
L 451.065176 152.07198 
L 451.420854 151.140142 
L 451.76826 151.641284 
L 452.144617 150.867403 
L 452.423782 150.867403 
L 452.793935 152.043622 
L 453.211649 152.288113 
L 453.571463 151.191873 
L 453.945751 149.493549 
L 454.328311 149.980499 
L 455.165808 146.001048 
L 455.817194 146.105919 
L 456.187347 147.250531 
L 456.54716 144.331569 
L 456.894566 145.125465 
L 457.304009 143.658847 
L 457.626601 144.112862 
L 458.033975 142.007731 
L 458.439282 141.74225 
L 458.766009 142.483982 
L 459.088601 142.483982 
L 459.475297 141.604905 
L 459.804092 140.210142 
L 460.219738 140.665186 
L 460.643656 141.494943 
L 461.088253 139.208346 
L 461.96504 140.444638 
L 462.357939 139.500776 
L 462.728092 140.271759 
L 463.08377 141.380809 
L 463.468398 139.946151 
L 464.334845 141.159097 
L 464.804257 142.49013 
L 465.224039 142.641234 
L 465.697586 143.772629 
L 466.094622 142.692857 
L 466.539219 143.031628 
L 466.948661 142.764441 
L 467.380851 143.03542 
L 467.916435 142.286239 
L 468.540939 140.919129 
L 469.450812 141.008047 
L 469.916088 139.099169 
L 470.331734 139.428081 
L 470.819757 139.043511 
L 471.243675 139.043565 
L 472.108054 135.951317 
L 472.517497 135.689384 
L 472.957958 133.743454 
L 473.344654 133.186762 
L 474.175947 133.557222 
L 474.570915 131.611482 
L 475.931588 126.229468 
L 476.789764 124.666891 
L 497.406655 124.666863 
L 498.11801 131.172661 
L 498.901742 139.595788 
L 499.240876 139.595788 
L 499.637912 141.743415 
L 500.52297 147.506613 
L 500.990314 147.094958 
L 501.486608 147.095013 
L 502.255864 144.960088 
L 502.617745 144.488495 
L 503.010645 143.08474 
L 503.335304 143.08474 
L 503.750951 141.214186 
L 504.1149 138.552336 
L 504.48712 137.43145 
L 505.219154 135.899044 
L 505.61619 134.220464 
L 506.03804 133.864332 
L 506.887944 132.690577 
L 507.6572 129.698433 
L 508.250685 128.604577 
L 509.034417 126.734294 
L 509.379755 126.180337 
L 509.751976 125.984003 
L 510.149011 125.358435 
L 510.529503 124.225605 
L 510.959625 123.957687 
L 511.379407 122.66449 
L 511.792986 122.35952 
L 512.572581 120.872237 
L 512.94687 119.912069 
L 513.393535 119.12554 
L 513.718194 119.12554 
L 514.135908 118.706436 
L 514.530876 116.847664 
L 515.039578 115.660448 
L 515.438681 113.899098 
L 516.232752 113.899153 
L 517.692684 109.033123 
L 518.08972 108.718619 
L 518.900334 107.12308 
L 519.349066 106.914531 
L 520.190699 105.399757 
L 520.58153 104.32551 
L 521.359058 103.055362 
L 521.855352 102.794675 
L 523.013372 100.106498 
L 523.43729 99.545229 
L 523.813647 99.550159 
L 524.175528 99.111094 
L 524.568428 98.155179 
L 524.876544 98.155179 
L 525.240493 98.497146 
L 525.687158 96.503114 
L 526.057311 96.80394 
L 526.45021 96.397838 
L 526.855517 95.488426 
L 527.672335 95.574013 
L 528.063167 94.577119 
L 528.582208 94.081719 
L 529.353532 94.050707 
L 529.775382 94.018856 
L 530.488805 94.768172 
L 582.533532 94.768172 
L 582.533532 94.768172 
" style="fill:none;stroke:#ff7f0e;stroke-linecap:square;stroke-width:1.5;"/>
   </g>
   <g id="patch_3">
    <path d="M 53.069316 202.439899 
L 53.069316 36.119899 
" style="fill:none;stroke:#000000;stroke-linecap:square;stroke-linejoin:miter;stroke-width:0.8;"/>
   </g>
   <g id="patch_4">
    <path d="M 611.069316 202.439899 
L 611.069316 36.119899 
" style="fill:none;stroke:#000000;stroke-linecap:square;stroke-linejoin:miter;stroke-width:0.8;"/>
   </g>
   <g id="patch_5">
    <path d="M 53.069316 202.439899 
L 611.069316 202.439899 
" style="fill:none;stroke:#000000;stroke-linecap:square;stroke-linejoin:miter;stroke-width:0.8;"/>
   </g>
   <g id="patch_6">
    <path d="M 53.069316 36.119899 
L 611.069316 36.119899 
" style="fill:none;stroke:#000000;stroke-linecap:square;stroke-linejoin:miter;stroke-width:0.8;"/>
   </g>
   <g id="text_15">
    <!-- \bf{Angular error to preop-planned trajectory} -->
    <g transform="translate(207.228418 30.119899)scale(0.12 -0.12)">
     <defs>
      <path d="M 2931 4301 
C 2886 4416 2874 4448 2720 4448 
C 2560 4448 2547 4416 2502 4301 
L 915 413 
C 870 311 870 299 691 279 
C 531 260 506 260 365 260 
L 250 260 
L 250 -13 
C 416 0 800 0 986 0 
C 1158 0 1626 0 1773 -13 
L 1773 260 
C 1632 260 1389 260 1210 331 
C 1229 390 1229 402 1242 428 
L 1581 1262 
L 3296 1262 
L 3699 260 
L 3098 260 
L 3098 0 
C 3302 0 3923 0 4166 0 
C 4371 0 5024 0 5184 -13 
L 5184 260 
L 4576 260 
L 2931 4301 
z
M 2438 3367 
L 3181 1536 
L 1690 1536 
L 2438 3367 
z
" id="CMBX12-41" transform="scale(0.015625)"/>
      <path d="M 3398 1924 
C 3398 2525 3136 2834 2432 2834 
C 1971 2834 1574 2615 1357 2143 
L 1350 2143 
L 1350 2816 
L 269 2816 
L 269 2517 
C 666 2517 710 2517 710 2270 
L 710 260 
L 269 260 
L 269 -13 
C 416 0 877 0 1056 0 
C 1235 0 1702 0 1850 -13 
L 1850 260 
L 1408 260 
L 1408 1607 
C 1408 2289 1920 2624 2330 2624 
C 2566 2624 2701 2473 2701 1993 
L 2701 260 
L 2259 260 
L 2259 -13 
C 2406 0 2867 0 3046 0 
C 3226 0 3693 0 3840 -13 
L 3840 260 
L 3398 260 
L 3398 1924 
z
" id="CMBX12-6e" transform="scale(0.015625)"/>
      <path d="M 832 1189 
C 1139 1024 1498 1024 1594 1024 
C 2477 1024 2829 1514 2829 1960 
C 2829 2285 2643 2515 2566 2578 
C 2752 2676 2906 2700 3014 2713 
C 2995 2682 2976 2658 2976 2578 
C 2976 2450 3066 2334 3232 2334 
C 3398 2334 3488 2455 3488 2588 
C 3488 2741 3373 2944 3104 2944 
C 2829 2944 2566 2803 2432 2682 
C 2170 2834 1920 2891 1594 2891 
C 710 2891 358 2403 358 1957 
C 358 1760 422 1501 691 1285 
C 582 1161 467 933 467 699 
C 467 420 614 180 749 76 
C 595 39 198 -105 198 -461 
C 198 -830 614 -1248 1792 -1248 
C 2854 -1248 3392 -910 3392 -439 
C 3392 114 3021 295 2861 370 
C 2554 521 2144 521 1581 521 
C 1421 521 1139 521 1107 527 
C 832 575 755 829 755 957 
C 755 1010 762 1107 832 1189 
z
M 1594 1227 
C 1037 1227 1037 1665 1037 1957 
C 1037 2250 1037 2688 1594 2688 
C 2150 2688 2150 2250 2150 1957 
C 2150 1665 2150 1227 1594 1227 
z
M 1952 -64 
C 2419 -64 2867 -145 2867 -467 
C 2867 -685 2643 -1045 1798 -1045 
C 954 -1045 723 -697 723 -461 
C 723 -64 1126 -64 1222 -64 
L 1952 -64 
z
" id="CMBX12-67" transform="scale(0.015625)"/>
      <path d="M 2259 2859 
L 2259 2560 
C 2656 2560 2701 2560 2701 2312 
L 2701 1056 
C 2701 569 2413 178 1914 178 
C 1434 178 1408 337 1408 684 
L 1408 2859 
L 269 2859 
L 269 2560 
C 666 2560 710 2560 710 2312 
L 710 794 
C 710 153 1139 -32 1824 -32 
C 1978 -32 2451 -32 2726 496 
L 2733 496 
L 2733 0 
L 3840 0 
L 3840 292 
C 3443 292 3398 292 3398 540 
L 3398 2859 
L 2259 2859 
z
" id="CMBX12-75" transform="scale(0.015625)"/>
      <path d="M 1389 4416 
L 282 4416 
L 282 4117 
C 678 4117 723 4117 723 3866 
L 723 260 
L 282 260 
L 282 -13 
C 429 0 883 0 1056 0 
C 1229 0 1683 0 1830 -13 
L 1830 260 
L 1389 260 
L 1389 4416 
z
" id="CMBX12-6c" transform="scale(0.015625)"/>
      <path d="M 2944 1898 
C 2944 2484 2477 2879 1574 2879 
C 1216 2879 461 2879 461 2334 
C 461 2061 666 1945 838 1945 
C 1030 1945 1216 2079 1216 2323 
C 1216 2445 1171 2559 1062 2630 
C 1274 2688 1427 2688 1549 2688 
C 1984 2688 2246 2445 2246 1919 
L 2246 1663 
C 1235 1663 218 1382 218 676 
C 218 95 960 -32 1402 -32 
C 1894 -32 2208 233 2336 510 
C 2336 274 2336 0 2982 0 
L 3309 0 
C 3443 0 3494 0 3494 145 
C 3494 273 3437 273 3347 273 
C 2944 273 2944 374 2944 522 
L 2944 1898 
z
M 2246 882 
C 2246 291 1709 178 1504 178 
C 1190 178 928 390 928 686 
C 928 1273 1619 1472 2246 1472 
L 2246 882 
z
" id="CMBX12-61" transform="scale(0.015625)"/>
      <path d="M 1331 1411 
C 1331 1619 1376 2624 2125 2624 
C 2035 2555 1990 2448 1990 2336 
C 1990 2079 2202 1972 2362 1972 
C 2522 1972 2733 2079 2733 2337 
C 2733 2658 2400 2834 2093 2834 
C 1587 2834 1370 2401 1280 2137 
L 1274 2137 
L 1274 2816 
L 224 2816 
L 224 2517 
C 621 2517 666 2517 666 2270 
L 666 260 
L 224 260 
L 224 -13 
C 371 0 851 0 1030 0 
C 1216 0 1734 0 1888 -13 
L 1888 260 
L 1331 260 
L 1331 1411 
z
" id="CMBX12-72" transform="scale(0.015625)"/>
      <path d="M 2893 1408 
C 3040 1408 3078 1408 3078 1567 
C 3078 1758 3034 2233 2739 2532 
C 2470 2798 2112 2880 1741 2880 
C 742 2880 198 2233 198 1434 
C 198 545 858 -32 1824 -32 
C 2790 -32 3078 640 3078 748 
C 3078 843 2982 843 2944 843 
C 2842 843 2835 824 2797 742 
C 2630 330 2208 197 1901 197 
C 973 197 966 1053 966 1408 
L 2893 1408 
z
M 966 1593 
C 979 1852 986 2100 1120 2328 
C 1242 2531 1466 2670 1741 2670 
C 2426 2670 2483 1909 2490 1593 
L 966 1593 
z
" id="CMBX12-65" transform="scale(0.015625)"/>
      <path d="M 3392 1395 
C 3392 2252 2803 2880 1798 2880 
C 755 2880 198 2220 198 1395 
C 198 565 787 -32 1792 -32 
C 2835 -32 3392 596 3392 1395 
z
M 1798 197 
C 966 197 966 939 966 1459 
C 966 1757 966 2074 1088 2303 
C 1229 2556 1517 2670 1792 2670 
C 2157 2670 2387 2499 2496 2322 
C 2624 2093 2624 1763 2624 1459 
C 2624 932 2624 197 1798 197 
z
" id="CMBX12-6f" transform="scale(0.015625)"/>
      <path d="M 1350 2560 
L 2272 2560 
L 2272 2833 
L 1350 2833 
L 1350 4032 
L 1082 4032 
C 1075 3405 768 2776 134 2776 
L 134 2560 
L 653 2560 
L 653 789 
C 653 114 1178 -32 1638 -32 
C 2112 -32 2394 325 2394 795 
L 2394 1133 
L 2125 1133 
L 2125 802 
C 2125 381 1933 197 1734 197 
C 1350 197 1350 624 1350 770 
L 1350 2560 
z
" id="CMBX12-74" transform="scale(0.015625)"/>
      <path d="M 1805 -955 
L 1363 -955 
L 1363 268 
C 1523 128 1805 -32 2189 -32 
C 3066 -32 3750 493 3750 1417 
C 3750 2290 3155 2853 2291 2853 
C 1914 2853 1587 2738 1331 2554 
L 1331 2859 
L 224 2859 
L 224 2560 
C 621 2560 666 2560 666 2310 
L 666 -955 
L 224 -955 
L 224 -1228 
C 371 -1216 832 -1216 1011 -1216 
C 1190 -1216 1658 -1216 1805 -1228 
L 1805 -955 
z
M 1363 2246 
C 1600 2530 1939 2624 2189 2624 
C 2605 2624 2982 2251 2982 1417 
C 2982 500 2522 178 2112 178 
C 1837 178 1562 319 1363 620 
L 1363 2246 
z
" id="CMBX12-70" transform="scale(0.015625)"/>
      <path d="M 1997 1088 
L 1997 1673 
L 77 1673 
L 77 1088 
L 1997 1088 
z
" id="CMBX12-2d" transform="scale(0.015625)"/>
      <path d="M 2221 4416 
L 2221 4117 
C 2618 4117 2662 4117 2662 3867 
L 2662 2575 
C 2522 2696 2240 2880 1798 2880 
C 890 2880 243 2318 243 1424 
C 243 510 877 -32 1728 -32 
C 2080 -32 2381 94 2630 311 
L 2630 0 
L 3770 0 
L 3770 292 
C 3373 292 3328 292 3328 540 
L 3328 4416 
L 2221 4416 
z
M 2630 661 
C 2362 262 2035 178 1805 178 
C 1011 178 1011 989 1011 1411 
C 1011 1712 1011 2032 1152 2274 
C 1350 2632 1728 2670 1875 2670 
C 2138 2670 2419 2556 2630 2276 
L 2630 661 
z
" id="CMBX12-64" transform="scale(0.015625)"/>
      <path d="M 1651 3958 
C 1651 4212 1446 4416 1190 4416 
C 934 4416 730 4212 730 3958 
C 730 3704 934 3500 1190 3500 
C 1446 3500 1651 3704 1651 3958 
z
M 499 2859 
L 499 2560 
C 608 2560 749 2560 845 2547 
C 986 2522 986 2439 986 2306 
L 986 -262 
C 986 -548 909 -1038 518 -1038 
C 397 -1038 314 -1012 256 -1000 
C 288 -981 416 -879 416 -688 
C 416 -459 250 -313 38 -313 
C -179 -313 -339 -466 -339 -688 
C -339 -1057 58 -1248 518 -1248 
C 1056 -1248 1651 -919 1651 -268 
L 1651 2859 
L 499 2859 
z
" id="CMBX12-6a" transform="scale(0.015625)"/>
      <path d="M 2995 753 
C 2995 829 2925 829 2861 829 
C 2758 829 2752 823 2720 747 
C 2675 625 2502 197 1914 197 
C 1011 197 1011 1166 1011 1453 
C 1011 1829 1018 2664 1856 2664 
C 1901 2664 2278 2664 2278 2632 
C 2278 2624 2272 2618 2259 2612 
C 2240 2593 2157 2496 2157 2334 
C 2157 2064 2374 1954 2534 1954 
C 2669 1954 2912 2039 2912 2346 
C 2912 2880 2176 2880 1830 2880 
C 691 2880 243 2145 243 1414 
C 243 552 851 -32 1792 -32 
C 2797 -32 2995 708 2995 753 
z
" id="CMBX12-63" transform="scale(0.015625)"/>
      <path d="M 3168 2421 
C 3206 2509 3232 2560 3642 2560 
L 3642 2827 
C 3424 2827 3398 2827 3136 2827 
C 2963 2827 2950 2827 2586 2827 
L 2586 2560 
C 2592 2560 2893 2560 2893 2478 
C 2893 2459 2874 2421 2867 2402 
L 2118 805 
L 1299 2560 
L 1651 2560 
L 1651 2833 
C 1498 2827 1062 2827 883 2827 
C 698 2827 320 2827 154 2833 
L 154 2560 
L 563 2560 
L 1747 20 
C 1715 -56 1626 -240 1594 -316 
C 1459 -601 1254 -1038 806 -1038 
C 781 -1038 704 -1038 634 -1000 
C 646 -993 838 -917 838 -676 
C 838 -468 685 -335 493 -335 
C 294 -335 141 -469 141 -684 
C 141 -982 422 -1248 806 -1248 
C 1331 -1248 1677 -779 1805 -500 
L 3168 2421 
z
" id="CMBX12-79" transform="scale(0.015625)"/>
     </defs>
     <use transform="scale(0.996264)" xlink:href="#CMBX12-41"/>
     <use transform="translate(84.636395 0)scale(0.996264)" xlink:href="#CMBX12-6e"/>
     <use transform="translate(146.902895 0)scale(0.996264)" xlink:href="#CMBX12-67"/>
     <use transform="translate(202.942746 0)scale(0.996264)" xlink:href="#CMBX12-75"/>
     <use transform="translate(265.209246 0)scale(0.996264)" xlink:href="#CMBX12-6c"/>
     <use transform="translate(296.342497 0)scale(0.996264)" xlink:href="#CMBX12-61"/>
     <use transform="translate(350.825685 0)scale(0.996264)" xlink:href="#CMBX12-72"/>
     <use transform="translate(433.963093 0)scale(0.996264)" xlink:href="#CMBX12-65"/>
     <use transform="translate(485.10236 0)scale(0.996264)" xlink:href="#CMBX12-72"/>
     <use transform="translate(530.879867 0)scale(0.996264)" xlink:href="#CMBX12-72"/>
     <use transform="translate(576.657374 0)scale(0.996264)" xlink:href="#CMBX12-6f"/>
     <use transform="translate(632.697225 0)scale(0.996264)" xlink:href="#CMBX12-72"/>
     <use transform="translate(715.834633 0)scale(0.996264)" xlink:href="#CMBX12-74"/>
     <use transform="translate(759.421183 0)scale(0.996264)" xlink:href="#CMBX12-6f"/>
     <use transform="translate(852.820934 0)scale(0.996264)" xlink:href="#CMBX12-70"/>
     <use transform="translate(915.087435 0)scale(0.996264)" xlink:href="#CMBX12-72"/>
     <use transform="translate(960.864942 0)scale(0.996264)" xlink:href="#CMBX12-65"/>
     <use transform="translate(1012.004209 0)scale(0.996264)" xlink:href="#CMBX12-6f"/>
     <use transform="translate(1068.04406 0)scale(0.996264)" xlink:href="#CMBX12-70"/>
     <use transform="translate(1130.31056 0)scale(0.996264)" xlink:href="#CMBX12-2d"/>
     <use transform="translate(1167.670461 0)scale(0.996264)" xlink:href="#CMBX12-70"/>
     <use transform="translate(1229.936961 0)scale(0.996264)" xlink:href="#CMBX12-6c"/>
     <use transform="translate(1261.070212 0)scale(0.996264)" xlink:href="#CMBX12-61"/>
     <use transform="translate(1315.5534 0)scale(0.996264)" xlink:href="#CMBX12-6e"/>
     <use transform="translate(1377.8199 0)scale(0.996264)" xlink:href="#CMBX12-6e"/>
     <use transform="translate(1440.086401 0)scale(0.996264)" xlink:href="#CMBX12-65"/>
     <use transform="translate(1491.225668 0)scale(0.996264)" xlink:href="#CMBX12-64"/>
     <use transform="translate(1590.852069 0)scale(0.996264)" xlink:href="#CMBX12-74"/>
     <use transform="translate(1634.438619 0)scale(0.996264)" xlink:href="#CMBX12-72"/>
     <use transform="translate(1680.216127 0)scale(0.996264)" xlink:href="#CMBX12-61"/>
     <use transform="translate(1740.925965 0)scale(0.996264)" xlink:href="#CMBX12-6a"/>
     <use transform="translate(1775.17254 0)scale(0.996264)" xlink:href="#CMBX12-65"/>
     <use transform="translate(1826.311807 0)scale(0.996264)" xlink:href="#CMBX12-63"/>
     <use transform="translate(1876.125008 0)scale(0.996264)" xlink:href="#CMBX12-74"/>
     <use transform="translate(1919.711558 0)scale(0.996264)" xlink:href="#CMBX12-6f"/>
     <use transform="translate(1975.751409 0)scale(0.996264)" xlink:href="#CMBX12-72"/>
     <use transform="translate(2021.528916 0)scale(0.996264)" xlink:href="#CMBX12-79"/>
    </g>
   </g>
   <g id="legend_1">
    <g id="patch_7">
     <path d="M 525.687614 71.994255 
L 604.069316 71.994255 
Q 606.069316 71.994255 606.069316 69.994255 
L 606.069316 43.119899 
Q 606.069316 41.119899 604.069316 41.119899 
L 525.687614 41.119899 
Q 523.687614 41.119899 523.687614 43.119899 
L 523.687614 69.994255 
Q 523.687614 71.994255 525.687614 71.994255 
z
" style="fill:#ffffff;opacity:0.8;stroke:#cccccc;stroke-linejoin:miter;"/>
    </g>
    <g id="line2d_27">
     <path d="M 527.687614 48.619899 
L 547.687614 48.619899 
" style="fill:none;stroke:#1f77b4;stroke-linecap:square;stroke-width:1.5;"/>
    </g>
    <g id="line2d_28"/>
    <g id="text_16">
     <!-- Assisted -->
     <g transform="translate(555.687614 52.119899)scale(0.1 -0.1)">
      <use transform="scale(0.996264)" xlink:href="#CMR17-41"/>
      <use transform="translate(69.07243 0)scale(0.996264)" xlink:href="#CMR17-73"/>
      <use transform="translate(104.873767 0)scale(0.996264)" xlink:href="#CMR17-73"/>
      <use transform="translate(140.675105 0)scale(0.996264)" xlink:href="#CMR17-69"/>
      <use transform="translate(165.546164 0)scale(0.996264)" xlink:href="#CMR17-73"/>
      <use transform="translate(201.347501 0)scale(0.996264)" xlink:href="#CMR17-74"/>
      <use transform="translate(236.628269 0)scale(0.996264)" xlink:href="#CMR17-65"/>
      <use transform="translate(277.113929 0)scale(0.996264)" xlink:href="#CMR17-64"/>
     </g>
    </g>
    <g id="line2d_29">
     <path d="M 527.687614 62.557077 
L 547.687614 62.557077 
" style="fill:none;stroke:#ff7f0e;stroke-linecap:square;stroke-width:1.5;"/>
    </g>
    <g id="line2d_30"/>
    <g id="text_17">
     <!-- Unassisted -->
     <g transform="translate(555.687614 66.057077)scale(0.1 -0.1)">
      <defs>
       <path d="M 3456 1433 
C 3456 579 2899 38 2291 38 
C 1965 38 1670 210 1491 477 
C 1286 783 1261 1178 1261 1401 
L 1261 3874 
C 1261 4160 1331 4160 1773 4160 
L 1773 4320 
C 1587 4320 1248 4320 1050 4320 
C 851 4320 512 4320 326 4320 
L 326 4160 
C 768 4160 838 4160 838 3874 
L 838 1433 
C 838 516 1536 -128 2278 -128 
C 3110 -128 3590 719 3590 1344 
L 3590 3766 
C 3590 4122 3917 4160 4102 4160 
L 4102 4326 
C 3955 4320 3686 4320 3526 4320 
C 3366 4320 3091 4320 2944 4326 
L 2944 4160 
C 3456 4160 3456 3861 3456 3702 
L 3456 1433 
z
" id="CMR17-55" transform="scale(0.015625)"/>
      </defs>
      <use transform="scale(0.996264)" xlink:href="#CMR17-55"/>
      <use transform="translate(69.07243 0)scale(0.996264)" xlink:href="#CMR17-6e"/>
      <use transform="translate(119.9678 0)scale(0.996264)" xlink:href="#CMR17-61"/>
      <use transform="translate(165.658277 0)scale(0.996264)" xlink:href="#CMR17-73"/>
      <use transform="translate(201.459614 0)scale(0.996264)" xlink:href="#CMR17-73"/>
      <use transform="translate(237.260952 0)scale(0.996264)" xlink:href="#CMR17-69"/>
      <use transform="translate(262.13201 0)scale(0.996264)" xlink:href="#CMR17-73"/>
      <use transform="translate(297.933348 0)scale(0.996264)" xlink:href="#CMR17-74"/>
      <use transform="translate(333.214116 0)scale(0.996264)" xlink:href="#CMR17-65"/>
      <use transform="translate(373.699776 0)scale(0.996264)" xlink:href="#CMR17-64"/>
     </g>
    </g>
   </g>
  </g>
 </g>
 <defs>
  <clipPath id="p531beb4be3">
   <rect height="166.32" width="558" x="53.069316" y="36.119899"/>
  </clipPath>
 </defs>
</svg>
