<?xml version="1.0" encoding="utf-8" standalone="no"?>
<!DOCTYPE svg PUBLIC "-//W3C//DTD SVG 1.1//EN"
  "http://www.w3.org/Graphics/SVG/1.1/DTD/svg11.dtd">
<svg height="224.840497pt" version="1.1" viewBox="0 0 598.343975 224.840497" width="598.343975pt" xmlns="http://www.w3.org/2000/svg" xmlns:xlink="http://www.w3.org/1999/xlink">
 <metadata>
  <rdf:RDF xmlns:cc="http://creativecommons.org/ns#" xmlns:dc="http://purl.org/dc/elements/1.1/" xmlns:rdf="http://www.w3.org/1999/02/22-rdf-syntax-ns#">
   <cc:Work>
    <dc:type rdf:resource="http://purl.org/dc/dcmitype/StillImage"/>
    <dc:date>2022-08-12T16:56:35.514998</dc:date>
    <dc:format>image/svg+xml</dc:format>
    <dc:creator>
     <cc:Agent>
      <dc:title>Matplotlib v3.4.2, https://matplotlib.org/</dc:title>
     </cc:Agent>
    </dc:creator>
   </cc:Work>
  </rdf:RDF>
 </metadata>
 <defs>
  <style type="text/css">*{stroke-linecap:butt;stroke-linejoin:round;}</style>
 </defs>
 <g id="figure_1">
  <g id="patch_1">
   <path d="M 0 224.840497 
L 598.343975 224.840497 
L 598.343975 0 
L 0 0 
z
" style="fill:#ffffff;"/>
  </g>
  <g id="axes_1">
   <g id="patch_2">
    <path d="M 33.143975 187.82218 
L 591.143975 187.82218 
L 591.143975 21.50218 
L 33.143975 21.50218 
z
" style="fill:#ffffff;"/>
   </g>
   <g id="matplotlib.axis_1">
    <g id="xtick_1">
     <g id="line2d_1">
      <path clip-path="url(#p3f3dfcb18e)" d="M 58.507612 187.82218 
L 58.507612 21.50218 
" style="fill:none;stroke:#b0b0b0;stroke-linecap:square;stroke-width:0.8;"/>
     </g>
     <g id="line2d_2">
      <defs>
       <path d="M 0 0 
L 0 3.5 
" id="m24165f4e3d" style="stroke:#000000;stroke-width:0.8;"/>
      </defs>
      <g>
       <use style="stroke:#000000;stroke-width:0.8;" x="58.507612" xlink:href="#m24165f4e3d" y="187.82218"/>
      </g>
     </g>
     <g id="text_1">
      <!-- $\mathdefault{0}$ -->
      <g transform="translate(56.016944 201.740678)scale(0.1 -0.1)">
       <defs>
        <path d="M 2688 2025 
C 2688 2416 2682 3080 2413 3591 
C 2176 4039 1798 4198 1466 4198 
C 1158 4198 768 4058 525 3597 
C 269 3118 243 2524 243 2025 
C 243 1661 250 1106 448 619 
C 723 -39 1216 -128 1466 -128 
C 1760 -128 2208 -7 2470 600 
C 2662 1042 2688 1559 2688 2025 
z
M 1466 -26 
C 1056 -26 813 325 723 812 
C 653 1188 653 1738 653 2096 
C 653 2588 653 2997 736 3387 
C 858 3929 1216 4096 1466 4096 
C 1728 4096 2067 3923 2189 3400 
C 2272 3036 2278 2607 2278 2096 
C 2278 1680 2278 1169 2202 792 
C 2067 95 1690 -26 1466 -26 
z
" id="CMR17-30" transform="scale(0.015625)"/>
       </defs>
       <use transform="scale(0.996264)" xlink:href="#CMR17-30"/>
      </g>
     </g>
    </g>
    <g id="xtick_2">
     <g id="line2d_3">
      <path clip-path="url(#p3f3dfcb18e)" d="M 161.902254 187.82218 
L 161.902254 21.50218 
" style="fill:none;stroke:#b0b0b0;stroke-linecap:square;stroke-width:0.8;"/>
     </g>
     <g id="line2d_4">
      <g>
       <use style="stroke:#000000;stroke-width:0.8;" x="161.902254" xlink:href="#m24165f4e3d" y="187.82218"/>
      </g>
     </g>
     <g id="text_2">
      <!-- $\mathdefault{5}$ -->
      <g transform="translate(159.411587 201.740678)scale(0.1 -0.1)">
       <defs>
        <path d="M 730 3692 
C 794 3666 1056 3584 1325 3584 
C 1920 3584 2246 3911 2432 4100 
C 2432 4157 2432 4192 2394 4192 
C 2387 4192 2374 4192 2323 4163 
C 2099 4058 1837 3973 1517 3973 
C 1325 3973 1037 3999 723 4139 
C 653 4171 640 4171 634 4171 
C 602 4171 595 4164 595 4037 
L 595 2203 
C 595 2089 595 2057 659 2057 
C 691 2057 704 2070 736 2114 
C 941 2401 1222 2522 1542 2522 
C 1766 2522 2246 2382 2246 1289 
C 2246 1085 2246 715 2054 421 
C 1894 159 1645 25 1370 25 
C 947 25 518 320 403 814 
C 429 807 480 795 506 795 
C 589 795 749 840 749 1038 
C 749 1210 627 1280 506 1280 
C 358 1280 262 1190 262 1011 
C 262 454 704 -128 1382 -128 
C 2042 -128 2669 440 2669 1264 
C 2669 2030 2170 2624 1549 2624 
C 1222 2624 947 2503 730 2274 
L 730 3692 
z
" id="CMR17-35" transform="scale(0.015625)"/>
       </defs>
       <use transform="scale(0.996264)" xlink:href="#CMR17-35"/>
      </g>
     </g>
    </g>
    <g id="xtick_3">
     <g id="line2d_5">
      <path clip-path="url(#p3f3dfcb18e)" d="M 265.296897 187.82218 
L 265.296897 21.50218 
" style="fill:none;stroke:#b0b0b0;stroke-linecap:square;stroke-width:0.8;"/>
     </g>
     <g id="line2d_6">
      <g>
       <use style="stroke:#000000;stroke-width:0.8;" x="265.296897" xlink:href="#m24165f4e3d" y="187.82218"/>
      </g>
     </g>
     <g id="text_3">
      <!-- $\mathdefault{10}$ -->
      <g transform="translate(260.315562 201.740678)scale(0.1 -0.1)">
       <defs>
        <path d="M 1702 4058 
C 1702 4192 1696 4192 1606 4192 
C 1357 3916 979 3827 621 3827 
C 602 3827 570 3827 563 3808 
C 557 3795 557 3782 557 3648 
C 755 3648 1088 3686 1344 3839 
L 1344 461 
C 1344 236 1331 160 781 160 
L 589 160 
L 589 0 
C 896 0 1216 0 1523 0 
C 1830 0 2150 0 2458 0 
L 2458 160 
L 2266 160 
C 1715 160 1702 230 1702 458 
L 1702 4058 
z
" id="CMR17-31" transform="scale(0.015625)"/>
       </defs>
       <use transform="scale(0.996264)" xlink:href="#CMR17-31"/>
       <use transform="translate(45.690477 0)scale(0.996264)" xlink:href="#CMR17-30"/>
      </g>
     </g>
    </g>
    <g id="xtick_4">
     <g id="line2d_7">
      <path clip-path="url(#p3f3dfcb18e)" d="M 368.691539 187.82218 
L 368.691539 21.50218 
" style="fill:none;stroke:#b0b0b0;stroke-linecap:square;stroke-width:0.8;"/>
     </g>
     <g id="line2d_8">
      <g>
       <use style="stroke:#000000;stroke-width:0.8;" x="368.691539" xlink:href="#m24165f4e3d" y="187.82218"/>
      </g>
     </g>
     <g id="text_4">
      <!-- $\mathdefault{15}$ -->
      <g transform="translate(363.710204 201.740678)scale(0.1 -0.1)">
       <use transform="scale(0.996264)" xlink:href="#CMR17-31"/>
       <use transform="translate(45.690477 0)scale(0.996264)" xlink:href="#CMR17-35"/>
      </g>
     </g>
    </g>
    <g id="xtick_5">
     <g id="line2d_9">
      <path clip-path="url(#p3f3dfcb18e)" d="M 472.086182 187.82218 
L 472.086182 21.50218 
" style="fill:none;stroke:#b0b0b0;stroke-linecap:square;stroke-width:0.8;"/>
     </g>
     <g id="line2d_10">
      <g>
       <use style="stroke:#000000;stroke-width:0.8;" x="472.086182" xlink:href="#m24165f4e3d" y="187.82218"/>
      </g>
     </g>
     <g id="text_5">
      <!-- $\mathdefault{20}$ -->
      <g transform="translate(467.104847 201.740678)scale(0.1 -0.1)">
       <defs>
        <path d="M 2669 989 
L 2554 989 
C 2490 536 2438 459 2413 420 
C 2381 369 1920 369 1830 369 
L 602 369 
C 832 619 1280 1072 1824 1597 
C 2214 1967 2669 2402 2669 3035 
C 2669 3790 2067 4224 1395 4224 
C 691 4224 262 3604 262 3030 
C 262 2780 448 2748 525 2748 
C 589 2748 781 2787 781 3010 
C 781 3207 614 3264 525 3264 
C 486 3264 448 3258 422 3245 
C 544 3790 915 4058 1306 4058 
C 1862 4058 2227 3617 2227 3035 
C 2227 2479 1901 2000 1536 1584 
L 262 146 
L 262 0 
L 2515 0 
L 2669 989 
z
" id="CMR17-32" transform="scale(0.015625)"/>
       </defs>
       <use transform="scale(0.996264)" xlink:href="#CMR17-32"/>
       <use transform="translate(45.690477 0)scale(0.996264)" xlink:href="#CMR17-30"/>
      </g>
     </g>
    </g>
    <g id="xtick_6">
     <g id="line2d_11">
      <path clip-path="url(#p3f3dfcb18e)" d="M 575.480824 187.82218 
L 575.480824 21.50218 
" style="fill:none;stroke:#b0b0b0;stroke-linecap:square;stroke-width:0.8;"/>
     </g>
     <g id="line2d_12">
      <g>
       <use style="stroke:#000000;stroke-width:0.8;" x="575.480824" xlink:href="#m24165f4e3d" y="187.82218"/>
      </g>
     </g>
     <g id="text_6">
      <!-- $\mathdefault{25}$ -->
      <g transform="translate(570.499489 201.740678)scale(0.1 -0.1)">
       <use transform="scale(0.996264)" xlink:href="#CMR17-32"/>
       <use transform="translate(45.690477 0)scale(0.996264)" xlink:href="#CMR17-35"/>
      </g>
     </g>
    </g>
    <g id="text_7">
     <!-- Time [s] since beginning of the task -->
     <g transform="translate(234.435246 215.149837)scale(0.1 -0.1)">
      <defs>
       <path d="M 3981 4326 
L 288 4326 
L 179 2918 
L 294 2918 
C 378 3976 467 4160 1453 4160 
C 1568 4160 1754 4160 1805 4154 
C 1926 4135 1926 4058 1926 3912 
L 1926 459 
C 1926 230 1907 160 1376 160 
L 1197 160 
L 1197 0 
C 1504 0 1824 0 2138 0 
C 2451 0 2771 0 3078 0 
L 3078 160 
L 2899 160 
C 2368 160 2349 230 2349 459 
L 2349 3912 
C 2349 4052 2349 4129 2464 4154 
C 2515 4160 2701 4160 2816 4160 
C 3795 4160 3891 3976 3974 2918 
L 4090 2918 
L 3981 4326 
z
" id="CMR17-54" transform="scale(0.015625)"/>
       <path d="M 992 3909 
C 992 4049 877 4170 730 4170 
C 589 4170 467 4056 467 3909 
C 467 3769 582 3648 730 3648 
C 870 3648 992 3763 992 3909 
z
M 243 2706 
L 243 2541 
C 602 2541 653 2502 653 2197 
L 653 427 
C 653 184 627 153 218 153 
L 218 -13 
C 371 0 646 0 806 0 
C 960 0 1222 0 1370 -13 
L 1370 153 
C 992 153 979 191 979 420 
L 979 2776 
L 243 2706 
z
" id="CMR17-69" transform="scale(0.015625)"/>
       <path d="M 4326 1933 
C 4326 2252 4269 2790 3507 2790 
C 3072 2790 2771 2496 2656 2151 
L 2650 2151 
C 2573 2676 2195 2790 1837 2790 
C 1331 2790 1069 2400 973 2144 
L 966 2144 
L 966 2790 
L 211 2720 
L 211 2554 
C 589 2554 646 2515 646 2208 
L 646 428 
C 646 184 621 153 211 153 
L 211 -13 
C 365 0 646 0 813 0 
C 979 0 1267 0 1421 -13 
L 1421 153 
C 1011 153 986 178 986 428 
L 986 1658 
C 986 2247 1344 2688 1792 2688 
C 2266 2688 2317 2266 2317 1958 
L 2317 428 
C 2317 184 2291 153 1882 153 
L 1882 -13 
C 2035 0 2317 0 2483 0 
C 2650 0 2938 0 3091 -13 
L 3091 153 
C 2682 153 2656 178 2656 428 
L 2656 1658 
C 2656 2247 3014 2688 3462 2688 
C 3936 2688 3987 2266 3987 1958 
L 3987 428 
C 3987 184 3962 153 3552 153 
L 3552 -13 
C 3706 0 3987 0 4154 0 
C 4320 0 4608 0 4762 -13 
L 4762 153 
C 4352 153 4326 178 4326 428 
L 4326 1933 
z
" id="CMR17-6d" transform="scale(0.015625)"/>
       <path d="M 2438 1472 
C 2464 1498 2464 1511 2464 1576 
C 2464 2238 2118 2816 1389 2816 
C 710 2816 173 2169 173 1383 
C 173 551 781 -64 1459 -64 
C 2176 -64 2458 607 2458 740 
C 2458 784 2419 784 2406 784 
C 2362 784 2355 771 2330 696 
C 2189 265 1837 51 1504 51 
C 1229 51 954 203 781 480 
C 582 803 582 1176 582 1472 
L 2438 1472 
z
M 589 1568 
C 634 2505 1126 2714 1382 2714 
C 1818 2714 2112 2297 2118 1568 
L 589 1568 
z
" id="CMR17-65" transform="scale(0.015625)"/>
       <path d="M 1504 -1600 
L 1504 -1377 
L 902 -1377 
L 902 4544 
L 1504 4544 
L 1504 4767 
L 678 4767 
L 678 -1600 
L 1504 -1600 
z
" id="CMR17-5b" transform="scale(0.015625)"/>
       <path d="M 1978 2697 
C 1978 2813 1971 2819 1933 2819 
C 1907 2819 1901 2813 1824 2717 
C 1805 2691 1747 2626 1728 2601 
C 1523 2819 1235 2819 1126 2819 
C 416 2819 160 2447 160 2076 
C 160 1498 813 1365 998 1325 
C 1402 1243 1542 1217 1677 1101 
C 1760 1025 1901 884 1901 654 
C 1901 384 1747 38 1158 38 
C 602 38 403 460 288 1021 
C 269 1110 269 1117 218 1117 
C 166 1117 160 1110 160 983 
L 160 63 
C 160 -51 166 -58 205 -58 
C 237 -58 243 -51 275 0 
C 314 57 410 211 448 276 
C 576 103 800 -64 1158 -64 
C 1792 -64 2131 283 2131 784 
C 2131 1112 1958 1285 1875 1362 
C 1683 1561 1459 1606 1190 1657 
C 838 1735 390 1825 390 2217 
C 390 2383 480 2737 1126 2737 
C 1811 2737 1850 2094 1862 1888 
C 1869 1856 1901 1849 1920 1849 
C 1978 1849 1978 1869 1978 1978 
L 1978 2697 
z
" id="CMR17-73" transform="scale(0.015625)"/>
       <path d="M 915 4767 
L 90 4767 
L 90 4544 
L 691 4544 
L 691 -1377 
L 90 -1377 
L 90 -1600 
L 915 -1600 
L 915 4767 
z
" id="CMR17-5d" transform="scale(0.015625)"/>
       <path d="M 2656 1933 
C 2656 2259 2592 2790 1837 2790 
C 1331 2790 1069 2400 973 2144 
L 966 2144 
L 966 2790 
L 211 2720 
L 211 2554 
C 589 2554 646 2515 646 2208 
L 646 428 
C 646 184 621 153 211 153 
L 211 -13 
C 365 0 646 0 813 0 
C 979 0 1267 0 1421 -13 
L 1421 153 
C 1011 153 986 178 986 428 
L 986 1658 
C 986 2247 1344 2688 1792 2688 
C 2266 2688 2317 2266 2317 1958 
L 2317 428 
C 2317 184 2291 153 1882 153 
L 1882 -13 
C 2035 0 2317 0 2483 0 
C 2650 0 2938 0 3091 -13 
L 3091 153 
C 2682 153 2656 178 2656 428 
L 2656 1933 
z
" id="CMR17-6e" transform="scale(0.015625)"/>
       <path d="M 2234 2240 
C 2112 2240 1933 2240 1933 2017 
C 1933 1838 2080 1787 2163 1787 
C 2208 1787 2394 1807 2394 2024 
C 2394 2467 1958 2803 1466 2803 
C 787 2803 211 2178 211 1363 
C 211 516 813 -64 1466 -64 
C 2259 -64 2458 677 2458 748 
C 2458 774 2451 793 2406 793 
C 2362 793 2355 787 2330 703 
C 2163 180 1798 51 1523 51 
C 1114 51 621 427 621 1369 
C 621 2338 1094 2688 1472 2688 
C 1722 2688 2093 2573 2234 2240 
z
" id="CMR17-63" transform="scale(0.015625)"/>
       <path d="M 960 4396 
L 198 4326 
L 198 4160 
C 576 4160 634 4122 634 3817 
L 634 -13 
L 749 -13 
L 934 441 
C 1120 141 1395 -64 1766 -64 
C 2406 -64 3053 500 3053 1370 
C 3053 2188 2477 2790 1830 2790 
C 1434 2790 1152 2579 960 2330 
L 960 4396 
z
M 973 2004 
C 973 2118 973 2138 1062 2272 
C 1312 2657 1670 2688 1792 2688 
C 1984 2688 2643 2585 2643 1376 
C 2643 108 1888 38 1734 38 
C 1536 38 1248 114 1043 486 
C 973 608 973 621 973 735 
L 973 2004 
z
" id="CMR17-62" transform="scale(0.015625)"/>
       <path d="M 710 1164 
C 832 1068 1043 960 1299 960 
C 1805 960 2240 1357 2240 1888 
C 2240 2054 2189 2310 1997 2509 
C 2176 2692 2438 2752 2586 2752 
C 2611 2752 2650 2752 2682 2734 
C 2656 2728 2598 2703 2598 2605 
C 2598 2527 2656 2471 2739 2471 
C 2835 2471 2886 2533 2886 2614 
C 2886 2731 2790 2854 2586 2854 
C 2330 2854 2106 2738 1926 2580 
C 1734 2753 1504 2816 1299 2816 
C 794 2816 358 2419 358 1888 
C 358 1522 570 1292 634 1228 
C 442 1004 442 743 442 711 
C 442 545 506 302 723 168 
C 390 85 128 -169 128 -486 
C 128 -943 736 -1280 1466 -1280 
C 2170 -1280 2803 -956 2803 -479 
C 2803 384 1856 384 1363 384 
C 1216 384 954 384 922 391 
C 723 423 589 602 589 826 
C 589 883 589 1024 710 1164 
z
M 1299 1068 
C 736 1068 736 1760 736 1889 
C 736 2016 736 2708 1299 2708 
C 1862 2708 1862 2016 1862 1889 
C 1862 1760 1862 1068 1299 1068 
z
M 1466 -1171 
C 826 -1171 384 -835 384 -486 
C 384 -289 493 -105 634 -4 
C 794 104 858 104 1293 104 
C 1818 104 2547 104 2547 -486 
C 2547 -835 2106 -1171 1466 -1171 
z
" id="CMR17-67" transform="scale(0.015625)"/>
       <path d="M 2758 1356 
C 2758 2176 2163 2816 1466 2816 
C 768 2816 173 2176 173 1356 
C 173 551 768 -64 1466 -64 
C 2163 -64 2758 551 2758 1356 
z
M 1466 51 
C 1165 51 909 230 762 480 
C 602 767 582 1126 582 1408 
C 582 1677 595 2010 762 2298 
C 890 2509 1139 2714 1466 2714 
C 1754 2714 1997 2554 2150 2330 
C 2349 2029 2349 1607 2349 1408 
C 2349 1158 2336 775 2163 467 
C 1984 173 1709 51 1466 51 
z
" id="CMR17-6f" transform="scale(0.015625)"/>
       <path d="M 979 2560 
L 1709 2560 
L 1709 2725 
L 966 2725 
L 966 3494 
C 966 4022 1235 4352 1510 4352 
C 1594 4352 1690 4327 1754 4282 
C 1702 4269 1568 4225 1568 4067 
C 1568 3901 1696 3850 1786 3850 
C 1875 3850 2003 3901 2003 4067 
C 2003 4308 1773 4454 1517 4454 
C 1152 4454 653 4156 653 3481 
L 653 2725 
L 141 2725 
L 141 2560 
L 653 2560 
L 653 427 
C 653 184 627 153 218 153 
L 218 -13 
C 371 0 666 0 832 0 
C 1018 0 1344 0 1517 -13 
L 1517 153 
C 1056 153 979 153 979 439 
L 979 2560 
z
" id="CMR17-66" transform="scale(0.015625)"/>
       <path d="M 966 2560 
L 1862 2560 
L 1862 2725 
L 966 2725 
L 966 3904 
L 851 3904 
C 838 3245 614 2668 70 2668 
L 70 2560 
L 627 2560 
L 627 771 
C 627 650 627 -64 1370 -64 
C 1747 -64 1965 306 1965 777 
L 1965 1140 
L 1850 1140 
L 1850 783 
C 1850 344 1677 51 1408 51 
C 1222 51 966 178 966 758 
L 966 2560 
z
" id="CMR17-74" transform="scale(0.015625)"/>
       <path d="M 2656 1933 
C 2656 2259 2592 2790 1837 2790 
C 1312 2790 1056 2368 979 2157 
L 973 2157 
L 973 4396 
L 211 4326 
L 211 4160 
C 589 4160 646 4122 646 3817 
L 646 426 
C 646 184 621 153 211 153 
L 211 -13 
C 365 0 646 0 813 0 
C 979 0 1267 0 1421 -13 
L 1421 153 
C 1011 153 986 178 986 428 
L 986 1658 
C 986 2247 1344 2688 1792 2688 
C 2266 2688 2317 2266 2317 1958 
L 2317 428 
C 2317 184 2291 153 1882 153 
L 1882 -13 
C 2035 0 2317 0 2483 0 
C 2650 0 2938 0 3091 -13 
L 3091 153 
C 2682 153 2656 178 2656 428 
L 2656 1933 
z
" id="CMR17-68" transform="scale(0.015625)"/>
       <path d="M 2304 1653 
C 2304 2072 2304 2294 2035 2543 
C 1798 2752 1523 2816 1306 2816 
C 800 2816 435 2407 435 1971 
C 435 1728 627 1728 666 1728 
C 749 1728 896 1778 896 1954 
C 896 2112 774 2181 666 2181 
C 640 2181 608 2174 589 2168 
C 723 2592 1069 2714 1293 2714 
C 1613 2714 1965 2429 1965 1885 
L 1965 1600 
C 1587 1600 1133 1549 774 1357 
C 371 1133 256 813 256 570 
C 256 77 832 -64 1171 -64 
C 1523 -64 1850 139 1990 511 
C 2003 233 2182 -18 2464 -18 
C 2598 -18 2938 70 2938 567 
L 2938 920 
L 2822 920 
L 2822 562 
C 2822 178 2650 128 2566 128 
C 2304 128 2304 458 2304 738 
L 2304 1653 
z
M 1965 870 
C 1965 317 1568 38 1216 38 
C 896 38 646 275 646 570 
C 646 761 730 1100 1101 1305 
C 1408 1478 1760 1504 1965 1504 
L 1965 870 
z
" id="CMR17-61" transform="scale(0.015625)"/>
       <path d="M 1670 1673 
C 1664 1686 1632 1724 1632 1743 
C 1632 1756 2086 2171 2144 2222 
C 2509 2528 2739 2560 2906 2560 
L 2906 2733 
C 2867 2733 2854 2733 2848 2720 
L 2534 2720 
C 2355 2720 2080 2720 1907 2733 
L 1907 2566 
C 1997 2559 2061 2508 2061 2419 
C 2061 2291 1933 2170 1926 2170 
L 960 1289 
L 960 4396 
L 198 4326 
L 198 4160 
C 576 4160 634 4122 634 3817 
L 634 426 
C 634 184 608 153 198 153 
L 198 -13 
C 352 0 634 0 794 0 
C 954 0 1235 0 1389 -13 
L 1389 153 
C 979 153 954 178 954 428 
L 954 1130 
L 1395 1532 
L 2042 574 
C 2118 459 2182 369 2182 286 
C 2182 172 2067 153 1990 153 
L 1990 -13 
C 2144 0 2419 0 2579 0 
C 2694 0 2931 0 3040 0 
L 3040 153 
C 2739 153 2669 210 2477 491 
L 1670 1673 
z
" id="CMR17-6b" transform="scale(0.015625)"/>
      </defs>
      <use transform="scale(0.996264)" xlink:href="#CMR17-54"/>
      <use transform="translate(66.509881 0)scale(0.996264)" xlink:href="#CMR17-69"/>
      <use transform="translate(91.380939 0)scale(0.996264)" xlink:href="#CMR17-6d"/>
      <use transform="translate(168.300529 0)scale(0.996264)" xlink:href="#CMR17-65"/>
      <use transform="translate(238.862156 0)scale(0.996264)" xlink:href="#CMR17-5b"/>
      <use transform="translate(263.733214 0)scale(0.996264)" xlink:href="#CMR17-73"/>
      <use transform="translate(299.534552 0)scale(0.996264)" xlink:href="#CMR17-5d"/>
      <use transform="translate(354.481577 0)scale(0.996264)" xlink:href="#CMR17-73"/>
      <use transform="translate(390.282914 0)scale(0.996264)" xlink:href="#CMR17-69"/>
      <use transform="translate(415.153973 0)scale(0.996264)" xlink:href="#CMR17-6e"/>
      <use transform="translate(466.049343 0)scale(0.996264)" xlink:href="#CMR17-63"/>
      <use transform="translate(506.535003 0)scale(0.996264)" xlink:href="#CMR17-65"/>
      <use transform="translate(577.09663 0)scale(0.996264)" xlink:href="#CMR17-62"/>
      <use transform="translate(630.594438 0)scale(0.996264)" xlink:href="#CMR17-65"/>
      <use transform="translate(671.080099 0)scale(0.996264)" xlink:href="#CMR17-67"/>
      <use transform="translate(716.770576 0)scale(0.996264)" xlink:href="#CMR17-69"/>
      <use transform="translate(741.641634 0)scale(0.996264)" xlink:href="#CMR17-6e"/>
      <use transform="translate(792.537004 0)scale(0.996264)" xlink:href="#CMR17-6e"/>
      <use transform="translate(843.432374 0)scale(0.996264)" xlink:href="#CMR17-69"/>
      <use transform="translate(868.303432 0)scale(0.996264)" xlink:href="#CMR17-6e"/>
      <use transform="translate(919.198802 0)scale(0.996264)" xlink:href="#CMR17-67"/>
      <use transform="translate(994.965246 0)scale(0.996264)" xlink:href="#CMR17-6f"/>
      <use transform="translate(1040.655723 0)scale(0.996264)" xlink:href="#CMR17-66"/>
      <use transform="translate(1098.205202 0)scale(0.996264)" xlink:href="#CMR17-74"/>
      <use transform="translate(1133.485969 0)scale(0.996264)" xlink:href="#CMR17-68"/>
      <use transform="translate(1184.381339 0)scale(0.996264)" xlink:href="#CMR17-65"/>
      <use transform="translate(1254.942966 0)scale(0.996264)" xlink:href="#CMR17-74"/>
      <use transform="translate(1290.223734 0)scale(0.996264)" xlink:href="#CMR17-61"/>
      <use transform="translate(1335.914211 0)scale(0.996264)" xlink:href="#CMR17-73"/>
      <use transform="translate(1371.715549 0)scale(0.996264)" xlink:href="#CMR17-6b"/>
     </g>
    </g>
   </g>
   <g id="matplotlib.axis_2">
    <g id="ytick_1">
     <g id="line2d_13">
      <path clip-path="url(#p3f3dfcb18e)" d="M 33.143975 181.540545 
L 591.143975 181.540545 
" style="fill:none;stroke:#b0b0b0;stroke-linecap:square;stroke-width:0.8;"/>
     </g>
     <g id="line2d_14">
      <defs>
       <path d="M 0 0 
L -3.5 0 
" id="m50516a5e68" style="stroke:#000000;stroke-width:0.8;"/>
      </defs>
      <g>
       <use style="stroke:#000000;stroke-width:0.8;" x="33.143975" xlink:href="#m50516a5e68" y="181.540545"/>
      </g>
     </g>
     <g id="text_8">
      <!-- $\mathdefault{0}$ -->
      <g transform="translate(21.16264 184.999794)scale(0.1 -0.1)">
       <use transform="scale(0.996264)" xlink:href="#CMR17-30"/>
      </g>
     </g>
    </g>
    <g id="ytick_2">
     <g id="line2d_15">
      <path clip-path="url(#p3f3dfcb18e)" d="M 33.143975 159.524406 
L 591.143975 159.524406 
" style="fill:none;stroke:#b0b0b0;stroke-linecap:square;stroke-width:0.8;"/>
     </g>
     <g id="line2d_16">
      <g>
       <use style="stroke:#000000;stroke-width:0.8;" x="33.143975" xlink:href="#m50516a5e68" y="159.524406"/>
      </g>
     </g>
     <g id="text_9">
      <!-- $\mathdefault{1}$ -->
      <g transform="translate(21.16264 162.983655)scale(0.1 -0.1)">
       <use transform="scale(0.996264)" xlink:href="#CMR17-31"/>
      </g>
     </g>
    </g>
    <g id="ytick_3">
     <g id="line2d_17">
      <path clip-path="url(#p3f3dfcb18e)" d="M 33.143975 137.508266 
L 591.143975 137.508266 
" style="fill:none;stroke:#b0b0b0;stroke-linecap:square;stroke-width:0.8;"/>
     </g>
     <g id="line2d_18">
      <g>
       <use style="stroke:#000000;stroke-width:0.8;" x="33.143975" xlink:href="#m50516a5e68" y="137.508266"/>
      </g>
     </g>
     <g id="text_10">
      <!-- $\mathdefault{2}$ -->
      <g transform="translate(21.16264 140.967516)scale(0.1 -0.1)">
       <use transform="scale(0.996264)" xlink:href="#CMR17-32"/>
      </g>
     </g>
    </g>
    <g id="ytick_4">
     <g id="line2d_19">
      <path clip-path="url(#p3f3dfcb18e)" d="M 33.143975 115.492127 
L 591.143975 115.492127 
" style="fill:none;stroke:#b0b0b0;stroke-linecap:square;stroke-width:0.8;"/>
     </g>
     <g id="line2d_20">
      <g>
       <use style="stroke:#000000;stroke-width:0.8;" x="33.143975" xlink:href="#m50516a5e68" y="115.492127"/>
      </g>
     </g>
     <g id="text_11">
      <!-- $\mathdefault{3}$ -->
      <g transform="translate(21.16264 118.951376)scale(0.1 -0.1)">
       <defs>
        <path d="M 1414 2157 
C 1984 2157 2234 1662 2234 1090 
C 2234 320 1824 25 1453 25 
C 1114 25 563 194 390 693 
C 422 680 454 680 486 680 
C 640 680 755 782 755 948 
C 755 1133 614 1216 486 1216 
C 378 1216 211 1165 211 926 
C 211 335 787 -128 1466 -128 
C 2176 -128 2720 430 2720 1085 
C 2720 1707 2208 2157 1600 2227 
C 2086 2328 2554 2756 2554 3329 
C 2554 3820 2048 4179 1472 4179 
C 890 4179 378 3829 378 3329 
C 378 3110 544 3072 627 3072 
C 762 3072 877 3155 877 3321 
C 877 3486 762 3569 627 3569 
C 602 3569 570 3569 544 3557 
C 730 3959 1235 4032 1459 4032 
C 1683 4032 2106 3925 2106 3320 
C 2106 3143 2080 2828 1862 2550 
C 1670 2304 1453 2304 1242 2284 
C 1210 2284 1062 2269 1037 2269 
C 992 2263 966 2257 966 2208 
C 966 2163 973 2157 1101 2157 
L 1414 2157 
z
" id="CMR17-33" transform="scale(0.015625)"/>
       </defs>
       <use transform="scale(0.996264)" xlink:href="#CMR17-33"/>
      </g>
     </g>
    </g>
    <g id="ytick_5">
     <g id="line2d_21">
      <path clip-path="url(#p3f3dfcb18e)" d="M 33.143975 93.475988 
L 591.143975 93.475988 
" style="fill:none;stroke:#b0b0b0;stroke-linecap:square;stroke-width:0.8;"/>
     </g>
     <g id="line2d_22">
      <g>
       <use style="stroke:#000000;stroke-width:0.8;" x="33.143975" xlink:href="#m50516a5e68" y="93.475988"/>
      </g>
     </g>
     <g id="text_12">
      <!-- $\mathdefault{4}$ -->
      <g transform="translate(21.16264 96.935237)scale(0.1 -0.1)">
       <defs>
        <path d="M 2150 4122 
C 2150 4256 2144 4256 2029 4256 
L 128 1254 
L 128 1088 
L 1779 1088 
L 1779 457 
C 1779 224 1766 160 1318 160 
L 1197 160 
L 1197 0 
C 1402 0 1747 0 1965 0 
C 2182 0 2528 0 2733 0 
L 2733 160 
L 2611 160 
C 2163 160 2150 224 2150 457 
L 2150 1088 
L 2803 1088 
L 2803 1254 
L 2150 1254 
L 2150 4122 
z
M 1798 3703 
L 1798 1254 
L 256 1254 
L 1798 3703 
z
" id="CMR17-34" transform="scale(0.015625)"/>
       </defs>
       <use transform="scale(0.996264)" xlink:href="#CMR17-34"/>
      </g>
     </g>
    </g>
    <g id="ytick_6">
     <g id="line2d_23">
      <path clip-path="url(#p3f3dfcb18e)" d="M 33.143975 71.459848 
L 591.143975 71.459848 
" style="fill:none;stroke:#b0b0b0;stroke-linecap:square;stroke-width:0.8;"/>
     </g>
     <g id="line2d_24">
      <g>
       <use style="stroke:#000000;stroke-width:0.8;" x="33.143975" xlink:href="#m50516a5e68" y="71.459848"/>
      </g>
     </g>
     <g id="text_13">
      <!-- $\mathdefault{5}$ -->
      <g transform="translate(21.16264 74.919097)scale(0.1 -0.1)">
       <use transform="scale(0.996264)" xlink:href="#CMR17-35"/>
      </g>
     </g>
    </g>
    <g id="ytick_7">
     <g id="line2d_25">
      <path clip-path="url(#p3f3dfcb18e)" d="M 33.143975 49.443709 
L 591.143975 49.443709 
" style="fill:none;stroke:#b0b0b0;stroke-linecap:square;stroke-width:0.8;"/>
     </g>
     <g id="line2d_26">
      <g>
       <use style="stroke:#000000;stroke-width:0.8;" x="33.143975" xlink:href="#m50516a5e68" y="49.443709"/>
      </g>
     </g>
     <g id="text_14">
      <!-- $\mathdefault{6}$ -->
      <g transform="translate(21.16264 52.902958)scale(0.1 -0.1)">
       <defs>
        <path d="M 678 2176 
C 678 3690 1395 4032 1811 4032 
C 1946 4032 2272 4009 2400 3776 
C 2298 3776 2106 3776 2106 3553 
C 2106 3381 2246 3323 2336 3323 
C 2394 3323 2566 3348 2566 3560 
C 2566 3954 2246 4179 1805 4179 
C 1043 4179 243 3390 243 1984 
C 243 253 966 -128 1478 -128 
C 2099 -128 2688 427 2688 1283 
C 2688 2081 2170 2662 1517 2662 
C 1126 2662 838 2407 678 1960 
L 678 2176 
z
M 1478 25 
C 691 25 691 1200 691 1436 
C 691 1896 909 2560 1504 2560 
C 1613 2560 1926 2560 2138 2120 
C 2253 1870 2253 1609 2253 1289 
C 2253 944 2253 690 2118 434 
C 1978 171 1773 25 1478 25 
z
" id="CMR17-36" transform="scale(0.015625)"/>
       </defs>
       <use transform="scale(0.996264)" xlink:href="#CMR17-36"/>
      </g>
     </g>
    </g>
    <g id="ytick_8">
     <g id="line2d_27">
      <path clip-path="url(#p3f3dfcb18e)" d="M 33.143975 27.42757 
L 591.143975 27.42757 
" style="fill:none;stroke:#b0b0b0;stroke-linecap:square;stroke-width:0.8;"/>
     </g>
     <g id="line2d_28">
      <g>
       <use style="stroke:#000000;stroke-width:0.8;" x="33.143975" xlink:href="#m50516a5e68" y="27.42757"/>
      </g>
     </g>
     <g id="text_15">
      <!-- $\mathdefault{7}$ -->
      <g transform="translate(21.16264 30.886819)scale(0.1 -0.1)">
       <defs>
        <path d="M 2886 3941 
L 2886 4081 
L 1382 4081 
C 634 4081 621 4165 595 4288 
L 480 4288 
L 294 3094 
L 410 3094 
C 429 3215 474 3540 550 3661 
C 589 3712 1062 3712 1171 3712 
L 2579 3712 
L 1869 2661 
C 1395 1954 1069 999 1069 165 
C 1069 89 1069 -128 1299 -128 
C 1530 -128 1530 89 1530 171 
L 1530 465 
C 1530 1508 1709 2196 2003 2636 
L 2886 3941 
z
" id="CMR17-37" transform="scale(0.015625)"/>
       </defs>
       <use transform="scale(0.996264)" xlink:href="#CMR17-37"/>
      </g>
     </g>
    </g>
    <g id="text_16">
     <!-- Error [mm] -->
     <g transform="translate(14.67198 129.126051)rotate(-90)scale(0.1 -0.1)">
      <defs>
       <path d="M 3885 1615 
L 3770 1615 
C 3629 676 3546 166 2419 166 
L 1530 166 
C 1274 166 1261 197 1261 414 
L 1261 2176 
L 1862 2176 
C 2464 2176 2522 1960 2522 1430 
L 2637 1430 
L 2637 3081 
L 2522 3081 
C 2522 2557 2464 2342 1862 2342 
L 1261 2342 
L 1261 3913 
C 1261 4128 1274 4160 1530 4160 
L 2406 4160 
C 3398 4160 3514 3769 3603 2929 
L 3718 2929 
L 3565 4325 
L 326 4325 
L 326 4160 
C 768 4160 838 4160 838 3874 
L 838 451 
C 838 166 768 166 326 166 
L 326 0 
L 3654 0 
L 3885 1615 
z
" id="CMR17-45" transform="scale(0.015625)"/>
       <path d="M 960 1497 
C 960 2112 1222 2688 1702 2688 
C 1747 2688 1792 2682 1837 2662 
C 1837 2662 1696 2617 1696 2452 
C 1696 2298 1818 2234 1914 2234 
C 1990 2234 2131 2279 2131 2458 
C 2131 2663 1926 2790 1709 2790 
C 1222 2790 1011 2317 947 2093 
L 941 2093 
L 941 2790 
L 198 2720 
L 198 2554 
C 576 2554 634 2515 634 2208 
L 634 428 
C 634 184 608 153 198 153 
L 198 -13 
C 352 0 646 0 813 0 
C 998 0 1325 0 1498 -13 
L 1498 153 
C 1037 153 960 153 960 440 
L 960 1497 
z
" id="CMR17-72" transform="scale(0.015625)"/>
      </defs>
      <use transform="scale(0.996264)" xlink:href="#CMR17-45"/>
      <use transform="translate(62.586301 0)scale(0.996264)" xlink:href="#CMR17-72"/>
      <use transform="translate(97.867068 0)scale(0.996264)" xlink:href="#CMR17-72"/>
      <use transform="translate(133.147836 0)scale(0.996264)" xlink:href="#CMR17-6f"/>
      <use transform="translate(178.838313 0)scale(0.996264)" xlink:href="#CMR17-72"/>
      <use transform="translate(244.195047 0)scale(0.996264)" xlink:href="#CMR17-5b"/>
      <use transform="translate(269.066106 0)scale(0.996264)" xlink:href="#CMR17-6d"/>
      <use transform="translate(345.985696 0)scale(0.996264)" xlink:href="#CMR17-6d"/>
      <use transform="translate(422.905286 0)scale(0.996264)" xlink:href="#CMR17-5d"/>
     </g>
    </g>
   </g>
   <g id="line2d_29">
    <path clip-path="url(#p3f3dfcb18e)" d="M 58.507612 147.981586 
L 93.314384 147.997262 
L 94.522034 151.154838 
L 95.229253 149.825416 
L 95.698665 149.82535 
L 96.302489 149.485993 
L 96.83187 148.249236 
L 97.47912 147.893367 
L 97.967143 147.893367 
L 98.446894 149.426439 
L 99.42294 150.704939 
L 99.815839 150.704939 
L 100.258368 151.207017 
L 101.027625 151.761339 
L 102.020213 151.886501 
L 102.855642 151.405272 
L 103.248541 151.10015 
L 103.761379 151.355758 
L 104.154278 150.449111 
L 104.582332 150.417386 
L 104.958689 151.385986 
L 105.397082 151.623188 
L 106.184949 153.546892 
L 106.617139 154.320891 
L 107.812381 159.812342 
L 108.271453 159.751416 
L 108.668489 161.225133 
L 109.055185 163.158053 
L 109.489442 164.692897 
L 109.905089 168.216208 
L 111.362953 175.309557 
L 111.772396 177.979895 
L 112.15082 178.964298 
L 112.463072 178.964298 
L 112.930416 179.831171 
L 113.321248 179.869233 
L 113.73069 176.952457 
L 114.117386 175.87048 
L 114.708804 175.411477 
L 115.145129 173.867287 
L 116.00744 173.762016 
L 116.780832 171.546946 
L 117.200614 170.559932 
L 117.947124 170.398987 
L 118.273851 170.398987 
L 118.997613 168.773732 
L 119.700697 168.532598 
L 120.118411 168.794367 
L 120.4927 167.83735 
L 121.03242 168.084232 
L 121.745843 169.543006 
L 122.490284 170.002098 
L 122.833555 170.002098 
L 123.600743 170.98994 
L 123.931606 171.102198 
L 124.307962 171.937898 
L 124.62435 172.031196 
L 124.988299 172.8455 
L 125.379131 173.10485 
L 126.138047 173.200323 
L 126.516472 174.201012 
L 126.882489 174.510539 
L 127.407734 175.776524 
L 127.78409 176.155745 
L 128.189397 177.466113 
L 128.561618 177.349993 
L 128.909024 176.952853 
L 129.299856 176.067487 
L 129.680348 177.617593 
L 130.445468 175.299769 
L 130.788738 176.509164 
L 131.084447 176.509164 
L 131.456668 177.434749 
L 131.802006 177.624462 
L 132.149412 176.791309 
L 132.529904 177.573847 
L 133.253667 173.886434 
L 133.716875 173.848221 
L 134.46752 170.363968 
L 134.827333 170.363968 
L 135.205758 170.992595 
L 135.588318 172.054603 
L 135.943995 170.468915 
L 136.374117 170.992712 
L 136.826986 171.202603 
L 137.215749 171.533514 
L 137.672754 172.735181 
L 138.080129 171.795039 
L 138.51025 172.392681 
L 138.950711 172.298238 
L 139.358086 172.365799 
L 139.848177 172.287411 
L 140.28657 170.859534 
L 141.874712 171.134381 
L 142.217982 173.388867 
L 142.617086 177.273298 
L 143.140262 179.542515 
L 143.713069 176.495701 
L 144.201091 176.495701 
L 144.747015 176.262731 
L 145.352908 173.921286 
L 145.888492 173.921286 
L 146.436484 173.463898 
L 147.149907 170.352071 
L 147.660676 170.352071 
L 148.194193 169.987092 
L 148.651197 169.987092 
L 149.126812 171.174048 
L 149.579681 171.202693 
L 150.030481 170.722475 
L 150.872114 169.152581 
L 152.189362 169.740828 
L 153.055809 170.333993 
L 153.56451 169.641418 
L 154.215897 171.087692 
L 154.623271 171.087692 
L 155.481447 174.051515 
L 155.903297 175.557624 
L 156.356166 175.997806 
L 157.144033 178.394681 
L 157.545204 178.221443 
L 157.890542 178.771227 
L 158.3248 178.787295 
L 158.732175 180.26218 
L 159.120938 179.077159 
L 159.51177 179.226744 
L 159.890194 179.577425 
L 160.303773 179.249894 
L 160.857968 179.566924 
L 161.703737 176.410446 
L 162.080093 177.218713 
L 162.508147 176.207831 
L 162.919658 176.672962 
L 163.314625 176.307505 
L 163.71166 174.125441 
L 164.096289 173.875653 
L 164.505731 175.039076 
L 164.915174 175.057307 
L 165.303938 174.797618 
L 165.696838 175.733231 
L 166.929302 173.77568 
L 167.4318 174.602861 
L 168.794541 172.291651 
L 169.172966 170.856067 
L 169.607223 170.260151 
L 170.097314 166.515635 
L 170.548114 166.515635 
L 170.94515 166.130674 
L 171.770239 164.914998 
L 172.165206 164.606821 
L 206.498431 164.605541 
L 206.905806 169.758615 
L 207.259416 172.525953 
L 207.662655 174.210712 
L 208.1879 173.611188 
L 208.537374 170.875188 
L 208.975767 168.352479 
L 209.381074 169.168981 
L 209.80706 168.275969 
L 210.210299 167.734325 
L 210.568045 165.917501 
L 210.93613 165.917501 
L 211.324893 165.122789 
L 211.682639 163.486492 
L 212.042452 162.461161 
L 212.393994 159.642835 
L 212.776554 158.665116 
L 213.194269 157.952409 
L 213.992475 158.165438 
L 214.348153 157.80598 
L 214.811361 158.129243 
L 215.198057 158.070966 
L 215.555802 159.337401 
L 215.859782 159.337401 
L 216.240275 160.300222 
L 216.560798 162.10143 
L 216.899932 161.153862 
L 217.278357 161.574188 
L 217.623695 161.5854 
L 218.008323 162.983516 
L 218.419834 164.951985 
L 218.787919 164.951985 
L 219.232516 166.807538 
L 219.654366 169.61311 
L 220.179611 170.214228 
L 220.653158 170.214228 
L 222.317812 169.471179 
L 223.072593 169.443804 
L 223.814966 166.94731 
L 224.224409 166.765948 
L 224.627648 165.737904 
L 224.987461 165.737904 
L 225.421719 164.359302 
L 225.810483 164.022508 
L 226.162025 163.048206 
L 226.602486 162.683792 
L 226.968503 162.883344 
L 227.336588 161.016741 
L 227.723284 160.603166 
L 228.122387 159.67943 
L 228.674514 159.380288 
L 229.220438 159.404374 
L 229.621609 157.098315 
L 230.831327 157.160665 
L 231.19114 157.632955 
L 231.569564 156.895679 
L 231.976939 157.132374 
L 232.37811 157.92293 
L 232.82064 158.089086 
L 233.211471 157.635157 
L 233.591964 157.801797 
L 233.982795 157.703187 
L 234.363288 158.521857 
L 236.056892 160.141166 
L 236.40223 161.41994 
L 236.768247 161.2028 
L 237.132196 162.182377 
L 237.508553 162.401895 
L 237.924199 164.325846 
L 238.211636 164.325846 
L 238.590061 163.816703 
L 239.016047 162.910805 
L 239.437897 165.717381 
L 239.917648 165.66967 
L 240.312615 166.642761 
L 240.697243 166.458281 
L 241.11289 167.38293 
L 241.53474 165.311418 
L 241.95659 164.728358 
L 242.341218 165.64578 
L 242.703099 166.909636 
L 243.104271 166.141962 
L 243.478559 167.009237 
L 243.863187 164.46514 
L 244.285038 163.861167 
L 244.65519 165.059642 
L 245.474076 162.767705 
L 245.864908 161.957405 
L 246.303301 163.055799 
L 246.646571 165.271642 
L 247.035335 166.704855 
L 247.535765 165.959726 
L 247.939004 167.36249 
L 248.737211 168.048958 
L 249.159061 167.011696 
L 249.516806 167.601665 
L 249.895231 167.735281 
L 250.381186 167.775857 
L 250.800968 168.581874 
L 251.870068 168.368527 
L 252.244357 168.00698 
L 252.595899 167.046046 
L 253.367223 167.039972 
L 253.787005 166.928372 
L 254.148886 164.976342 
L 254.585212 164.594093 
L 254.967772 161.779002 
L 255.368943 160.019172 
L 255.757707 159.72643 
L 256.136131 159.197973 
L 257.771835 159.012817 
L 258.206092 158.669255 
L 258.677572 158.0104 
L 259.095286 157.183011 
L 259.556426 155.97514 
L 260.089943 155.15614 
L 260.53454 153.649839 
L 260.929507 152.733329 
L 261.363765 150.322738 
L 261.80009 148.742442 
L 262.542463 147.387106 
L 262.945703 147.317976 
L 263.295176 146.252879 
L 263.696348 146.293146 
L 264.089247 146.757181 
L 265.218317 146.943107 
L 265.646371 146.518988 
L 266.07856 145.344625 
L 283.177966 145.338086 
L 283.610156 141.305918 
L 283.972037 134.951114 
L 284.346326 135.104787 
L 284.761972 135.430009 
L 285.584994 136.918388 
L 285.944807 137.851036 
L 286.374929 139.473537 
L 287.216561 144.23488 
L 287.623936 146.699388 
L 287.989953 149.666019 
L 288.798499 153.965947 
L 289.094208 153.965947 
L 289.491243 155.490807 
L 289.85726 158.531588 
L 290.655467 161.758982 
L 291.910678 164.101603 
L 292.305645 164.17015 
L 293.203111 165.671931 
L 293.641504 165.85665 
L 294.086101 165.833516 
L 294.512087 164.763793 
L 295.324769 165.379422 
L 295.711465 165.471866 
L 296.065074 165.790576 
L 296.439363 164.948667 
L 296.832263 165.274766 
L 297.169329 164.730342 
L 297.932382 164.1694 
L 298.271516 164.347854 
L 298.683027 163.882498 
L 299.028365 163.882498 
L 299.537067 163.512814 
L 299.948577 162.814526 
L 300.589624 162.814526 
L 300.97632 162.235821 
L 301.315454 160.881432 
L 301.669064 158.976908 
L 302.076439 157.903974 
L 302.415573 157.722385 
L 302.731961 157.722385 
L 303.817605 156.784629 
L 304.193961 156.526556 
L 304.545503 155.542325 
L 305.366457 154.606066 
L 305.8338 154.653203 
L 306.365249 154.5597 
L 306.760216 154.150156 
L 307.173795 154.233069 
L 307.583238 154.448739 
L 307.984409 154.967285 
L 308.379376 155.284912 
L 308.780548 155.433323 
L 309.512582 155.473326 
L 309.84758 155.985223 
L 310.197054 155.985223 
L 310.54446 156.202501 
L 311.338531 155.21129 
L 311.778992 155.130183 
L 312.194639 155.905921 
L 312.599946 155.654035 
L 313.578059 157.052103 
L 313.981298 157.052103 
L 314.415556 157.527014 
L 314.80432 158.228998 
L 315.151726 158.228998 
L 315.664563 159.455605 
L 316.042987 159.455671 
L 316.473109 160.257986 
L 316.863941 160.596739 
L 317.196872 160.596739 
L 317.970263 161.300965 
L 318.359027 161.392396 
L 319.192388 160.813017 
L 319.756923 160.996493 
L 320.15189 160.739252 
L 320.637845 160.019725 
L 321.353336 160.019725 
L 322.143271 159.72328 
L 322.962157 160.00517 
L 323.340581 160.314602 
L 323.745888 161.579154 
L 324.161535 161.765994 
L 324.595792 163.065041 
L 325.377456 163.498775 
L 326.289396 164.680773 
L 326.773283 164.678985 
L 327.528064 165.773658 
L 327.91476 165.691248 
L 328.25803 165.105202 
L 328.628183 165.217242 
L 329.054169 164.916726 
L 329.864783 163.398546 
L 330.263886 163.533769 
L 330.677465 164.263226 
L 331.093111 164.574069 
L 331.463264 164.180584 
L 334.457573 168.044031 
L 335.218558 168.458313 
L 335.960931 168.50705 
L 336.703305 168.48918 
L 338.260428 168.869493 
L 338.61197 169.352052 
L 338.998666 169.681587 
L 340.349 170.14871 
L 340.737764 170.371612 
L 341.933006 170.467178 
L 342.753959 170.410986 
L 343.144791 170.422459 
L 343.564573 170.215443 
L 343.924387 169.140208 
L 349.319519 168.365198 
L 350.136337 168.312579 
L 351.277814 168.372296 
L 353.384996 168.336046 
L 353.910241 169.845198 
L 354.795299 170.561733 
L 355.175792 162.214038 
L 356.106343 161.081286 
L 356.495107 160.508562 
L 356.912822 160.421511 
L 357.746182 159.157925 
L 358.575407 159.247817 
L 360.1925 157.143757 
L 361.02586 156.680141 
L 361.435303 156.836169 
L 361.8799 156.586594 
L 362.597459 155.804229 
L 363.056531 155.674003 
L 363.374987 156.31049 
L 363.701714 155.034897 
L 364.096681 155.357851 
L 365.002418 155.336606 
L 365.447015 155.163031 
L 365.85439 155.285352 
L 366.32587 154.562937 
L 367.843703 150.738447 
L 368.296572 150.738447 
L 368.699811 149.107558 
L 369.138204 148.704838 
L 370.360329 148.955756 
L 370.736685 148.76219 
L 371.162671 148.797724 
L 371.913316 149.74105 
L 372.635011 149.805469 
L 372.974145 150.027546 
L 373.414607 149.839286 
L 373.956394 150.178268 
L 375.019291 150.306953 
L 375.900214 149.238774 
L 376.311724 148.230126 
L 376.706692 149.036577 
L 377.147153 147.591636 
L 377.699281 146.638998 
L 378.137674 146.638998 
L 378.613289 145.881907 
L 379.033071 145.677883 
L 379.496279 144.944019 
L 379.940876 145.745077 
L 380.337912 144.145934 
L 380.90865 143.944531 
L 381.280871 144.210508 
L 381.708925 143.920313 
L 382.1163 143.965754 
L 382.534014 145.814868 
L 382.964136 144.044022 
L 383.363239 144.181402 
L 383.776818 144.662653 
L 384.159378 143.851204 
L 384.616382 143.96778 
L 385.441471 144.553035 
L 385.871593 145.171732 
L 386.651189 144.759832 
L 387.145415 144.680618 
L 387.544518 144.886007 
L 388.950686 144.646471 
L 389.349789 144.054171 
L 389.775775 143.79077 
L 390.228643 143.136164 
L 390.658765 142.758323 
L 392.360641 142.531557 
L 393.227088 142.234471 
L 393.748197 142.690447 
L 394.556743 141.573084 
L 394.982729 141.338965 
L 395.400443 140.884331 
L 396.23794 139.733812 
L 396.610161 139.50229 
L 397.35667 138.815431 
L 397.747502 138.640601 
L 398.148673 138.6834 
L 398.485739 139.171806 
L 398.847621 139.401412 
L 399.643759 141.110877 
L 400.228973 142.044736 
L 402.358903 148.574173 
L 402.741463 149.177305 
L 403.547941 151.156291 
L 404.401981 151.563854 
L 404.76593 151.4711 
L 405.150558 151.131898 
L 405.551729 151.27388 
L 405.942561 151.167013 
L 406.453331 150.323509 
L 406.800737 149.528814 
L 407.177093 149.048136 
L 407.958757 146.82171 
L 408.794185 144.106746 
L 409.164338 142.918491 
L 411.161923 138.43202 
L 412.005623 138.697204 
L 412.390251 139.216521 
L 412.946514 139.663602 
L 413.300124 140.326068 
L 413.711635 141.363953 
L 414.054905 141.767685 
L 414.385768 141.767685 
L 415.549991 143.606055 
L 416.310976 143.866726 
L 416.745233 143.202058 
L 417.142269 143.189487 
L 417.541372 143.554911 
L 417.942543 143.33312 
L 419.588586 143.443708 
L 419.998029 143.632474 
L 421.127098 144.982217 
L 421.482776 145.169266 
L 421.838453 145.169266 
L 422.599438 146.276854 
L 423.002677 146.168139 
L 423.376966 146.397459 
L 424.181376 147.080047 
L 424.561868 147.086542 
L 424.965107 147.266128 
L 425.337328 147.231915 
L 425.715753 146.864201 
L 426.662847 146.648641 
L 427.407289 144.804635 
L 427.791917 144.280365 
L 428.62321 142.171637 
L 429.791569 136.743646 
L 430.196876 135.396544 
L 431.003355 133.539065 
L 431.340421 133.539065 
L 431.681623 133.155764 
L 432.103474 132.230668 
L 432.595632 132.44189 
L 433.089858 133.166442 
L 433.563406 135.950867 
L 433.962509 135.950867 
L 434.365748 138.749712 
L 435.176362 141.693314 
L 435.494818 141.693314 
L 435.92494 142.483716 
L 436.34679 142.710702 
L 436.71901 142.243498 
L 437.525489 139.608452 
L 437.899777 137.546883 
L 438.656626 132.313999 
L 439.051594 131.140759 
L 439.6244 128.338853 
L 440.823778 119.765504 
L 441.20427 118.498321 
L 441.692293 117.533574 
L 442.099668 117.15723 
L 442.540129 117.353966 
L 443.280434 118.280801 
L 443.720896 119.10775 
L 444.148949 119.485855 
L 444.543917 120.855149 
L 445.288358 122.435049 
L 445.749498 123.188793 
L 446.963352 124.279539 
L 447.80912 125.93185 
L 448.210291 125.980242 
L 448.615598 125.732076 
L 449.000226 125.779366 
L 449.837723 124.372711 
L 451.055712 121.119078 
L 451.827036 118.87319 
L 452.579749 117.792417 
L 453.045024 116.984755 
L 453.406906 116.591745 
L 453.799805 115.353535 
L 454.213384 114.845865 
L 455.824272 110.550054 
L 456.173746 110.550054 
L 456.61214 109.677489 
L 457.042261 108.386352 
L 457.410346 107.797156 
L 458.930248 107.020581 
L 459.862867 107.020471 
L 460.259903 106.803348 
L 460.638327 106.926528 
L 461.43033 106.847556 
L 461.78394 106.687102 
L 462.180975 107.065692 
L 463.343131 107.107302 
L 463.994517 107.090658 
L 464.39362 107.213156 
L 464.716212 107.072253 
L 465.071889 107.346838 
L 465.502011 107.367599 
L 466.36639 106.876925 
L 466.761358 106.783335 
L 467.549225 106.230664 
L 467.948328 106.197067 
L 469.098077 105.376085 
L 469.488908 104.96577 
L 469.819771 104.96577 
L 470.206467 104.617871 
L 470.609706 103.820865 
L 471.39137 103.227794 
L 472.78513 101.627727 
L 473.200776 101.172962 
L 473.686731 99.759834 
L 474.102377 99.759834 
L 474.544906 98.487081 
L 475.901444 96.086573 
L 476.933323 94.367773 
L 477.450296 92.024199 
L 477.990016 92.024243 
L 478.463563 90.60079 
L 478.974333 89.450028 
L 479.439609 86.780263 
L 480.006211 86.780263 
L 480.401179 85.738371 
L 480.854048 84.223793 
L 482.206449 81.156439 
L 483.029471 78.66452 
L 484.292953 75.759534 
L 486.340167 71.785819 
L 486.846801 71.48378 
L 487.400996 70.582879 
L 487.833186 70.582879 
L 488.263308 69.783121 
L 488.664479 69.489976 
L 489.090465 68.832794 
L 490.265028 66.396356 
L 490.612434 65.807271 
L 490.970179 64.157183 
L 491.398233 63.360397 
L 491.80354 61.646594 
L 525.022171 61.654256 
L 525.460564 62.409762 
L 525.898957 66.117742 
L 526.355962 66.895748 
L 526.734386 69.022508 
L 527.677345 72.825289 
L 528.059906 76.505727 
L 528.514842 78.963433 
L 528.911877 79.657822 
L 529.333727 79.305101 
L 529.809343 79.077455 
L 530.241532 79.404504 
L 530.70474 77.149413 
L 531.420231 77.149413 
L 531.817267 72.057454 
L 532.179148 70.857245 
L 532.592727 71.26637 
L 532.971151 69.349689 
L 533.866549 63.493749 
L 534.596515 58.388932 
L 535.260308 53.579132 
L 535.669751 52.432554 
L 565.780339 52.432554 
L 565.780339 52.432554 
" style="fill:none;stroke:#1f77b4;stroke-linecap:square;stroke-width:1.5;"/>
   </g>
   <g id="line2d_30">
    <path clip-path="url(#p3f3dfcb18e)" d="M 58.507612 147.981586 
L 74.823286 147.997085 
L 75.735227 151.325375 
L 76.44865 151.325375 
L 76.8705 153.62047 
L 77.712133 154.670331 
L 78.069878 154.642745 
L 78.462778 154.419105 
L 78.837066 154.459109 
L 79.23617 154.752496 
L 79.92271 154.644881 
L 80.261845 154.406754 
L 80.927706 154.354356 
L 81.30613 151.380966 
L 81.694894 151.81224 
L 82.850846 152.146071 
L 83.223067 152.550045 
L 83.744176 152.355026 
L 84.223927 152.454803 
L 84.620963 151.887844 
L 85.02627 153.240713 
L 85.394355 152.996312 
L 85.805865 151.262497 
L 87.739345 151.42425 
L 88.134313 149.969555 
L 88.465175 149.969555 
L 89.232364 150.284034 
L 89.602517 148.640705 
L 90.024367 148.714415 
L 90.859795 148.366296 
L 91.589762 147.79654 
L 92.683677 146.300654 
L 93.142749 145.710687 
L 93.595618 145.779576 
L 94.528237 144.901792 
L 95.032803 144.485687 
L 95.545641 144.293024 
L 96.035731 144.654903 
L 96.513414 144.654903 
L 97.522546 145.597723 
L 97.94026 146.117392 
L 98.405536 147.490758 
L 98.808775 147.989732 
L 99.209947 148.9986 
L 100.043308 150.356533 
L 100.448615 151.226281 
L 100.847718 151.540363 
L 102.528915 153.929664 
L 102.946629 154.232783 
L 103.794465 155.409369 
L 104.212179 155.697957 
L 104.766375 156.453044 
L 105.151003 156.453044 
L 105.599736 156.664113 
L 106.284208 156.654558 
L 106.666768 156.372223 
L 107.442228 154.471636 
L 108.544415 149.957403 
L 108.918704 149.208678 
L 109.264042 147.80079 
L 109.652806 146.740801 
L 109.987804 146.740801 
L 110.337278 145.5894 
L 110.746721 145.102888 
L 111.089991 145.144696 
L 111.507705 145.011433 
L 111.92542 145.176224 
L 112.667793 146.020146 
L 113.002792 146.672264 
L 113.30884 146.672264 
L 114.047078 148.153356 
L 114.448249 148.255687 
L 114.961087 148.664395 
L 115.405683 148.803581 
L 115.901978 149.548585 
L 117.541817 149.645302 
L 118.124963 148.799706 
L 118.488912 149.164711 
L 118.937644 148.895344 
L 119.299526 149.012404 
L 119.684154 148.74002 
L 120.126683 148.812717 
L 120.511311 147.766995 
L 120.922822 149.447112 
L 121.266092 149.658445 
L 121.576276 149.658445 
L 121.987786 150.139498 
L 122.349668 151.36113 
L 122.699142 151.606103 
L 123.116856 151.618102 
L 124.138395 152.920313 
L 124.97796 152.833591 
L 125.476322 152.569001 
L 125.887832 152.569001 
L 126.739804 151.407474 
L 127.130636 150.245792 
L 127.484246 149.833055 
L 128.282452 147.674527 
L 128.613315 147.674527 
L 128.956585 146.886129 
L 129.322602 145.405191 
L 129.696891 145.115525 
L 130.428925 142.318991 
L 131.148552 141.012069 
L 131.578673 141.012069 
L 131.948826 140.900931 
L 132.333454 139.598457 
L 132.755305 139.250734 
L 133.611412 137.710154 
L 134.128385 135.187303 
L 134.604001 135.187303 
L 134.984493 132.928645 
L 135.786835 130.632208 
L 136.181803 130.048868 
L 136.653283 130.199348 
L 137.083404 130.592557 
L 137.532137 130.353417 
L 137.968462 131.601028 
L 139.529721 137.449175 
L 139.951572 137.449175 
L 140.37549 139.070928 
L 140.805611 139.598677 
L 141.200579 139.797461 
L 141.703077 138.808077 
L 142.122859 138.864835 
L 143.022393 136.894721 
L 143.469057 136.89384 
L 143.994302 135.367879 
L 144.422356 135.367879 
L 144.835935 136.050732 
L 145.241242 136.501733 
L 145.720993 135.993556 
L 146.211083 134.03969 
L 146.647409 134.694758 
L 147.027901 133.259262 
L 148.227279 132.078162 
L 148.582956 131.025592 
L 148.946906 130.584367 
L 149.2757 130.584367 
L 149.62931 128.50939 
L 150.071839 127.615997 
L 150.437856 125.901798 
L 150.82662 123.539444 
L 151.238131 122.730791 
L 152.964821 114.029177 
L 153.341178 112.225945 
L 153.723738 111.694761 
L 154.157996 110.848769 
L 154.559167 110.988263 
L 154.947931 110.770502 
L 155.334627 110.820721 
L 155.698576 110.415624 
L 156.120426 111.658303 
L 156.496782 111.547936 
L 156.85246 112.30168 
L 157.23502 111.095482 
L 157.609309 110.933201 
L 157.942239 110.933201 
L 158.465416 108.656776 
L 158.963779 108.656776 
L 159.317388 106.195328 
L 159.615165 106.195328 
L 160.357538 102.248384 
L 160.756642 102.036083 
L 161.598274 100.868721 
L 161.982902 100.437403 
L 162.433703 99.517481 
L 162.814195 99.68859 
L 164.028048 103.666334 
L 164.427151 104.809214 
L 164.875884 106.74168 
L 165.703041 109.349206 
L 166.046312 111.363286 
L 166.834179 113.079334 
L 167.243621 113.728194 
L 167.624114 114.100487 
L 167.967384 115.676116 
L 168.277568 115.676116 
L 168.682875 117.157142 
L 169.073707 117.638458 
L 169.485217 117.87795 
L 169.867778 117.176846 
L 170.204844 117.075065 
L 170.550182 116.780666 
L 170.893452 117.0975 
L 171.683387 117.189241 
L 172.012182 115.877299 
L 172.326502 116.248337 
L 172.713198 116.103185 
L 173.079215 115.069593 
L 173.848471 114.697278 
L 174.191741 114.550629 
L 174.890689 114.536605 
L 175.258774 115.05896 
L 175.711643 114.48392 
L 176.563615 117.123501 
L 176.977193 117.90547 
L 177.839504 120.550952 
L 178.331663 121.887199 
L 178.770056 124.034411 
L 179.171227 124.034411 
L 179.553788 124.672439 
L 179.990113 125.840087 
L 180.397488 125.962012 
L 180.77798 126.834996 
L 181.526557 126.761704 
L 181.89671 128.822371 
L 183.137446 130.377371 
L 183.544821 130.287457 
L 184.419539 131.572561 
L 184.984074 131.415124 
L 185.393517 132.9026 
L 185.790552 132.9026 
L 186.25376 133.738993 
L 186.615642 133.829942 
L 187.002338 135.771281 
L 187.707489 135.77509 
L 188.782793 139.330168 
L 189.221187 139.394565 
L 189.889116 141.159709 
L 190.315102 142.09337 
L 190.619082 142.09337 
L 191.071951 142.947156 
L 191.640621 145.080916 
L 191.971484 145.080894 
L 192.335433 146.20222 
L 192.624938 146.20222 
L 192.993023 146.339733 
L 193.402466 148.023329 
L 194.130364 148.357159 
L 194.514992 149.022377 
L 194.868602 150.055462 
L 195.344217 149.766016 
L 196.665601 152.362732 
L 197.933219 154.6844 
L 199.587534 156.143916 
L 199.992841 156.388801 
L 200.735214 158.239258 
L 201.055737 158.556863 
L 201.384532 158.556863 
L 202.170332 160.653486 
L 202.550824 161.658069 
L 202.987149 161.454079 
L 203.423475 162.640722 
L 203.868072 163.270146 
L 204.275447 163.296279 
L 204.78208 164.385417 
L 205.352819 163.542237 
L 205.787076 163.542276 
L 206.194451 162.452035 
L 206.628709 161.978915 
L 207.031948 163.751692 
L 207.439323 163.270663 
L 207.900463 162.491499 
L 208.262344 161.317184 
L 208.630429 161.779435 
L 209.060551 160.855532 
L 209.815332 160.478819 
L 210.185484 159.788234 
L 210.905111 159.702475 
L 211.277332 160.474015 
L 211.692978 159.95513 
L 212.071403 160.66377 
L 212.453963 160.895305 
L 212.836523 160.331672 
L 213.214947 159.007885 
L 214.346085 161.143537 
L 214.63559 161.143537 
L 215.030557 162.127856 
L 215.404846 162.05432 
L 215.78327 161.756796 
L 216.211324 161.935906 
L 216.633174 161.772022 
L 217.071568 161.473746 
L 217.445856 159.355982 
L 217.838756 158.845494 
L 218.364001 157.640309 
L 218.730018 155.721162 
L 219.209769 155.119659 
L 219.726742 153.560652 
L 220.212697 153.560652 
L 220.649022 153.252932 
L 221.536148 154.332142 
L 221.968338 154.222193 
L 222.446021 154.408802 
L 222.861668 154.981948 
L 223.339351 154.653533 
L 223.74259 154.131773 
L 224.108607 152.891273 
L 224.826166 151.764069 
L 225.270763 151.800814 
L 225.63678 151.179915 
L 225.988322 150.170607 
L 226.385357 150.389161 
L 226.757578 150.448869 
L 227.084305 149.548651 
L 227.433779 149.548651 
L 227.781185 149.095801 
L 228.124455 147.684082 
L 228.558712 146.574359 
L 228.91439 147.096978 
L 229.309357 147.027913 
L 230.967808 150.933774 
L 232.715177 153.175193 
L 233.110145 153.123588 
L 233.480297 153.229992 
L 233.90008 153.033057 
L 234.28264 152.073087 
L 235.099457 150.70954 
L 235.504764 150.733692 
L 235.951429 150.476235 
L 236.857166 150.446403 
L 238.201297 148.294964 
L 238.817529 145.954802 
L 240.492522 146.02816 
L 241.737394 146.186412 
L 242.194398 144.471201 
L 242.593501 135.866127 
L 264.107858 135.878676 
L 264.494554 137.992247 
L 264.854368 141.427293 
L 265.181095 145.975365 
L 265.489211 145.975365 
L 266.351522 145.101105 
L 266.69686 144.266319 
L 267.35445 142.228637 
L 267.714264 141.772506 
L 268.055466 142.081195 
L 268.349107 142.081195 
L 268.750278 141.939565 
L 269.151449 142.136433 
L 269.500923 142.654077 
L 269.910366 143.464006 
L 270.313605 143.971522 
L 271.479896 146.748022 
L 272.232609 148.722495 
L 272.766126 149.873983 
L 273.175569 151.045682 
L 273.992386 154.97433 
L 275.619818 160.254899 
L 276.380802 163.53358 
L 276.808856 164.663087 
L 277.592588 166.253698 
L 277.96274 167.323344 
L 278.314282 167.323344 
L 278.721657 167.502267 
L 279.265513 166.272707 
L 279.662548 163.72081 
L 280.05338 163.720825 
L 280.44628 162.738181 
L 280.799889 162.738181 
L 281.209332 161.834601 
L 281.608436 160.541886 
L 281.976521 157.931362 
L 282.385963 157.460591 
L 282.75198 155.753614 
L 283.56673 154.522625 
L 283.926543 154.113719 
L 284.313239 152.323741 
L 285.049409 151.428543 
L 285.531228 149.851549 
L 286.668569 147.902042 
L 286.980821 147.902042 
L 288.194674 142.580301 
L 288.604117 142.1946 
L 289.369237 141.053437 
L 289.751798 141.422582 
L 290.12195 140.872112 
L 290.926361 140.114207 
L 291.267563 139.389061 
L 291.75145 139.208331 
L 292.092652 138.702246 
L 292.882587 138.266877 
L 293.267215 137.995374 
L 293.995114 137.900154 
L 295.10764 137.820169 
L 295.45091 138.006668 
L 295.850014 138.059881 
L 296.582048 138.370551 
L 299.075926 138.768933 
L 299.768671 138.848609 
L 300.13262 139.366979 
L 301.586348 139.024848 
L 301.985452 137.891479 
L 302.678196 137.836329 
L 303.062824 137.188614 
L 303.447452 136.861674 
L 303.79279 136.280294 
L 304.160875 135.879689 
L 304.570318 135.239878 
L 305.292012 133.708787 
L 305.680776 133.168577 
L 306.042657 133.168577 
L 306.398335 132.867727 
L 306.729198 131.801177 
L 307.10969 131.181951 
L 307.486047 130.994682 
L 307.922372 130.595133 
L 308.695764 129.366918 
L 309.481563 127.650144 
L 309.874463 127.891551 
L 310.238412 125.575871 
L 310.654059 126.360328 
L 310.974582 126.360328 
L 311.353006 125.439481 
L 311.690073 124.057572 
L 312.066429 123.588915 
L 312.461397 123.475355 
L 313.600806 122.038648 
L 313.987502 121.440778 
L 314.436235 121.126586 
L 315.182744 120.021177 
L 315.546693 120.021177 
L 315.939593 119.417539 
L 316.322153 118.439912 
L 316.791565 118.095491 
L 317.145174 118.791972 
L 317.897887 118.452879 
L 318.720909 118.113148 
L 319.891336 118.140492 
L 321.169294 118.327211 
L 321.589076 118.503296 
L 322.391418 119.168888 
L 322.763639 119.562053 
L 323.218576 119.846809 
L 323.628018 119.221331 
L 323.987832 121.558916 
L 325.042457 121.804022 
L 325.425017 121.859679 
L 325.815849 122.37184 
L 327.364701 126.193446 
L 355.320544 126.185454 
L 356.342083 130.685399 
L 356.834242 133.473523 
L 357.21887 136.653666 
L 357.651059 138.476052 
L 358.02328 139.454339 
L 358.796672 142.381385 
L 359.648644 144.994172 
L 360.068426 144.80906 
L 360.455122 147.741984 
L 361.331909 150.165741 
L 362.628477 155.660683 
L 363.197148 157.722957 
L 363.612794 164.148729 
L 364.007762 164.14874 
L 364.39239 165.9014 
L 364.704642 165.9014 
L 365.124424 166.863222 
L 365.465626 167.2065 
L 365.804761 167.166177 
L 366.16871 167.43246 
L 366.51198 168.404378 
L 366.911084 168.542829 
L 367.703087 170.369343 
L 368.069104 170.369343 
L 368.840428 175.039424 
L 369.285025 178.59173 
L 369.779251 180.164802 
L 371.224708 171.049657 
L 371.574182 171.304322 
L 371.954674 166.655145 
L 372.343438 166.117546 
L 372.697048 164.626864 
L 373.032046 164.626864 
L 373.468372 164.00305 
L 373.88195 162.933218 
L 374.367905 160.744415 
L 375.087532 160.744415 
L 376.66947 155.055328 
L 377.016876 154.495898 
L 377.432522 153.001134 
L 377.779928 152.525849 
L 378.148013 151.397566 
L 379.32878 150.149978 
L 379.703069 149.858066 
L 380.038067 149.858066 
L 380.894175 149.034552 
L 381.243649 148.721372 
L 382.000498 148.343025 
L 384.357896 148.562482 
L 385.563477 147.791279 
L 385.915019 147.431821 
L 386.24795 147.431821 
L 386.626374 147.076547 
L 387.348069 144.930942 
L 387.743036 144.308061 
L 388.115257 142.979497 
L 389.238123 140.098597 
L 389.726145 139.643854 
L 390.081823 139.113485 
L 390.396143 139.113485 
L 390.786974 138.970711 
L 391.163331 139.084776 
L 391.508669 138.7784 
L 391.885026 139.320393 
L 392.244839 138.715521 
L 392.602584 138.432548 
L 393.005823 138.584746 
L 393.344958 138.387767 
L 393.694432 138.387767 
L 394.087331 137.970848 
L 394.445077 137.408643 
L 395.249487 138.198935 
L 396.225533 138.52528 
L 396.612229 138.168222 
L 397.007196 137.200591 
L 397.350466 136.966031 
L 397.741298 137.263667 
L 398.16108 137.407917 
L 398.51469 137.078864 
L 399.221909 137.347108 
L 400.413016 138.253887 
L 401.205019 138.64551 
L 401.540017 138.64551 
L 401.951528 139.389369 
L 402.863469 140.354777 
L 403.374238 141.467121 
L 403.822971 141.467121 
L 404.18692 141.590323 
L 404.550869 142.128772 
L 405.247749 142.162676 
L 405.644785 142.666075 
L 406.414041 142.234889 
L 407.177093 141.212438 
L 407.576196 141.813104 
L 407.952553 140.518401 
L 408.351656 139.978279 
L 410.026649 136.148726 
L 410.814517 133.510025 
L 411.203281 132.298147 
L 411.623063 131.427277 
L 412.009759 129.451614 
L 412.826576 126.747086 
L 413.151236 126.747086 
L 413.548271 125.564357 
L 413.910152 123.633277 
L 414.673205 121.903491 
L 415.037154 121.151464 
L 415.394899 120.967343 
L 415.77746 120.997109 
L 416.294433 120.702467 
L 416.782455 120.8603 
L 417.549644 120.163401 
L 417.921864 120.381273 
L 418.296153 120.362714 
L 418.70146 120.577657 
L 419.08402 120.508328 
L 419.42729 120.208424 
L 419.847073 119.641839 
L 420.217225 118.877064 
L 420.579107 118.877064 
L 420.988549 118.211825 
L 421.67509 115.619226 
L 422.063854 115.136236 
L 423.257028 111.428872 
L 423.610638 110.074241 
L 424.390233 108.788323 
L 424.712825 108.788323 
L 425.126403 107.848344 
L 425.480013 106.696547 
L 425.887388 106.9236 
L 426.340256 107.04711 
L 427.140531 108.204587 
L 427.566517 108.531592 
L 428.335773 109.921824 
L 428.84861 110.224369 
L 429.245646 110.774178 
L 429.622002 111.884452 
L 430.374715 113.027861 
L 430.751072 113.176073 
L 431.495513 113.964141 
L 431.842919 114.155153 
L 432.868594 114.234521 
L 433.646122 113.790588 
L 434.40297 112.974383 
L 434.754512 112.884007 
L 436.262006 111.530807 
L 436.621819 110.936151 
L 438.108634 109.569565 
L 438.513941 109.352817 
L 438.840668 108.893075 
L 439.16326 108.893075 
L 439.549956 108.360307 
L 439.878751 107.648151 
L 440.294397 107.167627 
L 440.718315 106.18421 
L 441.661274 105.345967 
L 442.432598 104.628307 
L 443.543057 104.00208 
L 443.907006 103.853823 
L 444.878916 103.640949 
L 445.298698 103.361454 
L 446.169281 101.746108 
L 447.02332 99.654047 
L 447.991094 96.80278 
L 448.615598 92.630458 
L 449.070534 92.630458 
L 449.525471 89.767259 
L 449.990747 87.766322 
L 450.406393 85.434439 
L 450.894416 81.25364 
L 451.318334 81.25364 
L 451.769135 77.947014 
L 453.419313 70.132209 
L 454.645574 65.792982 
L 455.193565 64.714786 
L 456.864423 60.484429 
L 477.481314 60.48969 
L 477.853535 59.103048 
L 478.192669 60.076756 
L 478.976401 62.904178 
L 479.315535 62.904178 
L 479.712571 63.138981 
L 480.597629 66.168754 
L 481.064973 67.334332 
L 481.561267 67.334618 
L 483.085304 72.333273 
L 483.409963 72.333273 
L 483.82561 73.252226 
L 484.189559 73.469592 
L 484.561779 74.525265 
L 484.967086 74.704697 
L 485.293813 75.677766 
L 485.690849 73.653779 
L 486.112699 73.64495 
L 486.530413 72.937241 
L 486.962603 72.875266 
L 487.357571 71.664466 
L 489.109076 63.884249 
L 489.454414 63.113662 
L 489.826635 60.894149 
L 490.22367 59.735439 
L 491.454066 54.258484 
L 492.281223 48.953409 
L 493.468194 43.597807 
L 493.792853 43.597807 
L 494.210567 43.191235 
L 494.605535 39.003898 
L 495.114237 37.553937 
L 495.51334 34.382556 
L 496.307411 34.382556 
L 496.677564 33.861632 
L 497.02497 33.152911 
L 497.422005 33.205573 
L 497.767343 32.619482 
L 498.164379 31.214852 
L 498.974993 30.369938 
L 499.423725 30.401884 
L 500.265358 31.624572 
L 500.656189 30.816756 
L 501.036682 30.896719 
L 501.433717 30.757621 
L 501.930011 30.983859 
L 502.333251 31.036807 
L 503.088031 30.770698 
L 503.888306 29.704831 
L 504.643087 30.48156 
L 504.951203 30.48156 
L 506.13197 32.539101 
L 506.930176 32.176319 
L 507.298261 31.920227 
L 507.746994 33.017798 
L 508.137826 33.451229 
L 508.656867 33.022003 
L 509.047699 32.52129 
L 509.428191 31.813184 
L 509.850041 31.468434 
L 510.187108 30.69177 
L 510.563464 29.06218 
L 562.608191 29.06218 
L 562.608191 29.06218 
" style="fill:none;stroke:#ff7f0e;stroke-linecap:square;stroke-width:1.5;"/>
   </g>
   <g id="patch_3">
    <path d="M 33.143975 187.82218 
L 33.143975 21.50218 
" style="fill:none;stroke:#000000;stroke-linecap:square;stroke-linejoin:miter;stroke-width:0.8;"/>
   </g>
   <g id="patch_4">
    <path d="M 591.143975 187.82218 
L 591.143975 21.50218 
" style="fill:none;stroke:#000000;stroke-linecap:square;stroke-linejoin:miter;stroke-width:0.8;"/>
   </g>
   <g id="patch_5">
    <path d="M 33.143975 187.82218 
L 591.143975 187.82218 
" style="fill:none;stroke:#000000;stroke-linecap:square;stroke-linejoin:miter;stroke-width:0.8;"/>
   </g>
   <g id="patch_6">
    <path d="M 33.143975 21.50218 
L 591.143975 21.50218 
" style="fill:none;stroke:#000000;stroke-linecap:square;stroke-linejoin:miter;stroke-width:0.8;"/>
   </g>
   <g id="text_17">
    <!-- \bf{Distance from preop-planned trajectory} -->
    <g transform="translate(194.869156 15.50218)scale(0.12 -0.12)">
     <defs>
      <path d="M 243 4370 
L 243 4096 
L 922 4096 
L 922 273 
L 243 273 
L 243 0 
L 2938 0 
C 4166 0 5114 783 5114 2147 
C 5114 3587 4141 4370 2938 4370 
L 243 4370 
z
M 1734 273 
L 1734 4096 
L 2694 4096 
C 3251 4096 3699 3880 3936 3548 
C 4122 3287 4243 2975 4243 2153 
C 4243 1407 4147 1077 3923 777 
C 3699 483 3270 273 2694 273 
L 1734 273 
z
" id="CMBX12-44" transform="scale(0.015625)"/>
      <path d="M 1427 3958 
C 1427 4219 1216 4416 966 4416 
C 704 4416 506 4200 506 3958 
C 506 3716 704 3500 966 3500 
C 1216 3500 1427 3697 1427 3958 
z
M 301 2816 
L 301 2517 
C 678 2517 723 2517 723 2270 
L 723 260 
L 282 260 
L 282 -13 
C 429 0 870 0 1043 0 
C 1222 0 1632 0 1786 -13 
L 1786 260 
L 1389 260 
L 1389 2816 
L 301 2816 
z
" id="CMBX12-69" transform="scale(0.015625)"/>
      <path d="M 2413 2715 
C 2413 2836 2413 2880 2317 2880 
C 2278 2880 2266 2880 2170 2823 
C 2144 2804 2074 2759 2042 2740 
C 1862 2842 1626 2880 1395 2880 
C 1203 2880 243 2880 243 2056 
C 243 1389 1037 1250 1235 1218 
C 1408 1187 1619 1148 1645 1148 
C 1901 1091 2157 932 2157 666 
C 2157 178 1574 178 1440 178 
C 1114 178 710 279 531 896 
C 493 1023 486 1023 378 1023 
C 243 1023 243 1004 243 858 
L 243 132 
C 243 12 243 -32 339 -32 
C 384 -32 397 -32 525 70 
L 691 191 
C 979 -32 1325 -32 1440 -32 
C 1792 -32 2592 44 2592 888 
C 2592 1192 2426 1402 2298 1516 
C 2035 1731 1818 1770 1472 1833 
C 1062 1903 678 1973 678 2277 
C 678 2689 1248 2689 1382 2689 
C 2093 2689 2131 2245 2144 2087 
C 2150 2005 2202 2005 2278 2005 
C 2413 2005 2413 2024 2413 2170 
L 2413 2715 
z
" id="CMBX12-73" transform="scale(0.015625)"/>
      <path d="M 1350 2560 
L 2272 2560 
L 2272 2833 
L 1350 2833 
L 1350 4032 
L 1082 4032 
C 1075 3405 768 2776 134 2776 
L 134 2560 
L 653 2560 
L 653 789 
C 653 114 1178 -32 1638 -32 
C 2112 -32 2394 325 2394 795 
L 2394 1133 
L 2125 1133 
L 2125 802 
C 2125 381 1933 197 1734 197 
C 1350 197 1350 624 1350 770 
L 1350 2560 
z
" id="CMBX12-74" transform="scale(0.015625)"/>
      <path d="M 2944 1898 
C 2944 2484 2477 2879 1574 2879 
C 1216 2879 461 2879 461 2334 
C 461 2061 666 1945 838 1945 
C 1030 1945 1216 2079 1216 2323 
C 1216 2445 1171 2559 1062 2630 
C 1274 2688 1427 2688 1549 2688 
C 1984 2688 2246 2445 2246 1919 
L 2246 1663 
C 1235 1663 218 1382 218 676 
C 218 95 960 -32 1402 -32 
C 1894 -32 2208 233 2336 510 
C 2336 274 2336 0 2982 0 
L 3309 0 
C 3443 0 3494 0 3494 145 
C 3494 273 3437 273 3347 273 
C 2944 273 2944 374 2944 522 
L 2944 1898 
z
M 2246 882 
C 2246 291 1709 178 1504 178 
C 1190 178 928 390 928 686 
C 928 1273 1619 1472 2246 1472 
L 2246 882 
z
" id="CMBX12-61" transform="scale(0.015625)"/>
      <path d="M 3398 1924 
C 3398 2525 3136 2834 2432 2834 
C 1971 2834 1574 2615 1357 2143 
L 1350 2143 
L 1350 2816 
L 269 2816 
L 269 2517 
C 666 2517 710 2517 710 2270 
L 710 260 
L 269 260 
L 269 -13 
C 416 0 877 0 1056 0 
C 1235 0 1702 0 1850 -13 
L 1850 260 
L 1408 260 
L 1408 1607 
C 1408 2289 1920 2624 2330 2624 
C 2566 2624 2701 2473 2701 1993 
L 2701 260 
L 2259 260 
L 2259 -13 
C 2406 0 2867 0 3046 0 
C 3226 0 3693 0 3840 -13 
L 3840 260 
L 3398 260 
L 3398 1924 
z
" id="CMBX12-6e" transform="scale(0.015625)"/>
      <path d="M 2995 753 
C 2995 829 2925 829 2861 829 
C 2758 829 2752 823 2720 747 
C 2675 625 2502 197 1914 197 
C 1011 197 1011 1166 1011 1453 
C 1011 1829 1018 2664 1856 2664 
C 1901 2664 2278 2664 2278 2632 
C 2278 2624 2272 2618 2259 2612 
C 2240 2593 2157 2496 2157 2334 
C 2157 2064 2374 1954 2534 1954 
C 2669 1954 2912 2039 2912 2346 
C 2912 2880 2176 2880 1830 2880 
C 691 2880 243 2145 243 1414 
C 243 552 851 -32 1792 -32 
C 2797 -32 2995 708 2995 753 
z
" id="CMBX12-63" transform="scale(0.015625)"/>
      <path d="M 2893 1408 
C 3040 1408 3078 1408 3078 1567 
C 3078 1758 3034 2233 2739 2532 
C 2470 2798 2112 2880 1741 2880 
C 742 2880 198 2233 198 1434 
C 198 545 858 -32 1824 -32 
C 2790 -32 3078 640 3078 748 
C 3078 843 2982 843 2944 843 
C 2842 843 2835 824 2797 742 
C 2630 330 2208 197 1901 197 
C 973 197 966 1053 966 1408 
L 2893 1408 
z
M 966 1593 
C 979 1852 986 2100 1120 2328 
C 1242 2531 1466 2670 1741 2670 
C 2426 2670 2483 1909 2490 1593 
L 966 1593 
z
" id="CMBX12-65" transform="scale(0.015625)"/>
      <path d="M 1389 2543 
L 2118 2543 
L 2118 2816 
L 1357 2816 
L 1357 3466 
C 1357 4123 1779 4224 1990 4224 
C 2061 4224 2074 4217 2112 4205 
C 2016 4141 1958 4034 1958 3902 
C 1958 3649 2163 3536 2330 3536 
C 2470 3536 2701 3630 2701 3909 
C 2701 4168 2470 4434 2016 4434 
C 1434 4434 723 4193 723 3460 
L 723 2816 
L 250 2816 
L 250 2543 
L 723 2543 
L 723 260 
L 282 260 
L 282 -13 
C 429 0 909 0 1088 0 
C 1274 0 1792 0 1946 -13 
L 1946 260 
L 1389 260 
L 1389 2543 
z
" id="CMBX12-66" transform="scale(0.015625)"/>
      <path d="M 1331 1411 
C 1331 1619 1376 2624 2125 2624 
C 2035 2555 1990 2448 1990 2336 
C 1990 2079 2202 1972 2362 1972 
C 2522 1972 2733 2079 2733 2337 
C 2733 2658 2400 2834 2093 2834 
C 1587 2834 1370 2401 1280 2137 
L 1274 2137 
L 1274 2816 
L 224 2816 
L 224 2517 
C 621 2517 666 2517 666 2270 
L 666 260 
L 224 260 
L 224 -13 
C 371 0 851 0 1030 0 
C 1216 0 1734 0 1888 -13 
L 1888 260 
L 1331 260 
L 1331 1411 
z
" id="CMBX12-72" transform="scale(0.015625)"/>
      <path d="M 3392 1395 
C 3392 2252 2803 2880 1798 2880 
C 755 2880 198 2220 198 1395 
C 198 565 787 -32 1792 -32 
C 2835 -32 3392 596 3392 1395 
z
M 1798 197 
C 966 197 966 939 966 1459 
C 966 1757 966 2074 1088 2303 
C 1229 2556 1517 2670 1792 2670 
C 2157 2670 2387 2499 2496 2322 
C 2624 2093 2624 1763 2624 1459 
C 2624 932 2624 197 1798 197 
z
" id="CMBX12-6f" transform="scale(0.015625)"/>
      <path d="M 5402 1924 
C 5402 2506 5152 2834 4435 2834 
C 3789 2834 3488 2407 3386 2206 
C 3283 2740 2848 2834 2438 2834 
C 1824 2834 1491 2445 1357 2143 
L 1350 2143 
L 1350 2816 
L 269 2816 
L 269 2517 
C 666 2517 710 2517 710 2270 
L 710 260 
L 269 260 
L 269 -13 
C 416 0 877 0 1056 0 
C 1235 0 1702 0 1850 -13 
L 1850 260 
L 1408 260 
L 1408 1607 
C 1408 2296 1926 2624 2330 2624 
C 2566 2624 2707 2485 2707 1993 
L 2707 260 
L 2266 260 
L 2266 -13 
C 2413 0 2874 0 3053 0 
C 3232 0 3699 0 3846 -13 
L 3846 260 
L 3405 260 
L 3405 1607 
C 3405 2296 3923 2624 4326 2624 
C 4563 2624 4704 2485 4704 1993 
L 4704 260 
L 4262 260 
L 4262 -13 
C 4410 0 4870 0 5050 0 
C 5229 0 5696 0 5843 -13 
L 5843 260 
L 5402 260 
L 5402 1924 
z
" id="CMBX12-6d" transform="scale(0.015625)"/>
      <path d="M 1805 -955 
L 1363 -955 
L 1363 268 
C 1523 128 1805 -32 2189 -32 
C 3066 -32 3750 493 3750 1417 
C 3750 2290 3155 2853 2291 2853 
C 1914 2853 1587 2738 1331 2554 
L 1331 2859 
L 224 2859 
L 224 2560 
C 621 2560 666 2560 666 2310 
L 666 -955 
L 224 -955 
L 224 -1228 
C 371 -1216 832 -1216 1011 -1216 
C 1190 -1216 1658 -1216 1805 -1228 
L 1805 -955 
z
M 1363 2246 
C 1600 2530 1939 2624 2189 2624 
C 2605 2624 2982 2251 2982 1417 
C 2982 500 2522 178 2112 178 
C 1837 178 1562 319 1363 620 
L 1363 2246 
z
" id="CMBX12-70" transform="scale(0.015625)"/>
      <path d="M 1997 1088 
L 1997 1673 
L 77 1673 
L 77 1088 
L 1997 1088 
z
" id="CMBX12-2d" transform="scale(0.015625)"/>
      <path d="M 1389 4416 
L 282 4416 
L 282 4117 
C 678 4117 723 4117 723 3866 
L 723 260 
L 282 260 
L 282 -13 
C 429 0 883 0 1056 0 
C 1229 0 1683 0 1830 -13 
L 1830 260 
L 1389 260 
L 1389 4416 
z
" id="CMBX12-6c" transform="scale(0.015625)"/>
      <path d="M 2221 4416 
L 2221 4117 
C 2618 4117 2662 4117 2662 3867 
L 2662 2575 
C 2522 2696 2240 2880 1798 2880 
C 890 2880 243 2318 243 1424 
C 243 510 877 -32 1728 -32 
C 2080 -32 2381 94 2630 311 
L 2630 0 
L 3770 0 
L 3770 292 
C 3373 292 3328 292 3328 540 
L 3328 4416 
L 2221 4416 
z
M 2630 661 
C 2362 262 2035 178 1805 178 
C 1011 178 1011 989 1011 1411 
C 1011 1712 1011 2032 1152 2274 
C 1350 2632 1728 2670 1875 2670 
C 2138 2670 2419 2556 2630 2276 
L 2630 661 
z
" id="CMBX12-64" transform="scale(0.015625)"/>
      <path d="M 1651 3958 
C 1651 4212 1446 4416 1190 4416 
C 934 4416 730 4212 730 3958 
C 730 3704 934 3500 1190 3500 
C 1446 3500 1651 3704 1651 3958 
z
M 499 2859 
L 499 2560 
C 608 2560 749 2560 845 2547 
C 986 2522 986 2439 986 2306 
L 986 -262 
C 986 -548 909 -1038 518 -1038 
C 397 -1038 314 -1012 256 -1000 
C 288 -981 416 -879 416 -688 
C 416 -459 250 -313 38 -313 
C -179 -313 -339 -466 -339 -688 
C -339 -1057 58 -1248 518 -1248 
C 1056 -1248 1651 -919 1651 -268 
L 1651 2859 
L 499 2859 
z
" id="CMBX12-6a" transform="scale(0.015625)"/>
      <path d="M 3168 2421 
C 3206 2509 3232 2560 3642 2560 
L 3642 2827 
C 3424 2827 3398 2827 3136 2827 
C 2963 2827 2950 2827 2586 2827 
L 2586 2560 
C 2592 2560 2893 2560 2893 2478 
C 2893 2459 2874 2421 2867 2402 
L 2118 805 
L 1299 2560 
L 1651 2560 
L 1651 2833 
C 1498 2827 1062 2827 883 2827 
C 698 2827 320 2827 154 2833 
L 154 2560 
L 563 2560 
L 1747 20 
C 1715 -56 1626 -240 1594 -316 
C 1459 -601 1254 -1038 806 -1038 
C 781 -1038 704 -1038 634 -1000 
C 646 -993 838 -917 838 -676 
C 838 -468 685 -335 493 -335 
C 294 -335 141 -469 141 -684 
C 141 -982 422 -1248 806 -1248 
C 1331 -1248 1677 -779 1805 -500 
L 3168 2421 
z
" id="CMBX12-79" transform="scale(0.015625)"/>
     </defs>
     <use transform="scale(0.996264)" xlink:href="#CMBX12-44"/>
     <use transform="translate(85.904786 0)scale(0.996264)" xlink:href="#CMBX12-69"/>
     <use transform="translate(117.038036 0)scale(0.996264)" xlink:href="#CMBX12-73"/>
     <use transform="translate(161.247373 0)scale(0.996264)" xlink:href="#CMBX12-74"/>
     <use transform="translate(204.833924 0)scale(0.996264)" xlink:href="#CMBX12-61"/>
     <use transform="translate(259.317112 0)scale(0.996264)" xlink:href="#CMBX12-6e"/>
     <use transform="translate(321.583612 0)scale(0.996264)" xlink:href="#CMBX12-63"/>
     <use transform="translate(371.396813 0)scale(0.996264)" xlink:href="#CMBX12-65"/>
     <use transform="translate(459.89598 0)scale(0.996264)" xlink:href="#CMBX12-66"/>
     <use transform="translate(494.142556 0)scale(0.996264)" xlink:href="#CMBX12-72"/>
     <use transform="translate(539.920063 0)scale(0.996264)" xlink:href="#CMBX12-6f"/>
     <use transform="translate(595.959914 0)scale(0.996264)" xlink:href="#CMBX12-6d"/>
     <use transform="translate(726.719565 0)scale(0.996264)" xlink:href="#CMBX12-70"/>
     <use transform="translate(788.986065 0)scale(0.996264)" xlink:href="#CMBX12-72"/>
     <use transform="translate(834.763573 0)scale(0.996264)" xlink:href="#CMBX12-65"/>
     <use transform="translate(885.90284 0)scale(0.996264)" xlink:href="#CMBX12-6f"/>
     <use transform="translate(941.94269 0)scale(0.996264)" xlink:href="#CMBX12-70"/>
     <use transform="translate(1004.209191 0)scale(0.996264)" xlink:href="#CMBX12-2d"/>
     <use transform="translate(1041.569091 0)scale(0.996264)" xlink:href="#CMBX12-70"/>
     <use transform="translate(1103.835592 0)scale(0.996264)" xlink:href="#CMBX12-6c"/>
     <use transform="translate(1134.968842 0)scale(0.996264)" xlink:href="#CMBX12-61"/>
     <use transform="translate(1189.45203 0)scale(0.996264)" xlink:href="#CMBX12-6e"/>
     <use transform="translate(1251.718531 0)scale(0.996264)" xlink:href="#CMBX12-6e"/>
     <use transform="translate(1313.985032 0)scale(0.996264)" xlink:href="#CMBX12-65"/>
     <use transform="translate(1365.124299 0)scale(0.996264)" xlink:href="#CMBX12-64"/>
     <use transform="translate(1464.7507 0)scale(0.996264)" xlink:href="#CMBX12-74"/>
     <use transform="translate(1508.33725 0)scale(0.996264)" xlink:href="#CMBX12-72"/>
     <use transform="translate(1554.114758 0)scale(0.996264)" xlink:href="#CMBX12-61"/>
     <use transform="translate(1614.824596 0)scale(0.996264)" xlink:href="#CMBX12-6a"/>
     <use transform="translate(1649.071171 0)scale(0.996264)" xlink:href="#CMBX12-65"/>
     <use transform="translate(1700.210438 0)scale(0.996264)" xlink:href="#CMBX12-63"/>
     <use transform="translate(1750.023639 0)scale(0.996264)" xlink:href="#CMBX12-74"/>
     <use transform="translate(1793.610189 0)scale(0.996264)" xlink:href="#CMBX12-6f"/>
     <use transform="translate(1849.65004 0)scale(0.996264)" xlink:href="#CMBX12-72"/>
     <use transform="translate(1895.427547 0)scale(0.996264)" xlink:href="#CMBX12-79"/>
    </g>
   </g>
   <g id="legend_1">
    <g id="patch_7">
     <path d="M 40.143975 57.376536 
L 118.525678 57.376536 
Q 120.525678 57.376536 120.525678 55.376536 
L 120.525678 28.50218 
Q 120.525678 26.50218 118.525678 26.50218 
L 40.143975 26.50218 
Q 38.143975 26.50218 38.143975 28.50218 
L 38.143975 55.376536 
Q 38.143975 57.376536 40.143975 57.376536 
z
" style="fill:#ffffff;opacity:0.8;stroke:#cccccc;stroke-linejoin:miter;"/>
    </g>
    <g id="line2d_31">
     <path d="M 42.143975 34.00218 
L 62.143975 34.00218 
" style="fill:none;stroke:#1f77b4;stroke-linecap:square;stroke-width:1.5;"/>
    </g>
    <g id="line2d_32"/>
    <g id="text_18">
     <!-- Assisted -->
     <g transform="translate(70.143975 37.50218)scale(0.1 -0.1)">
      <defs>
       <path d="M 2323 4378 
C 2291 4461 2278 4480 2214 4480 
C 2150 4480 2138 4461 2106 4378 
L 749 566 
C 627 223 371 153 147 153 
L 147 -13 
C 262 0 518 0 640 0 
C 800 0 1056 0 1210 -13 
L 1210 153 
C 909 153 864 361 864 439 
C 864 497 877 530 890 569 
L 1229 1536 
L 2906 1536 
L 3290 442 
C 3322 365 3322 352 3322 327 
C 3322 153 3046 153 2925 153 
L 2925 0 
C 3110 0 3443 0 3642 0 
C 3808 0 4128 0 4282 -13 
L 4282 153 
C 3942 153 3827 153 3744 387 
L 2323 4378 
z
M 2067 3893 
L 2848 1702 
L 1286 1702 
L 2067 3893 
z
" id="CMR17-41" transform="scale(0.015625)"/>
       <path d="M 1869 4326 
L 1869 4160 
C 2246 4160 2304 4122 2304 3820 
L 2304 2345 
C 2278 2377 2016 2790 1498 2790 
C 845 2790 211 2208 211 1364 
C 211 525 806 -64 1434 -64 
C 1978 -64 2259 337 2291 380 
L 2291 -63 
L 3066 -63 
L 3066 128 
C 2688 128 2630 166 2630 473 
L 2630 4396 
L 1869 4326 
z
M 2291 755 
C 2291 563 2176 390 2029 262 
C 1811 70 1594 38 1472 38 
C 1286 38 621 134 621 1356 
C 621 2612 1363 2688 1530 2688 
C 1824 2688 2061 2522 2208 2291 
C 2291 2157 2291 2138 2291 2023 
L 2291 755 
z
" id="CMR17-64" transform="scale(0.015625)"/>
      </defs>
      <use transform="scale(0.996264)" xlink:href="#CMR17-41"/>
      <use transform="translate(69.07243 0)scale(0.996264)" xlink:href="#CMR17-73"/>
      <use transform="translate(104.873767 0)scale(0.996264)" xlink:href="#CMR17-73"/>
      <use transform="translate(140.675105 0)scale(0.996264)" xlink:href="#CMR17-69"/>
      <use transform="translate(165.546164 0)scale(0.996264)" xlink:href="#CMR17-73"/>
      <use transform="translate(201.347501 0)scale(0.996264)" xlink:href="#CMR17-74"/>
      <use transform="translate(236.628269 0)scale(0.996264)" xlink:href="#CMR17-65"/>
      <use transform="translate(277.113929 0)scale(0.996264)" xlink:href="#CMR17-64"/>
     </g>
    </g>
    <g id="line2d_33">
     <path d="M 42.143975 47.939358 
L 62.143975 47.939358 
" style="fill:none;stroke:#ff7f0e;stroke-linecap:square;stroke-width:1.5;"/>
    </g>
    <g id="line2d_34"/>
    <g id="text_19">
     <!-- Unassisted -->
     <g transform="translate(70.143975 51.439358)scale(0.1 -0.1)">
      <defs>
       <path d="M 3456 1433 
C 3456 579 2899 38 2291 38 
C 1965 38 1670 210 1491 477 
C 1286 783 1261 1178 1261 1401 
L 1261 3874 
C 1261 4160 1331 4160 1773 4160 
L 1773 4320 
C 1587 4320 1248 4320 1050 4320 
C 851 4320 512 4320 326 4320 
L 326 4160 
C 768 4160 838 4160 838 3874 
L 838 1433 
C 838 516 1536 -128 2278 -128 
C 3110 -128 3590 719 3590 1344 
L 3590 3766 
C 3590 4122 3917 4160 4102 4160 
L 4102 4326 
C 3955 4320 3686 4320 3526 4320 
C 3366 4320 3091 4320 2944 4326 
L 2944 4160 
C 3456 4160 3456 3861 3456 3702 
L 3456 1433 
z
" id="CMR17-55" transform="scale(0.015625)"/>
      </defs>
      <use transform="scale(0.996264)" xlink:href="#CMR17-55"/>
      <use transform="translate(69.07243 0)scale(0.996264)" xlink:href="#CMR17-6e"/>
      <use transform="translate(119.9678 0)scale(0.996264)" xlink:href="#CMR17-61"/>
      <use transform="translate(165.658277 0)scale(0.996264)" xlink:href="#CMR17-73"/>
      <use transform="translate(201.459614 0)scale(0.996264)" xlink:href="#CMR17-73"/>
      <use transform="translate(237.260952 0)scale(0.996264)" xlink:href="#CMR17-69"/>
      <use transform="translate(262.13201 0)scale(0.996264)" xlink:href="#CMR17-73"/>
      <use transform="translate(297.933348 0)scale(0.996264)" xlink:href="#CMR17-74"/>
      <use transform="translate(333.214116 0)scale(0.996264)" xlink:href="#CMR17-65"/>
      <use transform="translate(373.699776 0)scale(0.996264)" xlink:href="#CMR17-64"/>
     </g>
    </g>
   </g>
  </g>
 </g>
 <defs>
  <clipPath id="p3f3dfcb18e">
   <rect height="166.32" width="558" x="33.143975" y="21.50218"/>
  </clipPath>
 </defs>
</svg>
