<?xml version="1.0" encoding="utf-8" standalone="no"?>
<!DOCTYPE svg PUBLIC "-//W3C//DTD SVG 1.1//EN"
  "http://www.w3.org/Graphics/SVG/1.1/DTD/svg11.dtd">
<svg height="224.840497pt" version="1.1" viewBox="0 0 603.325311 224.840497" width="603.325311pt" xmlns="http://www.w3.org/2000/svg" xmlns:xlink="http://www.w3.org/1999/xlink">
 <metadata>
  <rdf:RDF xmlns:cc="http://creativecommons.org/ns#" xmlns:dc="http://purl.org/dc/elements/1.1/" xmlns:rdf="http://www.w3.org/1999/02/22-rdf-syntax-ns#">
   <cc:Work>
    <dc:type rdf:resource="http://purl.org/dc/dcmitype/StillImage"/>
    <dc:date>2022-08-12T17:16:35.348435</dc:date>
    <dc:format>image/svg+xml</dc:format>
    <dc:creator>
     <cc:Agent>
      <dc:title>Matplotlib v3.4.2, https://matplotlib.org/</dc:title>
     </cc:Agent>
    </dc:creator>
   </cc:Work>
  </rdf:RDF>
 </metadata>
 <defs>
  <style type="text/css">*{stroke-linecap:butt;stroke-linejoin:round;}</style>
 </defs>
 <g id="figure_1">
  <g id="patch_1">
   <path d="M 0 224.840497 
L 603.325311 224.840497 
L 603.325311 0 
L 0 0 
z
" style="fill:#ffffff;"/>
  </g>
  <g id="axes_1">
   <g id="patch_2">
    <path d="M 38.125311 187.82218 
L 596.125311 187.82218 
L 596.125311 21.50218 
L 38.125311 21.50218 
z
" style="fill:#ffffff;"/>
   </g>
   <g id="matplotlib.axis_1">
    <g id="xtick_1">
     <g id="line2d_1">
      <path clip-path="url(#pa61a071f4a)" d="M 63.488947 187.82218 
L 63.488947 21.50218 
" style="fill:none;stroke:#b0b0b0;stroke-linecap:square;stroke-width:0.8;"/>
     </g>
     <g id="line2d_2">
      <defs>
       <path d="M 0 0 
L 0 3.5 
" id="m3a6dd21e25" style="stroke:#000000;stroke-width:0.8;"/>
      </defs>
      <g>
       <use style="stroke:#000000;stroke-width:0.8;" x="63.488947" xlink:href="#m3a6dd21e25" y="187.82218"/>
      </g>
     </g>
     <g id="text_1">
      <!-- $\mathdefault{0}$ -->
      <g transform="translate(60.998279 201.740678)scale(0.1 -0.1)">
       <defs>
        <path d="M 2688 2025 
C 2688 2416 2682 3080 2413 3591 
C 2176 4039 1798 4198 1466 4198 
C 1158 4198 768 4058 525 3597 
C 269 3118 243 2524 243 2025 
C 243 1661 250 1106 448 619 
C 723 -39 1216 -128 1466 -128 
C 1760 -128 2208 -7 2470 600 
C 2662 1042 2688 1559 2688 2025 
z
M 1466 -26 
C 1056 -26 813 325 723 812 
C 653 1188 653 1738 653 2096 
C 653 2588 653 2997 736 3387 
C 858 3929 1216 4096 1466 4096 
C 1728 4096 2067 3923 2189 3400 
C 2272 3036 2278 2607 2278 2096 
C 2278 1680 2278 1169 2202 792 
C 2067 95 1690 -26 1466 -26 
z
" id="CMR17-30" transform="scale(0.015625)"/>
       </defs>
       <use transform="scale(0.996264)" xlink:href="#CMR17-30"/>
      </g>
     </g>
    </g>
    <g id="xtick_2">
     <g id="line2d_3">
      <path clip-path="url(#pa61a071f4a)" d="M 166.883589 187.82218 
L 166.883589 21.50218 
" style="fill:none;stroke:#b0b0b0;stroke-linecap:square;stroke-width:0.8;"/>
     </g>
     <g id="line2d_4">
      <g>
       <use style="stroke:#000000;stroke-width:0.8;" x="166.883589" xlink:href="#m3a6dd21e25" y="187.82218"/>
      </g>
     </g>
     <g id="text_2">
      <!-- $\mathdefault{5}$ -->
      <g transform="translate(164.392922 201.740678)scale(0.1 -0.1)">
       <defs>
        <path d="M 730 3692 
C 794 3666 1056 3584 1325 3584 
C 1920 3584 2246 3911 2432 4100 
C 2432 4157 2432 4192 2394 4192 
C 2387 4192 2374 4192 2323 4163 
C 2099 4058 1837 3973 1517 3973 
C 1325 3973 1037 3999 723 4139 
C 653 4171 640 4171 634 4171 
C 602 4171 595 4164 595 4037 
L 595 2203 
C 595 2089 595 2057 659 2057 
C 691 2057 704 2070 736 2114 
C 941 2401 1222 2522 1542 2522 
C 1766 2522 2246 2382 2246 1289 
C 2246 1085 2246 715 2054 421 
C 1894 159 1645 25 1370 25 
C 947 25 518 320 403 814 
C 429 807 480 795 506 795 
C 589 795 749 840 749 1038 
C 749 1210 627 1280 506 1280 
C 358 1280 262 1190 262 1011 
C 262 454 704 -128 1382 -128 
C 2042 -128 2669 440 2669 1264 
C 2669 2030 2170 2624 1549 2624 
C 1222 2624 947 2503 730 2274 
L 730 3692 
z
" id="CMR17-35" transform="scale(0.015625)"/>
       </defs>
       <use transform="scale(0.996264)" xlink:href="#CMR17-35"/>
      </g>
     </g>
    </g>
    <g id="xtick_3">
     <g id="line2d_5">
      <path clip-path="url(#pa61a071f4a)" d="M 270.278232 187.82218 
L 270.278232 21.50218 
" style="fill:none;stroke:#b0b0b0;stroke-linecap:square;stroke-width:0.8;"/>
     </g>
     <g id="line2d_6">
      <g>
       <use style="stroke:#000000;stroke-width:0.8;" x="270.278232" xlink:href="#m3a6dd21e25" y="187.82218"/>
      </g>
     </g>
     <g id="text_3">
      <!-- $\mathdefault{10}$ -->
      <g transform="translate(265.296897 201.740678)scale(0.1 -0.1)">
       <defs>
        <path d="M 1702 4058 
C 1702 4192 1696 4192 1606 4192 
C 1357 3916 979 3827 621 3827 
C 602 3827 570 3827 563 3808 
C 557 3795 557 3782 557 3648 
C 755 3648 1088 3686 1344 3839 
L 1344 461 
C 1344 236 1331 160 781 160 
L 589 160 
L 589 0 
C 896 0 1216 0 1523 0 
C 1830 0 2150 0 2458 0 
L 2458 160 
L 2266 160 
C 1715 160 1702 230 1702 458 
L 1702 4058 
z
" id="CMR17-31" transform="scale(0.015625)"/>
       </defs>
       <use transform="scale(0.996264)" xlink:href="#CMR17-31"/>
       <use transform="translate(45.690477 0)scale(0.996264)" xlink:href="#CMR17-30"/>
      </g>
     </g>
    </g>
    <g id="xtick_4">
     <g id="line2d_7">
      <path clip-path="url(#pa61a071f4a)" d="M 373.672875 187.82218 
L 373.672875 21.50218 
" style="fill:none;stroke:#b0b0b0;stroke-linecap:square;stroke-width:0.8;"/>
     </g>
     <g id="line2d_8">
      <g>
       <use style="stroke:#000000;stroke-width:0.8;" x="373.672875" xlink:href="#m3a6dd21e25" y="187.82218"/>
      </g>
     </g>
     <g id="text_4">
      <!-- $\mathdefault{15}$ -->
      <g transform="translate(368.691539 201.740678)scale(0.1 -0.1)">
       <use transform="scale(0.996264)" xlink:href="#CMR17-31"/>
       <use transform="translate(45.690477 0)scale(0.996264)" xlink:href="#CMR17-35"/>
      </g>
     </g>
    </g>
    <g id="xtick_5">
     <g id="line2d_9">
      <path clip-path="url(#pa61a071f4a)" d="M 477.067517 187.82218 
L 477.067517 21.50218 
" style="fill:none;stroke:#b0b0b0;stroke-linecap:square;stroke-width:0.8;"/>
     </g>
     <g id="line2d_10">
      <g>
       <use style="stroke:#000000;stroke-width:0.8;" x="477.067517" xlink:href="#m3a6dd21e25" y="187.82218"/>
      </g>
     </g>
     <g id="text_5">
      <!-- $\mathdefault{20}$ -->
      <g transform="translate(472.086182 201.740678)scale(0.1 -0.1)">
       <defs>
        <path d="M 2669 989 
L 2554 989 
C 2490 536 2438 459 2413 420 
C 2381 369 1920 369 1830 369 
L 602 369 
C 832 619 1280 1072 1824 1597 
C 2214 1967 2669 2402 2669 3035 
C 2669 3790 2067 4224 1395 4224 
C 691 4224 262 3604 262 3030 
C 262 2780 448 2748 525 2748 
C 589 2748 781 2787 781 3010 
C 781 3207 614 3264 525 3264 
C 486 3264 448 3258 422 3245 
C 544 3790 915 4058 1306 4058 
C 1862 4058 2227 3617 2227 3035 
C 2227 2479 1901 2000 1536 1584 
L 262 146 
L 262 0 
L 2515 0 
L 2669 989 
z
" id="CMR17-32" transform="scale(0.015625)"/>
       </defs>
       <use transform="scale(0.996264)" xlink:href="#CMR17-32"/>
       <use transform="translate(45.690477 0)scale(0.996264)" xlink:href="#CMR17-30"/>
      </g>
     </g>
    </g>
    <g id="xtick_6">
     <g id="line2d_11">
      <path clip-path="url(#pa61a071f4a)" d="M 580.46216 187.82218 
L 580.46216 21.50218 
" style="fill:none;stroke:#b0b0b0;stroke-linecap:square;stroke-width:0.8;"/>
     </g>
     <g id="line2d_12">
      <g>
       <use style="stroke:#000000;stroke-width:0.8;" x="580.46216" xlink:href="#m3a6dd21e25" y="187.82218"/>
      </g>
     </g>
     <g id="text_6">
      <!-- $\mathdefault{25}$ -->
      <g transform="translate(575.480824 201.740678)scale(0.1 -0.1)">
       <use transform="scale(0.996264)" xlink:href="#CMR17-32"/>
       <use transform="translate(45.690477 0)scale(0.996264)" xlink:href="#CMR17-35"/>
      </g>
     </g>
    </g>
    <g id="text_7">
     <!-- Time [s] since beginning of the task -->
     <g transform="translate(239.416581 215.149837)scale(0.1 -0.1)">
      <defs>
       <path d="M 3981 4326 
L 288 4326 
L 179 2918 
L 294 2918 
C 378 3976 467 4160 1453 4160 
C 1568 4160 1754 4160 1805 4154 
C 1926 4135 1926 4058 1926 3912 
L 1926 459 
C 1926 230 1907 160 1376 160 
L 1197 160 
L 1197 0 
C 1504 0 1824 0 2138 0 
C 2451 0 2771 0 3078 0 
L 3078 160 
L 2899 160 
C 2368 160 2349 230 2349 459 
L 2349 3912 
C 2349 4052 2349 4129 2464 4154 
C 2515 4160 2701 4160 2816 4160 
C 3795 4160 3891 3976 3974 2918 
L 4090 2918 
L 3981 4326 
z
" id="CMR17-54" transform="scale(0.015625)"/>
       <path d="M 992 3909 
C 992 4049 877 4170 730 4170 
C 589 4170 467 4056 467 3909 
C 467 3769 582 3648 730 3648 
C 870 3648 992 3763 992 3909 
z
M 243 2706 
L 243 2541 
C 602 2541 653 2502 653 2197 
L 653 427 
C 653 184 627 153 218 153 
L 218 -13 
C 371 0 646 0 806 0 
C 960 0 1222 0 1370 -13 
L 1370 153 
C 992 153 979 191 979 420 
L 979 2776 
L 243 2706 
z
" id="CMR17-69" transform="scale(0.015625)"/>
       <path d="M 4326 1933 
C 4326 2252 4269 2790 3507 2790 
C 3072 2790 2771 2496 2656 2151 
L 2650 2151 
C 2573 2676 2195 2790 1837 2790 
C 1331 2790 1069 2400 973 2144 
L 966 2144 
L 966 2790 
L 211 2720 
L 211 2554 
C 589 2554 646 2515 646 2208 
L 646 428 
C 646 184 621 153 211 153 
L 211 -13 
C 365 0 646 0 813 0 
C 979 0 1267 0 1421 -13 
L 1421 153 
C 1011 153 986 178 986 428 
L 986 1658 
C 986 2247 1344 2688 1792 2688 
C 2266 2688 2317 2266 2317 1958 
L 2317 428 
C 2317 184 2291 153 1882 153 
L 1882 -13 
C 2035 0 2317 0 2483 0 
C 2650 0 2938 0 3091 -13 
L 3091 153 
C 2682 153 2656 178 2656 428 
L 2656 1658 
C 2656 2247 3014 2688 3462 2688 
C 3936 2688 3987 2266 3987 1958 
L 3987 428 
C 3987 184 3962 153 3552 153 
L 3552 -13 
C 3706 0 3987 0 4154 0 
C 4320 0 4608 0 4762 -13 
L 4762 153 
C 4352 153 4326 178 4326 428 
L 4326 1933 
z
" id="CMR17-6d" transform="scale(0.015625)"/>
       <path d="M 2438 1472 
C 2464 1498 2464 1511 2464 1576 
C 2464 2238 2118 2816 1389 2816 
C 710 2816 173 2169 173 1383 
C 173 551 781 -64 1459 -64 
C 2176 -64 2458 607 2458 740 
C 2458 784 2419 784 2406 784 
C 2362 784 2355 771 2330 696 
C 2189 265 1837 51 1504 51 
C 1229 51 954 203 781 480 
C 582 803 582 1176 582 1472 
L 2438 1472 
z
M 589 1568 
C 634 2505 1126 2714 1382 2714 
C 1818 2714 2112 2297 2118 1568 
L 589 1568 
z
" id="CMR17-65" transform="scale(0.015625)"/>
       <path d="M 1504 -1600 
L 1504 -1377 
L 902 -1377 
L 902 4544 
L 1504 4544 
L 1504 4767 
L 678 4767 
L 678 -1600 
L 1504 -1600 
z
" id="CMR17-5b" transform="scale(0.015625)"/>
       <path d="M 1978 2697 
C 1978 2813 1971 2819 1933 2819 
C 1907 2819 1901 2813 1824 2717 
C 1805 2691 1747 2626 1728 2601 
C 1523 2819 1235 2819 1126 2819 
C 416 2819 160 2447 160 2076 
C 160 1498 813 1365 998 1325 
C 1402 1243 1542 1217 1677 1101 
C 1760 1025 1901 884 1901 654 
C 1901 384 1747 38 1158 38 
C 602 38 403 460 288 1021 
C 269 1110 269 1117 218 1117 
C 166 1117 160 1110 160 983 
L 160 63 
C 160 -51 166 -58 205 -58 
C 237 -58 243 -51 275 0 
C 314 57 410 211 448 276 
C 576 103 800 -64 1158 -64 
C 1792 -64 2131 283 2131 784 
C 2131 1112 1958 1285 1875 1362 
C 1683 1561 1459 1606 1190 1657 
C 838 1735 390 1825 390 2217 
C 390 2383 480 2737 1126 2737 
C 1811 2737 1850 2094 1862 1888 
C 1869 1856 1901 1849 1920 1849 
C 1978 1849 1978 1869 1978 1978 
L 1978 2697 
z
" id="CMR17-73" transform="scale(0.015625)"/>
       <path d="M 915 4767 
L 90 4767 
L 90 4544 
L 691 4544 
L 691 -1377 
L 90 -1377 
L 90 -1600 
L 915 -1600 
L 915 4767 
z
" id="CMR17-5d" transform="scale(0.015625)"/>
       <path d="M 2656 1933 
C 2656 2259 2592 2790 1837 2790 
C 1331 2790 1069 2400 973 2144 
L 966 2144 
L 966 2790 
L 211 2720 
L 211 2554 
C 589 2554 646 2515 646 2208 
L 646 428 
C 646 184 621 153 211 153 
L 211 -13 
C 365 0 646 0 813 0 
C 979 0 1267 0 1421 -13 
L 1421 153 
C 1011 153 986 178 986 428 
L 986 1658 
C 986 2247 1344 2688 1792 2688 
C 2266 2688 2317 2266 2317 1958 
L 2317 428 
C 2317 184 2291 153 1882 153 
L 1882 -13 
C 2035 0 2317 0 2483 0 
C 2650 0 2938 0 3091 -13 
L 3091 153 
C 2682 153 2656 178 2656 428 
L 2656 1933 
z
" id="CMR17-6e" transform="scale(0.015625)"/>
       <path d="M 2234 2240 
C 2112 2240 1933 2240 1933 2017 
C 1933 1838 2080 1787 2163 1787 
C 2208 1787 2394 1807 2394 2024 
C 2394 2467 1958 2803 1466 2803 
C 787 2803 211 2178 211 1363 
C 211 516 813 -64 1466 -64 
C 2259 -64 2458 677 2458 748 
C 2458 774 2451 793 2406 793 
C 2362 793 2355 787 2330 703 
C 2163 180 1798 51 1523 51 
C 1114 51 621 427 621 1369 
C 621 2338 1094 2688 1472 2688 
C 1722 2688 2093 2573 2234 2240 
z
" id="CMR17-63" transform="scale(0.015625)"/>
       <path d="M 960 4396 
L 198 4326 
L 198 4160 
C 576 4160 634 4122 634 3817 
L 634 -13 
L 749 -13 
L 934 441 
C 1120 141 1395 -64 1766 -64 
C 2406 -64 3053 500 3053 1370 
C 3053 2188 2477 2790 1830 2790 
C 1434 2790 1152 2579 960 2330 
L 960 4396 
z
M 973 2004 
C 973 2118 973 2138 1062 2272 
C 1312 2657 1670 2688 1792 2688 
C 1984 2688 2643 2585 2643 1376 
C 2643 108 1888 38 1734 38 
C 1536 38 1248 114 1043 486 
C 973 608 973 621 973 735 
L 973 2004 
z
" id="CMR17-62" transform="scale(0.015625)"/>
       <path d="M 710 1164 
C 832 1068 1043 960 1299 960 
C 1805 960 2240 1357 2240 1888 
C 2240 2054 2189 2310 1997 2509 
C 2176 2692 2438 2752 2586 2752 
C 2611 2752 2650 2752 2682 2734 
C 2656 2728 2598 2703 2598 2605 
C 2598 2527 2656 2471 2739 2471 
C 2835 2471 2886 2533 2886 2614 
C 2886 2731 2790 2854 2586 2854 
C 2330 2854 2106 2738 1926 2580 
C 1734 2753 1504 2816 1299 2816 
C 794 2816 358 2419 358 1888 
C 358 1522 570 1292 634 1228 
C 442 1004 442 743 442 711 
C 442 545 506 302 723 168 
C 390 85 128 -169 128 -486 
C 128 -943 736 -1280 1466 -1280 
C 2170 -1280 2803 -956 2803 -479 
C 2803 384 1856 384 1363 384 
C 1216 384 954 384 922 391 
C 723 423 589 602 589 826 
C 589 883 589 1024 710 1164 
z
M 1299 1068 
C 736 1068 736 1760 736 1889 
C 736 2016 736 2708 1299 2708 
C 1862 2708 1862 2016 1862 1889 
C 1862 1760 1862 1068 1299 1068 
z
M 1466 -1171 
C 826 -1171 384 -835 384 -486 
C 384 -289 493 -105 634 -4 
C 794 104 858 104 1293 104 
C 1818 104 2547 104 2547 -486 
C 2547 -835 2106 -1171 1466 -1171 
z
" id="CMR17-67" transform="scale(0.015625)"/>
       <path d="M 2758 1356 
C 2758 2176 2163 2816 1466 2816 
C 768 2816 173 2176 173 1356 
C 173 551 768 -64 1466 -64 
C 2163 -64 2758 551 2758 1356 
z
M 1466 51 
C 1165 51 909 230 762 480 
C 602 767 582 1126 582 1408 
C 582 1677 595 2010 762 2298 
C 890 2509 1139 2714 1466 2714 
C 1754 2714 1997 2554 2150 2330 
C 2349 2029 2349 1607 2349 1408 
C 2349 1158 2336 775 2163 467 
C 1984 173 1709 51 1466 51 
z
" id="CMR17-6f" transform="scale(0.015625)"/>
       <path d="M 979 2560 
L 1709 2560 
L 1709 2725 
L 966 2725 
L 966 3494 
C 966 4022 1235 4352 1510 4352 
C 1594 4352 1690 4327 1754 4282 
C 1702 4269 1568 4225 1568 4067 
C 1568 3901 1696 3850 1786 3850 
C 1875 3850 2003 3901 2003 4067 
C 2003 4308 1773 4454 1517 4454 
C 1152 4454 653 4156 653 3481 
L 653 2725 
L 141 2725 
L 141 2560 
L 653 2560 
L 653 427 
C 653 184 627 153 218 153 
L 218 -13 
C 371 0 666 0 832 0 
C 1018 0 1344 0 1517 -13 
L 1517 153 
C 1056 153 979 153 979 439 
L 979 2560 
z
" id="CMR17-66" transform="scale(0.015625)"/>
       <path d="M 966 2560 
L 1862 2560 
L 1862 2725 
L 966 2725 
L 966 3904 
L 851 3904 
C 838 3245 614 2668 70 2668 
L 70 2560 
L 627 2560 
L 627 771 
C 627 650 627 -64 1370 -64 
C 1747 -64 1965 306 1965 777 
L 1965 1140 
L 1850 1140 
L 1850 783 
C 1850 344 1677 51 1408 51 
C 1222 51 966 178 966 758 
L 966 2560 
z
" id="CMR17-74" transform="scale(0.015625)"/>
       <path d="M 2656 1933 
C 2656 2259 2592 2790 1837 2790 
C 1312 2790 1056 2368 979 2157 
L 973 2157 
L 973 4396 
L 211 4326 
L 211 4160 
C 589 4160 646 4122 646 3817 
L 646 426 
C 646 184 621 153 211 153 
L 211 -13 
C 365 0 646 0 813 0 
C 979 0 1267 0 1421 -13 
L 1421 153 
C 1011 153 986 178 986 428 
L 986 1658 
C 986 2247 1344 2688 1792 2688 
C 2266 2688 2317 2266 2317 1958 
L 2317 428 
C 2317 184 2291 153 1882 153 
L 1882 -13 
C 2035 0 2317 0 2483 0 
C 2650 0 2938 0 3091 -13 
L 3091 153 
C 2682 153 2656 178 2656 428 
L 2656 1933 
z
" id="CMR17-68" transform="scale(0.015625)"/>
       <path d="M 2304 1653 
C 2304 2072 2304 2294 2035 2543 
C 1798 2752 1523 2816 1306 2816 
C 800 2816 435 2407 435 1971 
C 435 1728 627 1728 666 1728 
C 749 1728 896 1778 896 1954 
C 896 2112 774 2181 666 2181 
C 640 2181 608 2174 589 2168 
C 723 2592 1069 2714 1293 2714 
C 1613 2714 1965 2429 1965 1885 
L 1965 1600 
C 1587 1600 1133 1549 774 1357 
C 371 1133 256 813 256 570 
C 256 77 832 -64 1171 -64 
C 1523 -64 1850 139 1990 511 
C 2003 233 2182 -18 2464 -18 
C 2598 -18 2938 70 2938 567 
L 2938 920 
L 2822 920 
L 2822 562 
C 2822 178 2650 128 2566 128 
C 2304 128 2304 458 2304 738 
L 2304 1653 
z
M 1965 870 
C 1965 317 1568 38 1216 38 
C 896 38 646 275 646 570 
C 646 761 730 1100 1101 1305 
C 1408 1478 1760 1504 1965 1504 
L 1965 870 
z
" id="CMR17-61" transform="scale(0.015625)"/>
       <path d="M 1670 1673 
C 1664 1686 1632 1724 1632 1743 
C 1632 1756 2086 2171 2144 2222 
C 2509 2528 2739 2560 2906 2560 
L 2906 2733 
C 2867 2733 2854 2733 2848 2720 
L 2534 2720 
C 2355 2720 2080 2720 1907 2733 
L 1907 2566 
C 1997 2559 2061 2508 2061 2419 
C 2061 2291 1933 2170 1926 2170 
L 960 1289 
L 960 4396 
L 198 4326 
L 198 4160 
C 576 4160 634 4122 634 3817 
L 634 426 
C 634 184 608 153 198 153 
L 198 -13 
C 352 0 634 0 794 0 
C 954 0 1235 0 1389 -13 
L 1389 153 
C 979 153 954 178 954 428 
L 954 1130 
L 1395 1532 
L 2042 574 
C 2118 459 2182 369 2182 286 
C 2182 172 2067 153 1990 153 
L 1990 -13 
C 2144 0 2419 0 2579 0 
C 2694 0 2931 0 3040 0 
L 3040 153 
C 2739 153 2669 210 2477 491 
L 1670 1673 
z
" id="CMR17-6b" transform="scale(0.015625)"/>
      </defs>
      <use transform="scale(0.996264)" xlink:href="#CMR17-54"/>
      <use transform="translate(66.509881 0)scale(0.996264)" xlink:href="#CMR17-69"/>
      <use transform="translate(91.380939 0)scale(0.996264)" xlink:href="#CMR17-6d"/>
      <use transform="translate(168.300529 0)scale(0.996264)" xlink:href="#CMR17-65"/>
      <use transform="translate(238.862156 0)scale(0.996264)" xlink:href="#CMR17-5b"/>
      <use transform="translate(263.733214 0)scale(0.996264)" xlink:href="#CMR17-73"/>
      <use transform="translate(299.534552 0)scale(0.996264)" xlink:href="#CMR17-5d"/>
      <use transform="translate(354.481577 0)scale(0.996264)" xlink:href="#CMR17-73"/>
      <use transform="translate(390.282914 0)scale(0.996264)" xlink:href="#CMR17-69"/>
      <use transform="translate(415.153973 0)scale(0.996264)" xlink:href="#CMR17-6e"/>
      <use transform="translate(466.049343 0)scale(0.996264)" xlink:href="#CMR17-63"/>
      <use transform="translate(506.535003 0)scale(0.996264)" xlink:href="#CMR17-65"/>
      <use transform="translate(577.09663 0)scale(0.996264)" xlink:href="#CMR17-62"/>
      <use transform="translate(630.594438 0)scale(0.996264)" xlink:href="#CMR17-65"/>
      <use transform="translate(671.080099 0)scale(0.996264)" xlink:href="#CMR17-67"/>
      <use transform="translate(716.770576 0)scale(0.996264)" xlink:href="#CMR17-69"/>
      <use transform="translate(741.641634 0)scale(0.996264)" xlink:href="#CMR17-6e"/>
      <use transform="translate(792.537004 0)scale(0.996264)" xlink:href="#CMR17-6e"/>
      <use transform="translate(843.432374 0)scale(0.996264)" xlink:href="#CMR17-69"/>
      <use transform="translate(868.303432 0)scale(0.996264)" xlink:href="#CMR17-6e"/>
      <use transform="translate(919.198802 0)scale(0.996264)" xlink:href="#CMR17-67"/>
      <use transform="translate(994.965246 0)scale(0.996264)" xlink:href="#CMR17-6f"/>
      <use transform="translate(1040.655723 0)scale(0.996264)" xlink:href="#CMR17-66"/>
      <use transform="translate(1098.205202 0)scale(0.996264)" xlink:href="#CMR17-74"/>
      <use transform="translate(1133.485969 0)scale(0.996264)" xlink:href="#CMR17-68"/>
      <use transform="translate(1184.381339 0)scale(0.996264)" xlink:href="#CMR17-65"/>
      <use transform="translate(1254.942966 0)scale(0.996264)" xlink:href="#CMR17-74"/>
      <use transform="translate(1290.223734 0)scale(0.996264)" xlink:href="#CMR17-61"/>
      <use transform="translate(1335.914211 0)scale(0.996264)" xlink:href="#CMR17-73"/>
      <use transform="translate(1371.715549 0)scale(0.996264)" xlink:href="#CMR17-6b"/>
     </g>
    </g>
   </g>
   <g id="matplotlib.axis_2">
    <g id="ytick_1">
     <g id="line2d_13">
      <path clip-path="url(#pa61a071f4a)" d="M 38.125311 183.425676 
L 596.125311 183.425676 
" style="fill:none;stroke:#b0b0b0;stroke-linecap:square;stroke-width:0.8;"/>
     </g>
     <g id="line2d_14">
      <defs>
       <path d="M 0 0 
L -3.5 0 
" id="ma5518ef095" style="stroke:#000000;stroke-width:0.8;"/>
      </defs>
      <g>
       <use style="stroke:#000000;stroke-width:0.8;" x="38.125311" xlink:href="#ma5518ef095" y="183.425676"/>
      </g>
     </g>
     <g id="text_8">
      <!-- $\mathdefault{0}$ -->
      <g transform="translate(26.143975 186.884925)scale(0.1 -0.1)">
       <use transform="scale(0.996264)" xlink:href="#CMR17-30"/>
      </g>
     </g>
    </g>
    <g id="ytick_2">
     <g id="line2d_15">
      <path clip-path="url(#pa61a071f4a)" d="M 38.125311 156.34132 
L 596.125311 156.34132 
" style="fill:none;stroke:#b0b0b0;stroke-linecap:square;stroke-width:0.8;"/>
     </g>
     <g id="line2d_16">
      <g>
       <use style="stroke:#000000;stroke-width:0.8;" x="38.125311" xlink:href="#ma5518ef095" y="156.34132"/>
      </g>
     </g>
     <g id="text_9">
      <!-- $\mathdefault{10}$ -->
      <g transform="translate(21.16264 159.800569)scale(0.1 -0.1)">
       <use transform="scale(0.996264)" xlink:href="#CMR17-31"/>
       <use transform="translate(45.690477 0)scale(0.996264)" xlink:href="#CMR17-30"/>
      </g>
     </g>
    </g>
    <g id="ytick_3">
     <g id="line2d_17">
      <path clip-path="url(#pa61a071f4a)" d="M 38.125311 129.256964 
L 596.125311 129.256964 
" style="fill:none;stroke:#b0b0b0;stroke-linecap:square;stroke-width:0.8;"/>
     </g>
     <g id="line2d_18">
      <g>
       <use style="stroke:#000000;stroke-width:0.8;" x="38.125311" xlink:href="#ma5518ef095" y="129.256964"/>
      </g>
     </g>
     <g id="text_10">
      <!-- $\mathdefault{20}$ -->
      <g transform="translate(21.16264 132.716213)scale(0.1 -0.1)">
       <use transform="scale(0.996264)" xlink:href="#CMR17-32"/>
       <use transform="translate(45.690477 0)scale(0.996264)" xlink:href="#CMR17-30"/>
      </g>
     </g>
    </g>
    <g id="ytick_4">
     <g id="line2d_19">
      <path clip-path="url(#pa61a071f4a)" d="M 38.125311 102.172607 
L 596.125311 102.172607 
" style="fill:none;stroke:#b0b0b0;stroke-linecap:square;stroke-width:0.8;"/>
     </g>
     <g id="line2d_20">
      <g>
       <use style="stroke:#000000;stroke-width:0.8;" x="38.125311" xlink:href="#ma5518ef095" y="102.172607"/>
      </g>
     </g>
     <g id="text_11">
      <!-- $\mathdefault{30}$ -->
      <g transform="translate(21.16264 105.631857)scale(0.1 -0.1)">
       <defs>
        <path d="M 1414 2157 
C 1984 2157 2234 1662 2234 1090 
C 2234 320 1824 25 1453 25 
C 1114 25 563 194 390 693 
C 422 680 454 680 486 680 
C 640 680 755 782 755 948 
C 755 1133 614 1216 486 1216 
C 378 1216 211 1165 211 926 
C 211 335 787 -128 1466 -128 
C 2176 -128 2720 430 2720 1085 
C 2720 1707 2208 2157 1600 2227 
C 2086 2328 2554 2756 2554 3329 
C 2554 3820 2048 4179 1472 4179 
C 890 4179 378 3829 378 3329 
C 378 3110 544 3072 627 3072 
C 762 3072 877 3155 877 3321 
C 877 3486 762 3569 627 3569 
C 602 3569 570 3569 544 3557 
C 730 3959 1235 4032 1459 4032 
C 1683 4032 2106 3925 2106 3320 
C 2106 3143 2080 2828 1862 2550 
C 1670 2304 1453 2304 1242 2284 
C 1210 2284 1062 2269 1037 2269 
C 992 2263 966 2257 966 2208 
C 966 2163 973 2157 1101 2157 
L 1414 2157 
z
" id="CMR17-33" transform="scale(0.015625)"/>
       </defs>
       <use transform="scale(0.996264)" xlink:href="#CMR17-33"/>
       <use transform="translate(45.690477 0)scale(0.996264)" xlink:href="#CMR17-30"/>
      </g>
     </g>
    </g>
    <g id="ytick_5">
     <g id="line2d_21">
      <path clip-path="url(#pa61a071f4a)" d="M 38.125311 75.088251 
L 596.125311 75.088251 
" style="fill:none;stroke:#b0b0b0;stroke-linecap:square;stroke-width:0.8;"/>
     </g>
     <g id="line2d_22">
      <g>
       <use style="stroke:#000000;stroke-width:0.8;" x="38.125311" xlink:href="#ma5518ef095" y="75.088251"/>
      </g>
     </g>
     <g id="text_12">
      <!-- $\mathdefault{40}$ -->
      <g transform="translate(21.16264 78.5475)scale(0.1 -0.1)">
       <defs>
        <path d="M 2150 4122 
C 2150 4256 2144 4256 2029 4256 
L 128 1254 
L 128 1088 
L 1779 1088 
L 1779 457 
C 1779 224 1766 160 1318 160 
L 1197 160 
L 1197 0 
C 1402 0 1747 0 1965 0 
C 2182 0 2528 0 2733 0 
L 2733 160 
L 2611 160 
C 2163 160 2150 224 2150 457 
L 2150 1088 
L 2803 1088 
L 2803 1254 
L 2150 1254 
L 2150 4122 
z
M 1798 3703 
L 1798 1254 
L 256 1254 
L 1798 3703 
z
" id="CMR17-34" transform="scale(0.015625)"/>
       </defs>
       <use transform="scale(0.996264)" xlink:href="#CMR17-34"/>
       <use transform="translate(45.690477 0)scale(0.996264)" xlink:href="#CMR17-30"/>
      </g>
     </g>
    </g>
    <g id="ytick_6">
     <g id="line2d_23">
      <path clip-path="url(#pa61a071f4a)" d="M 38.125311 48.003895 
L 596.125311 48.003895 
" style="fill:none;stroke:#b0b0b0;stroke-linecap:square;stroke-width:0.8;"/>
     </g>
     <g id="line2d_24">
      <g>
       <use style="stroke:#000000;stroke-width:0.8;" x="38.125311" xlink:href="#ma5518ef095" y="48.003895"/>
      </g>
     </g>
     <g id="text_13">
      <!-- $\mathdefault{50}$ -->
      <g transform="translate(21.16264 51.463144)scale(0.1 -0.1)">
       <use transform="scale(0.996264)" xlink:href="#CMR17-35"/>
       <use transform="translate(45.690477 0)scale(0.996264)" xlink:href="#CMR17-30"/>
      </g>
     </g>
    </g>
    <g id="text_14">
     <!-- Error [degrees] -->
     <g transform="translate(14.67198 136.639532)rotate(-90)scale(0.1 -0.1)">
      <defs>
       <path d="M 3885 1615 
L 3770 1615 
C 3629 676 3546 166 2419 166 
L 1530 166 
C 1274 166 1261 197 1261 414 
L 1261 2176 
L 1862 2176 
C 2464 2176 2522 1960 2522 1430 
L 2637 1430 
L 2637 3081 
L 2522 3081 
C 2522 2557 2464 2342 1862 2342 
L 1261 2342 
L 1261 3913 
C 1261 4128 1274 4160 1530 4160 
L 2406 4160 
C 3398 4160 3514 3769 3603 2929 
L 3718 2929 
L 3565 4325 
L 326 4325 
L 326 4160 
C 768 4160 838 4160 838 3874 
L 838 451 
C 838 166 768 166 326 166 
L 326 0 
L 3654 0 
L 3885 1615 
z
" id="CMR17-45" transform="scale(0.015625)"/>
       <path d="M 960 1497 
C 960 2112 1222 2688 1702 2688 
C 1747 2688 1792 2682 1837 2662 
C 1837 2662 1696 2617 1696 2452 
C 1696 2298 1818 2234 1914 2234 
C 1990 2234 2131 2279 2131 2458 
C 2131 2663 1926 2790 1709 2790 
C 1222 2790 1011 2317 947 2093 
L 941 2093 
L 941 2790 
L 198 2720 
L 198 2554 
C 576 2554 634 2515 634 2208 
L 634 428 
C 634 184 608 153 198 153 
L 198 -13 
C 352 0 646 0 813 0 
C 998 0 1325 0 1498 -13 
L 1498 153 
C 1037 153 960 153 960 440 
L 960 1497 
z
" id="CMR17-72" transform="scale(0.015625)"/>
       <path d="M 1869 4326 
L 1869 4160 
C 2246 4160 2304 4122 2304 3820 
L 2304 2345 
C 2278 2377 2016 2790 1498 2790 
C 845 2790 211 2208 211 1364 
C 211 525 806 -64 1434 -64 
C 1978 -64 2259 337 2291 380 
L 2291 -63 
L 3066 -63 
L 3066 128 
C 2688 128 2630 166 2630 473 
L 2630 4396 
L 1869 4326 
z
M 2291 755 
C 2291 563 2176 390 2029 262 
C 1811 70 1594 38 1472 38 
C 1286 38 621 134 621 1356 
C 621 2612 1363 2688 1530 2688 
C 1824 2688 2061 2522 2208 2291 
C 2291 2157 2291 2138 2291 2023 
L 2291 755 
z
" id="CMR17-64" transform="scale(0.015625)"/>
      </defs>
      <use transform="scale(0.996264)" xlink:href="#CMR17-45"/>
      <use transform="translate(62.586301 0)scale(0.996264)" xlink:href="#CMR17-72"/>
      <use transform="translate(97.867068 0)scale(0.996264)" xlink:href="#CMR17-72"/>
      <use transform="translate(133.147836 0)scale(0.996264)" xlink:href="#CMR17-6f"/>
      <use transform="translate(178.838313 0)scale(0.996264)" xlink:href="#CMR17-72"/>
      <use transform="translate(244.195047 0)scale(0.996264)" xlink:href="#CMR17-5b"/>
      <use transform="translate(269.066106 0)scale(0.996264)" xlink:href="#CMR17-64"/>
      <use transform="translate(319.961476 0)scale(0.996264)" xlink:href="#CMR17-65"/>
      <use transform="translate(360.447136 0)scale(0.996264)" xlink:href="#CMR17-67"/>
      <use transform="translate(406.137613 0)scale(0.996264)" xlink:href="#CMR17-72"/>
      <use transform="translate(441.418381 0)scale(0.996264)" xlink:href="#CMR17-65"/>
      <use transform="translate(481.904041 0)scale(0.996264)" xlink:href="#CMR17-65"/>
      <use transform="translate(522.389702 0)scale(0.996264)" xlink:href="#CMR17-73"/>
      <use transform="translate(558.19104 0)scale(0.996264)" xlink:href="#CMR17-5d"/>
     </g>
    </g>
   </g>
   <g id="line2d_25">
    <path clip-path="url(#pa61a071f4a)" d="M 63.488947 154.952109 
L 98.295719 154.95219 
L 98.723773 155.466278 
L 99.503369 156.980175 
L 100.210588 163.554813 
L 100.68 163.554231 
L 101.813205 168.407119 
L 102.460456 170.441674 
L 108.742714 170.451858 
L 109.135614 170.886678 
L 109.563668 170.887596 
L 109.940024 170.452191 
L 110.378417 170.483909 
L 111.166285 169.66717 
L 111.598474 169.695508 
L 112.793716 168.439411 
L 113.252788 167.111858 
L 113.649824 167.282427 
L 114.03652 166.663081 
L 114.470777 166.622122 
L 114.886424 166.317274 
L 115.65568 164.956764 
L 115.99895 164.271568 
L 116.344288 164.234265 
L 116.753731 162.951151 
L 117.132155 162.735795 
L 117.444407 162.735795 
L 118.302583 161.919069 
L 118.712026 162.160516 
L 119.098722 160.760227 
L 119.690139 160.856331 
L 120.126464 161.205378 
L 120.550382 161.205443 
L 120.988776 161.748137 
L 121.379607 160.105783 
L 121.762167 159.845876 
L 122.18195 159.066634 
L 122.928459 160.599241 
L 123.255186 160.599241 
L 123.614999 160.778406 
L 123.978949 159.486951 
L 124.322219 161.163673 
L 124.682032 161.03954 
L 125.099747 161.627636 
L 125.474035 161.682404 
L 126.367365 162.81115 
L 126.727178 163.748929 
L 127.111806 163.993276 
L 127.47162 164.670426 
L 127.81489 164.670426 
L 128.234672 165.537656 
L 128.912941 166.316854 
L 129.289297 167.650664 
L 129.605685 167.943584 
L 130.360466 167.348299 
L 130.703736 167.348299 
L 131.119383 166.697606 
L 131.497807 163.452867 
L 133.170732 161.467021 
L 134.281191 160.901884 
L 134.661683 160.737295 
L 135.035972 160.212974 
L 135.426803 160.102633 
L 135.770074 159.713945 
L 136.438003 159.809301 
L 136.783341 158.885361 
L 137.130747 158.637336 
L 137.511239 158.169289 
L 137.88346 158.274081 
L 138.235002 157.331873 
L 138.69821 156.983885 
L 139.047684 157.094571 
L 139.808668 156.980557 
L 140.187093 155.856808 
L 140.925331 156.544842 
L 141.355452 156.258333 
L 141.808321 156.24276 
L 142.197085 157.119616 
L 142.654089 156.263317 
L 143.061464 156.240133 
L 143.491586 155.630843 
L 144.339422 155.222411 
L 144.829512 154.551261 
L 145.741453 154.5979 
L 146.856047 154.682213 
L 147.199317 153.43116 
L 147.598421 152.614648 
L 148.121598 152.637236 
L 150.869827 152.091026 
L 151.417819 152.340771 
L 152.131242 153.645533 
L 152.642011 153.645533 
L 153.175528 155.893697 
L 153.632532 155.893588 
L 154.561016 158.365039 
L 155.853449 161.639594 
L 156.283571 163.187265 
L 156.721964 164.118392 
L 157.170697 164.329127 
L 157.592547 166.778355 
L 158.037144 167.848133 
L 158.545846 169.606403 
L 159.197232 172.366142 
L 159.604607 172.366142 
L 160.462782 176.973421 
L 160.884632 176.880189 
L 161.337501 177.430657 
L 161.713857 179.244312 
L 162.125368 179.177216 
L 162.526539 178.82019 
L 162.871877 179.706558 
L 163.71351 180.26218 
L 164.102274 180.101973 
L 164.493105 179.459622 
L 164.87153 179.523478 
L 165.285108 179.229575 
L 165.839304 179.314596 
L 166.25495 178.323029 
L 166.685072 178.435974 
L 167.489482 177.860615 
L 167.900993 177.987703 
L 168.29596 177.256212 
L 168.692996 176.282112 
L 169.077624 176.41398 
L 169.487067 175.982659 
L 169.896509 176.161522 
L 170.285273 175.22658 
L 170.678173 175.113341 
L 171.062801 174.669929 
L 171.503262 174.941829 
L 171.910637 174.128797 
L 172.905293 174.277989 
L 173.329212 173.189913 
L 173.775876 172.878475 
L 174.154301 172.419658 
L 174.588558 172.260521 
L 175.078649 170.4615 
L 175.926485 170.453188 
L 176.313181 169.577729 
L 176.751574 169.588005 
L 177.146542 169.421777 
L 211.479767 169.421777 
L 212.240751 171.031793 
L 212.64399 172.18729 
L 213.169235 171.770476 
L 213.518709 169.989441 
L 213.957102 166.276211 
L 214.362409 164.544643 
L 214.788395 163.771398 
L 215.191634 163.72123 
L 215.54938 162.552285 
L 216.306229 162.576921 
L 216.663974 162.97007 
L 217.023787 163.026519 
L 217.375329 163.241821 
L 217.757889 162.973027 
L 218.175604 163.090695 
L 218.556096 162.493808 
L 218.97381 162.894209 
L 219.329488 162.571881 
L 219.792696 161.477454 
L 220.841118 161.512652 
L 221.22161 161.073084 
L 221.542133 160.179173 
L 221.881268 160.79756 
L 222.259692 160.391913 
L 222.60503 159.714552 
L 222.989658 159.349189 
L 223.401169 158.173173 
L 223.769254 158.173173 
L 224.213851 157.678642 
L 224.635701 156.733052 
L 225.160946 155.834896 
L 225.634493 155.834896 
L 226.108041 155.316827 
L 226.738748 155.320104 
L 227.299147 154.608273 
L 227.687911 154.608273 
L 228.053928 153.988502 
L 228.442692 155.430933 
L 228.796301 154.408472 
L 229.205744 155.075505 
L 229.608983 154.92906 
L 229.968797 154.92906 
L 230.403054 155.143866 
L 230.791818 153.864753 
L 231.14336 154.461909 
L 231.583821 153.869249 
L 231.949838 153.755658 
L 232.317923 154.037633 
L 232.704619 155.100044 
L 233.103722 155.147035 
L 233.65585 155.071849 
L 234.201773 154.432116 
L 234.602945 155.02632 
L 235.359793 155.02632 
L 236.172475 154.266062 
L 236.5509 155.278746 
L 236.958275 155.090483 
L 237.359446 155.307997 
L 237.801975 154.469385 
L 238.192807 154.165904 
L 238.573299 152.401277 
L 238.964131 151.875922 
L 239.344623 150.894412 
L 239.74993 151.157509 
L 240.256564 149.782816 
L 240.659803 149.657659 
L 241.038227 150.111945 
L 242.113531 148.853091 
L 242.489888 149.315394 
L 242.905534 148.948239 
L 243.571396 148.854879 
L 243.997382 146.95938 
L 244.419232 146.956807 
L 244.898983 146.538083 
L 245.293951 146.361655 
L 245.678579 145.612285 
L 246.094225 145.400242 
L 246.516075 145.533497 
L 246.937925 144.800919 
L 247.322553 144.619725 
L 247.684435 144.103958 
L 248.085606 144.144232 
L 250.064579 140.266619 
L 250.455411 138.727496 
L 250.846243 138.211187 
L 251.284636 138.606131 
L 252.01667 137.844086 
L 252.5171 136.493064 
L 252.920339 137.51214 
L 253.358733 135.96955 
L 253.718546 135.338891 
L 254.140396 134.262748 
L 254.498142 133.959377 
L 255.362521 134.036269 
L 255.782303 133.790181 
L 256.154524 133.025481 
L 256.528812 133.213798 
L 256.851404 133.213798 
L 257.225692 131.279786 
L 257.953591 129.312622 
L 258.348558 129.074794 
L 258.76834 129.520115 
L 259.130222 127.269189 
L 259.566547 126.787033 
L 259.949107 124.903587 
L 260.739042 122.670617 
L 261.117467 120.750742 
L 261.915673 120.964005 
L 262.335456 121.222904 
L 262.75317 121.281217 
L 263.187427 121.53608 
L 264.076621 118.75384 
L 264.537761 118.096367 
L 265.071278 117.898353 
L 265.515875 115.910118 
L 265.910842 115.873527 
L 266.781425 112.511302 
L 267.137103 111.64788 
L 267.523799 111.917342 
L 267.927038 111.944941 
L 268.276512 112.105226 
L 268.677683 112.133827 
L 269.444871 112.076761 
L 269.835703 112.48763 
L 270.199652 112.548408 
L 270.627706 113.013663 
L 271.587208 113.082105 
L 288.159301 113.082024 
L 288.591491 115.276073 
L 288.953372 118.822011 
L 289.327661 117.476433 
L 291.838083 117.443228 
L 292.197896 119.461283 
L 292.971288 119.43967 
L 293.411749 120.595062 
L 294.472578 120.735358 
L 294.838595 121.183686 
L 295.183934 121.279267 
L 295.636802 122.423039 
L 296.062788 122.47802 
L 296.476367 122.880412 
L 296.892013 122.423662 
L 297.286981 119.816576 
L 297.750189 120.325464 
L 298.184446 119.645267 
L 298.622839 118.148234 
L 299.067436 117.346618 
L 299.493422 114.79687 
L 299.902865 115.303672 
L 300.306104 115.019286 
L 300.6928 115.464174 
L 301.04641 115.050108 
L 301.420698 113.803768 
L 301.813598 113.895692 
L 302.150665 114.287575 
L 302.913717 113.496089 
L 303.252851 113.5664 
L 303.664362 112.738459 
L 304.0097 112.738459 
L 304.518402 113.145916 
L 304.929913 112.725025 
L 305.570959 112.725052 
L 305.957655 112.28057 
L 306.650399 107.720188 
L 307.057774 107.214496 
L 307.396909 105.948681 
L 307.713296 105.948681 
L 308.79894 104.794319 
L 309.175297 104.790446 
L 309.526838 103.370034 
L 310.347792 101.221378 
L 310.815136 101.289576 
L 311.346584 101.040211 
L 311.741552 98.615971 
L 312.15513 98.168104 
L 312.564573 96.985384 
L 312.965744 98.171408 
L 313.360712 96.316401 
L 313.761883 96.037595 
L 314.158918 95.470286 
L 314.493917 94.370579 
L 315.178389 94.450316 
L 315.525795 94.463398 
L 315.895948 92.661259 
L 316.319866 91.203687 
L 316.760328 90.223179 
L 317.175974 90.278458 
L 317.581281 89.72331 
L 318.110662 89.801367 
L 318.559394 88.708053 
L 318.962633 88.708053 
L 319.785655 88.921153 
L 320.133061 88.921153 
L 320.645898 89.28625 
L 322.581446 89.395265 
L 322.951599 89.62838 
L 323.340363 89.669114 
L 323.758077 86.063157 
L 324.173723 84.23044 
L 326.334671 84.310339 
L 326.735843 82.867583 
L 329.14287 82.895182 
L 329.577127 84.812185 
L 329.982434 84.822125 
L 330.358791 84.672322 
L 330.795116 84.871419 
L 332.1165 84.989886 
L 332.509399 83.649725 
L 332.896095 83.705952 
L 333.239366 81.345306 
L 334.035504 81.376372 
L 334.426336 80.350633 
L 334.846118 78.586277 
L 335.245222 77.525437 
L 335.6588 75.363266 
L 336.864382 75.35189 
L 337.677064 75.333365 
L 338.080303 73.244375 
L 340.559706 73.228558 
L 343.241763 73.259461 
L 345.330335 73.3009 
L 348.126126 73.280046 
L 348.545909 73.491331 
L 349.658435 73.527353 
L 352.199875 73.462134 
L 352.673423 71.347198 
L 358.891576 71.112864 
L 359.776635 70.872219 
L 360.157127 84.374827 
L 361.087679 85.920965 
L 361.476443 86.758657 
L 361.894157 86.714861 
L 362.727518 88.352029 
L 363.155572 88.317713 
L 363.556743 90.780521 
L 364.793343 93.053115 
L 365.173835 95.010881 
L 365.543988 95.821705 
L 366.007196 97.794123 
L 366.416639 97.803007 
L 366.861235 98.641241 
L 367.208641 99.651514 
L 367.578794 101.873813 
L 368.356322 103.384632 
L 368.683049 105.718708 
L 369.078017 105.718166 
L 369.983754 107.136818 
L 370.428351 107.799382 
L 370.835726 107.030945 
L 371.307205 107.855718 
L 371.743531 107.885998 
L 372.246028 108.72518 
L 372.825038 108.015164 
L 373.681146 107.991708 
L 374.119539 108.821031 
L 374.545525 108.436813 
L 374.930153 109.055609 
L 375.341664 107.676203 
L 375.718021 109.095315 
L 376.549314 110.365138 
L 376.894652 110.397206 
L 377.297891 111.787039 
L 377.955481 111.708955 
L 378.395942 111.333864 
L 378.93773 111.255725 
L 379.564301 110.696515 
L 380.000627 110.696488 
L 380.47831 111.312115 
L 380.881549 112.099105 
L 381.688027 112.200861 
L 382.128488 113.131886 
L 382.680616 112.811126 
L 383.119009 112.811099 
L 383.594624 114.041297 
L 384.014407 111.603705 
L 384.477615 111.546449 
L 385.319247 113.688442 
L 385.889986 114.361055 
L 386.262206 113.654858 
L 386.69026 115.84972 
L 387.097635 115.673374 
L 387.515349 118.083665 
L 387.945471 118.254919 
L 388.344574 119.541318 
L 388.758153 122.090362 
L 389.140713 121.122556 
L 390.003024 124.497132 
L 390.422807 125.091633 
L 390.852928 125.244118 
L 391.239624 126.593109 
L 391.632524 127.090973 
L 392.525854 129.747055 
L 392.99113 129.3968 
L 393.477084 130.857839 
L 394.331124 130.789478 
L 395.6401 134.430319 
L 396.097105 134.048484 
L 396.471393 134.912719 
L 396.942873 136.54382 
L 398.208423 138.305955 
L 398.729532 138.151954 
L 399.15345 138.540479 
L 399.538078 139.866096 
L 399.964064 139.278311 
L 401.219275 143.000649 
L 401.591496 142.699092 
L 402.338005 143.330699 
L 402.728837 142.991251 
L 403.130008 143.458808 
L 403.467075 142.520633 
L 403.828956 143.646205 
L 404.225991 144.316218 
L 404.625095 143.799042 
L 405.210308 144.007564 
L 405.623887 145.374566 
L 406.488266 144.977591 
L 406.891505 147.29138 
L 407.340238 147.268981 
L 407.722798 148.03406 
L 408.138445 149.584856 
L 408.529276 148.595952 
L 408.973873 149.221276 
L 409.383316 149.301148 
L 409.747265 150.07335 
L 410.131893 151.696759 
L 410.533065 150.681529 
L 410.923896 151.840848 
L 411.434666 152.522426 
L 411.782072 153.24528 
L 412.158428 153.026249 
L 412.561667 153.689734 
L 412.940092 152.699557 
L 413.370214 153.427991 
L 413.775521 153.42967 
L 414.962491 155.62009 
L 415.353323 155.401763 
L 415.777241 156.488602 
L 416.143258 156.481963 
L 416.591991 157.316679 
L 417.371586 157.832609 
L 417.927849 157.622697 
L 418.281459 158.576351 
L 418.69297 158.291399 
L 419.03624 159.125399 
L 419.367103 159.125399 
L 419.764138 158.825467 
L 420.117748 160.551957 
L 420.531327 160.351857 
L 420.924226 161.22081 
L 421.292311 161.089394 
L 421.726569 163.08949 
L 422.123604 162.90003 
L 422.522707 163.235616 
L 422.923879 162.903464 
L 423.269217 162.949461 
L 423.639369 161.497805 
L 424.110849 161.435302 
L 424.569921 160.430036 
L 424.979364 159.965274 
L 425.335042 158.414156 
L 425.738281 158.19516 
L 426.108434 158.165979 
L 426.464111 159.920052 
L 426.819789 159.920052 
L 427.183738 162.601934 
L 427.580773 173.505611 
L 427.984012 173.434338 
L 428.358301 175.227455 
L 428.736725 174.912594 
L 429.162711 174.912594 
L 429.543204 173.396602 
L 430.697088 173.29968 
L 431.286437 172.230579 
L 432.03915 171.995138 
L 433.604545 171.760742 
L 433.997445 171.784784 
L 434.398616 171.674353 
L 435.581451 174.133589 
L 435.98469 174.346856 
L 436.662959 174.303142 
L 437.084809 175.242533 
L 437.576967 173.930239 
L 438.071194 174.775041 
L 438.544741 176.030076 
L 439.347084 176.039596 
L 439.760662 176.963194 
L 440.157698 175.428375 
L 440.476153 175.428375 
L 440.906275 174.53548 
L 441.328125 175.949936 
L 441.700346 174.431728 
L 442.097381 174.916646 
L 442.506824 173.378428 
L 443.216111 174.118606 
L 443.637961 172.975483 
L 444.032929 172.974522 
L 444.605735 172.636772 
L 444.994499 171.779974 
L 445.399806 172.267728 
L 445.805113 171.085588 
L 446.185605 171.491285 
L 446.673628 171.522264 
L 447.081003 170.545014 
L 447.521464 168.988558 
L 448.26177 167.379722 
L 448.702231 165.855881 
L 449.130285 163.570029 
L 449.525252 160.25901 
L 449.914016 159.475698 
L 450.269694 156.951392 
L 451.18577 155.254831 
L 451.557991 155.118597 
L 451.944687 154.38629 
L 452.345858 157.943779 
L 452.790455 160.268402 
L 453.191626 159.973874 
L 453.596933 158.803678 
L 453.981561 158.911279 
L 455.236772 152.964632 
L 455.623468 153.049568 
L 456.037047 151.195536 
L 456.419607 150.416021 
L 456.808371 151.284345 
L 457.195067 153.855707 
L 457.561084 155.464166 
L 458.02636 156.27518 
L 458.388241 156.628471 
L 458.781141 156.616039 
L 459.194719 157.000363 
L 459.626909 156.239266 
L 460.079777 153.775375 
L 460.429251 154.144508 
L 460.805608 152.811253 
L 461.155082 152.811253 
L 461.593475 151.87817 
L 462.023597 152.640378 
L 462.391682 152.665621 
L 462.749427 153.591201 
L 463.181617 152.964415 
L 463.911583 153.923906 
L 464.844202 155.649531 
L 465.241238 156.109721 
L 465.619662 156.21833 
L 466.012562 155.554844 
L 466.411665 155.743216 
L 466.765275 155.348055 
L 467.16231 155.466631 
L 467.534531 155.188095 
L 467.888141 155.324058 
L 468.324466 154.740228 
L 468.669804 154.944959 
L 468.975852 154.944959 
L 469.374956 155.455634 
L 469.697547 154.800518 
L 470.483346 155.515653 
L 470.954826 155.201068 
L 471.347725 155.810493 
L 472.110778 156.24926 
L 472.53056 154.871912 
L 473.328767 155.747793 
L 473.717531 156.644681 
L 474.079412 156.184041 
L 474.801107 156.22288 
L 475.187802 156.41939 
L 475.591042 156.056799 
L 475.954991 156.475539 
L 476.372705 156.489834 
L 477.170912 157.233348 
L 477.766465 157.576968 
L 478.668066 157.759638 
L 479.526242 157.726457 
L 479.970839 157.389027 
L 480.390621 157.660615 
L 480.882779 157.318114 
L 481.335648 157.432711 
L 481.914658 157.382215 
L 482.431631 157.562131 
L 482.971351 157.562131 
L 483.444899 157.236103 
L 483.955668 157.210728 
L 484.420944 157.754584 
L 484.987547 157.754584 
L 485.382514 157.249266 
L 485.835383 157.561966 
L 486.726645 157.813856 
L 487.187785 156.914533 
L 487.611703 157.146383 
L 488.010806 156.980175 
L 570.761674 156.980175 
L 570.761674 156.980175 
" style="fill:none;stroke:#1f77b4;stroke-linecap:square;stroke-width:1.5;"/>
   </g>
   <g id="line2d_26">
    <path clip-path="url(#pa61a071f4a)" d="M 63.488947 154.952109 
L 79.804622 154.95219 
L 80.269897 155.514624 
L 80.716562 156.301127 
L 81.429985 156.301127 
L 81.851835 158.791566 
L 82.317111 159.224111 
L 82.693468 159.798261 
L 83.051213 160.094664 
L 83.444113 160.232716 
L 83.818402 160.491009 
L 85.24318 163.693639 
L 85.574043 163.693639 
L 85.909041 164.007203 
L 86.287466 165.579685 
L 87.062925 165.63725 
L 87.832182 165.621891 
L 88.204402 165.321341 
L 88.725511 165.311412 
L 89.205262 164.98163 
L 89.602298 164.942745 
L 90.007605 164.283593 
L 90.37569 164.29021 
L 90.7872 164.935275 
L 92.72068 165.025366 
L 93.115648 165.697353 
L 93.818731 165.736428 
L 94.213699 165.811644 
L 94.583852 166.514453 
L 97.311402 166.837637 
L 98.124084 166.948978 
L 98.576953 166.810523 
L 99.509573 167.035172 
L 100.014138 166.003783 
L 100.526976 165.920347 
L 101.017066 166.445792 
L 101.49475 166.445705 
L 101.982772 165.843276 
L 102.503881 166.106877 
L 102.921596 165.64995 
L 103.386872 165.767109 
L 103.790111 165.301247 
L 104.191282 165.116527 
L 104.590385 166.029562 
L 105.024643 164.837644 
L 105.42995 165.074771 
L 105.829053 164.429686 
L 106.286057 164.406294 
L 106.674821 164.737673 
L 107.073925 164.31798 
L 107.51025 164.611368 
L 107.927964 164.743756 
L 108.387037 165.074299 
L 108.7758 163.878308 
L 109.193515 165.088966 
L 109.74771 164.105947 
L 110.132338 164.105947 
L 110.581071 163.944828 
L 110.947088 165.196536 
L 111.265543 165.196536 
L 111.648104 163.620254 
L 111.978966 164.109747 
L 112.423563 164.357859 
L 112.79992 163.826027 
L 113.900039 164.652022 
L 114.245377 164.497072 
L 114.969139 164.573396 
L 115.318613 164.185066 
L 116.071326 164.514642 
L 116.489041 164.990839 
L 116.906755 164.926562 
L 117.256229 164.524533 
L 117.649129 164.890743 
L 117.984127 166.350428 
L 118.290175 166.350428 
L 118.652057 166.218272 
L 119.028413 166.524661 
L 119.429584 165.849903 
L 120.387019 167.29214 
L 120.883313 169.328176 
L 121.290688 169.328176 
L 121.74976 169.985698 
L 122.155067 170.346613 
L 122.523152 171.800347 
L 123.106298 171.22906 
L 123.470247 171.687443 
L 124.280861 172.052467 
L 125.108018 171.90213 
L 125.492646 171.468312 
L 126.247427 169.066829 
L 126.557611 169.066829 
L 126.969122 167.504319 
L 127.331003 167.687802 
L 127.680477 166.317106 
L 128.431122 164.811887 
L 128.743374 164.451061 
L 129.11973 163.729046 
L 129.427846 163.729046 
L 129.959295 162.755984 
L 130.457657 162.112563 
L 130.869168 162.112563 
L 131.297221 161.369514 
L 131.721139 161.107457 
L 132.465581 161.201811 
L 132.80058 160.423081 
L 133.263788 159.857489 
L 133.937921 159.875411 
L 134.303938 160.525455 
L 134.678226 160.429785 
L 135.41026 159.417401 
L 135.755598 159.759685 
L 136.129887 159.308045 
L 136.560009 159.308045 
L 136.930162 160.252358 
L 137.73664 160.039337 
L 138.141947 160.543707 
L 138.592747 159.976639 
L 139.109721 160.860225 
L 139.585336 160.860353 
L 139.965828 160.408995 
L 140.385611 160.39354 
L 140.768171 160.819407 
L 141.163138 160.580566 
L 141.634618 161.124886 
L 142.949798 161.365598 
L 143.963065 161.298193 
L 145.356825 161.370757 
L 145.786947 160.949512 
L 146.181914 160.980293 
L 146.684412 160.518789 
L 147.104194 161.465647 
L 147.550859 160.947973 
L 148.450393 161.202461 
L 148.975637 161.365205 
L 149.81727 161.459285 
L 150.222577 160.977341 
L 150.702328 161.550343 
L 152.009236 161.306007 
L 152.416611 161.316101 
L 152.852937 161.593767 
L 153.208614 161.572078 
L 153.564292 160.936056 
L 153.928241 161.401598 
L 154.257036 161.401598 
L 154.610645 160.817557 
L 155.053174 160.656548 
L 155.419192 160.91314 
L 155.807955 160.552081 
L 156.219466 160.565626 
L 156.599958 160.717935 
L 157.019741 160.207571 
L 157.532578 159.324838 
L 157.946157 160.399485 
L 158.322513 160.30059 
L 158.705073 160.898813 
L 159.139331 161.129151 
L 160.315962 162.661132 
L 160.679911 162.679652 
L 161.101761 163.134913 
L 161.478118 163.02172 
L 161.833795 164.547235 
L 162.216355 164.426883 
L 162.923575 164.511749 
L 163.446752 166.651503 
L 163.945114 166.651503 
L 164.298723 166.957274 
L 164.5965 166.957274 
L 164.937702 167.27557 
L 165.338874 166.062832 
L 165.737977 166.125906 
L 166.188777 165.783817 
L 166.964237 163.890458 
L 167.415038 163.681392 
L 167.79553 162.516929 
L 168.246331 162.959098 
L 168.639231 162.202808 
L 169.009383 162.371115 
L 169.408487 162.025522 
L 169.857219 162.164714 
L 170.684377 161.224635 
L 171.027647 161.570496 
L 171.815514 161.352088 
L 172.605449 160.543393 
L 172.948719 160.685101 
L 173.258903 160.685101 
L 173.66421 160.976184 
L 174.055042 160.517278 
L 174.466553 160.295917 
L 174.849113 159.721358 
L 175.531517 159.085279 
L 175.874788 158.181794 
L 176.197379 158.181794 
L 176.664723 157.964439 
L 176.993518 157.439146 
L 177.307837 156.40161 
L 177.694533 156.426015 
L 178.06055 156.151648 
L 178.441043 154.889219 
L 179.481193 154.916385 
L 179.872024 153.543804 
L 180.240109 153.744905 
L 180.692978 152.891965 
L 181.54495 153.273421 
L 181.958528 153.137647 
L 182.82084 153.471597 
L 183.312998 153.632045 
L 183.751391 153.419649 
L 184.152563 153.419649 
L 184.535123 152.822249 
L 184.971448 152.977524 
L 185.378823 152.992475 
L 185.759315 153.768279 
L 186.507893 153.774806 
L 186.878045 154.044268 
L 187.289556 153.739651 
L 187.684524 153.228433 
L 188.118781 153.96353 
L 188.526156 153.992483 
L 188.948006 153.671046 
L 189.400875 153.812562 
L 189.965409 153.846201 
L 190.374852 154.270017 
L 190.771888 154.270017 
L 191.235096 153.813347 
L 191.596977 153.825237 
L 191.983673 153.472057 
L 192.357962 152.970699 
L 193.067249 153.05894 
L 193.764129 152.199743 
L 194.202522 152.209601 
L 195.296437 150.862236 
L 196.053286 150.913669 
L 196.621957 149.996159 
L 197.974359 150.081719 
L 198.383801 148.622549 
L 199.496328 148.72788 
L 199.849937 148.258833 
L 200.325553 148.067726 
L 200.77015 148.306908 
L 201.208543 147.114601 
L 201.646936 146.697122 
L 202.432735 146.768842 
L 202.914555 147.456107 
L 203.375695 147.480727 
L 203.797545 146.968155 
L 204.974176 146.995348 
L 205.325718 146.681061 
L 205.716549 146.033962 
L 206.365868 146.027868 
L 206.771175 145.68804 
L 207.151667 146.339771 
L 207.532159 145.849409 
L 207.968485 145.87587 
L 208.849407 144.787486 
L 209.763416 144.707614 
L 210.334154 144.015717 
L 211.610044 144.046078 
L 212.013283 143.066383 
L 212.881798 143.069362 
L 214.418242 142.697738 
L 214.796667 143.054141 
L 215.4708 142.974973 
L 215.886446 142.976003 
L 216.258667 142.382557 
L 216.674314 142.311948 
L 217.052738 141.77018 
L 217.817858 141.689306 
L 218.196283 140.81979 
L 218.948996 139.900141 
L 219.616925 139.903147 
L 220.011893 139.264769 
L 220.386181 137.812424 
L 220.764606 137.691303 
L 221.192659 136.327362 
L 221.61451 135.539153 
L 222.427191 135.152063 
L 222.820091 134.337772 
L 223.345336 132.984096 
L 223.711353 131.34449 
L 224.191104 131.182336 
L 224.708077 130.402794 
L 225.194032 130.402794 
L 226.091498 128.180794 
L 226.517484 128.170068 
L 226.949673 126.252848 
L 227.843003 126.246727 
L 228.320686 124.792216 
L 228.723925 124.472756 
L 229.807501 119.572492 
L 230.252098 118.134692 
L 230.618115 116.122053 
L 230.969657 116.067207 
L 231.366692 114.247274 
L 231.738913 113.145943 
L 232.06564 110.955766 
L 232.415114 110.955766 
L 233.540048 103.056262 
L 233.895725 103.057508 
L 234.290693 102.459133 
L 235.119918 99.990123 
L 235.556243 99.710937 
L 236.890034 96.4041 
L 237.696512 96.370136 
L 238.09148 95.265528 
L 238.461633 95.298977 
L 238.881415 94.914 
L 239.263975 94.772213 
L 240.4861 94.778416 
L 240.932765 93.304025 
L 243.182632 93.327994 
L 243.798864 92.138883 
L 246.718729 92.152777 
L 247.175733 91.3757 
L 247.574836 89.785117 
L 269.47589 89.68439 
L 270.16243 92.647527 
L 270.470546 92.647527 
L 271.332857 89.377362 
L 272.335785 88.986209 
L 272.695599 88.077909 
L 273.036801 89.919455 
L 273.330442 89.919455 
L 273.731613 88.66851 
L 274.132784 90.000356 
L 275.29494 89.986597 
L 275.656821 91.356714 
L 276.461232 91.595814 
L 276.849995 92.421129 
L 277.213945 92.404959 
L 278.156904 93.87954 
L 278.549803 95.075206 
L 278.973721 95.135821 
L 279.345942 94.560007 
L 279.755385 94.567781 
L 280.204118 94.18971 
L 280.601153 94.802196 
L 280.965102 95.895104 
L 281.790192 96.037215 
L 282.238924 95.375734 
L 282.573923 95.452518 
L 282.944076 96.583371 
L 283.702992 96.63039 
L 284.643884 95.522775 
L 286.190668 95.571202 
L 286.589771 94.734837 
L 286.957856 93.141979 
L 287.367299 93.146258 
L 287.733316 91.671732 
L 288.132419 91.652041 
L 288.548065 91.056917 
L 289.294575 90.959169 
L 289.656456 89.265016 
L 290.030745 89.470803 
L 290.512564 87.531942 
L 290.884784 88.006108 
L 291.275616 87.101978 
L 291.649905 86.783276 
L 291.962156 86.783276 
L 292.8224 84.547761 
L 293.17601 82.827416 
L 293.585452 81.839081 
L 293.968013 81.836264 
L 294.350573 81.150407 
L 295.103286 81.091553 
L 295.554086 80.094686 
L 296.248898 80.125075 
L 296.732785 79.930745 
L 297.073988 79.927522 
L 297.495838 79.487103 
L 297.863923 79.751744 
L 298.248551 77.476658 
L 298.608364 77.476658 
L 298.976449 77.987063 
L 299.369349 76.901522 
L 300.831349 76.815746 
L 301.213909 75.984391 
L 302.295417 75.996796 
L 302.700724 75.271992 
L 303.232172 75.298209 
L 303.656091 74.999171 
L 304.750006 74.982893 
L 305.113955 74.115083 
L 306.567684 74.01395 
L 306.966787 72.95051 
L 307.659531 72.97039 
L 308.044159 72.092342 
L 308.428787 70.614864 
L 308.774125 70.447753 
L 309.14221 70.436567 
L 309.551653 68.988638 
L 309.919738 68.960497 
L 310.273348 68.348174 
L 310.662111 66.778988 
L 311.023993 66.778988 
L 311.37967 65.693013 
L 311.710533 65.374203 
L 312.091025 63.597253 
L 312.467382 62.921634 
L 312.903707 62.44893 
L 313.306946 60.787359 
L 313.677099 61.222253 
L 314.462899 57.635255 
L 314.855798 57.096791 
L 315.219747 55.318161 
L 315.635394 54.251904 
L 315.955917 54.251904 
L 316.334342 53.686979 
L 316.671408 51.106056 
L 317.047765 51.06738 
L 317.442732 50.081428 
L 317.821157 50.054858 
L 318.195445 47.72582 
L 319.41757 47.662172 
L 319.777383 47.685546 
L 320.164079 44.846184 
L 326.570411 44.736384 
L 326.969515 44.723844 
L 327.372754 41.501347 
L 328.199911 41.448641 
L 328.609354 41.620302 
L 330.406352 41.552131 
L 330.797184 39.186827 
L 331.551965 32.623827 
L 331.949001 31.31354 
L 332.346036 29.192239 
L 360.812649 29.16743 
L 361.323418 29.06218 
L 362.632395 31.149382 
L 363.004615 31.081942 
L 363.376836 34.974234 
L 365.049761 42.15836 
L 365.436457 44.345963 
L 365.881054 46.043042 
L 367.20037 53.498038 
L 367.609813 57.711145 
L 368.178483 58.63678 
L 368.59413 65.792169 
L 368.989097 65.792061 
L 369.373725 68.548571 
L 369.685977 68.548571 
L 370.105759 69.558872 
L 370.446962 68.571918 
L 370.786096 68.551902 
L 371.150045 69.689608 
L 371.493315 73.257972 
L 371.892419 74.902019 
L 372.310133 77.985952 
L 372.684422 76.84933 
L 373.050439 76.84933 
L 373.424727 80.750019 
L 373.821763 82.526591 
L 374.26636 86.025781 
L 374.760586 88.850002 
L 375.126603 87.070154 
L 375.469873 87.363152 
L 375.809008 85.526075 
L 376.206043 86.562701 
L 376.555517 86.288851 
L 376.936009 87.836235 
L 377.324773 87.890566 
L 377.678383 87.169391 
L 378.449707 87.16847 
L 378.863286 88.69118 
L 379.34924 91.136084 
L 380.068867 91.136084 
L 380.451427 90.196961 
L 380.817444 90.28615 
L 381.266177 91.052394 
L 381.650805 92.576376 
L 381.998211 92.576268 
L 382.413858 92.987842 
L 383.129349 94.450478 
L 383.538791 93.038625 
L 383.921352 93.739649 
L 384.310115 95.693 
L 384.684404 96.379291 
L 385.019403 96.379291 
L 385.472271 95.697632 
L 385.87551 96.32588 
L 386.632359 97.843092 
L 386.981833 100.186322 
L 387.351986 98.85044 
L 387.852416 99.608315 
L 388.576178 102.830676 
L 388.958738 102.761584 
L 389.339231 100.871285 
L 389.783828 102.3619 
L 390.544812 103.981924 
L 390.896354 105.453715 
L 391.229285 105.453715 
L 391.607709 104.71897 
L 391.984066 104.879987 
L 392.724371 106.207716 
L 393.096592 106.567748 
L 393.477084 107.186328 
L 393.865848 107.474099 
L 394.219458 107.070813 
L 395.063158 108.027054 
L 395.377478 108.027054 
L 395.76831 109.402966 
L 396.144666 108.445534 
L 396.866361 109.960904 
L 397.987159 113.113116 
L 398.326293 114.601754 
L 398.675767 114.601754 
L 399.426412 121.720742 
L 399.81104 121.637078 
L 400.230822 120.172139 
L 400.669216 121.5685 
L 401.206868 122.489233 
L 401.593564 125.639956 
L 401.988531 127.38771 
L 402.331802 126.965194 
L 402.722633 128.45524 
L 403.142416 128.987718 
L 403.496025 128.948039 
L 404.203245 130.474162 
L 404.565126 131.258335 
L 404.991112 133.123987 
L 405.394351 132.308423 
L 405.785183 133.114968 
L 406.186354 134.281058 
L 406.521352 134.281058 
L 406.932863 135.318822 
L 407.381596 137.339098 
L 407.844804 136.070223 
L 408.355573 136.297677 
L 408.804306 136.297677 
L 409.168255 136.005166 
L 409.834117 135.984826 
L 410.229084 136.212362 
L 410.62612 135.375076 
L 411.395376 133.193214 
L 411.759325 134.03264 
L 412.158428 133.488163 
L 412.933888 134.321928 
L 413.332992 133.067083 
L 413.738299 133.994261 
L 414.093976 133.391445 
L 414.499283 134.250371 
L 415.007985 132.232397 
L 415.382273 133.080787 
L 415.795852 132.789712 
L 416.184616 134.420082 
L 416.604398 133.635746 
L 416.991094 133.503411 
L 417.807912 132.175574 
L 418.132571 132.175574 
L 418.529606 131.891107 
L 418.891488 133.556118 
L 419.267844 132.242581 
L 419.65454 133.907646 
L 420.018489 134.694148 
L 420.376235 134.905162 
L 420.758795 133.697227 
L 421.275768 133.824144 
L 421.763791 132.995824 
L 422.138079 133.782516 
L 422.530979 134.011162 
L 422.9032 134.965804 
L 423.277488 133.145329 
L 423.682795 133.613861 
L 424.065355 131.184584 
L 424.408626 131.842084 
L 424.828408 131.730172 
L 425.198561 129.511015 
L 425.560442 129.511015 
L 425.969885 130.312522 
L 426.313155 131.544373 
L 426.656425 131.931138 
L 427.045189 132.733593 
L 427.491854 133.389982 
L 427.911636 132.358258 
L 428.238363 133.005195 
L 428.591973 131.731499 
L 428.989008 132.341141 
L 429.371568 133.374084 
L 429.69416 133.374084 
L 430.107738 133.000022 
L 430.868723 134.122858 
L 431.321591 134.159693 
L 431.716559 133.679487 
L 432.121866 134.532102 
L 432.547852 135.102391 
L 432.942819 134.686998 
L 433.317108 135.980574 
L 433.829945 135.743396 
L 434.226981 134.934576 
L 434.603337 136.7388 
L 434.981762 135.318686 
L 435.35605 136.104783 
L 435.732407 136.591543 
L 436.121171 137.454261 
L 436.476848 136.522423 
L 436.824254 137.023565 
L 437.200611 136.249684 
L 437.479776 136.249684 
L 437.849929 137.425903 
L 438.267644 137.670394 
L 438.627457 136.574155 
L 439.001745 134.87583 
L 439.384306 135.36278 
L 440.221802 131.383329 
L 440.873189 131.4882 
L 441.243341 132.632812 
L 441.603155 129.71385 
L 441.950561 130.507746 
L 442.360003 129.041128 
L 442.682595 129.495143 
L 443.08997 127.390012 
L 443.495277 127.124531 
L 443.822004 127.866263 
L 444.144595 127.866263 
L 444.531291 126.987186 
L 444.860086 125.592423 
L 445.275732 126.047467 
L 445.69965 126.877224 
L 446.144247 124.590627 
L 447.021034 125.82692 
L 447.413934 124.883057 
L 447.784086 125.65404 
L 448.139764 126.76309 
L 448.524392 125.328432 
L 449.390839 126.541378 
L 449.860251 127.872411 
L 450.280033 128.023515 
L 450.753581 129.15491 
L 451.150616 128.075138 
L 451.595213 128.413909 
L 452.004656 128.146722 
L 452.436845 128.417701 
L 452.97243 127.66852 
L 453.596933 126.30141 
L 454.506806 126.390328 
L 454.972082 124.48145 
L 455.387728 124.810362 
L 455.875751 124.425792 
L 456.299669 124.425846 
L 457.164048 121.333598 
L 457.573491 121.071665 
L 458.013952 119.125735 
L 458.400648 118.569043 
L 459.231941 118.939503 
L 459.626909 116.993763 
L 460.987582 111.611749 
L 461.845758 110.049172 
L 482.46265 110.049145 
L 483.174005 116.554942 
L 483.957736 124.978069 
L 484.29687 124.978069 
L 484.693906 127.125696 
L 485.578964 132.888895 
L 486.046308 132.477239 
L 486.542602 132.477294 
L 487.311858 130.342369 
L 487.67374 129.870776 
L 488.066639 128.467021 
L 488.391298 128.467021 
L 488.806945 126.596467 
L 489.170894 123.934617 
L 489.543115 122.813731 
L 490.275149 121.281325 
L 490.672184 119.602745 
L 491.094034 119.246613 
L 491.943938 118.072858 
L 492.713194 115.080714 
L 493.30668 113.986858 
L 494.090411 112.116575 
L 494.435749 111.562618 
L 494.80797 111.366284 
L 495.205005 110.740716 
L 495.585498 109.607886 
L 496.015619 109.339968 
L 496.435402 108.046771 
L 496.84898 107.741801 
L 497.628576 106.254518 
L 498.002864 105.29435 
L 498.449529 104.507821 
L 498.774188 104.507821 
L 499.191903 104.088717 
L 499.58687 102.229945 
L 500.095572 101.042729 
L 500.494675 99.28138 
L 501.288746 99.281434 
L 502.748678 94.415404 
L 503.145714 94.100901 
L 503.956328 92.505361 
L 504.405061 92.296812 
L 505.246693 90.782038 
L 505.637525 89.707791 
L 506.415052 88.437643 
L 506.911347 88.176956 
L 508.069367 85.488779 
L 508.493285 84.92751 
L 508.869641 84.93244 
L 509.231522 84.493375 
L 509.624422 83.53746 
L 509.932538 83.53746 
L 510.296487 83.879427 
L 510.743152 81.885395 
L 511.113305 82.186221 
L 511.506205 81.780119 
L 511.911512 80.870707 
L 512.728329 80.956294 
L 513.119161 79.9594 
L 513.638202 79.464 
L 514.409526 79.432988 
L 514.831376 79.401137 
L 515.544799 80.150453 
L 567.589527 80.150453 
L 567.589527 80.150453 
" style="fill:none;stroke:#ff7f0e;stroke-linecap:square;stroke-width:1.5;"/>
   </g>
   <g id="patch_3">
    <path d="M 38.125311 187.82218 
L 38.125311 21.50218 
" style="fill:none;stroke:#000000;stroke-linecap:square;stroke-linejoin:miter;stroke-width:0.8;"/>
   </g>
   <g id="patch_4">
    <path d="M 596.125311 187.82218 
L 596.125311 21.50218 
" style="fill:none;stroke:#000000;stroke-linecap:square;stroke-linejoin:miter;stroke-width:0.8;"/>
   </g>
   <g id="patch_5">
    <path d="M 38.125311 187.82218 
L 596.125311 187.82218 
" style="fill:none;stroke:#000000;stroke-linecap:square;stroke-linejoin:miter;stroke-width:0.8;"/>
   </g>
   <g id="patch_6">
    <path d="M 38.125311 21.50218 
L 596.125311 21.50218 
" style="fill:none;stroke:#000000;stroke-linecap:square;stroke-linejoin:miter;stroke-width:0.8;"/>
   </g>
   <g id="text_15">
    <!-- \bf{Angular error to preop-planned trajectory} -->
    <g transform="translate(192.284412 15.50218)scale(0.12 -0.12)">
     <defs>
      <path d="M 2931 4301 
C 2886 4416 2874 4448 2720 4448 
C 2560 4448 2547 4416 2502 4301 
L 915 413 
C 870 311 870 299 691 279 
C 531 260 506 260 365 260 
L 250 260 
L 250 -13 
C 416 0 800 0 986 0 
C 1158 0 1626 0 1773 -13 
L 1773 260 
C 1632 260 1389 260 1210 331 
C 1229 390 1229 402 1242 428 
L 1581 1262 
L 3296 1262 
L 3699 260 
L 3098 260 
L 3098 0 
C 3302 0 3923 0 4166 0 
C 4371 0 5024 0 5184 -13 
L 5184 260 
L 4576 260 
L 2931 4301 
z
M 2438 3367 
L 3181 1536 
L 1690 1536 
L 2438 3367 
z
" id="CMBX12-41" transform="scale(0.015625)"/>
      <path d="M 3398 1924 
C 3398 2525 3136 2834 2432 2834 
C 1971 2834 1574 2615 1357 2143 
L 1350 2143 
L 1350 2816 
L 269 2816 
L 269 2517 
C 666 2517 710 2517 710 2270 
L 710 260 
L 269 260 
L 269 -13 
C 416 0 877 0 1056 0 
C 1235 0 1702 0 1850 -13 
L 1850 260 
L 1408 260 
L 1408 1607 
C 1408 2289 1920 2624 2330 2624 
C 2566 2624 2701 2473 2701 1993 
L 2701 260 
L 2259 260 
L 2259 -13 
C 2406 0 2867 0 3046 0 
C 3226 0 3693 0 3840 -13 
L 3840 260 
L 3398 260 
L 3398 1924 
z
" id="CMBX12-6e" transform="scale(0.015625)"/>
      <path d="M 832 1189 
C 1139 1024 1498 1024 1594 1024 
C 2477 1024 2829 1514 2829 1960 
C 2829 2285 2643 2515 2566 2578 
C 2752 2676 2906 2700 3014 2713 
C 2995 2682 2976 2658 2976 2578 
C 2976 2450 3066 2334 3232 2334 
C 3398 2334 3488 2455 3488 2588 
C 3488 2741 3373 2944 3104 2944 
C 2829 2944 2566 2803 2432 2682 
C 2170 2834 1920 2891 1594 2891 
C 710 2891 358 2403 358 1957 
C 358 1760 422 1501 691 1285 
C 582 1161 467 933 467 699 
C 467 420 614 180 749 76 
C 595 39 198 -105 198 -461 
C 198 -830 614 -1248 1792 -1248 
C 2854 -1248 3392 -910 3392 -439 
C 3392 114 3021 295 2861 370 
C 2554 521 2144 521 1581 521 
C 1421 521 1139 521 1107 527 
C 832 575 755 829 755 957 
C 755 1010 762 1107 832 1189 
z
M 1594 1227 
C 1037 1227 1037 1665 1037 1957 
C 1037 2250 1037 2688 1594 2688 
C 2150 2688 2150 2250 2150 1957 
C 2150 1665 2150 1227 1594 1227 
z
M 1952 -64 
C 2419 -64 2867 -145 2867 -467 
C 2867 -685 2643 -1045 1798 -1045 
C 954 -1045 723 -697 723 -461 
C 723 -64 1126 -64 1222 -64 
L 1952 -64 
z
" id="CMBX12-67" transform="scale(0.015625)"/>
      <path d="M 2259 2859 
L 2259 2560 
C 2656 2560 2701 2560 2701 2312 
L 2701 1056 
C 2701 569 2413 178 1914 178 
C 1434 178 1408 337 1408 684 
L 1408 2859 
L 269 2859 
L 269 2560 
C 666 2560 710 2560 710 2312 
L 710 794 
C 710 153 1139 -32 1824 -32 
C 1978 -32 2451 -32 2726 496 
L 2733 496 
L 2733 0 
L 3840 0 
L 3840 292 
C 3443 292 3398 292 3398 540 
L 3398 2859 
L 2259 2859 
z
" id="CMBX12-75" transform="scale(0.015625)"/>
      <path d="M 1389 4416 
L 282 4416 
L 282 4117 
C 678 4117 723 4117 723 3866 
L 723 260 
L 282 260 
L 282 -13 
C 429 0 883 0 1056 0 
C 1229 0 1683 0 1830 -13 
L 1830 260 
L 1389 260 
L 1389 4416 
z
" id="CMBX12-6c" transform="scale(0.015625)"/>
      <path d="M 2944 1898 
C 2944 2484 2477 2879 1574 2879 
C 1216 2879 461 2879 461 2334 
C 461 2061 666 1945 838 1945 
C 1030 1945 1216 2079 1216 2323 
C 1216 2445 1171 2559 1062 2630 
C 1274 2688 1427 2688 1549 2688 
C 1984 2688 2246 2445 2246 1919 
L 2246 1663 
C 1235 1663 218 1382 218 676 
C 218 95 960 -32 1402 -32 
C 1894 -32 2208 233 2336 510 
C 2336 274 2336 0 2982 0 
L 3309 0 
C 3443 0 3494 0 3494 145 
C 3494 273 3437 273 3347 273 
C 2944 273 2944 374 2944 522 
L 2944 1898 
z
M 2246 882 
C 2246 291 1709 178 1504 178 
C 1190 178 928 390 928 686 
C 928 1273 1619 1472 2246 1472 
L 2246 882 
z
" id="CMBX12-61" transform="scale(0.015625)"/>
      <path d="M 1331 1411 
C 1331 1619 1376 2624 2125 2624 
C 2035 2555 1990 2448 1990 2336 
C 1990 2079 2202 1972 2362 1972 
C 2522 1972 2733 2079 2733 2337 
C 2733 2658 2400 2834 2093 2834 
C 1587 2834 1370 2401 1280 2137 
L 1274 2137 
L 1274 2816 
L 224 2816 
L 224 2517 
C 621 2517 666 2517 666 2270 
L 666 260 
L 224 260 
L 224 -13 
C 371 0 851 0 1030 0 
C 1216 0 1734 0 1888 -13 
L 1888 260 
L 1331 260 
L 1331 1411 
z
" id="CMBX12-72" transform="scale(0.015625)"/>
      <path d="M 2893 1408 
C 3040 1408 3078 1408 3078 1567 
C 3078 1758 3034 2233 2739 2532 
C 2470 2798 2112 2880 1741 2880 
C 742 2880 198 2233 198 1434 
C 198 545 858 -32 1824 -32 
C 2790 -32 3078 640 3078 748 
C 3078 843 2982 843 2944 843 
C 2842 843 2835 824 2797 742 
C 2630 330 2208 197 1901 197 
C 973 197 966 1053 966 1408 
L 2893 1408 
z
M 966 1593 
C 979 1852 986 2100 1120 2328 
C 1242 2531 1466 2670 1741 2670 
C 2426 2670 2483 1909 2490 1593 
L 966 1593 
z
" id="CMBX12-65" transform="scale(0.015625)"/>
      <path d="M 3392 1395 
C 3392 2252 2803 2880 1798 2880 
C 755 2880 198 2220 198 1395 
C 198 565 787 -32 1792 -32 
C 2835 -32 3392 596 3392 1395 
z
M 1798 197 
C 966 197 966 939 966 1459 
C 966 1757 966 2074 1088 2303 
C 1229 2556 1517 2670 1792 2670 
C 2157 2670 2387 2499 2496 2322 
C 2624 2093 2624 1763 2624 1459 
C 2624 932 2624 197 1798 197 
z
" id="CMBX12-6f" transform="scale(0.015625)"/>
      <path d="M 1350 2560 
L 2272 2560 
L 2272 2833 
L 1350 2833 
L 1350 4032 
L 1082 4032 
C 1075 3405 768 2776 134 2776 
L 134 2560 
L 653 2560 
L 653 789 
C 653 114 1178 -32 1638 -32 
C 2112 -32 2394 325 2394 795 
L 2394 1133 
L 2125 1133 
L 2125 802 
C 2125 381 1933 197 1734 197 
C 1350 197 1350 624 1350 770 
L 1350 2560 
z
" id="CMBX12-74" transform="scale(0.015625)"/>
      <path d="M 1805 -955 
L 1363 -955 
L 1363 268 
C 1523 128 1805 -32 2189 -32 
C 3066 -32 3750 493 3750 1417 
C 3750 2290 3155 2853 2291 2853 
C 1914 2853 1587 2738 1331 2554 
L 1331 2859 
L 224 2859 
L 224 2560 
C 621 2560 666 2560 666 2310 
L 666 -955 
L 224 -955 
L 224 -1228 
C 371 -1216 832 -1216 1011 -1216 
C 1190 -1216 1658 -1216 1805 -1228 
L 1805 -955 
z
M 1363 2246 
C 1600 2530 1939 2624 2189 2624 
C 2605 2624 2982 2251 2982 1417 
C 2982 500 2522 178 2112 178 
C 1837 178 1562 319 1363 620 
L 1363 2246 
z
" id="CMBX12-70" transform="scale(0.015625)"/>
      <path d="M 1997 1088 
L 1997 1673 
L 77 1673 
L 77 1088 
L 1997 1088 
z
" id="CMBX12-2d" transform="scale(0.015625)"/>
      <path d="M 2221 4416 
L 2221 4117 
C 2618 4117 2662 4117 2662 3867 
L 2662 2575 
C 2522 2696 2240 2880 1798 2880 
C 890 2880 243 2318 243 1424 
C 243 510 877 -32 1728 -32 
C 2080 -32 2381 94 2630 311 
L 2630 0 
L 3770 0 
L 3770 292 
C 3373 292 3328 292 3328 540 
L 3328 4416 
L 2221 4416 
z
M 2630 661 
C 2362 262 2035 178 1805 178 
C 1011 178 1011 989 1011 1411 
C 1011 1712 1011 2032 1152 2274 
C 1350 2632 1728 2670 1875 2670 
C 2138 2670 2419 2556 2630 2276 
L 2630 661 
z
" id="CMBX12-64" transform="scale(0.015625)"/>
      <path d="M 1651 3958 
C 1651 4212 1446 4416 1190 4416 
C 934 4416 730 4212 730 3958 
C 730 3704 934 3500 1190 3500 
C 1446 3500 1651 3704 1651 3958 
z
M 499 2859 
L 499 2560 
C 608 2560 749 2560 845 2547 
C 986 2522 986 2439 986 2306 
L 986 -262 
C 986 -548 909 -1038 518 -1038 
C 397 -1038 314 -1012 256 -1000 
C 288 -981 416 -879 416 -688 
C 416 -459 250 -313 38 -313 
C -179 -313 -339 -466 -339 -688 
C -339 -1057 58 -1248 518 -1248 
C 1056 -1248 1651 -919 1651 -268 
L 1651 2859 
L 499 2859 
z
" id="CMBX12-6a" transform="scale(0.015625)"/>
      <path d="M 2995 753 
C 2995 829 2925 829 2861 829 
C 2758 829 2752 823 2720 747 
C 2675 625 2502 197 1914 197 
C 1011 197 1011 1166 1011 1453 
C 1011 1829 1018 2664 1856 2664 
C 1901 2664 2278 2664 2278 2632 
C 2278 2624 2272 2618 2259 2612 
C 2240 2593 2157 2496 2157 2334 
C 2157 2064 2374 1954 2534 1954 
C 2669 1954 2912 2039 2912 2346 
C 2912 2880 2176 2880 1830 2880 
C 691 2880 243 2145 243 1414 
C 243 552 851 -32 1792 -32 
C 2797 -32 2995 708 2995 753 
z
" id="CMBX12-63" transform="scale(0.015625)"/>
      <path d="M 3168 2421 
C 3206 2509 3232 2560 3642 2560 
L 3642 2827 
C 3424 2827 3398 2827 3136 2827 
C 2963 2827 2950 2827 2586 2827 
L 2586 2560 
C 2592 2560 2893 2560 2893 2478 
C 2893 2459 2874 2421 2867 2402 
L 2118 805 
L 1299 2560 
L 1651 2560 
L 1651 2833 
C 1498 2827 1062 2827 883 2827 
C 698 2827 320 2827 154 2833 
L 154 2560 
L 563 2560 
L 1747 20 
C 1715 -56 1626 -240 1594 -316 
C 1459 -601 1254 -1038 806 -1038 
C 781 -1038 704 -1038 634 -1000 
C 646 -993 838 -917 838 -676 
C 838 -468 685 -335 493 -335 
C 294 -335 141 -469 141 -684 
C 141 -982 422 -1248 806 -1248 
C 1331 -1248 1677 -779 1805 -500 
L 3168 2421 
z
" id="CMBX12-79" transform="scale(0.015625)"/>
     </defs>
     <use transform="scale(0.996264)" xlink:href="#CMBX12-41"/>
     <use transform="translate(84.636395 0)scale(0.996264)" xlink:href="#CMBX12-6e"/>
     <use transform="translate(146.902895 0)scale(0.996264)" xlink:href="#CMBX12-67"/>
     <use transform="translate(202.942746 0)scale(0.996264)" xlink:href="#CMBX12-75"/>
     <use transform="translate(265.209246 0)scale(0.996264)" xlink:href="#CMBX12-6c"/>
     <use transform="translate(296.342497 0)scale(0.996264)" xlink:href="#CMBX12-61"/>
     <use transform="translate(350.825685 0)scale(0.996264)" xlink:href="#CMBX12-72"/>
     <use transform="translate(433.963093 0)scale(0.996264)" xlink:href="#CMBX12-65"/>
     <use transform="translate(485.10236 0)scale(0.996264)" xlink:href="#CMBX12-72"/>
     <use transform="translate(530.879867 0)scale(0.996264)" xlink:href="#CMBX12-72"/>
     <use transform="translate(576.657374 0)scale(0.996264)" xlink:href="#CMBX12-6f"/>
     <use transform="translate(632.697225 0)scale(0.996264)" xlink:href="#CMBX12-72"/>
     <use transform="translate(715.834633 0)scale(0.996264)" xlink:href="#CMBX12-74"/>
     <use transform="translate(759.421183 0)scale(0.996264)" xlink:href="#CMBX12-6f"/>
     <use transform="translate(852.820934 0)scale(0.996264)" xlink:href="#CMBX12-70"/>
     <use transform="translate(915.087435 0)scale(0.996264)" xlink:href="#CMBX12-72"/>
     <use transform="translate(960.864942 0)scale(0.996264)" xlink:href="#CMBX12-65"/>
     <use transform="translate(1012.004209 0)scale(0.996264)" xlink:href="#CMBX12-6f"/>
     <use transform="translate(1068.04406 0)scale(0.996264)" xlink:href="#CMBX12-70"/>
     <use transform="translate(1130.31056 0)scale(0.996264)" xlink:href="#CMBX12-2d"/>
     <use transform="translate(1167.670461 0)scale(0.996264)" xlink:href="#CMBX12-70"/>
     <use transform="translate(1229.936961 0)scale(0.996264)" xlink:href="#CMBX12-6c"/>
     <use transform="translate(1261.070212 0)scale(0.996264)" xlink:href="#CMBX12-61"/>
     <use transform="translate(1315.5534 0)scale(0.996264)" xlink:href="#CMBX12-6e"/>
     <use transform="translate(1377.8199 0)scale(0.996264)" xlink:href="#CMBX12-6e"/>
     <use transform="translate(1440.086401 0)scale(0.996264)" xlink:href="#CMBX12-65"/>
     <use transform="translate(1491.225668 0)scale(0.996264)" xlink:href="#CMBX12-64"/>
     <use transform="translate(1590.852069 0)scale(0.996264)" xlink:href="#CMBX12-74"/>
     <use transform="translate(1634.438619 0)scale(0.996264)" xlink:href="#CMBX12-72"/>
     <use transform="translate(1680.216127 0)scale(0.996264)" xlink:href="#CMBX12-61"/>
     <use transform="translate(1740.925965 0)scale(0.996264)" xlink:href="#CMBX12-6a"/>
     <use transform="translate(1775.17254 0)scale(0.996264)" xlink:href="#CMBX12-65"/>
     <use transform="translate(1826.311807 0)scale(0.996264)" xlink:href="#CMBX12-63"/>
     <use transform="translate(1876.125008 0)scale(0.996264)" xlink:href="#CMBX12-74"/>
     <use transform="translate(1919.711558 0)scale(0.996264)" xlink:href="#CMBX12-6f"/>
     <use transform="translate(1975.751409 0)scale(0.996264)" xlink:href="#CMBX12-72"/>
     <use transform="translate(2021.528916 0)scale(0.996264)" xlink:href="#CMBX12-79"/>
    </g>
   </g>
   <g id="legend_1">
    <g id="patch_7">
     <path d="M 510.743608 57.376536 
L 589.125311 57.376536 
Q 591.125311 57.376536 591.125311 55.376536 
L 591.125311 28.50218 
Q 591.125311 26.50218 589.125311 26.50218 
L 510.743608 26.50218 
Q 508.743608 26.50218 508.743608 28.50218 
L 508.743608 55.376536 
Q 508.743608 57.376536 510.743608 57.376536 
z
" style="fill:#ffffff;opacity:0.8;stroke:#cccccc;stroke-linejoin:miter;"/>
    </g>
    <g id="line2d_27">
     <path d="M 512.743608 34.00218 
L 532.743608 34.00218 
" style="fill:none;stroke:#1f77b4;stroke-linecap:square;stroke-width:1.5;"/>
    </g>
    <g id="line2d_28"/>
    <g id="text_16">
     <!-- Assisted -->
     <g transform="translate(540.743608 37.50218)scale(0.1 -0.1)">
      <defs>
       <path d="M 2323 4378 
C 2291 4461 2278 4480 2214 4480 
C 2150 4480 2138 4461 2106 4378 
L 749 566 
C 627 223 371 153 147 153 
L 147 -13 
C 262 0 518 0 640 0 
C 800 0 1056 0 1210 -13 
L 1210 153 
C 909 153 864 361 864 439 
C 864 497 877 530 890 569 
L 1229 1536 
L 2906 1536 
L 3290 442 
C 3322 365 3322 352 3322 327 
C 3322 153 3046 153 2925 153 
L 2925 0 
C 3110 0 3443 0 3642 0 
C 3808 0 4128 0 4282 -13 
L 4282 153 
C 3942 153 3827 153 3744 387 
L 2323 4378 
z
M 2067 3893 
L 2848 1702 
L 1286 1702 
L 2067 3893 
z
" id="CMR17-41" transform="scale(0.015625)"/>
      </defs>
      <use transform="scale(0.996264)" xlink:href="#CMR17-41"/>
      <use transform="translate(69.07243 0)scale(0.996264)" xlink:href="#CMR17-73"/>
      <use transform="translate(104.873767 0)scale(0.996264)" xlink:href="#CMR17-73"/>
      <use transform="translate(140.675105 0)scale(0.996264)" xlink:href="#CMR17-69"/>
      <use transform="translate(165.546164 0)scale(0.996264)" xlink:href="#CMR17-73"/>
      <use transform="translate(201.347501 0)scale(0.996264)" xlink:href="#CMR17-74"/>
      <use transform="translate(236.628269 0)scale(0.996264)" xlink:href="#CMR17-65"/>
      <use transform="translate(277.113929 0)scale(0.996264)" xlink:href="#CMR17-64"/>
     </g>
    </g>
    <g id="line2d_29">
     <path d="M 512.743608 47.939358 
L 532.743608 47.939358 
" style="fill:none;stroke:#ff7f0e;stroke-linecap:square;stroke-width:1.5;"/>
    </g>
    <g id="line2d_30"/>
    <g id="text_17">
     <!-- Unassisted -->
     <g transform="translate(540.743608 51.439358)scale(0.1 -0.1)">
      <defs>
       <path d="M 3456 1433 
C 3456 579 2899 38 2291 38 
C 1965 38 1670 210 1491 477 
C 1286 783 1261 1178 1261 1401 
L 1261 3874 
C 1261 4160 1331 4160 1773 4160 
L 1773 4320 
C 1587 4320 1248 4320 1050 4320 
C 851 4320 512 4320 326 4320 
L 326 4160 
C 768 4160 838 4160 838 3874 
L 838 1433 
C 838 516 1536 -128 2278 -128 
C 3110 -128 3590 719 3590 1344 
L 3590 3766 
C 3590 4122 3917 4160 4102 4160 
L 4102 4326 
C 3955 4320 3686 4320 3526 4320 
C 3366 4320 3091 4320 2944 4326 
L 2944 4160 
C 3456 4160 3456 3861 3456 3702 
L 3456 1433 
z
" id="CMR17-55" transform="scale(0.015625)"/>
      </defs>
      <use transform="scale(0.996264)" xlink:href="#CMR17-55"/>
      <use transform="translate(69.07243 0)scale(0.996264)" xlink:href="#CMR17-6e"/>
      <use transform="translate(119.9678 0)scale(0.996264)" xlink:href="#CMR17-61"/>
      <use transform="translate(165.658277 0)scale(0.996264)" xlink:href="#CMR17-73"/>
      <use transform="translate(201.459614 0)scale(0.996264)" xlink:href="#CMR17-73"/>
      <use transform="translate(237.260952 0)scale(0.996264)" xlink:href="#CMR17-69"/>
      <use transform="translate(262.13201 0)scale(0.996264)" xlink:href="#CMR17-73"/>
      <use transform="translate(297.933348 0)scale(0.996264)" xlink:href="#CMR17-74"/>
      <use transform="translate(333.214116 0)scale(0.996264)" xlink:href="#CMR17-65"/>
      <use transform="translate(373.699776 0)scale(0.996264)" xlink:href="#CMR17-64"/>
     </g>
    </g>
   </g>
  </g>
 </g>
 <defs>
  <clipPath id="pa61a071f4a">
   <rect height="166.32" width="558" x="38.125311" y="21.50218"/>
  </clipPath>
 </defs>
</svg>
