<?xml version="1.0" encoding="utf-8" standalone="no"?>
<!DOCTYPE svg PUBLIC "-//W3C//DTD SVG 1.1//EN"
  "http://www.w3.org/Graphics/SVG/1.1/DTD/svg11.dtd">
<svg height="224.840497pt" version="1.1" viewBox="0 0 618.269316 224.840497" width="618.269316pt" xmlns="http://www.w3.org/2000/svg" xmlns:xlink="http://www.w3.org/1999/xlink">
 <metadata>
  <rdf:RDF xmlns:cc="http://creativecommons.org/ns#" xmlns:dc="http://purl.org/dc/elements/1.1/" xmlns:rdf="http://www.w3.org/1999/02/22-rdf-syntax-ns#">
   <cc:Work>
    <dc:type rdf:resource="http://purl.org/dc/dcmitype/StillImage"/>
    <dc:date>2022-08-12T17:07:07.977026</dc:date>
    <dc:format>image/svg+xml</dc:format>
    <dc:creator>
     <cc:Agent>
      <dc:title>Matplotlib v3.4.2, https://matplotlib.org/</dc:title>
     </cc:Agent>
    </dc:creator>
   </cc:Work>
  </rdf:RDF>
 </metadata>
 <defs>
  <style type="text/css">*{stroke-linecap:butt;stroke-linejoin:round;}</style>
 </defs>
 <g id="figure_1">
  <g id="patch_1">
   <path d="M 0 224.840497 
L 618.269316 224.840497 
L 618.269316 0 
L 0 0 
z
" style="fill:#ffffff;"/>
  </g>
  <g id="axes_1">
   <g id="patch_2">
    <path d="M 53.069316 187.82218 
L 611.069316 187.82218 
L 611.069316 21.50218 
L 53.069316 21.50218 
z
" style="fill:#ffffff;"/>
   </g>
   <g id="matplotlib.axis_1">
    <g id="xtick_1">
     <g id="line2d_1">
      <path clip-path="url(#p9a65e4df11)" d="M 78.432953 187.82218 
L 78.432953 21.50218 
" style="fill:none;stroke:#b0b0b0;stroke-linecap:square;stroke-width:0.8;"/>
     </g>
     <g id="line2d_2">
      <defs>
       <path d="M 0 0 
L 0 3.5 
" id="me644857894" style="stroke:#000000;stroke-width:0.8;"/>
      </defs>
      <g>
       <use style="stroke:#000000;stroke-width:0.8;" x="78.432953" xlink:href="#me644857894" y="187.82218"/>
      </g>
     </g>
     <g id="text_1">
      <!-- $\mathdefault{0}$ -->
      <g transform="translate(75.942285 201.740678)scale(0.1 -0.1)">
       <defs>
        <path d="M 2688 2025 
C 2688 2416 2682 3080 2413 3591 
C 2176 4039 1798 4198 1466 4198 
C 1158 4198 768 4058 525 3597 
C 269 3118 243 2524 243 2025 
C 243 1661 250 1106 448 619 
C 723 -39 1216 -128 1466 -128 
C 1760 -128 2208 -7 2470 600 
C 2662 1042 2688 1559 2688 2025 
z
M 1466 -26 
C 1056 -26 813 325 723 812 
C 653 1188 653 1738 653 2096 
C 653 2588 653 2997 736 3387 
C 858 3929 1216 4096 1466 4096 
C 1728 4096 2067 3923 2189 3400 
C 2272 3036 2278 2607 2278 2096 
C 2278 1680 2278 1169 2202 792 
C 2067 95 1690 -26 1466 -26 
z
" id="CMR17-30" transform="scale(0.015625)"/>
       </defs>
       <use transform="scale(0.996264)" xlink:href="#CMR17-30"/>
      </g>
     </g>
    </g>
    <g id="xtick_2">
     <g id="line2d_3">
      <path clip-path="url(#p9a65e4df11)" d="M 181.827595 187.82218 
L 181.827595 21.50218 
" style="fill:none;stroke:#b0b0b0;stroke-linecap:square;stroke-width:0.8;"/>
     </g>
     <g id="line2d_4">
      <g>
       <use style="stroke:#000000;stroke-width:0.8;" x="181.827595" xlink:href="#me644857894" y="187.82218"/>
      </g>
     </g>
     <g id="text_2">
      <!-- $\mathdefault{5}$ -->
      <g transform="translate(179.336928 201.740678)scale(0.1 -0.1)">
       <defs>
        <path d="M 730 3692 
C 794 3666 1056 3584 1325 3584 
C 1920 3584 2246 3911 2432 4100 
C 2432 4157 2432 4192 2394 4192 
C 2387 4192 2374 4192 2323 4163 
C 2099 4058 1837 3973 1517 3973 
C 1325 3973 1037 3999 723 4139 
C 653 4171 640 4171 634 4171 
C 602 4171 595 4164 595 4037 
L 595 2203 
C 595 2089 595 2057 659 2057 
C 691 2057 704 2070 736 2114 
C 941 2401 1222 2522 1542 2522 
C 1766 2522 2246 2382 2246 1289 
C 2246 1085 2246 715 2054 421 
C 1894 159 1645 25 1370 25 
C 947 25 518 320 403 814 
C 429 807 480 795 506 795 
C 589 795 749 840 749 1038 
C 749 1210 627 1280 506 1280 
C 358 1280 262 1190 262 1011 
C 262 454 704 -128 1382 -128 
C 2042 -128 2669 440 2669 1264 
C 2669 2030 2170 2624 1549 2624 
C 1222 2624 947 2503 730 2274 
L 730 3692 
z
" id="CMR17-35" transform="scale(0.015625)"/>
       </defs>
       <use transform="scale(0.996264)" xlink:href="#CMR17-35"/>
      </g>
     </g>
    </g>
    <g id="xtick_3">
     <g id="line2d_5">
      <path clip-path="url(#p9a65e4df11)" d="M 285.222238 187.82218 
L 285.222238 21.50218 
" style="fill:none;stroke:#b0b0b0;stroke-linecap:square;stroke-width:0.8;"/>
     </g>
     <g id="line2d_6">
      <g>
       <use style="stroke:#000000;stroke-width:0.8;" x="285.222238" xlink:href="#me644857894" y="187.82218"/>
      </g>
     </g>
     <g id="text_3">
      <!-- $\mathdefault{10}$ -->
      <g transform="translate(280.240903 201.740678)scale(0.1 -0.1)">
       <defs>
        <path d="M 1702 4058 
C 1702 4192 1696 4192 1606 4192 
C 1357 3916 979 3827 621 3827 
C 602 3827 570 3827 563 3808 
C 557 3795 557 3782 557 3648 
C 755 3648 1088 3686 1344 3839 
L 1344 461 
C 1344 236 1331 160 781 160 
L 589 160 
L 589 0 
C 896 0 1216 0 1523 0 
C 1830 0 2150 0 2458 0 
L 2458 160 
L 2266 160 
C 1715 160 1702 230 1702 458 
L 1702 4058 
z
" id="CMR17-31" transform="scale(0.015625)"/>
       </defs>
       <use transform="scale(0.996264)" xlink:href="#CMR17-31"/>
       <use transform="translate(45.690477 0)scale(0.996264)" xlink:href="#CMR17-30"/>
      </g>
     </g>
    </g>
    <g id="xtick_4">
     <g id="line2d_7">
      <path clip-path="url(#p9a65e4df11)" d="M 388.61688 187.82218 
L 388.61688 21.50218 
" style="fill:none;stroke:#b0b0b0;stroke-linecap:square;stroke-width:0.8;"/>
     </g>
     <g id="line2d_8">
      <g>
       <use style="stroke:#000000;stroke-width:0.8;" x="388.61688" xlink:href="#me644857894" y="187.82218"/>
      </g>
     </g>
     <g id="text_4">
      <!-- $\mathdefault{15}$ -->
      <g transform="translate(383.635545 201.740678)scale(0.1 -0.1)">
       <use transform="scale(0.996264)" xlink:href="#CMR17-31"/>
       <use transform="translate(45.690477 0)scale(0.996264)" xlink:href="#CMR17-35"/>
      </g>
     </g>
    </g>
    <g id="xtick_5">
     <g id="line2d_9">
      <path clip-path="url(#p9a65e4df11)" d="M 492.011523 187.82218 
L 492.011523 21.50218 
" style="fill:none;stroke:#b0b0b0;stroke-linecap:square;stroke-width:0.8;"/>
     </g>
     <g id="line2d_10">
      <g>
       <use style="stroke:#000000;stroke-width:0.8;" x="492.011523" xlink:href="#me644857894" y="187.82218"/>
      </g>
     </g>
     <g id="text_5">
      <!-- $\mathdefault{20}$ -->
      <g transform="translate(487.030188 201.740678)scale(0.1 -0.1)">
       <defs>
        <path d="M 2669 989 
L 2554 989 
C 2490 536 2438 459 2413 420 
C 2381 369 1920 369 1830 369 
L 602 369 
C 832 619 1280 1072 1824 1597 
C 2214 1967 2669 2402 2669 3035 
C 2669 3790 2067 4224 1395 4224 
C 691 4224 262 3604 262 3030 
C 262 2780 448 2748 525 2748 
C 589 2748 781 2787 781 3010 
C 781 3207 614 3264 525 3264 
C 486 3264 448 3258 422 3245 
C 544 3790 915 4058 1306 4058 
C 1862 4058 2227 3617 2227 3035 
C 2227 2479 1901 2000 1536 1584 
L 262 146 
L 262 0 
L 2515 0 
L 2669 989 
z
" id="CMR17-32" transform="scale(0.015625)"/>
       </defs>
       <use transform="scale(0.996264)" xlink:href="#CMR17-32"/>
       <use transform="translate(45.690477 0)scale(0.996264)" xlink:href="#CMR17-30"/>
      </g>
     </g>
    </g>
    <g id="xtick_6">
     <g id="line2d_11">
      <path clip-path="url(#p9a65e4df11)" d="M 595.406165 187.82218 
L 595.406165 21.50218 
" style="fill:none;stroke:#b0b0b0;stroke-linecap:square;stroke-width:0.8;"/>
     </g>
     <g id="line2d_12">
      <g>
       <use style="stroke:#000000;stroke-width:0.8;" x="595.406165" xlink:href="#me644857894" y="187.82218"/>
      </g>
     </g>
     <g id="text_6">
      <!-- $\mathdefault{25}$ -->
      <g transform="translate(590.42483 201.740678)scale(0.1 -0.1)">
       <use transform="scale(0.996264)" xlink:href="#CMR17-32"/>
       <use transform="translate(45.690477 0)scale(0.996264)" xlink:href="#CMR17-35"/>
      </g>
     </g>
    </g>
    <g id="text_7">
     <!-- Time [s] since beginning of the task -->
     <g transform="translate(254.360587 215.149837)scale(0.1 -0.1)">
      <defs>
       <path d="M 3981 4326 
L 288 4326 
L 179 2918 
L 294 2918 
C 378 3976 467 4160 1453 4160 
C 1568 4160 1754 4160 1805 4154 
C 1926 4135 1926 4058 1926 3912 
L 1926 459 
C 1926 230 1907 160 1376 160 
L 1197 160 
L 1197 0 
C 1504 0 1824 0 2138 0 
C 2451 0 2771 0 3078 0 
L 3078 160 
L 2899 160 
C 2368 160 2349 230 2349 459 
L 2349 3912 
C 2349 4052 2349 4129 2464 4154 
C 2515 4160 2701 4160 2816 4160 
C 3795 4160 3891 3976 3974 2918 
L 4090 2918 
L 3981 4326 
z
" id="CMR17-54" transform="scale(0.015625)"/>
       <path d="M 992 3909 
C 992 4049 877 4170 730 4170 
C 589 4170 467 4056 467 3909 
C 467 3769 582 3648 730 3648 
C 870 3648 992 3763 992 3909 
z
M 243 2706 
L 243 2541 
C 602 2541 653 2502 653 2197 
L 653 427 
C 653 184 627 153 218 153 
L 218 -13 
C 371 0 646 0 806 0 
C 960 0 1222 0 1370 -13 
L 1370 153 
C 992 153 979 191 979 420 
L 979 2776 
L 243 2706 
z
" id="CMR17-69" transform="scale(0.015625)"/>
       <path d="M 4326 1933 
C 4326 2252 4269 2790 3507 2790 
C 3072 2790 2771 2496 2656 2151 
L 2650 2151 
C 2573 2676 2195 2790 1837 2790 
C 1331 2790 1069 2400 973 2144 
L 966 2144 
L 966 2790 
L 211 2720 
L 211 2554 
C 589 2554 646 2515 646 2208 
L 646 428 
C 646 184 621 153 211 153 
L 211 -13 
C 365 0 646 0 813 0 
C 979 0 1267 0 1421 -13 
L 1421 153 
C 1011 153 986 178 986 428 
L 986 1658 
C 986 2247 1344 2688 1792 2688 
C 2266 2688 2317 2266 2317 1958 
L 2317 428 
C 2317 184 2291 153 1882 153 
L 1882 -13 
C 2035 0 2317 0 2483 0 
C 2650 0 2938 0 3091 -13 
L 3091 153 
C 2682 153 2656 178 2656 428 
L 2656 1658 
C 2656 2247 3014 2688 3462 2688 
C 3936 2688 3987 2266 3987 1958 
L 3987 428 
C 3987 184 3962 153 3552 153 
L 3552 -13 
C 3706 0 3987 0 4154 0 
C 4320 0 4608 0 4762 -13 
L 4762 153 
C 4352 153 4326 178 4326 428 
L 4326 1933 
z
" id="CMR17-6d" transform="scale(0.015625)"/>
       <path d="M 2438 1472 
C 2464 1498 2464 1511 2464 1576 
C 2464 2238 2118 2816 1389 2816 
C 710 2816 173 2169 173 1383 
C 173 551 781 -64 1459 -64 
C 2176 -64 2458 607 2458 740 
C 2458 784 2419 784 2406 784 
C 2362 784 2355 771 2330 696 
C 2189 265 1837 51 1504 51 
C 1229 51 954 203 781 480 
C 582 803 582 1176 582 1472 
L 2438 1472 
z
M 589 1568 
C 634 2505 1126 2714 1382 2714 
C 1818 2714 2112 2297 2118 1568 
L 589 1568 
z
" id="CMR17-65" transform="scale(0.015625)"/>
       <path d="M 1504 -1600 
L 1504 -1377 
L 902 -1377 
L 902 4544 
L 1504 4544 
L 1504 4767 
L 678 4767 
L 678 -1600 
L 1504 -1600 
z
" id="CMR17-5b" transform="scale(0.015625)"/>
       <path d="M 1978 2697 
C 1978 2813 1971 2819 1933 2819 
C 1907 2819 1901 2813 1824 2717 
C 1805 2691 1747 2626 1728 2601 
C 1523 2819 1235 2819 1126 2819 
C 416 2819 160 2447 160 2076 
C 160 1498 813 1365 998 1325 
C 1402 1243 1542 1217 1677 1101 
C 1760 1025 1901 884 1901 654 
C 1901 384 1747 38 1158 38 
C 602 38 403 460 288 1021 
C 269 1110 269 1117 218 1117 
C 166 1117 160 1110 160 983 
L 160 63 
C 160 -51 166 -58 205 -58 
C 237 -58 243 -51 275 0 
C 314 57 410 211 448 276 
C 576 103 800 -64 1158 -64 
C 1792 -64 2131 283 2131 784 
C 2131 1112 1958 1285 1875 1362 
C 1683 1561 1459 1606 1190 1657 
C 838 1735 390 1825 390 2217 
C 390 2383 480 2737 1126 2737 
C 1811 2737 1850 2094 1862 1888 
C 1869 1856 1901 1849 1920 1849 
C 1978 1849 1978 1869 1978 1978 
L 1978 2697 
z
" id="CMR17-73" transform="scale(0.015625)"/>
       <path d="M 915 4767 
L 90 4767 
L 90 4544 
L 691 4544 
L 691 -1377 
L 90 -1377 
L 90 -1600 
L 915 -1600 
L 915 4767 
z
" id="CMR17-5d" transform="scale(0.015625)"/>
       <path d="M 2656 1933 
C 2656 2259 2592 2790 1837 2790 
C 1331 2790 1069 2400 973 2144 
L 966 2144 
L 966 2790 
L 211 2720 
L 211 2554 
C 589 2554 646 2515 646 2208 
L 646 428 
C 646 184 621 153 211 153 
L 211 -13 
C 365 0 646 0 813 0 
C 979 0 1267 0 1421 -13 
L 1421 153 
C 1011 153 986 178 986 428 
L 986 1658 
C 986 2247 1344 2688 1792 2688 
C 2266 2688 2317 2266 2317 1958 
L 2317 428 
C 2317 184 2291 153 1882 153 
L 1882 -13 
C 2035 0 2317 0 2483 0 
C 2650 0 2938 0 3091 -13 
L 3091 153 
C 2682 153 2656 178 2656 428 
L 2656 1933 
z
" id="CMR17-6e" transform="scale(0.015625)"/>
       <path d="M 2234 2240 
C 2112 2240 1933 2240 1933 2017 
C 1933 1838 2080 1787 2163 1787 
C 2208 1787 2394 1807 2394 2024 
C 2394 2467 1958 2803 1466 2803 
C 787 2803 211 2178 211 1363 
C 211 516 813 -64 1466 -64 
C 2259 -64 2458 677 2458 748 
C 2458 774 2451 793 2406 793 
C 2362 793 2355 787 2330 703 
C 2163 180 1798 51 1523 51 
C 1114 51 621 427 621 1369 
C 621 2338 1094 2688 1472 2688 
C 1722 2688 2093 2573 2234 2240 
z
" id="CMR17-63" transform="scale(0.015625)"/>
       <path d="M 960 4396 
L 198 4326 
L 198 4160 
C 576 4160 634 4122 634 3817 
L 634 -13 
L 749 -13 
L 934 441 
C 1120 141 1395 -64 1766 -64 
C 2406 -64 3053 500 3053 1370 
C 3053 2188 2477 2790 1830 2790 
C 1434 2790 1152 2579 960 2330 
L 960 4396 
z
M 973 2004 
C 973 2118 973 2138 1062 2272 
C 1312 2657 1670 2688 1792 2688 
C 1984 2688 2643 2585 2643 1376 
C 2643 108 1888 38 1734 38 
C 1536 38 1248 114 1043 486 
C 973 608 973 621 973 735 
L 973 2004 
z
" id="CMR17-62" transform="scale(0.015625)"/>
       <path d="M 710 1164 
C 832 1068 1043 960 1299 960 
C 1805 960 2240 1357 2240 1888 
C 2240 2054 2189 2310 1997 2509 
C 2176 2692 2438 2752 2586 2752 
C 2611 2752 2650 2752 2682 2734 
C 2656 2728 2598 2703 2598 2605 
C 2598 2527 2656 2471 2739 2471 
C 2835 2471 2886 2533 2886 2614 
C 2886 2731 2790 2854 2586 2854 
C 2330 2854 2106 2738 1926 2580 
C 1734 2753 1504 2816 1299 2816 
C 794 2816 358 2419 358 1888 
C 358 1522 570 1292 634 1228 
C 442 1004 442 743 442 711 
C 442 545 506 302 723 168 
C 390 85 128 -169 128 -486 
C 128 -943 736 -1280 1466 -1280 
C 2170 -1280 2803 -956 2803 -479 
C 2803 384 1856 384 1363 384 
C 1216 384 954 384 922 391 
C 723 423 589 602 589 826 
C 589 883 589 1024 710 1164 
z
M 1299 1068 
C 736 1068 736 1760 736 1889 
C 736 2016 736 2708 1299 2708 
C 1862 2708 1862 2016 1862 1889 
C 1862 1760 1862 1068 1299 1068 
z
M 1466 -1171 
C 826 -1171 384 -835 384 -486 
C 384 -289 493 -105 634 -4 
C 794 104 858 104 1293 104 
C 1818 104 2547 104 2547 -486 
C 2547 -835 2106 -1171 1466 -1171 
z
" id="CMR17-67" transform="scale(0.015625)"/>
       <path d="M 2758 1356 
C 2758 2176 2163 2816 1466 2816 
C 768 2816 173 2176 173 1356 
C 173 551 768 -64 1466 -64 
C 2163 -64 2758 551 2758 1356 
z
M 1466 51 
C 1165 51 909 230 762 480 
C 602 767 582 1126 582 1408 
C 582 1677 595 2010 762 2298 
C 890 2509 1139 2714 1466 2714 
C 1754 2714 1997 2554 2150 2330 
C 2349 2029 2349 1607 2349 1408 
C 2349 1158 2336 775 2163 467 
C 1984 173 1709 51 1466 51 
z
" id="CMR17-6f" transform="scale(0.015625)"/>
       <path d="M 979 2560 
L 1709 2560 
L 1709 2725 
L 966 2725 
L 966 3494 
C 966 4022 1235 4352 1510 4352 
C 1594 4352 1690 4327 1754 4282 
C 1702 4269 1568 4225 1568 4067 
C 1568 3901 1696 3850 1786 3850 
C 1875 3850 2003 3901 2003 4067 
C 2003 4308 1773 4454 1517 4454 
C 1152 4454 653 4156 653 3481 
L 653 2725 
L 141 2725 
L 141 2560 
L 653 2560 
L 653 427 
C 653 184 627 153 218 153 
L 218 -13 
C 371 0 666 0 832 0 
C 1018 0 1344 0 1517 -13 
L 1517 153 
C 1056 153 979 153 979 439 
L 979 2560 
z
" id="CMR17-66" transform="scale(0.015625)"/>
       <path d="M 966 2560 
L 1862 2560 
L 1862 2725 
L 966 2725 
L 966 3904 
L 851 3904 
C 838 3245 614 2668 70 2668 
L 70 2560 
L 627 2560 
L 627 771 
C 627 650 627 -64 1370 -64 
C 1747 -64 1965 306 1965 777 
L 1965 1140 
L 1850 1140 
L 1850 783 
C 1850 344 1677 51 1408 51 
C 1222 51 966 178 966 758 
L 966 2560 
z
" id="CMR17-74" transform="scale(0.015625)"/>
       <path d="M 2656 1933 
C 2656 2259 2592 2790 1837 2790 
C 1312 2790 1056 2368 979 2157 
L 973 2157 
L 973 4396 
L 211 4326 
L 211 4160 
C 589 4160 646 4122 646 3817 
L 646 426 
C 646 184 621 153 211 153 
L 211 -13 
C 365 0 646 0 813 0 
C 979 0 1267 0 1421 -13 
L 1421 153 
C 1011 153 986 178 986 428 
L 986 1658 
C 986 2247 1344 2688 1792 2688 
C 2266 2688 2317 2266 2317 1958 
L 2317 428 
C 2317 184 2291 153 1882 153 
L 1882 -13 
C 2035 0 2317 0 2483 0 
C 2650 0 2938 0 3091 -13 
L 3091 153 
C 2682 153 2656 178 2656 428 
L 2656 1933 
z
" id="CMR17-68" transform="scale(0.015625)"/>
       <path d="M 2304 1653 
C 2304 2072 2304 2294 2035 2543 
C 1798 2752 1523 2816 1306 2816 
C 800 2816 435 2407 435 1971 
C 435 1728 627 1728 666 1728 
C 749 1728 896 1778 896 1954 
C 896 2112 774 2181 666 2181 
C 640 2181 608 2174 589 2168 
C 723 2592 1069 2714 1293 2714 
C 1613 2714 1965 2429 1965 1885 
L 1965 1600 
C 1587 1600 1133 1549 774 1357 
C 371 1133 256 813 256 570 
C 256 77 832 -64 1171 -64 
C 1523 -64 1850 139 1990 511 
C 2003 233 2182 -18 2464 -18 
C 2598 -18 2938 70 2938 567 
L 2938 920 
L 2822 920 
L 2822 562 
C 2822 178 2650 128 2566 128 
C 2304 128 2304 458 2304 738 
L 2304 1653 
z
M 1965 870 
C 1965 317 1568 38 1216 38 
C 896 38 646 275 646 570 
C 646 761 730 1100 1101 1305 
C 1408 1478 1760 1504 1965 1504 
L 1965 870 
z
" id="CMR17-61" transform="scale(0.015625)"/>
       <path d="M 1670 1673 
C 1664 1686 1632 1724 1632 1743 
C 1632 1756 2086 2171 2144 2222 
C 2509 2528 2739 2560 2906 2560 
L 2906 2733 
C 2867 2733 2854 2733 2848 2720 
L 2534 2720 
C 2355 2720 2080 2720 1907 2733 
L 1907 2566 
C 1997 2559 2061 2508 2061 2419 
C 2061 2291 1933 2170 1926 2170 
L 960 1289 
L 960 4396 
L 198 4326 
L 198 4160 
C 576 4160 634 4122 634 3817 
L 634 426 
C 634 184 608 153 198 153 
L 198 -13 
C 352 0 634 0 794 0 
C 954 0 1235 0 1389 -13 
L 1389 153 
C 979 153 954 178 954 428 
L 954 1130 
L 1395 1532 
L 2042 574 
C 2118 459 2182 369 2182 286 
C 2182 172 2067 153 1990 153 
L 1990 -13 
C 2144 0 2419 0 2579 0 
C 2694 0 2931 0 3040 0 
L 3040 153 
C 2739 153 2669 210 2477 491 
L 1670 1673 
z
" id="CMR17-6b" transform="scale(0.015625)"/>
      </defs>
      <use transform="scale(0.996264)" xlink:href="#CMR17-54"/>
      <use transform="translate(66.509881 0)scale(0.996264)" xlink:href="#CMR17-69"/>
      <use transform="translate(91.380939 0)scale(0.996264)" xlink:href="#CMR17-6d"/>
      <use transform="translate(168.300529 0)scale(0.996264)" xlink:href="#CMR17-65"/>
      <use transform="translate(238.862156 0)scale(0.996264)" xlink:href="#CMR17-5b"/>
      <use transform="translate(263.733214 0)scale(0.996264)" xlink:href="#CMR17-73"/>
      <use transform="translate(299.534552 0)scale(0.996264)" xlink:href="#CMR17-5d"/>
      <use transform="translate(354.481577 0)scale(0.996264)" xlink:href="#CMR17-73"/>
      <use transform="translate(390.282914 0)scale(0.996264)" xlink:href="#CMR17-69"/>
      <use transform="translate(415.153973 0)scale(0.996264)" xlink:href="#CMR17-6e"/>
      <use transform="translate(466.049343 0)scale(0.996264)" xlink:href="#CMR17-63"/>
      <use transform="translate(506.535003 0)scale(0.996264)" xlink:href="#CMR17-65"/>
      <use transform="translate(577.09663 0)scale(0.996264)" xlink:href="#CMR17-62"/>
      <use transform="translate(630.594438 0)scale(0.996264)" xlink:href="#CMR17-65"/>
      <use transform="translate(671.080099 0)scale(0.996264)" xlink:href="#CMR17-67"/>
      <use transform="translate(716.770576 0)scale(0.996264)" xlink:href="#CMR17-69"/>
      <use transform="translate(741.641634 0)scale(0.996264)" xlink:href="#CMR17-6e"/>
      <use transform="translate(792.537004 0)scale(0.996264)" xlink:href="#CMR17-6e"/>
      <use transform="translate(843.432374 0)scale(0.996264)" xlink:href="#CMR17-69"/>
      <use transform="translate(868.303432 0)scale(0.996264)" xlink:href="#CMR17-6e"/>
      <use transform="translate(919.198802 0)scale(0.996264)" xlink:href="#CMR17-67"/>
      <use transform="translate(994.965246 0)scale(0.996264)" xlink:href="#CMR17-6f"/>
      <use transform="translate(1040.655723 0)scale(0.996264)" xlink:href="#CMR17-66"/>
      <use transform="translate(1098.205202 0)scale(0.996264)" xlink:href="#CMR17-74"/>
      <use transform="translate(1133.485969 0)scale(0.996264)" xlink:href="#CMR17-68"/>
      <use transform="translate(1184.381339 0)scale(0.996264)" xlink:href="#CMR17-65"/>
      <use transform="translate(1254.942966 0)scale(0.996264)" xlink:href="#CMR17-74"/>
      <use transform="translate(1290.223734 0)scale(0.996264)" xlink:href="#CMR17-61"/>
      <use transform="translate(1335.914211 0)scale(0.996264)" xlink:href="#CMR17-73"/>
      <use transform="translate(1371.715549 0)scale(0.996264)" xlink:href="#CMR17-6b"/>
     </g>
    </g>
   </g>
   <g id="matplotlib.axis_2">
    <g id="ytick_1">
     <g id="line2d_13">
      <path clip-path="url(#p9a65e4df11)" d="M 53.069316 183.425676 
L 611.069316 183.425676 
" style="fill:none;stroke:#b0b0b0;stroke-linecap:square;stroke-width:0.8;"/>
     </g>
     <g id="line2d_14">
      <defs>
       <path d="M 0 0 
L -3.5 0 
" id="m5621c3f5e8" style="stroke:#000000;stroke-width:0.8;"/>
      </defs>
      <g>
       <use style="stroke:#000000;stroke-width:0.8;" x="53.069316" xlink:href="#m5621c3f5e8" y="183.425676"/>
      </g>
     </g>
     <g id="text_8">
      <!-- $\mathdefault{0}$ -->
      <g transform="translate(41.087981 186.884925)scale(0.1 -0.1)">
       <use transform="scale(0.996264)" xlink:href="#CMR17-30"/>
      </g>
     </g>
    </g>
    <g id="ytick_2">
     <g id="line2d_15">
      <path clip-path="url(#p9a65e4df11)" d="M 53.069316 156.34132 
L 611.069316 156.34132 
" style="fill:none;stroke:#b0b0b0;stroke-linecap:square;stroke-width:0.8;"/>
     </g>
     <g id="line2d_16">
      <g>
       <use style="stroke:#000000;stroke-width:0.8;" x="53.069316" xlink:href="#m5621c3f5e8" y="156.34132"/>
      </g>
     </g>
     <g id="text_9">
      <!-- $\mathdefault{10000}$ -->
      <g transform="translate(21.16264 159.800569)scale(0.1 -0.1)">
       <use transform="scale(0.996264)" xlink:href="#CMR17-31"/>
       <use transform="translate(45.690477 0)scale(0.996264)" xlink:href="#CMR17-30"/>
       <use transform="translate(91.380954 0)scale(0.996264)" xlink:href="#CMR17-30"/>
       <use transform="translate(137.071431 0)scale(0.996264)" xlink:href="#CMR17-30"/>
       <use transform="translate(182.761908 0)scale(0.996264)" xlink:href="#CMR17-30"/>
      </g>
     </g>
    </g>
    <g id="ytick_3">
     <g id="line2d_17">
      <path clip-path="url(#p9a65e4df11)" d="M 53.069316 129.256964 
L 611.069316 129.256964 
" style="fill:none;stroke:#b0b0b0;stroke-linecap:square;stroke-width:0.8;"/>
     </g>
     <g id="line2d_18">
      <g>
       <use style="stroke:#000000;stroke-width:0.8;" x="53.069316" xlink:href="#m5621c3f5e8" y="129.256964"/>
      </g>
     </g>
     <g id="text_10">
      <!-- $\mathdefault{20000}$ -->
      <g transform="translate(21.16264 132.716213)scale(0.1 -0.1)">
       <use transform="scale(0.996264)" xlink:href="#CMR17-32"/>
       <use transform="translate(45.690477 0)scale(0.996264)" xlink:href="#CMR17-30"/>
       <use transform="translate(91.380954 0)scale(0.996264)" xlink:href="#CMR17-30"/>
       <use transform="translate(137.071431 0)scale(0.996264)" xlink:href="#CMR17-30"/>
       <use transform="translate(182.761908 0)scale(0.996264)" xlink:href="#CMR17-30"/>
      </g>
     </g>
    </g>
    <g id="ytick_4">
     <g id="line2d_19">
      <path clip-path="url(#p9a65e4df11)" d="M 53.069316 102.172607 
L 611.069316 102.172607 
" style="fill:none;stroke:#b0b0b0;stroke-linecap:square;stroke-width:0.8;"/>
     </g>
     <g id="line2d_20">
      <g>
       <use style="stroke:#000000;stroke-width:0.8;" x="53.069316" xlink:href="#m5621c3f5e8" y="102.172607"/>
      </g>
     </g>
     <g id="text_11">
      <!-- $\mathdefault{30000}$ -->
      <g transform="translate(21.16264 105.631857)scale(0.1 -0.1)">
       <defs>
        <path d="M 1414 2157 
C 1984 2157 2234 1662 2234 1090 
C 2234 320 1824 25 1453 25 
C 1114 25 563 194 390 693 
C 422 680 454 680 486 680 
C 640 680 755 782 755 948 
C 755 1133 614 1216 486 1216 
C 378 1216 211 1165 211 926 
C 211 335 787 -128 1466 -128 
C 2176 -128 2720 430 2720 1085 
C 2720 1707 2208 2157 1600 2227 
C 2086 2328 2554 2756 2554 3329 
C 2554 3820 2048 4179 1472 4179 
C 890 4179 378 3829 378 3329 
C 378 3110 544 3072 627 3072 
C 762 3072 877 3155 877 3321 
C 877 3486 762 3569 627 3569 
C 602 3569 570 3569 544 3557 
C 730 3959 1235 4032 1459 4032 
C 1683 4032 2106 3925 2106 3320 
C 2106 3143 2080 2828 1862 2550 
C 1670 2304 1453 2304 1242 2284 
C 1210 2284 1062 2269 1037 2269 
C 992 2263 966 2257 966 2208 
C 966 2163 973 2157 1101 2157 
L 1414 2157 
z
" id="CMR17-33" transform="scale(0.015625)"/>
       </defs>
       <use transform="scale(0.996264)" xlink:href="#CMR17-33"/>
       <use transform="translate(45.690477 0)scale(0.996264)" xlink:href="#CMR17-30"/>
       <use transform="translate(91.380954 0)scale(0.996264)" xlink:href="#CMR17-30"/>
       <use transform="translate(137.071431 0)scale(0.996264)" xlink:href="#CMR17-30"/>
       <use transform="translate(182.761908 0)scale(0.996264)" xlink:href="#CMR17-30"/>
      </g>
     </g>
    </g>
    <g id="ytick_5">
     <g id="line2d_21">
      <path clip-path="url(#p9a65e4df11)" d="M 53.069316 75.088251 
L 611.069316 75.088251 
" style="fill:none;stroke:#b0b0b0;stroke-linecap:square;stroke-width:0.8;"/>
     </g>
     <g id="line2d_22">
      <g>
       <use style="stroke:#000000;stroke-width:0.8;" x="53.069316" xlink:href="#m5621c3f5e8" y="75.088251"/>
      </g>
     </g>
     <g id="text_12">
      <!-- $\mathdefault{40000}$ -->
      <g transform="translate(21.16264 78.5475)scale(0.1 -0.1)">
       <defs>
        <path d="M 2150 4122 
C 2150 4256 2144 4256 2029 4256 
L 128 1254 
L 128 1088 
L 1779 1088 
L 1779 457 
C 1779 224 1766 160 1318 160 
L 1197 160 
L 1197 0 
C 1402 0 1747 0 1965 0 
C 2182 0 2528 0 2733 0 
L 2733 160 
L 2611 160 
C 2163 160 2150 224 2150 457 
L 2150 1088 
L 2803 1088 
L 2803 1254 
L 2150 1254 
L 2150 4122 
z
M 1798 3703 
L 1798 1254 
L 256 1254 
L 1798 3703 
z
" id="CMR17-34" transform="scale(0.015625)"/>
       </defs>
       <use transform="scale(0.996264)" xlink:href="#CMR17-34"/>
       <use transform="translate(45.690477 0)scale(0.996264)" xlink:href="#CMR17-30"/>
       <use transform="translate(91.380954 0)scale(0.996264)" xlink:href="#CMR17-30"/>
       <use transform="translate(137.071431 0)scale(0.996264)" xlink:href="#CMR17-30"/>
       <use transform="translate(182.761908 0)scale(0.996264)" xlink:href="#CMR17-30"/>
      </g>
     </g>
    </g>
    <g id="ytick_6">
     <g id="line2d_23">
      <path clip-path="url(#p9a65e4df11)" d="M 53.069316 48.003895 
L 611.069316 48.003895 
" style="fill:none;stroke:#b0b0b0;stroke-linecap:square;stroke-width:0.8;"/>
     </g>
     <g id="line2d_24">
      <g>
       <use style="stroke:#000000;stroke-width:0.8;" x="53.069316" xlink:href="#m5621c3f5e8" y="48.003895"/>
      </g>
     </g>
     <g id="text_13">
      <!-- $\mathdefault{50000}$ -->
      <g transform="translate(21.16264 51.463144)scale(0.1 -0.1)">
       <use transform="scale(0.996264)" xlink:href="#CMR17-35"/>
       <use transform="translate(45.690477 0)scale(0.996264)" xlink:href="#CMR17-30"/>
       <use transform="translate(91.380954 0)scale(0.996264)" xlink:href="#CMR17-30"/>
       <use transform="translate(137.071431 0)scale(0.996264)" xlink:href="#CMR17-30"/>
       <use transform="translate(182.761908 0)scale(0.996264)" xlink:href="#CMR17-30"/>
      </g>
     </g>
    </g>
    <g id="text_14">
     <!-- Error [degrees] -->
     <g transform="translate(14.67198 136.639532)rotate(-90)scale(0.1 -0.1)">
      <defs>
       <path d="M 3885 1615 
L 3770 1615 
C 3629 676 3546 166 2419 166 
L 1530 166 
C 1274 166 1261 197 1261 414 
L 1261 2176 
L 1862 2176 
C 2464 2176 2522 1960 2522 1430 
L 2637 1430 
L 2637 3081 
L 2522 3081 
C 2522 2557 2464 2342 1862 2342 
L 1261 2342 
L 1261 3913 
C 1261 4128 1274 4160 1530 4160 
L 2406 4160 
C 3398 4160 3514 3769 3603 2929 
L 3718 2929 
L 3565 4325 
L 326 4325 
L 326 4160 
C 768 4160 838 4160 838 3874 
L 838 451 
C 838 166 768 166 326 166 
L 326 0 
L 3654 0 
L 3885 1615 
z
" id="CMR17-45" transform="scale(0.015625)"/>
       <path d="M 960 1497 
C 960 2112 1222 2688 1702 2688 
C 1747 2688 1792 2682 1837 2662 
C 1837 2662 1696 2617 1696 2452 
C 1696 2298 1818 2234 1914 2234 
C 1990 2234 2131 2279 2131 2458 
C 2131 2663 1926 2790 1709 2790 
C 1222 2790 1011 2317 947 2093 
L 941 2093 
L 941 2790 
L 198 2720 
L 198 2554 
C 576 2554 634 2515 634 2208 
L 634 428 
C 634 184 608 153 198 153 
L 198 -13 
C 352 0 646 0 813 0 
C 998 0 1325 0 1498 -13 
L 1498 153 
C 1037 153 960 153 960 440 
L 960 1497 
z
" id="CMR17-72" transform="scale(0.015625)"/>
       <path d="M 1869 4326 
L 1869 4160 
C 2246 4160 2304 4122 2304 3820 
L 2304 2345 
C 2278 2377 2016 2790 1498 2790 
C 845 2790 211 2208 211 1364 
C 211 525 806 -64 1434 -64 
C 1978 -64 2259 337 2291 380 
L 2291 -63 
L 3066 -63 
L 3066 128 
C 2688 128 2630 166 2630 473 
L 2630 4396 
L 1869 4326 
z
M 2291 755 
C 2291 563 2176 390 2029 262 
C 1811 70 1594 38 1472 38 
C 1286 38 621 134 621 1356 
C 621 2612 1363 2688 1530 2688 
C 1824 2688 2061 2522 2208 2291 
C 2291 2157 2291 2138 2291 2023 
L 2291 755 
z
" id="CMR17-64" transform="scale(0.015625)"/>
      </defs>
      <use transform="scale(0.996264)" xlink:href="#CMR17-45"/>
      <use transform="translate(62.586301 0)scale(0.996264)" xlink:href="#CMR17-72"/>
      <use transform="translate(97.867068 0)scale(0.996264)" xlink:href="#CMR17-72"/>
      <use transform="translate(133.147836 0)scale(0.996264)" xlink:href="#CMR17-6f"/>
      <use transform="translate(178.838313 0)scale(0.996264)" xlink:href="#CMR17-72"/>
      <use transform="translate(244.195047 0)scale(0.996264)" xlink:href="#CMR17-5b"/>
      <use transform="translate(269.066106 0)scale(0.996264)" xlink:href="#CMR17-64"/>
      <use transform="translate(319.961476 0)scale(0.996264)" xlink:href="#CMR17-65"/>
      <use transform="translate(360.447136 0)scale(0.996264)" xlink:href="#CMR17-67"/>
      <use transform="translate(406.137613 0)scale(0.996264)" xlink:href="#CMR17-72"/>
      <use transform="translate(441.418381 0)scale(0.996264)" xlink:href="#CMR17-65"/>
      <use transform="translate(481.904041 0)scale(0.996264)" xlink:href="#CMR17-65"/>
      <use transform="translate(522.389702 0)scale(0.996264)" xlink:href="#CMR17-73"/>
      <use transform="translate(558.19104 0)scale(0.996264)" xlink:href="#CMR17-5d"/>
     </g>
    </g>
   </g>
   <g id="line2d_25">
    <path clip-path="url(#p9a65e4df11)" d="M 78.432953 154.952109 
L 113.239725 154.95219 
L 113.667779 155.466278 
L 114.447375 156.980175 
L 115.154594 163.554813 
L 115.624006 163.554231 
L 116.757211 168.407119 
L 117.404461 170.441674 
L 123.68672 170.451858 
L 124.07962 170.886678 
L 124.507673 170.887596 
L 124.88403 170.452191 
L 125.322423 170.483909 
L 126.11029 169.66717 
L 126.54248 169.695508 
L 127.737722 168.439411 
L 128.196794 167.111858 
L 128.59383 167.282427 
L 128.980526 166.663081 
L 129.414783 166.622122 
L 129.83043 166.317274 
L 130.599686 164.956764 
L 130.942956 164.271568 
L 131.288294 164.234265 
L 131.697737 162.951151 
L 132.076161 162.735795 
L 132.388413 162.735795 
L 133.246589 161.919069 
L 133.656031 162.160516 
L 134.042727 160.760227 
L 134.634145 160.856331 
L 135.07047 161.205378 
L 135.494388 161.205443 
L 135.932781 161.748137 
L 136.323613 160.105783 
L 136.706173 159.845876 
L 137.125955 159.066634 
L 137.872465 160.599241 
L 138.199192 160.599241 
L 138.559005 160.778406 
L 138.922954 159.486951 
L 139.266225 161.163673 
L 139.626038 161.03954 
L 140.043752 161.627636 
L 140.418041 161.682404 
L 141.311371 162.81115 
L 141.671184 163.748929 
L 142.055812 163.993276 
L 142.415625 164.670426 
L 142.758896 164.670426 
L 143.178678 165.537656 
L 143.856947 166.316854 
L 144.233303 167.650664 
L 144.549691 167.943584 
L 145.304472 167.348299 
L 145.647742 167.348299 
L 146.063388 166.697606 
L 146.441813 163.452867 
L 148.114738 161.467021 
L 149.225197 160.901884 
L 149.605689 160.737295 
L 149.979977 160.212974 
L 150.370809 160.102633 
L 150.714079 159.713945 
L 151.382009 159.809301 
L 151.727347 158.885361 
L 152.074753 158.637336 
L 152.455245 158.169289 
L 152.827466 158.274081 
L 153.179008 157.331873 
L 153.642216 156.983885 
L 153.99169 157.094571 
L 154.752674 156.980557 
L 155.131099 155.856808 
L 155.869336 156.544842 
L 156.299458 156.258333 
L 156.752327 156.24276 
L 157.14109 157.119616 
L 157.598095 156.263317 
L 158.00547 156.240133 
L 158.435591 155.630843 
L 159.283427 155.222411 
L 159.773518 154.551261 
L 160.685459 154.5979 
L 161.800053 154.682213 
L 162.143323 153.43116 
L 162.542427 152.614648 
L 163.065603 152.637236 
L 165.813833 152.091026 
L 166.361825 152.340771 
L 167.075248 153.645533 
L 167.586017 153.645533 
L 168.119534 155.893697 
L 168.576538 155.893588 
L 169.505022 158.365039 
L 170.797455 161.639594 
L 171.227576 163.187265 
L 171.66597 164.118392 
L 172.114703 164.329127 
L 172.536553 166.778355 
L 172.98115 167.848133 
L 173.489851 169.606403 
L 174.141238 172.366142 
L 174.548612 172.366142 
L 175.406788 176.973421 
L 175.828638 176.880189 
L 176.281507 177.430657 
L 176.657863 179.244312 
L 177.069374 179.177216 
L 177.470545 178.82019 
L 177.815883 179.706558 
L 178.657516 180.26218 
L 179.046279 180.101973 
L 179.437111 179.459622 
L 179.815536 179.523478 
L 180.229114 179.229575 
L 180.783309 179.314596 
L 181.198956 178.323029 
L 181.629078 178.435974 
L 182.433488 177.860615 
L 182.844999 177.987703 
L 183.239966 177.256212 
L 183.637001 176.282112 
L 184.02163 176.41398 
L 184.431072 175.982659 
L 184.840515 176.161522 
L 185.229279 175.22658 
L 185.622179 175.113341 
L 186.006807 174.669929 
L 186.447268 174.941829 
L 186.854643 174.128797 
L 187.849299 174.277989 
L 188.273217 173.189913 
L 188.719882 172.878475 
L 189.098307 172.419658 
L 189.532564 172.260521 
L 190.022655 170.4615 
L 190.870491 170.453188 
L 191.257187 169.577729 
L 191.69558 169.588005 
L 192.090547 169.421777 
L 226.423772 169.421777 
L 227.184757 171.031793 
L 227.587996 172.18729 
L 228.113241 171.770476 
L 228.462715 169.989441 
L 228.901108 166.276211 
L 229.306415 164.544643 
L 229.732401 163.771398 
L 230.13564 163.72123 
L 230.493386 162.552285 
L 231.250234 162.576921 
L 231.60798 162.97007 
L 231.967793 163.026519 
L 232.319335 163.241821 
L 232.701895 162.973027 
L 233.11961 163.090695 
L 233.500102 162.493808 
L 233.917816 162.894209 
L 234.273494 162.571881 
L 234.736702 161.477454 
L 235.785123 161.512652 
L 236.165616 161.073084 
L 236.486139 160.179173 
L 236.825274 160.79756 
L 237.203698 160.391913 
L 237.549036 159.714552 
L 237.933664 159.349189 
L 238.345175 158.173173 
L 238.71326 158.173173 
L 239.157857 157.678642 
L 239.579707 156.733052 
L 240.104952 155.834896 
L 240.578499 155.834896 
L 241.052046 155.316827 
L 241.682754 155.320104 
L 242.243153 154.608273 
L 242.631917 154.608273 
L 242.997934 153.988502 
L 243.386698 155.430933 
L 243.740307 154.408472 
L 244.14975 155.075505 
L 244.552989 154.92906 
L 244.912802 154.92906 
L 245.34706 155.143866 
L 245.735824 153.864753 
L 246.087366 154.461909 
L 246.527827 153.869249 
L 246.893844 153.755658 
L 247.261929 154.037633 
L 247.648625 155.100044 
L 248.047728 155.147035 
L 248.599855 155.071849 
L 249.145779 154.432116 
L 249.54695 155.02632 
L 250.303799 155.02632 
L 251.116481 154.266062 
L 251.494905 155.278746 
L 251.90228 155.090483 
L 252.303451 155.307997 
L 252.745981 154.469385 
L 253.136812 154.165904 
L 253.517305 152.401277 
L 253.908136 151.875922 
L 254.288629 150.894412 
L 254.693936 151.157509 
L 255.200569 149.782816 
L 255.603808 149.657659 
L 255.982233 150.111945 
L 257.057537 148.853091 
L 257.433894 149.315394 
L 257.84954 148.948239 
L 258.515402 148.854879 
L 258.941388 146.95938 
L 259.363238 146.956807 
L 259.842989 146.538083 
L 260.237956 146.361655 
L 260.622584 145.612285 
L 261.038231 145.400242 
L 261.460081 145.533497 
L 261.881931 144.800919 
L 262.266559 144.619725 
L 262.62844 144.103958 
L 263.029612 144.144232 
L 265.008585 140.266619 
L 265.399417 138.727496 
L 265.790249 138.211187 
L 266.228642 138.606131 
L 266.960676 137.844086 
L 267.461106 136.493064 
L 267.864345 137.51214 
L 268.302738 135.96955 
L 268.662552 135.338891 
L 269.084402 134.262748 
L 269.442147 133.959377 
L 270.306527 134.036269 
L 270.726309 133.790181 
L 271.09853 133.025481 
L 271.472818 133.213798 
L 271.795409 133.213798 
L 272.169698 131.279786 
L 272.897596 129.312622 
L 273.292564 129.074794 
L 273.712346 129.520115 
L 274.074227 127.269189 
L 274.510553 126.787033 
L 274.893113 124.903587 
L 275.683048 122.670617 
L 276.061472 120.750742 
L 276.859679 120.964005 
L 277.279461 121.222904 
L 277.697176 121.281217 
L 278.131433 121.53608 
L 279.020627 118.75384 
L 279.481767 118.096367 
L 280.015284 117.898353 
L 280.459881 115.910118 
L 280.854848 115.873527 
L 281.725431 112.511302 
L 282.081109 111.64788 
L 282.467804 111.917342 
L 282.871044 111.944941 
L 283.220517 112.105226 
L 283.621689 112.133827 
L 284.388877 112.076761 
L 284.779709 112.48763 
L 285.143658 112.548408 
L 285.571712 113.013663 
L 286.531214 113.082105 
L 303.103307 113.082024 
L 303.535497 115.276073 
L 303.897378 118.822011 
L 304.271667 117.476433 
L 306.782089 117.443228 
L 307.141902 119.461283 
L 307.915294 119.43967 
L 308.355755 120.595062 
L 309.416584 120.735358 
L 309.782601 121.183686 
L 310.127939 121.279267 
L 310.580808 122.423039 
L 311.006794 122.47802 
L 311.420372 122.880412 
L 311.836019 122.423662 
L 312.230986 119.816576 
L 312.694194 120.325464 
L 313.128452 119.645267 
L 313.566845 118.148234 
L 314.011442 117.346618 
L 314.437428 114.79687 
L 314.846871 115.303672 
L 315.25011 115.019286 
L 315.636806 115.464174 
L 315.990415 115.050108 
L 316.364704 113.803768 
L 316.757604 113.895692 
L 317.09467 114.287575 
L 317.857723 113.496089 
L 318.196857 113.5664 
L 318.608368 112.738459 
L 318.953706 112.738459 
L 319.462408 113.145916 
L 319.873918 112.725025 
L 320.514965 112.725052 
L 320.901661 112.28057 
L 321.594405 107.720188 
L 322.00178 107.214496 
L 322.340914 105.948681 
L 322.657302 105.948681 
L 323.742946 104.794319 
L 324.119302 104.790446 
L 324.470844 103.370034 
L 325.291798 101.221378 
L 325.759141 101.289576 
L 326.29059 101.040211 
L 326.685557 98.615971 
L 327.099136 98.168104 
L 327.508579 96.985384 
L 327.90975 98.171408 
L 328.304717 96.316401 
L 328.705889 96.037595 
L 329.102924 95.470286 
L 329.437923 94.370579 
L 330.122395 94.450316 
L 330.469801 94.463398 
L 330.839954 92.661259 
L 331.263872 91.203687 
L 331.704333 90.223179 
L 332.11998 90.278458 
L 332.525287 89.72331 
L 333.054667 89.801367 
L 333.5034 88.708053 
L 333.906639 88.708053 
L 334.729661 88.921153 
L 335.077067 88.921153 
L 335.589904 89.28625 
L 337.525452 89.395265 
L 337.895604 89.62838 
L 338.284368 89.669114 
L 338.702083 86.063157 
L 339.117729 84.23044 
L 341.278677 84.310339 
L 341.679848 82.867583 
L 344.086876 82.895182 
L 344.521133 84.812185 
L 344.92644 84.822125 
L 345.302797 84.672322 
L 345.739122 84.871419 
L 347.060506 84.989886 
L 347.453405 83.649725 
L 347.840101 83.705952 
L 348.183371 81.345306 
L 348.97951 81.376372 
L 349.370342 80.350633 
L 349.790124 78.586277 
L 350.189227 77.525437 
L 350.602806 75.363266 
L 351.808388 75.35189 
L 352.621069 75.333365 
L 353.024309 73.244375 
L 355.503712 73.228558 
L 358.185769 73.259461 
L 360.274341 73.3009 
L 363.070132 73.280046 
L 363.489914 73.491331 
L 364.602441 73.527353 
L 367.143881 73.462134 
L 367.617428 71.347198 
L 373.835582 71.112864 
L 374.72064 70.872219 
L 375.101133 84.374827 
L 376.031684 85.920965 
L 376.420448 86.758657 
L 376.838163 86.714861 
L 377.671523 88.352029 
L 378.099577 88.317713 
L 378.500748 90.780521 
L 379.737348 93.053115 
L 380.117841 95.010881 
L 380.487994 95.821705 
L 380.951202 97.794123 
L 381.360644 97.803007 
L 381.805241 98.641241 
L 382.152647 99.651514 
L 382.5228 101.873813 
L 383.300328 103.384632 
L 383.627055 105.718708 
L 384.022022 105.718166 
L 384.927759 107.136818 
L 385.372356 107.799382 
L 385.779731 107.030945 
L 386.251211 107.855718 
L 386.687536 107.885998 
L 387.190034 108.72518 
L 387.769044 108.015164 
L 388.625152 107.991708 
L 389.063545 108.821031 
L 389.489531 108.436813 
L 389.874159 109.055609 
L 390.28567 107.676203 
L 390.662026 109.095315 
L 391.493319 110.365138 
L 391.838657 110.397206 
L 392.241896 111.787039 
L 392.899486 111.708955 
L 393.339948 111.333864 
L 393.881735 111.255725 
L 394.508307 110.696515 
L 394.944632 110.696488 
L 395.422316 111.312115 
L 395.825555 112.099105 
L 396.632033 112.200861 
L 397.072494 113.131886 
L 397.624622 112.811126 
L 398.063015 112.811099 
L 398.53863 114.041297 
L 398.958412 111.603705 
L 399.42162 111.546449 
L 400.263253 113.688442 
L 400.833991 114.361055 
L 401.206212 113.654858 
L 401.634266 115.84972 
L 402.041641 115.673374 
L 402.459355 118.083665 
L 402.889477 118.254919 
L 403.28858 119.541318 
L 403.702159 122.090362 
L 404.084719 121.122556 
L 404.94703 124.497132 
L 405.366812 125.091633 
L 405.796934 125.244118 
L 406.18363 126.593109 
L 406.57653 127.090973 
L 407.469859 129.747055 
L 407.935135 129.3968 
L 408.42109 130.857839 
L 409.27513 130.789478 
L 410.584106 134.430319 
L 411.04111 134.048484 
L 411.415399 134.912719 
L 411.886879 136.54382 
L 413.152429 138.305955 
L 413.673538 138.151954 
L 414.097456 138.540479 
L 414.482084 139.866096 
L 414.90807 139.278311 
L 416.163281 143.000649 
L 416.535502 142.699092 
L 417.282011 143.330699 
L 417.672843 142.991251 
L 418.074014 143.458808 
L 418.41108 142.520633 
L 418.772962 143.646205 
L 419.169997 144.316218 
L 419.5691 143.799042 
L 420.154314 144.007564 
L 420.567893 145.374566 
L 421.432272 144.977591 
L 421.835511 147.29138 
L 422.284244 147.268981 
L 422.666804 148.03406 
L 423.08245 149.584856 
L 423.473282 148.595952 
L 423.917879 149.221276 
L 424.327322 149.301148 
L 424.691271 150.07335 
L 425.075899 151.696759 
L 425.47707 150.681529 
L 425.867902 151.840848 
L 426.378672 152.522426 
L 426.726078 153.24528 
L 427.102434 153.026249 
L 427.505673 153.689734 
L 427.884098 152.699557 
L 428.314219 153.427991 
L 428.719526 153.42967 
L 429.906497 155.62009 
L 430.297329 155.401763 
L 430.721247 156.488602 
L 431.087264 156.481963 
L 431.535996 157.316679 
L 432.315592 157.832609 
L 432.871855 157.622697 
L 433.225465 158.576351 
L 433.636976 158.291399 
L 433.980246 159.125399 
L 434.311109 159.125399 
L 434.708144 158.825467 
L 435.061754 160.551957 
L 435.475332 160.351857 
L 435.868232 161.22081 
L 436.236317 161.089394 
L 436.670574 163.08949 
L 437.06761 162.90003 
L 437.466713 163.235616 
L 437.867884 162.903464 
L 438.213222 162.949461 
L 438.583375 161.497805 
L 439.054855 161.435302 
L 439.513927 160.430036 
L 439.92337 159.965274 
L 440.279047 158.414156 
L 440.682286 158.19516 
L 441.052439 158.165979 
L 441.408117 159.920052 
L 441.763794 159.920052 
L 442.127744 162.601934 
L 442.524779 173.505611 
L 442.928018 173.434338 
L 443.302307 175.227455 
L 443.680731 174.912594 
L 444.106717 174.912594 
L 444.487209 173.396602 
L 445.641094 173.29968 
L 446.230443 172.230579 
L 446.983156 171.995138 
L 448.548551 171.760742 
L 448.941451 171.784784 
L 449.342622 171.674353 
L 450.525456 174.133589 
L 450.928696 174.346856 
L 451.606964 174.303142 
L 452.028815 175.242533 
L 452.520973 173.930239 
L 453.015199 174.775041 
L 453.488747 176.030076 
L 454.291089 176.039596 
L 454.704668 176.963194 
L 455.101703 175.428375 
L 455.420159 175.428375 
L 455.850281 174.53548 
L 456.272131 175.949936 
L 456.644351 174.431728 
L 457.041387 174.916646 
L 457.45083 173.378428 
L 458.160117 174.118606 
L 458.581967 172.975483 
L 458.976935 172.974522 
L 459.549741 172.636772 
L 459.938505 171.779974 
L 460.343812 172.267728 
L 460.749119 171.085588 
L 461.129611 171.491285 
L 461.617634 171.522264 
L 462.025009 170.545014 
L 462.46547 168.988558 
L 463.205775 167.379722 
L 463.646237 165.855881 
L 464.07429 163.570029 
L 464.469258 160.25901 
L 464.858022 159.475698 
L 465.213699 156.951392 
L 466.129776 155.254831 
L 466.501997 155.118597 
L 466.888693 154.38629 
L 467.289864 157.943779 
L 467.734461 160.268402 
L 468.135632 159.973874 
L 468.540939 158.803678 
L 468.925567 158.911279 
L 470.180778 152.964632 
L 470.567474 153.049568 
L 470.981053 151.195536 
L 471.363613 150.416021 
L 471.752377 151.284345 
L 472.139073 153.855707 
L 472.50509 155.464166 
L 472.970365 156.27518 
L 473.332247 156.628471 
L 473.725146 156.616039 
L 474.138725 157.000363 
L 474.570915 156.239266 
L 475.023783 153.775375 
L 475.373257 154.144508 
L 475.749613 152.811253 
L 476.099087 152.811253 
L 476.537481 151.87817 
L 476.967602 152.640378 
L 477.335687 152.665621 
L 477.693433 153.591201 
L 478.125622 152.964415 
L 478.855589 153.923906 
L 479.788208 155.649531 
L 480.185244 156.109721 
L 480.563668 156.21833 
L 480.956568 155.554844 
L 481.355671 155.743216 
L 481.709281 155.348055 
L 482.106316 155.466631 
L 482.478537 155.188095 
L 482.832146 155.324058 
L 483.268472 154.740228 
L 483.61381 154.944959 
L 483.919858 154.944959 
L 484.318961 155.455634 
L 484.641553 154.800518 
L 485.427352 155.515653 
L 485.898832 155.201068 
L 486.291731 155.810493 
L 487.054784 156.24926 
L 487.474566 154.871912 
L 488.272773 155.747793 
L 488.661536 156.644681 
L 489.023418 156.184041 
L 489.745112 156.22288 
L 490.131808 156.41939 
L 490.535047 156.056799 
L 490.898996 156.475539 
L 491.316711 156.489834 
L 492.114917 157.233348 
L 492.710471 157.576968 
L 493.612072 157.759638 
L 494.470247 157.726457 
L 494.914844 157.389027 
L 495.334627 157.660615 
L 495.826785 157.318114 
L 496.279654 157.432711 
L 496.858664 157.382215 
L 497.375637 157.562131 
L 497.915357 157.562131 
L 498.388904 157.236103 
L 498.899674 157.210728 
L 499.36495 157.754584 
L 499.931552 157.754584 
L 500.32652 157.249266 
L 500.779389 157.561966 
L 501.67065 157.813856 
L 502.13179 156.914533 
L 502.555708 157.146383 
L 502.954812 156.980175 
L 585.70568 156.980175 
L 585.70568 156.980175 
" style="fill:none;stroke:#1f77b4;stroke-linecap:square;stroke-width:1.5;"/>
   </g>
   <g id="line2d_26">
    <path clip-path="url(#p9a65e4df11)" d="M 78.432953 154.952109 
L 94.748627 154.95219 
L 95.213903 155.514624 
L 95.660568 156.301127 
L 96.373991 156.301127 
L 96.795841 158.791566 
L 97.261117 159.224111 
L 97.637474 159.798261 
L 97.995219 160.094664 
L 98.388119 160.232716 
L 98.762407 160.491009 
L 100.187186 163.693639 
L 100.518048 163.693639 
L 100.853047 164.007203 
L 101.231471 165.579685 
L 102.006931 165.63725 
L 102.776187 165.621891 
L 103.148408 165.321341 
L 103.669517 165.311412 
L 104.149268 164.98163 
L 104.546304 164.942745 
L 104.951611 164.283593 
L 105.319696 164.29021 
L 105.731206 164.935275 
L 107.664686 165.025366 
L 108.059654 165.697353 
L 108.762737 165.736428 
L 109.157705 165.811644 
L 109.527858 166.514453 
L 112.255408 166.837637 
L 113.06809 166.948978 
L 113.520959 166.810523 
L 114.453578 167.035172 
L 114.958144 166.003783 
L 115.470982 165.920347 
L 115.961072 166.445792 
L 116.438755 166.445705 
L 116.926778 165.843276 
L 117.447887 166.106877 
L 117.865601 165.64995 
L 118.330877 165.767109 
L 118.734116 165.301247 
L 119.135288 165.116527 
L 119.534391 166.029562 
L 119.968649 164.837644 
L 120.373956 165.074771 
L 120.773059 164.429686 
L 121.230063 164.406294 
L 121.618827 164.737673 
L 122.01793 164.31798 
L 122.454256 164.611368 
L 122.87197 164.743756 
L 123.331042 165.074299 
L 123.719806 163.878308 
L 124.137521 165.088966 
L 124.691716 164.105947 
L 125.076344 164.105947 
L 125.525077 163.944828 
L 125.891094 165.196536 
L 126.209549 165.196536 
L 126.592109 163.620254 
L 126.922972 164.109747 
L 127.367569 164.357859 
L 127.743926 163.826027 
L 128.844045 164.652022 
L 129.189383 164.497072 
L 129.913145 164.573396 
L 130.262619 164.185066 
L 131.015332 164.514642 
L 131.433046 164.990839 
L 131.850761 164.926562 
L 132.200235 164.524533 
L 132.593134 164.890743 
L 132.928133 166.350428 
L 133.234181 166.350428 
L 133.596062 166.218272 
L 133.972419 166.524661 
L 134.37359 165.849903 
L 135.331025 167.29214 
L 135.827319 169.328176 
L 136.234694 169.328176 
L 136.693766 169.985698 
L 137.099073 170.346613 
L 137.467158 171.800347 
L 138.050304 171.22906 
L 138.414253 171.687443 
L 139.224867 172.052467 
L 140.052024 171.90213 
L 140.436652 171.468312 
L 141.191433 169.066829 
L 141.501617 169.066829 
L 141.913127 167.504319 
L 142.275009 167.687802 
L 142.624483 166.317106 
L 143.375128 164.811887 
L 143.68738 164.451061 
L 144.063736 163.729046 
L 144.371852 163.729046 
L 144.903301 162.755984 
L 145.401663 162.112563 
L 145.813173 162.112563 
L 146.241227 161.369514 
L 146.665145 161.107457 
L 147.409587 161.201811 
L 147.744585 160.423081 
L 148.207793 159.857489 
L 148.881926 159.875411 
L 149.247943 160.525455 
L 149.622232 160.429785 
L 150.354266 159.417401 
L 150.699604 159.759685 
L 151.073893 159.308045 
L 151.504014 159.308045 
L 151.874167 160.252358 
L 152.680646 160.039337 
L 153.085953 160.543707 
L 153.536753 159.976639 
L 154.053726 160.860225 
L 154.529342 160.860353 
L 154.909834 160.408995 
L 155.329616 160.39354 
L 155.712176 160.819407 
L 156.107144 160.580566 
L 156.578624 161.124886 
L 157.893803 161.365598 
L 158.907071 161.298193 
L 160.300831 161.370757 
L 160.730952 160.949512 
L 161.12592 160.980293 
L 161.628418 160.518789 
L 162.0482 161.465647 
L 162.494865 160.947973 
L 163.394398 161.202461 
L 163.919643 161.365205 
L 164.761276 161.459285 
L 165.166583 160.977341 
L 165.646334 161.550343 
L 166.953242 161.306007 
L 167.360617 161.316101 
L 167.796942 161.593767 
L 168.15262 161.572078 
L 168.508297 160.936056 
L 168.872247 161.401598 
L 169.201042 161.401598 
L 169.554651 160.817557 
L 169.99718 160.656548 
L 170.363197 160.91314 
L 170.751961 160.552081 
L 171.163472 160.565626 
L 171.543964 160.717935 
L 171.963746 160.207571 
L 172.476584 159.324838 
L 172.890162 160.399485 
L 173.266519 160.30059 
L 173.649079 160.898813 
L 174.083337 161.129151 
L 175.259968 162.661132 
L 175.623917 162.679652 
L 176.045767 163.134913 
L 176.422123 163.02172 
L 176.777801 164.547235 
L 177.160361 164.426883 
L 177.86758 164.511749 
L 178.390757 166.651503 
L 178.88912 166.651503 
L 179.242729 166.957274 
L 179.540506 166.957274 
L 179.881708 167.27557 
L 180.282879 166.062832 
L 180.681983 166.125906 
L 181.132783 165.783817 
L 181.908243 163.890458 
L 182.359044 163.681392 
L 182.739536 162.516929 
L 183.190337 162.959098 
L 183.583236 162.202808 
L 183.953389 162.371115 
L 184.352492 162.025522 
L 184.801225 162.164714 
L 185.628382 161.224635 
L 185.971653 161.570496 
L 186.75952 161.352088 
L 187.549455 160.543393 
L 187.892725 160.685101 
L 188.202909 160.685101 
L 188.608216 160.976184 
L 188.999048 160.517278 
L 189.410558 160.295917 
L 189.793119 159.721358 
L 190.475523 159.085279 
L 190.818793 158.181794 
L 191.141385 158.181794 
L 191.608728 157.964439 
L 191.937523 157.439146 
L 192.251843 156.40161 
L 192.638539 156.426015 
L 193.004556 156.151648 
L 193.385048 154.889219 
L 194.425198 154.916385 
L 194.81603 153.543804 
L 195.184115 153.744905 
L 195.636984 152.891965 
L 196.488956 153.273421 
L 196.902534 153.137647 
L 197.764845 153.471597 
L 198.257004 153.632045 
L 198.695397 153.419649 
L 199.096568 153.419649 
L 199.479129 152.822249 
L 199.915454 152.977524 
L 200.322829 152.992475 
L 200.703321 153.768279 
L 201.451898 153.774806 
L 201.822051 154.044268 
L 202.233562 153.739651 
L 202.628529 153.228433 
L 203.062787 153.96353 
L 203.470162 153.992483 
L 203.892012 153.671046 
L 204.34488 153.812562 
L 204.909415 153.846201 
L 205.318858 154.270017 
L 205.715893 154.270017 
L 206.179101 153.813347 
L 206.540983 153.825237 
L 206.927679 153.472057 
L 207.301967 152.970699 
L 208.011255 153.05894 
L 208.708134 152.199743 
L 209.146528 152.209601 
L 210.240443 150.862236 
L 210.997292 150.913669 
L 211.565962 149.996159 
L 212.918364 150.081719 
L 213.327807 148.622549 
L 214.440333 148.72788 
L 214.793943 148.258833 
L 215.269558 148.067726 
L 215.714155 148.306908 
L 216.152549 147.114601 
L 216.590942 146.697122 
L 217.376741 146.768842 
L 217.85856 147.456107 
L 218.3197 147.480727 
L 218.741551 146.968155 
L 219.918182 146.995348 
L 220.269723 146.681061 
L 220.660555 146.033962 
L 221.309873 146.027868 
L 221.71518 145.68804 
L 222.095673 146.339771 
L 222.476165 145.849409 
L 222.91249 145.87587 
L 223.793413 144.787486 
L 224.707421 144.707614 
L 225.27816 144.015717 
L 226.55405 144.046078 
L 226.957289 143.066383 
L 227.825804 143.069362 
L 229.362248 142.697738 
L 229.740673 143.054141 
L 230.414806 142.974973 
L 230.830452 142.976003 
L 231.202673 142.382557 
L 231.618319 142.311948 
L 231.996744 141.77018 
L 232.761864 141.689306 
L 233.140288 140.81979 
L 233.893001 139.900141 
L 234.560931 139.903147 
L 234.955898 139.264769 
L 235.330187 137.812424 
L 235.708611 137.691303 
L 236.136665 136.327362 
L 236.558515 135.539153 
L 237.371197 135.152063 
L 237.764097 134.337772 
L 238.289342 132.984096 
L 238.655359 131.34449 
L 239.13511 131.182336 
L 239.652083 130.402794 
L 240.138038 130.402794 
L 241.035503 128.180794 
L 241.461489 128.170068 
L 241.893679 126.252848 
L 242.787009 126.246727 
L 243.264692 124.792216 
L 243.667931 124.472756 
L 244.751507 119.572492 
L 245.196104 118.134692 
L 245.562121 116.122053 
L 245.913663 116.067207 
L 246.310698 114.247274 
L 246.682919 113.145943 
L 247.009646 110.955766 
L 247.35912 110.955766 
L 248.484053 103.056262 
L 248.839731 103.057508 
L 249.234698 102.459133 
L 250.063924 99.990123 
L 250.500249 99.710937 
L 251.83404 96.4041 
L 252.640518 96.370136 
L 253.035486 95.265528 
L 253.405638 95.298977 
L 253.825421 94.914 
L 254.207981 94.772213 
L 255.430105 94.778416 
L 255.87677 93.304025 
L 258.126638 93.327994 
L 258.74287 92.138883 
L 261.662735 92.152777 
L 262.119739 91.3757 
L 262.518842 89.785117 
L 284.419895 89.68439 
L 285.106436 92.647527 
L 285.414552 92.647527 
L 286.276863 89.377362 
L 287.279791 88.986209 
L 287.639605 88.077909 
L 287.980807 89.919455 
L 288.274448 89.919455 
L 288.675619 88.66851 
L 289.07679 90.000356 
L 290.238946 89.986597 
L 290.600827 91.356714 
L 291.405237 91.595814 
L 291.794001 92.421129 
L 292.15795 92.404959 
L 293.10091 93.87954 
L 293.493809 95.075206 
L 293.917727 95.135821 
L 294.289948 94.560007 
L 294.699391 94.567781 
L 295.148123 94.18971 
L 295.545159 94.802196 
L 295.909108 95.895104 
L 296.734197 96.037215 
L 297.18293 95.375734 
L 297.517929 95.452518 
L 297.888081 96.583371 
L 298.646998 96.63039 
L 299.587889 95.522775 
L 301.134673 95.571202 
L 301.533777 94.734837 
L 301.901862 93.141979 
L 302.311304 93.146258 
L 302.677321 91.671732 
L 303.076425 91.652041 
L 303.492071 91.056917 
L 304.23858 90.959169 
L 304.600462 89.265016 
L 304.97475 89.470803 
L 305.456569 87.531942 
L 305.82879 88.006108 
L 306.219622 87.101978 
L 306.59391 86.783276 
L 306.906162 86.783276 
L 307.766406 84.547761 
L 308.120015 82.827416 
L 308.529458 81.839081 
L 308.912018 81.836264 
L 309.294578 81.150407 
L 310.047291 81.091553 
L 310.498092 80.094686 
L 311.192904 80.125075 
L 311.676791 79.930745 
L 312.017993 79.927522 
L 312.439843 79.487103 
L 312.807928 79.751744 
L 313.192556 77.476658 
L 313.55237 77.476658 
L 313.920455 77.987063 
L 314.313354 76.901522 
L 315.775355 76.815746 
L 316.157915 75.984391 
L 317.239423 75.996796 
L 317.64473 75.271992 
L 318.176178 75.298209 
L 318.600096 74.999171 
L 319.694012 74.982893 
L 320.057961 74.115083 
L 321.511689 74.01395 
L 321.910793 72.95051 
L 322.603537 72.97039 
L 322.988165 72.092342 
L 323.372793 70.614864 
L 323.718131 70.447753 
L 324.086216 70.436567 
L 324.495659 68.988638 
L 324.863744 68.960497 
L 325.217353 68.348174 
L 325.606117 66.778988 
L 325.967999 66.778988 
L 326.323676 65.693013 
L 326.654539 65.374203 
L 327.035031 63.597253 
L 327.411388 62.921634 
L 327.847713 62.44893 
L 328.250952 60.787359 
L 328.621105 61.222253 
L 329.406904 57.635255 
L 329.799804 57.096791 
L 330.163753 55.318161 
L 330.5794 54.251904 
L 330.899923 54.251904 
L 331.278347 53.686979 
L 331.615414 51.106056 
L 331.99177 51.06738 
L 332.386738 50.081428 
L 332.765162 50.054858 
L 333.139451 47.72582 
L 334.361576 47.662172 
L 334.721389 47.685546 
L 335.108085 44.846184 
L 341.514417 44.736384 
L 341.91352 44.723844 
L 342.316759 41.501347 
L 343.143917 41.448641 
L 343.553359 41.620302 
L 345.350358 41.552131 
L 345.74119 39.186827 
L 346.495971 32.623827 
L 346.893006 31.31354 
L 347.290042 29.192239 
L 375.756655 29.16743 
L 376.267424 29.06218 
L 377.5764 31.149382 
L 377.948621 31.081942 
L 378.320842 34.974234 
L 379.993767 42.15836 
L 380.380463 44.345963 
L 380.82506 46.043042 
L 382.144376 53.498038 
L 382.553818 57.711145 
L 383.122489 58.63678 
L 383.538135 65.792169 
L 383.933103 65.792061 
L 384.317731 68.548571 
L 384.629983 68.548571 
L 385.049765 69.558872 
L 385.390967 68.571918 
L 385.730102 68.551902 
L 386.094051 69.689608 
L 386.437321 73.257972 
L 386.836425 74.902019 
L 387.254139 77.985952 
L 387.628428 76.84933 
L 387.994445 76.84933 
L 388.368733 80.750019 
L 388.765769 82.526591 
L 389.210366 86.025781 
L 389.704592 88.850002 
L 390.070609 87.070154 
L 390.413879 87.363152 
L 390.753014 85.526075 
L 391.150049 86.562701 
L 391.499523 86.288851 
L 391.880015 87.836235 
L 392.268779 87.890566 
L 392.622389 87.169391 
L 393.393713 87.16847 
L 393.807291 88.69118 
L 394.293246 91.136084 
L 395.012873 91.136084 
L 395.395433 90.196961 
L 395.76145 90.28615 
L 396.210183 91.052394 
L 396.594811 92.576376 
L 396.942217 92.576268 
L 397.357863 92.987842 
L 398.073354 94.450478 
L 398.482797 93.038625 
L 398.865357 93.739649 
L 399.254121 95.693 
L 399.62841 96.379291 
L 399.963408 96.379291 
L 400.416277 95.697632 
L 400.819516 96.32588 
L 401.576365 97.843092 
L 401.925839 100.186322 
L 402.295992 98.85044 
L 402.796422 99.608315 
L 403.520184 102.830676 
L 403.902744 102.761584 
L 404.283237 100.871285 
L 404.727834 102.3619 
L 405.488818 103.981924 
L 405.84036 105.453715 
L 406.173291 105.453715 
L 406.551715 104.71897 
L 406.928071 104.879987 
L 407.668377 106.207716 
L 408.040598 106.567748 
L 408.42109 107.186328 
L 408.809854 107.474099 
L 409.163464 107.070813 
L 410.007164 108.027054 
L 410.321484 108.027054 
L 410.712315 109.402966 
L 411.088672 108.445534 
L 411.810367 109.960904 
L 412.931164 113.113116 
L 413.270299 114.601754 
L 413.619773 114.601754 
L 414.370418 121.720742 
L 414.755046 121.637078 
L 415.174828 120.172139 
L 415.613221 121.5685 
L 416.150874 122.489233 
L 416.53757 125.639956 
L 416.932537 127.38771 
L 417.275807 126.965194 
L 417.666639 128.45524 
L 418.086421 128.987718 
L 418.440031 128.948039 
L 419.14725 130.474162 
L 419.509132 131.258335 
L 419.935118 133.123987 
L 420.338357 132.308423 
L 420.729188 133.114968 
L 421.13036 134.281058 
L 421.465358 134.281058 
L 421.876869 135.318822 
L 422.325602 137.339098 
L 422.78881 136.070223 
L 423.299579 136.297677 
L 423.748312 136.297677 
L 424.112261 136.005166 
L 424.778123 135.984826 
L 425.17309 136.212362 
L 425.570126 135.375076 
L 426.339382 133.193214 
L 426.703331 134.03264 
L 427.102434 133.488163 
L 427.877894 134.321928 
L 428.276997 133.067083 
L 428.682304 133.994261 
L 429.037982 133.391445 
L 429.443289 134.250371 
L 429.95199 132.232397 
L 430.326279 133.080787 
L 430.739858 132.789712 
L 431.128622 134.420082 
L 431.548404 133.635746 
L 431.9351 133.503411 
L 432.751917 132.175574 
L 433.076577 132.175574 
L 433.473612 131.891107 
L 433.835493 133.556118 
L 434.21185 132.242581 
L 434.598546 133.907646 
L 434.962495 134.694148 
L 435.32024 134.905162 
L 435.702801 133.697227 
L 436.219774 133.824144 
L 436.707796 132.995824 
L 437.082085 133.782516 
L 437.474985 134.011162 
L 437.847205 134.965804 
L 438.221494 133.145329 
L 438.626801 133.613861 
L 439.009361 131.184584 
L 439.352631 131.842084 
L 439.772414 131.730172 
L 440.142566 129.511015 
L 440.504448 129.511015 
L 440.91389 130.312522 
L 441.257161 131.544373 
L 441.600431 131.931138 
L 441.989195 132.733593 
L 442.43586 133.389982 
L 442.855642 132.358258 
L 443.182369 133.005195 
L 443.535979 131.731499 
L 443.933014 132.341141 
L 444.315574 133.374084 
L 444.638166 133.374084 
L 445.051744 133.000022 
L 445.812729 134.122858 
L 446.265597 134.159693 
L 446.660565 133.679487 
L 447.065872 134.532102 
L 447.491858 135.102391 
L 447.886825 134.686998 
L 448.261114 135.980574 
L 448.773951 135.743396 
L 449.170987 134.934576 
L 449.547343 136.7388 
L 449.925768 135.318686 
L 450.300056 136.104783 
L 450.676413 136.591543 
L 451.065176 137.454261 
L 451.420854 136.522423 
L 451.76826 137.023565 
L 452.144617 136.249684 
L 452.423782 136.249684 
L 452.793935 137.425903 
L 453.211649 137.670394 
L 453.571463 136.574155 
L 453.945751 134.87583 
L 454.328311 135.36278 
L 455.165808 131.383329 
L 455.817194 131.4882 
L 456.187347 132.632812 
L 456.54716 129.71385 
L 456.894566 130.507746 
L 457.304009 129.041128 
L 457.626601 129.495143 
L 458.033975 127.390012 
L 458.439282 127.124531 
L 458.766009 127.866263 
L 459.088601 127.866263 
L 459.475297 126.987186 
L 459.804092 125.592423 
L 460.219738 126.047467 
L 460.643656 126.877224 
L 461.088253 124.590627 
L 461.96504 125.82692 
L 462.357939 124.883057 
L 462.728092 125.65404 
L 463.08377 126.76309 
L 463.468398 125.328432 
L 464.334845 126.541378 
L 464.804257 127.872411 
L 465.224039 128.023515 
L 465.697586 129.15491 
L 466.094622 128.075138 
L 466.539219 128.413909 
L 466.948661 128.146722 
L 467.380851 128.417701 
L 467.916435 127.66852 
L 468.540939 126.30141 
L 469.450812 126.390328 
L 469.916088 124.48145 
L 470.331734 124.810362 
L 470.819757 124.425792 
L 471.243675 124.425846 
L 472.108054 121.333598 
L 472.517497 121.071665 
L 472.957958 119.125735 
L 473.344654 118.569043 
L 474.175947 118.939503 
L 474.570915 116.993763 
L 475.931588 111.611749 
L 476.789764 110.049172 
L 497.406655 110.049145 
L 498.11801 116.554942 
L 498.901742 124.978069 
L 499.240876 124.978069 
L 499.637912 127.125696 
L 500.52297 132.888895 
L 500.990314 132.477239 
L 501.486608 132.477294 
L 502.255864 130.342369 
L 502.617745 129.870776 
L 503.010645 128.467021 
L 503.335304 128.467021 
L 503.750951 126.596467 
L 504.1149 123.934617 
L 504.48712 122.813731 
L 505.219154 121.281325 
L 505.61619 119.602745 
L 506.03804 119.246613 
L 506.887944 118.072858 
L 507.6572 115.080714 
L 508.250685 113.986858 
L 509.034417 112.116575 
L 509.379755 111.562618 
L 509.751976 111.366284 
L 510.149011 110.740716 
L 510.529503 109.607886 
L 510.959625 109.339968 
L 511.379407 108.046771 
L 511.792986 107.741801 
L 512.572581 106.254518 
L 512.94687 105.29435 
L 513.393535 104.507821 
L 513.718194 104.507821 
L 514.135908 104.088717 
L 514.530876 102.229945 
L 515.039578 101.042729 
L 515.438681 99.28138 
L 516.232752 99.281434 
L 517.692684 94.415404 
L 518.08972 94.100901 
L 518.900334 92.505361 
L 519.349066 92.296812 
L 520.190699 90.782038 
L 520.58153 89.707791 
L 521.359058 88.437643 
L 521.855352 88.176956 
L 523.013372 85.488779 
L 523.43729 84.92751 
L 523.813647 84.93244 
L 524.175528 84.493375 
L 524.568428 83.53746 
L 524.876544 83.53746 
L 525.240493 83.879427 
L 525.687158 81.885395 
L 526.057311 82.186221 
L 526.45021 81.780119 
L 526.855517 80.870707 
L 527.672335 80.956294 
L 528.063167 79.9594 
L 528.582208 79.464 
L 529.353532 79.432988 
L 529.775382 79.401137 
L 530.488805 80.150453 
L 582.533532 80.150453 
L 582.533532 80.150453 
" style="fill:none;stroke:#ff7f0e;stroke-linecap:square;stroke-width:1.5;"/>
   </g>
   <g id="patch_3">
    <path d="M 53.069316 187.82218 
L 53.069316 21.50218 
" style="fill:none;stroke:#000000;stroke-linecap:square;stroke-linejoin:miter;stroke-width:0.8;"/>
   </g>
   <g id="patch_4">
    <path d="M 611.069316 187.82218 
L 611.069316 21.50218 
" style="fill:none;stroke:#000000;stroke-linecap:square;stroke-linejoin:miter;stroke-width:0.8;"/>
   </g>
   <g id="patch_5">
    <path d="M 53.069316 187.82218 
L 611.069316 187.82218 
" style="fill:none;stroke:#000000;stroke-linecap:square;stroke-linejoin:miter;stroke-width:0.8;"/>
   </g>
   <g id="patch_6">
    <path d="M 53.069316 21.50218 
L 611.069316 21.50218 
" style="fill:none;stroke:#000000;stroke-linecap:square;stroke-linejoin:miter;stroke-width:0.8;"/>
   </g>
   <g id="text_15">
    <!-- \bf{Angular error to preop-planned trajectory} -->
    <g transform="translate(207.228418 15.50218)scale(0.12 -0.12)">
     <defs>
      <path d="M 2931 4301 
C 2886 4416 2874 4448 2720 4448 
C 2560 4448 2547 4416 2502 4301 
L 915 413 
C 870 311 870 299 691 279 
C 531 260 506 260 365 260 
L 250 260 
L 250 -13 
C 416 0 800 0 986 0 
C 1158 0 1626 0 1773 -13 
L 1773 260 
C 1632 260 1389 260 1210 331 
C 1229 390 1229 402 1242 428 
L 1581 1262 
L 3296 1262 
L 3699 260 
L 3098 260 
L 3098 0 
C 3302 0 3923 0 4166 0 
C 4371 0 5024 0 5184 -13 
L 5184 260 
L 4576 260 
L 2931 4301 
z
M 2438 3367 
L 3181 1536 
L 1690 1536 
L 2438 3367 
z
" id="CMBX12-41" transform="scale(0.015625)"/>
      <path d="M 3398 1924 
C 3398 2525 3136 2834 2432 2834 
C 1971 2834 1574 2615 1357 2143 
L 1350 2143 
L 1350 2816 
L 269 2816 
L 269 2517 
C 666 2517 710 2517 710 2270 
L 710 260 
L 269 260 
L 269 -13 
C 416 0 877 0 1056 0 
C 1235 0 1702 0 1850 -13 
L 1850 260 
L 1408 260 
L 1408 1607 
C 1408 2289 1920 2624 2330 2624 
C 2566 2624 2701 2473 2701 1993 
L 2701 260 
L 2259 260 
L 2259 -13 
C 2406 0 2867 0 3046 0 
C 3226 0 3693 0 3840 -13 
L 3840 260 
L 3398 260 
L 3398 1924 
z
" id="CMBX12-6e" transform="scale(0.015625)"/>
      <path d="M 832 1189 
C 1139 1024 1498 1024 1594 1024 
C 2477 1024 2829 1514 2829 1960 
C 2829 2285 2643 2515 2566 2578 
C 2752 2676 2906 2700 3014 2713 
C 2995 2682 2976 2658 2976 2578 
C 2976 2450 3066 2334 3232 2334 
C 3398 2334 3488 2455 3488 2588 
C 3488 2741 3373 2944 3104 2944 
C 2829 2944 2566 2803 2432 2682 
C 2170 2834 1920 2891 1594 2891 
C 710 2891 358 2403 358 1957 
C 358 1760 422 1501 691 1285 
C 582 1161 467 933 467 699 
C 467 420 614 180 749 76 
C 595 39 198 -105 198 -461 
C 198 -830 614 -1248 1792 -1248 
C 2854 -1248 3392 -910 3392 -439 
C 3392 114 3021 295 2861 370 
C 2554 521 2144 521 1581 521 
C 1421 521 1139 521 1107 527 
C 832 575 755 829 755 957 
C 755 1010 762 1107 832 1189 
z
M 1594 1227 
C 1037 1227 1037 1665 1037 1957 
C 1037 2250 1037 2688 1594 2688 
C 2150 2688 2150 2250 2150 1957 
C 2150 1665 2150 1227 1594 1227 
z
M 1952 -64 
C 2419 -64 2867 -145 2867 -467 
C 2867 -685 2643 -1045 1798 -1045 
C 954 -1045 723 -697 723 -461 
C 723 -64 1126 -64 1222 -64 
L 1952 -64 
z
" id="CMBX12-67" transform="scale(0.015625)"/>
      <path d="M 2259 2859 
L 2259 2560 
C 2656 2560 2701 2560 2701 2312 
L 2701 1056 
C 2701 569 2413 178 1914 178 
C 1434 178 1408 337 1408 684 
L 1408 2859 
L 269 2859 
L 269 2560 
C 666 2560 710 2560 710 2312 
L 710 794 
C 710 153 1139 -32 1824 -32 
C 1978 -32 2451 -32 2726 496 
L 2733 496 
L 2733 0 
L 3840 0 
L 3840 292 
C 3443 292 3398 292 3398 540 
L 3398 2859 
L 2259 2859 
z
" id="CMBX12-75" transform="scale(0.015625)"/>
      <path d="M 1389 4416 
L 282 4416 
L 282 4117 
C 678 4117 723 4117 723 3866 
L 723 260 
L 282 260 
L 282 -13 
C 429 0 883 0 1056 0 
C 1229 0 1683 0 1830 -13 
L 1830 260 
L 1389 260 
L 1389 4416 
z
" id="CMBX12-6c" transform="scale(0.015625)"/>
      <path d="M 2944 1898 
C 2944 2484 2477 2879 1574 2879 
C 1216 2879 461 2879 461 2334 
C 461 2061 666 1945 838 1945 
C 1030 1945 1216 2079 1216 2323 
C 1216 2445 1171 2559 1062 2630 
C 1274 2688 1427 2688 1549 2688 
C 1984 2688 2246 2445 2246 1919 
L 2246 1663 
C 1235 1663 218 1382 218 676 
C 218 95 960 -32 1402 -32 
C 1894 -32 2208 233 2336 510 
C 2336 274 2336 0 2982 0 
L 3309 0 
C 3443 0 3494 0 3494 145 
C 3494 273 3437 273 3347 273 
C 2944 273 2944 374 2944 522 
L 2944 1898 
z
M 2246 882 
C 2246 291 1709 178 1504 178 
C 1190 178 928 390 928 686 
C 928 1273 1619 1472 2246 1472 
L 2246 882 
z
" id="CMBX12-61" transform="scale(0.015625)"/>
      <path d="M 1331 1411 
C 1331 1619 1376 2624 2125 2624 
C 2035 2555 1990 2448 1990 2336 
C 1990 2079 2202 1972 2362 1972 
C 2522 1972 2733 2079 2733 2337 
C 2733 2658 2400 2834 2093 2834 
C 1587 2834 1370 2401 1280 2137 
L 1274 2137 
L 1274 2816 
L 224 2816 
L 224 2517 
C 621 2517 666 2517 666 2270 
L 666 260 
L 224 260 
L 224 -13 
C 371 0 851 0 1030 0 
C 1216 0 1734 0 1888 -13 
L 1888 260 
L 1331 260 
L 1331 1411 
z
" id="CMBX12-72" transform="scale(0.015625)"/>
      <path d="M 2893 1408 
C 3040 1408 3078 1408 3078 1567 
C 3078 1758 3034 2233 2739 2532 
C 2470 2798 2112 2880 1741 2880 
C 742 2880 198 2233 198 1434 
C 198 545 858 -32 1824 -32 
C 2790 -32 3078 640 3078 748 
C 3078 843 2982 843 2944 843 
C 2842 843 2835 824 2797 742 
C 2630 330 2208 197 1901 197 
C 973 197 966 1053 966 1408 
L 2893 1408 
z
M 966 1593 
C 979 1852 986 2100 1120 2328 
C 1242 2531 1466 2670 1741 2670 
C 2426 2670 2483 1909 2490 1593 
L 966 1593 
z
" id="CMBX12-65" transform="scale(0.015625)"/>
      <path d="M 3392 1395 
C 3392 2252 2803 2880 1798 2880 
C 755 2880 198 2220 198 1395 
C 198 565 787 -32 1792 -32 
C 2835 -32 3392 596 3392 1395 
z
M 1798 197 
C 966 197 966 939 966 1459 
C 966 1757 966 2074 1088 2303 
C 1229 2556 1517 2670 1792 2670 
C 2157 2670 2387 2499 2496 2322 
C 2624 2093 2624 1763 2624 1459 
C 2624 932 2624 197 1798 197 
z
" id="CMBX12-6f" transform="scale(0.015625)"/>
      <path d="M 1350 2560 
L 2272 2560 
L 2272 2833 
L 1350 2833 
L 1350 4032 
L 1082 4032 
C 1075 3405 768 2776 134 2776 
L 134 2560 
L 653 2560 
L 653 789 
C 653 114 1178 -32 1638 -32 
C 2112 -32 2394 325 2394 795 
L 2394 1133 
L 2125 1133 
L 2125 802 
C 2125 381 1933 197 1734 197 
C 1350 197 1350 624 1350 770 
L 1350 2560 
z
" id="CMBX12-74" transform="scale(0.015625)"/>
      <path d="M 1805 -955 
L 1363 -955 
L 1363 268 
C 1523 128 1805 -32 2189 -32 
C 3066 -32 3750 493 3750 1417 
C 3750 2290 3155 2853 2291 2853 
C 1914 2853 1587 2738 1331 2554 
L 1331 2859 
L 224 2859 
L 224 2560 
C 621 2560 666 2560 666 2310 
L 666 -955 
L 224 -955 
L 224 -1228 
C 371 -1216 832 -1216 1011 -1216 
C 1190 -1216 1658 -1216 1805 -1228 
L 1805 -955 
z
M 1363 2246 
C 1600 2530 1939 2624 2189 2624 
C 2605 2624 2982 2251 2982 1417 
C 2982 500 2522 178 2112 178 
C 1837 178 1562 319 1363 620 
L 1363 2246 
z
" id="CMBX12-70" transform="scale(0.015625)"/>
      <path d="M 1997 1088 
L 1997 1673 
L 77 1673 
L 77 1088 
L 1997 1088 
z
" id="CMBX12-2d" transform="scale(0.015625)"/>
      <path d="M 2221 4416 
L 2221 4117 
C 2618 4117 2662 4117 2662 3867 
L 2662 2575 
C 2522 2696 2240 2880 1798 2880 
C 890 2880 243 2318 243 1424 
C 243 510 877 -32 1728 -32 
C 2080 -32 2381 94 2630 311 
L 2630 0 
L 3770 0 
L 3770 292 
C 3373 292 3328 292 3328 540 
L 3328 4416 
L 2221 4416 
z
M 2630 661 
C 2362 262 2035 178 1805 178 
C 1011 178 1011 989 1011 1411 
C 1011 1712 1011 2032 1152 2274 
C 1350 2632 1728 2670 1875 2670 
C 2138 2670 2419 2556 2630 2276 
L 2630 661 
z
" id="CMBX12-64" transform="scale(0.015625)"/>
      <path d="M 1651 3958 
C 1651 4212 1446 4416 1190 4416 
C 934 4416 730 4212 730 3958 
C 730 3704 934 3500 1190 3500 
C 1446 3500 1651 3704 1651 3958 
z
M 499 2859 
L 499 2560 
C 608 2560 749 2560 845 2547 
C 986 2522 986 2439 986 2306 
L 986 -262 
C 986 -548 909 -1038 518 -1038 
C 397 -1038 314 -1012 256 -1000 
C 288 -981 416 -879 416 -688 
C 416 -459 250 -313 38 -313 
C -179 -313 -339 -466 -339 -688 
C -339 -1057 58 -1248 518 -1248 
C 1056 -1248 1651 -919 1651 -268 
L 1651 2859 
L 499 2859 
z
" id="CMBX12-6a" transform="scale(0.015625)"/>
      <path d="M 2995 753 
C 2995 829 2925 829 2861 829 
C 2758 829 2752 823 2720 747 
C 2675 625 2502 197 1914 197 
C 1011 197 1011 1166 1011 1453 
C 1011 1829 1018 2664 1856 2664 
C 1901 2664 2278 2664 2278 2632 
C 2278 2624 2272 2618 2259 2612 
C 2240 2593 2157 2496 2157 2334 
C 2157 2064 2374 1954 2534 1954 
C 2669 1954 2912 2039 2912 2346 
C 2912 2880 2176 2880 1830 2880 
C 691 2880 243 2145 243 1414 
C 243 552 851 -32 1792 -32 
C 2797 -32 2995 708 2995 753 
z
" id="CMBX12-63" transform="scale(0.015625)"/>
      <path d="M 3168 2421 
C 3206 2509 3232 2560 3642 2560 
L 3642 2827 
C 3424 2827 3398 2827 3136 2827 
C 2963 2827 2950 2827 2586 2827 
L 2586 2560 
C 2592 2560 2893 2560 2893 2478 
C 2893 2459 2874 2421 2867 2402 
L 2118 805 
L 1299 2560 
L 1651 2560 
L 1651 2833 
C 1498 2827 1062 2827 883 2827 
C 698 2827 320 2827 154 2833 
L 154 2560 
L 563 2560 
L 1747 20 
C 1715 -56 1626 -240 1594 -316 
C 1459 -601 1254 -1038 806 -1038 
C 781 -1038 704 -1038 634 -1000 
C 646 -993 838 -917 838 -676 
C 838 -468 685 -335 493 -335 
C 294 -335 141 -469 141 -684 
C 141 -982 422 -1248 806 -1248 
C 1331 -1248 1677 -779 1805 -500 
L 3168 2421 
z
" id="CMBX12-79" transform="scale(0.015625)"/>
     </defs>
     <use transform="scale(0.996264)" xlink:href="#CMBX12-41"/>
     <use transform="translate(84.636395 0)scale(0.996264)" xlink:href="#CMBX12-6e"/>
     <use transform="translate(146.902895 0)scale(0.996264)" xlink:href="#CMBX12-67"/>
     <use transform="translate(202.942746 0)scale(0.996264)" xlink:href="#CMBX12-75"/>
     <use transform="translate(265.209246 0)scale(0.996264)" xlink:href="#CMBX12-6c"/>
     <use transform="translate(296.342497 0)scale(0.996264)" xlink:href="#CMBX12-61"/>
     <use transform="translate(350.825685 0)scale(0.996264)" xlink:href="#CMBX12-72"/>
     <use transform="translate(433.963093 0)scale(0.996264)" xlink:href="#CMBX12-65"/>
     <use transform="translate(485.10236 0)scale(0.996264)" xlink:href="#CMBX12-72"/>
     <use transform="translate(530.879867 0)scale(0.996264)" xlink:href="#CMBX12-72"/>
     <use transform="translate(576.657374 0)scale(0.996264)" xlink:href="#CMBX12-6f"/>
     <use transform="translate(632.697225 0)scale(0.996264)" xlink:href="#CMBX12-72"/>
     <use transform="translate(715.834633 0)scale(0.996264)" xlink:href="#CMBX12-74"/>
     <use transform="translate(759.421183 0)scale(0.996264)" xlink:href="#CMBX12-6f"/>
     <use transform="translate(852.820934 0)scale(0.996264)" xlink:href="#CMBX12-70"/>
     <use transform="translate(915.087435 0)scale(0.996264)" xlink:href="#CMBX12-72"/>
     <use transform="translate(960.864942 0)scale(0.996264)" xlink:href="#CMBX12-65"/>
     <use transform="translate(1012.004209 0)scale(0.996264)" xlink:href="#CMBX12-6f"/>
     <use transform="translate(1068.04406 0)scale(0.996264)" xlink:href="#CMBX12-70"/>
     <use transform="translate(1130.31056 0)scale(0.996264)" xlink:href="#CMBX12-2d"/>
     <use transform="translate(1167.670461 0)scale(0.996264)" xlink:href="#CMBX12-70"/>
     <use transform="translate(1229.936961 0)scale(0.996264)" xlink:href="#CMBX12-6c"/>
     <use transform="translate(1261.070212 0)scale(0.996264)" xlink:href="#CMBX12-61"/>
     <use transform="translate(1315.5534 0)scale(0.996264)" xlink:href="#CMBX12-6e"/>
     <use transform="translate(1377.8199 0)scale(0.996264)" xlink:href="#CMBX12-6e"/>
     <use transform="translate(1440.086401 0)scale(0.996264)" xlink:href="#CMBX12-65"/>
     <use transform="translate(1491.225668 0)scale(0.996264)" xlink:href="#CMBX12-64"/>
     <use transform="translate(1590.852069 0)scale(0.996264)" xlink:href="#CMBX12-74"/>
     <use transform="translate(1634.438619 0)scale(0.996264)" xlink:href="#CMBX12-72"/>
     <use transform="translate(1680.216127 0)scale(0.996264)" xlink:href="#CMBX12-61"/>
     <use transform="translate(1740.925965 0)scale(0.996264)" xlink:href="#CMBX12-6a"/>
     <use transform="translate(1775.17254 0)scale(0.996264)" xlink:href="#CMBX12-65"/>
     <use transform="translate(1826.311807 0)scale(0.996264)" xlink:href="#CMBX12-63"/>
     <use transform="translate(1876.125008 0)scale(0.996264)" xlink:href="#CMBX12-74"/>
     <use transform="translate(1919.711558 0)scale(0.996264)" xlink:href="#CMBX12-6f"/>
     <use transform="translate(1975.751409 0)scale(0.996264)" xlink:href="#CMBX12-72"/>
     <use transform="translate(2021.528916 0)scale(0.996264)" xlink:href="#CMBX12-79"/>
    </g>
   </g>
   <g id="legend_1">
    <g id="patch_7">
     <path d="M 525.687614 57.376536 
L 604.069316 57.376536 
Q 606.069316 57.376536 606.069316 55.376536 
L 606.069316 28.50218 
Q 606.069316 26.50218 604.069316 26.50218 
L 525.687614 26.50218 
Q 523.687614 26.50218 523.687614 28.50218 
L 523.687614 55.376536 
Q 523.687614 57.376536 525.687614 57.376536 
z
" style="fill:#ffffff;opacity:0.8;stroke:#cccccc;stroke-linejoin:miter;"/>
    </g>
    <g id="line2d_27">
     <path d="M 527.687614 34.00218 
L 547.687614 34.00218 
" style="fill:none;stroke:#1f77b4;stroke-linecap:square;stroke-width:1.5;"/>
    </g>
    <g id="line2d_28"/>
    <g id="text_16">
     <!-- Assisted -->
     <g transform="translate(555.687614 37.50218)scale(0.1 -0.1)">
      <defs>
       <path d="M 2323 4378 
C 2291 4461 2278 4480 2214 4480 
C 2150 4480 2138 4461 2106 4378 
L 749 566 
C 627 223 371 153 147 153 
L 147 -13 
C 262 0 518 0 640 0 
C 800 0 1056 0 1210 -13 
L 1210 153 
C 909 153 864 361 864 439 
C 864 497 877 530 890 569 
L 1229 1536 
L 2906 1536 
L 3290 442 
C 3322 365 3322 352 3322 327 
C 3322 153 3046 153 2925 153 
L 2925 0 
C 3110 0 3443 0 3642 0 
C 3808 0 4128 0 4282 -13 
L 4282 153 
C 3942 153 3827 153 3744 387 
L 2323 4378 
z
M 2067 3893 
L 2848 1702 
L 1286 1702 
L 2067 3893 
z
" id="CMR17-41" transform="scale(0.015625)"/>
      </defs>
      <use transform="scale(0.996264)" xlink:href="#CMR17-41"/>
      <use transform="translate(69.07243 0)scale(0.996264)" xlink:href="#CMR17-73"/>
      <use transform="translate(104.873767 0)scale(0.996264)" xlink:href="#CMR17-73"/>
      <use transform="translate(140.675105 0)scale(0.996264)" xlink:href="#CMR17-69"/>
      <use transform="translate(165.546164 0)scale(0.996264)" xlink:href="#CMR17-73"/>
      <use transform="translate(201.347501 0)scale(0.996264)" xlink:href="#CMR17-74"/>
      <use transform="translate(236.628269 0)scale(0.996264)" xlink:href="#CMR17-65"/>
      <use transform="translate(277.113929 0)scale(0.996264)" xlink:href="#CMR17-64"/>
     </g>
    </g>
    <g id="line2d_29">
     <path d="M 527.687614 47.939358 
L 547.687614 47.939358 
" style="fill:none;stroke:#ff7f0e;stroke-linecap:square;stroke-width:1.5;"/>
    </g>
    <g id="line2d_30"/>
    <g id="text_17">
     <!-- Unassisted -->
     <g transform="translate(555.687614 51.439358)scale(0.1 -0.1)">
      <defs>
       <path d="M 3456 1433 
C 3456 579 2899 38 2291 38 
C 1965 38 1670 210 1491 477 
C 1286 783 1261 1178 1261 1401 
L 1261 3874 
C 1261 4160 1331 4160 1773 4160 
L 1773 4320 
C 1587 4320 1248 4320 1050 4320 
C 851 4320 512 4320 326 4320 
L 326 4160 
C 768 4160 838 4160 838 3874 
L 838 1433 
C 838 516 1536 -128 2278 -128 
C 3110 -128 3590 719 3590 1344 
L 3590 3766 
C 3590 4122 3917 4160 4102 4160 
L 4102 4326 
C 3955 4320 3686 4320 3526 4320 
C 3366 4320 3091 4320 2944 4326 
L 2944 4160 
C 3456 4160 3456 3861 3456 3702 
L 3456 1433 
z
" id="CMR17-55" transform="scale(0.015625)"/>
      </defs>
      <use transform="scale(0.996264)" xlink:href="#CMR17-55"/>
      <use transform="translate(69.07243 0)scale(0.996264)" xlink:href="#CMR17-6e"/>
      <use transform="translate(119.9678 0)scale(0.996264)" xlink:href="#CMR17-61"/>
      <use transform="translate(165.658277 0)scale(0.996264)" xlink:href="#CMR17-73"/>
      <use transform="translate(201.459614 0)scale(0.996264)" xlink:href="#CMR17-73"/>
      <use transform="translate(237.260952 0)scale(0.996264)" xlink:href="#CMR17-69"/>
      <use transform="translate(262.13201 0)scale(0.996264)" xlink:href="#CMR17-73"/>
      <use transform="translate(297.933348 0)scale(0.996264)" xlink:href="#CMR17-74"/>
      <use transform="translate(333.214116 0)scale(0.996264)" xlink:href="#CMR17-65"/>
      <use transform="translate(373.699776 0)scale(0.996264)" xlink:href="#CMR17-64"/>
     </g>
    </g>
   </g>
  </g>
 </g>
 <defs>
  <clipPath id="p9a65e4df11">
   <rect height="166.32" width="558" x="53.069316" y="21.50218"/>
  </clipPath>
 </defs>
</svg>
